<?xml version="1.0" encoding="UTF-8" standalone="no"?>
<!DOCTYPE svg PUBLIC "-//W3C//DTD SVG 1.1//EN" "http://www.w3.org/Graphics/SVG/1.1/DTD/svg11.dtd">
<svg xmlns="http://www.w3.org/2000/svg" xmlns:xlink="http://www.w3.org/1999/xlink" version="1.1">
<metadata/>
<defs>
<font id="worldlylightlight" horiz-adv-x="510">
<font-face units-per-em="1000" ascent="750" descent="-250"/>
<missing-glyph horiz-adv-x="201"/>
<glyph horiz-adv-x="0"/>
<glyph horiz-adv-x="0"/>
<glyph unicode=" " horiz-adv-x="201"/>
<glyph unicode="	" horiz-adv-x="201"/>
<glyph unicode=" " horiz-adv-x="201"/>
<glyph unicode="!" horiz-adv-x="193" d="M68 201v516q0 5 12.5 9.5t28.5 4.5q8 0 13 -7.5t5 -18.5v-492q0 -11 -5 -18.5t-13 -7.5q-16 0 -28.5 4.5t-12.5 9.5zM68 15v74q0 5 12.5 9.5t28.5 4.5q9 0 13.5 -8t4.5 -18v-49q0 -11 -4.5 -18.5t-13.5 -7.5q-16 0 -28.5 4t-12.5 9z"/>
<glyph unicode="&quot;" horiz-adv-x="273" d="M107 730v-186q0 -11 -3.5 -18.5t-14.5 -7.5q-16 0 -28.5 4.5t-12.5 9.5v210q0 5 12.5 9.5t28.5 4.5q11 0 14.5 -7.5t3.5 -18.5zM225 730v-186q0 -11 -3.5 -18.5t-14.5 -7.5q-16 0 -28.5 4.5t-12.5 9.5v210q0 5 12.5 9.5t28.5 4.5q11 0 14.5 -7.5t3.5 -18.5z"/>
<glyph unicode="#" horiz-adv-x="614" d="M514 220h-84l-38 -214q-2 -12 -6.5 -15t-9.5 -3q-3 0 -8.5 0.5t-10 2.5t-7.5 4.5t-2 7.5l39 217h-179l-38 -214q-2 -12 -6.5 -15t-9.5 -3q-3 0 -8.5 0.5t-10 2.5t-7.5 4.5t-2 7.5l39 217h-85q-10 0 -10 11q0 8 1.5 20t9.5 12h94l36 210h-88q-9 0 -9 11q0 8 1.5 20t9.5 12 h97l36 199q1 5 5.5 7t10 2.5t10.5 0t8 -0.5q10 -3 7 -18l-33 -190h178l36 199q1 5 5.5 7t10 2.5t10.5 0t8 -0.5q10 -3 7 -18l-33 -190h69q11 0 11 -11q0 -9 -2 -20.5t-10 -11.5h-80l-35 -210h74q11 0 11 -11q0 -9 -2 -20.5t-10 -11.5zM254 473l-35 -210h178l36 210h-179z "/>
<glyph unicode="$" horiz-adv-x="487" d="M285 782v-50q15 -1 34 -2.5t38 -3.5t37 -5.5t30 -7.5t15 -8t1 -13q-2 -11 -6 -20t-16 -7q-34 7 -66 11.5t-67 4.5q-34 0 -63.5 -6t-51.5 -18.5t-34.5 -32t-12.5 -47.5q0 -40 24.5 -70.5t61.5 -58.5t80.5 -55t80.5 -60t61.5 -75t24.5 -98q0 -43 -15 -73.5t-40.5 -51 t-59 -31.5t-70.5 -14v-59q0 -9 -2.5 -16.5t-13.5 -7.5q-14 0 -25.5 4.5t-11.5 9.5v67q-21 1 -44.5 3t-45 5t-40 7t-30.5 8q-11 4 -13 8t-2 12q2 13 5.5 24t14.5 8q26 -7 69 -16t93 -9q28 0 58.5 5t56 18t41.5 36.5t16 61.5q0 46 -24.5 80t-61.5 63.5t-80.5 56.5t-80.5 58 t-61.5 69t-24.5 89q0 36 13 63t35.5 46t53 30t66.5 15v63q0 5 11 9.5t26 4.5q11 0 13.5 -7.5t2.5 -16.5z"/>
<glyph unicode="%" horiz-adv-x="894" d="M575 236q0 64 32 97.5t98 33.5h7q39 0 64.5 -11t40 -32t20 -51.5t5.5 -69.5v-84q0 -130 -130 -130h-7q-39 0 -64 10.5t-40 31t-20.5 51t-5.5 70.5v84zM54 611q0 64 32 97.5t98 33.5h8q39 0 64 -11t40 -32t20.5 -51.5t5.5 -70.5v-84q0 -63 -32 -96.5t-98 -33.5h-8 q-39 0 -64 10.5t-40 31.5t-20.5 51.5t-5.5 70.5v84zM676 749q4 -2 7 -7t1 -11t-6 -13t-7 -13l-402 -733q-2 -4 -8 -5t-17 4q-8 4 -14.5 14.5t-1.5 18.5l412 751q3 5 15 2t21 -8zM270 514v68q0 27 -2.5 48t-11 36t-24.5 23t-42 8h-4q-26 0 -42 -8t-24.5 -22.5t-11 -35 t-2.5 -46.5v-65q0 -25 3 -46t11.5 -36t24 -23t41.5 -8h4q25 0 41 7.5t24.5 21.5t11.5 34t3 44zM791 140v67q0 27 -3 48.5t-11.5 36.5t-24.5 23t-42 8h-3q-26 0 -42 -8t-24.5 -22.5t-11 -35.5t-2.5 -47v-64q0 -25 3 -46t11.5 -36t24 -23.5t41.5 -8.5h3q25 0 41 7.5t25 22 t12 34.5t3 44z"/>
<glyph unicode="&amp;" horiz-adv-x="699" d="M653 341h-112v-224q0 -32 14 -54.5t50 -22.5q13 0 24 3.5t31 8.5q6 2 11 -9t7 -22q1 -2 1 -5q-2 -7 -7 -11q-22 -11 -40.5 -14t-41.5 -3q-52 0 -78 34t-26 122v197h-181q-38 0 -72 -4.5t-60 -19t-41.5 -41.5t-15.5 -72v-29q0 -27 8.5 -46.5t23 -33.5t34 -23.5t40.5 -15.5 q33 -10 66.5 -12.5t71.5 -1.5q32 1 56 -6.5t39 -5.5q12 0 12 -13q0 -8 -15.5 -13.5t-37 -9t-45 -5.5t-38.5 -2q-13 0 -24.5 0.5t-22.5 1.5q-47 3 -88.5 14.5t-72.5 34.5t-49 59t-18 88v13q0 46 11.5 76t30 49t42.5 30t48 18q-20 6 -41 16.5t-38.5 29.5t-28.5 46.5t-11 67.5 v8q0 56 17.5 93.5t51 59.5t81.5 31t109 9q5 0 22.5 -1t37.5 -3t36.5 -6.5t19.5 -11.5q1 -13 -2.5 -14t-3.5 -3q-21 0 -43.5 -7.5t-47.5 -6.5q-32 1 -59 0t-50 -6q-57 -11 -83 -41.5t-26 -90.5q0 -47 16 -78q20 -40 67 -54.5t107 -14.5h167v152q0 5 13 8t27 3q13 0 14 -9 t1 -19v-135h116q15 0 15 -13q0 -12 -4 -26t-15 -14z"/>
<glyph unicode="'" horiz-adv-x="145" d="M107 729v-186q0 -11 -3 -18.5t-15 -7.5q-16 0 -28.5 4t-12.5 10v210q0 5 12.5 9.5t28.5 4.5q12 0 15 -8t3 -18z"/>
<glyph unicode="(" horiz-adv-x="272" d="M124 323q0 -62 8 -124.5t23 -120.5t36 -109.5t48 -90.5q4 -5 2.5 -11t-5 -11t-8.5 -7.5t-8 0.5q-79 94 -117.5 216.5t-38.5 257.5t38.5 257.5t117.5 216.5q3 3 8 0.5t8.5 -7.5t5 -11t-2.5 -11q-27 -39 -48 -90.5t-36 -109.5t-23 -121t-8 -124z"/>
<glyph unicode=")" horiz-adv-x="272" d="M185 323q0 61 -8 124t-23 121t-36.5 109.5t-48.5 90.5q-3 5 -2 11t5 11t8.5 7.5t7.5 -0.5q80 -94 118 -216.5t38 -257.5t-38 -257.5t-118 -216.5q-3 -3 -7.5 -0.5t-8.5 7.5t-5 11t2 11q27 39 48.5 90.5t36.5 109.5t23 120.5t8 124.5z"/>
<glyph unicode="*" horiz-adv-x="533" d="M329 440l-62 96q-10 -15 -21.5 -34.5t-22.5 -37t-20.5 -29t-13.5 -11.5l-6 2t-13 5.5t-12.5 7.5t-5.5 9q0 4 2.5 7t6.5 8l78 93l-80 23q-8 2 -17 4.5t-17 5.5t-13.5 6.5t-5.5 7.5q0 1 1.5 7t3.5 12.5t5.5 11.5t7.5 5q5 0 9 -2t9 -4q26 -14 54 -24t55 -20l-6 80 q-1 11 -2 20.5t-1 19.5q-1 12 3.5 14.5t16.5 2.5q18 0 23.5 -1.5t5.5 -15.5q0 -10 -0.5 -19.5t-1.5 -20.5l-7 -80l109 44q5 2 9 4t9 2q4 0 8 -5t6 -11.5t3.5 -12.5t1.5 -7q0 -4 -6 -7.5t-14 -6.5t-17.5 -5.5t-16.5 -4.5l-79 -23l78 -93q4 -5 6.5 -8t2.5 -7q0 -5 -5.5 -9 t-12.5 -7.5t-13 -5.5l-6 -2q-6 0 -9 5t-7 11z"/>
<glyph unicode="+" horiz-adv-x="616" d="M280 47v195h-198q-15 0 -15 13q0 12 3.5 25.5t15.5 13.5h194v198q0 14 13 14t26 -3.5t13 -14.5v-194h199q14 0 14 -13q0 -12 -3.5 -25.5t-14.5 -13.5h-195v-199q0 -15 -13 -15q-12 0 -25.5 3.5t-13.5 15.5z"/>
<glyph unicode="," horiz-adv-x="181" d="M108 38l-41 -123q-5 -14 -13 -17t-25 -3q-6 0 -8.5 4t0.5 17l30 133q2 11 14 14t30 3q14 0 16 -7t-3 -21z"/>
<glyph unicode="-" horiz-adv-x="345" d="M280 270h-215q-15 0 -15 13q0 12 3 25.5t15 13.5h215q15 0 15 -13q0 -12 -3 -25.5t-15 -13.5z"/>
<glyph unicode="." horiz-adv-x="156" d="M48 2v73q0 5 12.5 9t28.5 4q11 0 14.5 -7.5t3.5 -18.5v-47q0 -11 -3.5 -19t-14.5 -8q-16 0 -28.5 4.5t-12.5 9.5z"/>
<glyph unicode="/" horiz-adv-x="440" d="M365 775q11 -4 20.5 -9.5t7.5 -11.5l-305 -805q-3 -9 -9 -14t-16 -1q-11 3 -21 8.5t-7 13.5l304 808q7 18 26 11z"/>
<glyph unicode="0" horiz-adv-x="590" d="M304 -12h-19q-62 0 -105 13.5t-70 44t-39.5 79t-12.5 118.5v233q0 70 12.5 118.5t39.5 79t70 44.5t105 14h19q61 0 104.5 -14t71 -44.5t40 -79t12.5 -118.5v-233q0 -70 -12.5 -118.5t-40 -79t-71 -44t-104.5 -13.5zM117 477v-234q0 -57 8.5 -96t28 -63t52 -34.5 t79.5 -10.5h19q47 0 79.5 10.5t52 34.5t28 63t8.5 96v234q0 57 -8.5 96t-28 63t-52 34.5t-79.5 10.5h-19q-47 0 -79.5 -10.5t-52 -34.5t-28 -63t-8.5 -96z"/>
<glyph unicode="1" horiz-adv-x="403" d="M271 723v-708q0 -11 -3.5 -19t-13.5 -8q-16 0 -28.5 4.5t-12.5 9.5v652l-76 -78q-11 -11 -22 -8.5t-22 13.5q-13 13 -1 23l122 118q5 5 16.5 7.5t24.5 2.5q9 0 12.5 -3t3.5 -6z"/>
<glyph unicode="2" horiz-adv-x="504" d="M460 0h-416q-11 0 -18.5 5t-7.5 14q0 10 6.5 25.5t14.5 26.5q76 80 132.5 139.5t96.5 103.5t65.5 76.5t40 58t20 47.5t5.5 46q0 77 -44.5 107t-126.5 30q-52 0 -90.5 -8.5t-76.5 -19.5q-8 -2 -12.5 6.5t-9.5 24.5q-2 8 3 13t23 10q36 11 80 19t96 8q48 0 88 -9 t68.5 -30.5t44.5 -58.5t16 -92q0 -28 -5.5 -53.5t-20 -53t-40.5 -61.5t-66 -78.5t-96 -104t-132 -138.5h351q23 0 23 -18q0 -10 -3.5 -22.5t-8.5 -12.5z"/>
<glyph unicode="3" horiz-adv-x="502" d="M44 55q10 -1 27 -3.5t37.5 -5t43 -4.5t44.5 -2q32 0 65.5 5.5t60.5 21.5t44.5 45t17.5 76v20q0 48 -14.5 77.5t-39.5 45.5t-58.5 21.5t-71.5 5.5h-28q-6 0 -12 11t-6 25q0 9 5.5 12t14.5 3h12q39 0 73 6.5t59 22t39.5 40.5t14.5 61v8q0 76 -41.5 105.5t-131.5 29.5 q-23 0 -52 -2.5t-83 -10.5q-4 0 -9 11.5t-5 24.5q0 7 16.5 12t41 8.5t52 5t49.5 1.5q54 0 95 -8.5t69.5 -29t43 -56t14.5 -89.5v-12q0 -39 -11.5 -65t-30 -43.5t-40.5 -27t-43 -14.5q25 -3 49.5 -12t44 -29t32 -52.5t12.5 -81.5v-29q0 -57 -19.5 -94.5t-52 -60t-75.5 -31.5 t-90 -9q-24 0 -55 2t-58.5 5.5t-46 8t-18.5 9.5q0 3 0.5 10.5t2 14.5t4.5 12.5t8 4.5z"/>
<glyph unicode="4" horiz-adv-x="548" d="M371 161h-336q-11 0 -18 3.5t-7 14.5q0 26 8 37l357 500q8 10 18.5 13t19.5 3t12.5 -7.5t3.5 -17.5v-493h78q8 0 15 -3.5t7 -12.5q0 -14 -4 -25.5t-8 -11.5h-88v-147q0 -11 -4 -18.5t-14 -7.5q-16 0 -28 4.5t-12 9.5v159zM371 214v419l-295 -419h295z"/>
<glyph unicode="5" horiz-adv-x="560" d="M449 680h-247l-40 -219h105q119 0 177 -54.5t58 -177.5v-10q0 -66 -20.5 -110.5t-56 -71t-83 -38t-100.5 -11.5q-42 0 -91 5t-97 17q-8 2 -13.5 7t-3.5 12q2 13 6 24.5t10 11.5q40 -11 89 -18t100 -7q43 0 79.5 9.5t63.5 31t42.5 56t15.5 85.5q0 97 -43.5 142t-146.5 45 h-132q-12 0 -18 4.5t-3 22.5l47 278q2 13 13 16t31 3h263q6 0 11 -2.5t5 -11.5q0 -11 -4.5 -25t-16.5 -14z"/>
<glyph unicode="6" horiz-adv-x="569" d="M397 680q-31 -18 -65.5 -40.5t-69 -54.5t-66 -75.5t-56.5 -104.5q32 32 71.5 41.5t83.5 9.5h9q112 0 164.5 -52.5t52.5 -174.5v-13q0 -64 -14 -107.5t-42.5 -70.5t-72 -38.5t-103.5 -11.5h-9q-60 0 -103.5 11.5t-72 38.5t-42.5 70.5t-14 107.5v10q0 81 22.5 155t65 138 t103 116.5t137.5 90.5q8 4 14 4.5t10 -4.5q8 -11 9.5 -24.5t-12.5 -21.5zM289 405h-9q-60 0 -93 -14t-49 -38.5t-20.5 -57t-8.5 -69.5l-1 -10q0 -39 6 -71.5t24.5 -56t52 -36t89.5 -12.5h9q55 0 89 12.5t53 36t25 56t6 71.5v13q0 39 -6 71.5t-25 56t-53 36t-89 12.5z"/>
<glyph unicode="7" horiz-adv-x="504" d="M93 8l332 659h-360q-5 0 -9 11.5t-4 24.5q0 9 7 12.5t15 3.5h414q4 0 6.5 -5t2.5 -12q0 -8 -1 -16.5t-5 -14.5l-338 -667q-5 -11 -17.5 -13.5t-29.5 -2.5q-8 0 -13.5 5.5t0.5 14.5z"/>
<glyph unicode="8" horiz-adv-x="602" d="M88 546q0 98 47 142t152 44h28q194 0 198 -167q1 -31 -3 -52.5t-12 -41.5q-12 -32 -35 -49t-48 -28q24 -8 47 -18.5t41 -30.5t29.5 -53t11.5 -87q0 -63 -14.5 -105t-43.5 -66.5t-71.5 -34.5t-99.5 -10h-28q-56 0 -99 10t-72 34t-43.5 65t-14.5 103q0 55 11 89t29 54 t41.5 31t47.5 19q-20 8 -37.5 19.5t-31.5 28.5t-22 42.5t-8 61.5zM315 366h-28q-88 0 -129 -37t-41 -124q0 -38 6.5 -68.5t25 -51.5t52 -32.5t86.5 -11.5h28q52 0 85 11t52 32t25.5 50.5t6.5 66.5q0 90 -40.5 127.5t-128.5 37.5zM315 679h-28q-46 0 -74 -8.5t-43 -25 t-20 -40.5t-5 -54q0 -25 4.5 -49t19.5 -42.5t42.5 -29.5t74.5 -11h29q46 0 74 11t43 29.5t20 42t5 48.5q0 31 -5 55t-20 40.5t-43 25t-74 8.5z"/>
<glyph unicode="9" horiz-adv-x="564" d="M97 35q68 6 120.5 20.5t101.5 51.5q51 38 79.5 94.5t45.5 137.5q-14 -24 -34 -39t-42.5 -24t-47 -12t-48.5 -3h-9q-112 0 -164 53.5t-52 175.5v16q0 63 14 106.5t42.5 70.5t72 39t102.5 12h9q59 0 102.5 -12t72 -39t42.5 -70.5t14 -106.5v-12q0 -101 -16.5 -176.5 t-46 -130.5t-68.5 -91.5t-84.5 -59t-94.5 -33.5t-97 -14q-3 -1 -10 0.5t-9 6.5q-4 14 -3 25.5t8 13.5zM278 312h9q60 0 93 15.5t49 41t20.5 58t7.5 67.5l1 12q3 39 -2.5 71t-24.5 55.5t-54 36t-90 12.5h-9q-55 0 -88.5 -12.5t-52 -36t-24.5 -55.5t-6 -71v-16q0 -40 6 -72.5 t24.5 -56t52 -36.5t88.5 -13z"/>
<glyph unicode=":" horiz-adv-x="253" d="M98 12v74q0 5 12.5 9.5t28.5 4.5q11 0 14.5 -7.5t3.5 -18.5v-49q0 -11 -3.5 -18.5t-14.5 -7.5q-16 0 -28.5 4t-12.5 9zM98 454v74q0 5 12.5 9t28.5 4q11 0 14.5 -7.5t3.5 -18.5v-49q0 -11 -3.5 -18.5t-14.5 -7.5q-16 0 -28.5 4.5t-12.5 9.5z"/>
<glyph unicode=";" horiz-adv-x="280" d="M109 454v74q0 5 12.5 9t28.5 4q14 0 16 -8.5t2 -19.5v-45q0 -11 -2 -19.5t-16 -8.5q-16 0 -28.5 4.5t-12.5 9.5zM173 60l-59 -128q-7 -15 -14 -18t-21 -3q-5 0 -6.5 4t1.5 16l34 142q2 8 15 11t33 3q11 0 17 -6.5t0 -20.5z"/>
<glyph unicode="&lt;" horiz-adv-x="529" d="M466 481v-52l-373 -164l373 -165v-51l-459 200v31z"/>
<glyph unicode="=" horiz-adv-x="615" d="M549 146h-484v50h484v-50zM549 350h-483v49h483v-49z"/>
<glyph unicode="&gt;" horiz-adv-x="530" d="M63 429v52l458 -201v-31l-458 -200v51l373 165z"/>
<glyph unicode="?" horiz-adv-x="509" d="M188 168v59q0 33 13 64t32.5 60.5t42 58t42 55.5t32.5 53t13 52q0 37 -11 60.5t-31 36.5t-48.5 18t-64.5 5q-18 0 -33 -1t-28.5 -2.5t-27.5 -4t-31 -5.5q-6 0 -11 10.5t-8 23.5q-3 15 22 19q23 5 51.5 8.5t65.5 3.5q46 0 85.5 -7t68 -26t45 -52t16.5 -84q0 -32 -13 -61.5 t-33 -57.5t-43 -55.5t-43 -55.5t-33 -57t-13 -59v-49q0 -9 -2 -16.5t-13 -7.5q-16 -1 -29 4t-13 10zM188 9v68q0 5 12.5 9.5t28.5 4.5q14 0 16 -8t2 -19v-41q0 -11 -2 -19.5t-16 -8.5q-16 0 -28.5 4.5t-12.5 9.5z"/>
<glyph unicode="@" horiz-adv-x="849" d="M446 -1q9 0 16 -4t9 -15q6 -15 0.5 -19t-23.5 -4q-82 0 -153.5 24.5t-124 72t-82.5 117.5t-30 161q0 89 33.5 161t87.5 123t123.5 78.5t141.5 27.5q75 0 138.5 -25t110 -68t72.5 -101t26 -124q0 -50 -11 -96t-33.5 -82t-56.5 -57.5t-80 -21.5q-20 0 -37.5 4t-30.5 12.5 t-20 22.5t-5 34q-28 -43 -60 -57.5t-61 -14.5q-41 0 -69 12t-45 32t-25 45.5t-8 52.5q0 39 14 79t40 72.5t63.5 52.5t84.5 20q71 0 105.5 -35.5t34.5 -92.5q0 -36 -12.5 -68t-22.5 -55q-5 -13 -5 -26t6 -23.5t19 -17.5t34 -7q24 0 47.5 11t42.5 36.5t30.5 66.5t11.5 102 q0 60 -23.5 110.5t-64 87.5t-94.5 57.5t-116 20.5q-73 0 -135 -29t-107 -77.5t-70 -111.5t-25 -131q0 -83 28 -145.5t75 -104t108.5 -62.5t127.5 -21zM399 190q33 0 59.5 20.5t45 50.5t29 62.5t10.5 56.5q0 49 -24.5 71t-74.5 21q-33 -1 -59.5 -17.5t-46 -42.5t-30 -57.5 t-10.5 -61.5q0 -43 24 -73t77 -30z"/>
<glyph unicode="A" horiz-adv-x="584" d="M500 5l-77 236h-261l-82 -241q-3 -9 -15.5 -10.5t-26.5 -1.5q-7 0 -12 2t-5 9q0 2 0.5 4t1.5 5l238 709q2 8 15 11.5t30 3.5q13 0 19 -17l236 -707q1 -3 1.5 -5t0.5 -4q0 -7 -5.5 -9t-10.5 -2q-21 0 -32 3t-15 14zM284 618l-107 -325h230l-107 325q-3 9 -4.5 19t-3.5 18 q-2 -8 -3.5 -18t-4.5 -19z"/>
<glyph unicode="B" horiz-adv-x="617" d="M103 720h251q57 0 94 -14.5t58.5 -39.5t30 -58t8.5 -70v-6q0 -74 -25.5 -109.5t-68.5 -45.5q16 -3 35 -12.5t35 -29t27 -51.5t11 -79v-19q0 -55 -13.5 -91t-40 -57t-64.5 -29.5t-87 -8.5h-246q-12 0 -24.5 4t-12.5 11v679q0 15 6 20.5t26 5.5zM356 349h-225v-296h224 q39 0 66.5 6t44.5 21t25 41t8 65v19q0 76 -34 110t-109 34zM354 667h-223v-269h221q74 0 103.5 33t29.5 101v6q0 29 -6.5 53t-22 41t-40.5 26t-62 9z"/>
<glyph unicode="C" horiz-adv-x="516" d="M119 461v-202q0 -62 10.5 -104t34 -68t61 -37.5t91.5 -11.5h8q53 0 89.5 7t49.5 9q8 1 11 -14t3 -26q0 -5 -14 -10t-36.5 -8.5t-50.5 -5.5t-56 -2h-8q-65 0 -112.5 13.5t-79 44.5t-47 81.5t-15.5 125.5v214q0 75 15.5 125.5t47.5 81.5t80 44.5t113 13.5h8q24 0 51.5 -2 t50.5 -5.5t38.5 -8t15.5 -10.5q0 -14 -2.5 -27.5t-9.5 -12.5q-6 1 -19 3.5t-32 5t-41.5 4.5t-47.5 2h-8q-55 0 -93 -11.5t-61.5 -37t-34 -68t-10.5 -103.5z"/>
<glyph unicode="D" horiz-adv-x="613" d="M101 720h183q69 0 120 -13.5t84.5 -45t50 -82t16.5 -125.5v-189q0 -75 -16.5 -125.5t-50 -81.5t-84.5 -44.5t-120 -13.5h-175q-12 0 -24.5 4t-12.5 11v679q0 17 9 21.5t20 4.5zM284 667h-152v-614h152q57 0 96.5 11t65 36.5t37 67.5t11.5 103v177q0 61 -11.5 103 t-37 67.5t-65 37t-96.5 11.5z"/>
<glyph unicode="E" horiz-adv-x="530" d="M72 15v678q0 26 18 26h371q8 0 15 -3.5t7 -12.5q0 -13 -3.5 -25t-8.5 -12h-339v-274h307q8 0 15.5 -3.5t7.5 -12.5q0 -12 -4.5 -24.5t-9.5 -12.5h-316v-286h329q8 0 15 -3.5t7 -12.5q0 -13 -3.5 -25t-8.5 -12h-363q-11 0 -23.5 4t-12.5 11z"/>
<glyph unicode="F" horiz-adv-x="495" d="M132 339v-325q0 -11 -4 -18.5t-14 -7.5q-14 0 -28 4.5t-14 9.5v698q0 11 6 15t25 4h358q8 0 15 -3.5t7 -12.5q0 -13 -3.5 -25t-8.5 -12h-339v-274h289q9 0 15.5 -3.5t6.5 -12.5q0 -14 -4 -25.5t-9 -11.5h-298z"/>
<glyph unicode="G" horiz-adv-x="618" d="M119 461v-202q0 -61 12 -103t38 -67.5t66.5 -37t97.5 -11.5h10q43 0 77.5 4.5t79.5 12.5v271q0 6 11.5 9.5t28.5 3.5q12 0 16 -6.5t4 -21.5v-265q0 -18 -3.5 -23.5t-11.5 -8.5q-13 -5 -35.5 -10t-50.5 -9t-58 -6.5t-58 -2.5h-10q-70 0 -121.5 13.5t-85.5 44.5t-51 81.5 t-17 125.5v214q0 75 17.5 125.5t53 81.5t88.5 44.5t125 13.5h21q43 0 80 -2.5t64 -7t42.5 -10t15.5 -12.5q0 -11 -5.5 -26t-13.5 -14q-16 4 -33 7.5t-37.5 6t-46.5 4t-60 1.5h-21q-62 0 -105 -11t-71 -36.5t-40.5 -67.5t-12.5 -103z"/>
<glyph unicode="H" horiz-adv-x="649" d="M577 704v-689q0 -11 -3 -19t-14 -8q-16 0 -29.5 4.5t-13.5 9.5v346h-385v-334q0 -11 -3.5 -18.5t-14.5 -7.5q-14 0 -28 4.5t-14 9.5v716q0 5 14 9.5t28 4.5q11 0 14.5 -7.5t3.5 -19.5v-304h385v315q0 5 13.5 10.5t29.5 5.5q11 0 14 -8.5t3 -19.5z"/>
<glyph unicode="I" horiz-adv-x="203" d="M132 14q0 -11 -4 -18.5t-14 -7.5q-15 0 -28.5 4.5t-13.5 9.5v715q0 5 13.5 10t28.5 5q10 0 14 -8t4 -19v-691z"/>
<glyph unicode="J" horiz-adv-x="208" d="M-75 45q20 -5 38.5 -8t38.5 -3q37 0 55 21t18 76v586q0 5 13.5 10t29.5 5q10 0 14 -8t4 -19v-573q0 -78 -29 -114t-95 -36q-18 0 -38.5 2.5t-46.5 8.5q-7 2 -14 5.5t-5 14.5t6.5 22.5t10.5 9.5z"/>
<glyph unicode="K" horiz-adv-x="575" d="M132 14q0 -11 -4 -18.5t-14 -7.5q-15 0 -28.5 4.5t-13.5 9.5v715q0 5 13.5 10t28.5 5q10 0 14 -8t4 -19v-324l334 336q8 9 20.5 12t31.5 3q5 0 11 -2t6 -9q0 -6 -15 -24l-324 -324l347 -351q16 -16 16 -24q0 -7 -6 -8.5t-11 -1.5q-19 0 -32 2.5t-21 11.5l-357 363v-351z "/>
<glyph unicode="L" horiz-adv-x="473" d="M446 0h-343q-16 0 -23.5 4t-7.5 9v704q0 5 13.5 10t29.5 5q10 0 14 -8t4 -19v-652h303q8 0 15 -3.5t7 -12.5q0 -14 -3.5 -25.5t-8.5 -11.5z"/>
<glyph unicode="M" horiz-adv-x="980" d="M869 3l-118 600q-2 6 -2.5 14t-1.5 17q-2 -13 -4 -19l-4 -12l-216 -599q-5 -16 -23 -16q-15 0 -26.5 4t-14.5 12l-217 599q-2 7 -4.5 15.5t-3.5 16.5l-4 -31l-120 -601q-2 -9 -15.5 -12t-30.5 -3q-4 0 -10.5 3.5t-4.5 13.5l148 713q2 7 13.5 10.5t26.5 3.5q14 0 19 -14 l220 -599q5 -14 9 -29t7 -28q3 13 6.5 27.5t8.5 28.5l219 600q2 7 14 10.5t25 3.5q10 0 14 -4t6 -10l146 -713q2 -11 -4 -14t-11 -3q-20 0 -32.5 3t-14.5 12z"/>
<glyph unicode="N" horiz-adv-x="654" d="M525 101v617q0 5 12.5 9.5t29.5 4.5q9 0 12 -8.5t3 -19.5v-690q0 -11 -4.5 -18.5t-12.5 -7.5q-11 0 -24.5 3.5t-15.5 8.5l-395 618v-604q0 -11 -3.5 -18.5t-12.5 -7.5q-16 0 -28.5 4.5t-12.5 9.5v715q0 5 11.5 10t27.5 5q6 0 11 -4.5t7 -9.5z"/>
<glyph unicode="O" horiz-adv-x="666" d="M337 -12h-8q-69 0 -120 13.5t-84.5 44.5t-50 81.5t-16.5 125.5v214q0 75 16.5 125.5t50 81.5t84.5 44.5t120 13.5h8q69 0 119.5 -13.5t84.5 -44.5t50.5 -81.5t16.5 -125.5v-214q0 -75 -16.5 -125.5t-50.5 -81.5t-84.5 -44.5t-119.5 -13.5zM119 465v-210q0 -61 11.5 -102 t37 -66t65 -36t96.5 -11h8q57 0 96.5 11t65 36t37 66t11.5 102v210q0 61 -11.5 102t-37 66t-65 35.5t-96.5 10.5h-8q-57 0 -96.5 -10.5t-65 -35.5t-37 -66t-11.5 -102z"/>
<glyph unicode="P" horiz-adv-x="564" d="M71 2v691q0 18 5 22t13 4h208q67 0 111.5 -11t70 -35t36 -63t10.5 -96v-10q0 -59 -11 -98t-37.5 -62.5t-70.5 -33.5t-109 -10h-166v-286q0 -11 -4 -18.5t-13 -7.5q-15 0 -29 4.5t-14 9.5zM297 666h-166v-313h166q50 0 82.5 6.5t51 23.5t26 46.5t7.5 74.5v10 q0 46 -7.5 75.5t-26 46.5t-51 23.5t-82.5 6.5z"/>
<glyph unicode="Q" horiz-adv-x="746" d="M326 43q80 0 126 23l-2 1q-5 3 -2.5 17t10.5 27q5 8 14.5 7t18.5 -6l9 -5q35 50 35 152v201q0 60 -11.5 101.5t-36.5 67t-65 36.5t-96 11h-8q-56 0 -95.5 -11t-64.5 -36.5t-36.5 -67t-11.5 -101.5v-201q0 -60 11.5 -101.5t36.5 -67t64.5 -36.5t95.5 -11h8v0zM595 51 q10 -6 14.5 -13.5t-0.5 -15.5q-8 -13 -18.5 -22t-15.5 -7l-66 40q-58 -39 -162 -42h-57q-69 3 -115 20t-74 53t-40 93t-12 140v169q0 74 16.5 124.5t50 81t84 44t118.5 13.5h8q68 0 118.5 -13.5t84 -44t50 -81t16.5 -124.5v-212q0 -117 -42 -178l42 -25v0z"/>
<glyph unicode="R" horiz-adv-x="573" d="M71 2v692q0 11 4.5 18.5t14.5 7.5h207q67 0 111.5 -11t70 -35.5t36 -63.5t10.5 -96v-10q0 -47 -7 -82t-24 -59t-47 -38t-75 -20l156 -284q2 -5 5 -10.5t3 -10.5q0 -7 -6 -9.5t-13 -2.5q-14 0 -29.5 6t-23.5 21l-157 285h-176v-286q0 -11 -4 -18.5t-13 -7.5q-15 0 -29 4.5 t-14 9.5zM299 667h-168v-314h168q50 0 82 6t50.5 23t25.5 46t7 76v10q0 46 -7 76t-25.5 47t-50.5 23.5t-82 6.5z"/>
<glyph unicode="S" horiz-adv-x="476" d="M45 63q26 -7 69 -16t93 -9q28 0 58.5 5t56 18t41.5 36.5t16 61.5q0 46 -24.5 80t-61.5 63.5t-80.5 56.5t-80.5 58t-61.5 69t-24.5 89q0 41 16.5 70.5t45 49t66 28.5t80.5 9q14 0 34.5 -1.5t42 -3.5t41.5 -6t34 -8q12 -4 15 -8t1 -13q-2 -11 -6 -20t-16 -7q-34 7 -66 11.5 t-67 4.5q-34 0 -63.5 -6t-51.5 -18.5t-34.5 -32t-12.5 -47.5q0 -40 24.5 -70.5t61.5 -58.5t80.5 -55t80.5 -60t61.5 -75t24.5 -98q0 -48 -19 -81t-50 -53.5t-71.5 -29t-83.5 -8.5q-21 0 -46.5 2t-49.5 5t-44.5 7t-33.5 9q-11 4 -13 8t-2 12q2 13 5.5 24t14.5 8z"/>
<glyph unicode="T" horiz-adv-x="518" d="M289 666v-652q0 -11 -4 -18.5t-13 -7.5q-16 0 -29.5 4.5t-13.5 9.5v664h-203q-11 0 -17.5 3.5t-6.5 12.5q0 13 4 25t9 12h477q9 0 16.5 -3.5t7.5 -12.5q0 -14 -4 -25.5t-9 -11.5h-214z"/>
<glyph unicode="U" horiz-adv-x="643" d="M511 251v465q0 5 13.5 10.5t28.5 5.5q10 0 14 -8.5t4 -19.5v-455q0 -74 -15.5 -123.5t-46.5 -80.5t-78 -44t-110 -13h-8q-61 0 -106 13t-75 44t-45 80.5t-15 123.5v467q0 5 13.5 10.5t29.5 5.5q9 0 13 -8.5t4 -19.5v-453q0 -59 10.5 -99.5t32 -65t56 -35.5t82.5 -11h8 q51 0 87 11t59 35.5t33.5 65t10.5 99.5z"/>
<glyph unicode="V" horiz-adv-x="549" d="M282 103l184 612q6 11 15 14t27 3q9 0 17 -3.5t3 -17.5l-222 -708q-2 -6 -6 -10.5t-12 -4.5q-23 0 -32.5 3.5t-12.5 9.5l-222 710q-4 12 2.5 16.5t12.5 4.5q20 0 32 -3.5t16 -14.5l185 -611q2 -5 4 -19t3 -19q1 9 2.5 20.5t3.5 17.5z"/>
<glyph unicode="W" horiz-adv-x="918" d="M674 109l163 605q3 12 15.5 15t29.5 3q16 0 16 -14q0 -7 -3 -16l-197 -691q-4 -13 -8 -18t-12 -5q-11 0 -23 5.5t-15 16.5l-176 591q-2 8 -2.5 16t-2.5 16q-2 -8 -3 -16t-3 -16l-166 -590q-7 -23 -20 -23q-11 0 -23 5.5t-15 16.5l-206 692q-3 9 -3 16q0 14 16 14 q17 0 29 -3t16 -16l174 -604q3 -10 3 -19t1 -19q1 10 1 19t3 19l163 596q5 17 17.5 22t26.5 5q9 0 13 -5t8 -19l174 -599q3 -10 3.5 -19t1.5 -19q1 10 1.5 19t2.5 19z"/>
<glyph unicode="X" horiz-adv-x="534" d="M498 702l-193 -342l194 -342q10 -17 6.5 -23.5t-14.5 -6.5q-17 0 -29.5 2.5t-19.5 13.5l-175 309l-175 -309q-7 -11 -19.5 -13.5t-29.5 -2.5q-11 0 -14.5 6.5t6.5 23.5l194 342l-193 342q-10 17 -7 23.5t14 6.5q22 0 32.5 -2.5t17.5 -14.5l174 -306l174 306 q7 12 17.5 14.5t31.5 2.5q12 0 15 -6.5t-7 -23.5z"/>
<glyph unicode="Y" horiz-adv-x="543" d="M301 281v-267q0 -11 -3.5 -18.5t-13.5 -7.5q-16 0 -29 4.5t-13 9.5v279l-217 429q-6 11 -1.5 16.5t15.5 5.5q20 0 31 -2.5t15 -10.5l186 -376l186 375q5 9 16 11.5t31 2.5q11 0 15 -5.5t-2 -16.5z"/>
<glyph unicode="Z" horiz-adv-x="546" d="M507 0h-467q-13 0 -13 18q0 8 2 20.5t9 23.5l396 605h-378q-5 0 -8 11.5t-3 25.5q0 9 6 12.5t14 3.5h421q10 0 17 -4t7 -15q0 -8 -3.5 -22t-7.5 -20l-394 -605h394q8 0 15 -4t7 -13q0 -14 -4.5 -25.5t-9.5 -11.5z"/>
<glyph unicode="[" horiz-adv-x="270" d="M71 -155v908q0 20 16 20h98q8 0 14.5 -4t6.5 -10q0 -13 -4 -23t-8 -10h-65v-854h65q4 0 8 -11t4 -23q0 -6 -7 -9.5t-15 -3.5h-98q-15 0 -15 20z"/>
<glyph unicode="\" horiz-adv-x="385" d="M44 779q8 3 14 -2t10 -15l300 -793q2 -5 -8.5 -12.5t-21.5 -11.5q-6 -2 -12.5 2t-11.5 15l-299 793q-2 4 6.5 11.5t22.5 12.5z"/>
<glyph unicode="]" horiz-adv-x="269" d="M199 753v-908q0 -20 -14 -20h-99q-8 0 -15 3.5t-7 9.5q0 12 4.5 23t7.5 11h65v854h-65q-3 0 -7.5 10t-4.5 23q0 6 7 10t15 4h97q16 0 16 -20z"/>
<glyph unicode="^" horiz-adv-x="614" d="M538 386l-41 -32l-190 245l-190 -245l-41 32l231 294z"/>
<glyph unicode="_" horiz-adv-x="409" d="M371 -61h-341q-14 0 -14 13q0 12 3.5 25t14.5 13h341q14 0 14 -12q0 -13 -3.5 -26t-14.5 -13z"/>
<glyph unicode="`" horiz-adv-x="195" d="M49 791l69 -85q12 -15 11.5 -20.5t-7.5 -5.5q-11 0 -18.5 3.5t-16.5 11.5l-87 73q-10 8 -10 14t5.5 9.5t15 5.5t19.5 2q5 0 10.5 -1.5t8.5 -6.5z"/>
<glyph unicode="a" horiz-adv-x="477" d="M416 388v-350q0 -8 -16.5 -16.5t-43 -16t-60.5 -12.5t-68 -5q-92 0 -139 36.5t-47 123.5q0 84 39 118t122 34q43 0 87.5 -8.5t70.5 -17.5v114q0 30 -7 50t-23 32t-42.5 17.5t-66.5 5.5q-35 0 -69.5 -4t-63.5 -10q-9 -2 -12 9t-5 21q-2 12 7 15q15 5 59.5 11t98.5 6 q45 0 79 -7t56 -24.5t33 -47t11 -74.5zM361 60v167q-2 3 -17.5 7.5t-38 9.5t-48 8.5t-46.5 3.5q-29 0 -50.5 -4.5t-35.5 -17t-21 -34t-7 -55.5q0 -63 30.5 -88t99.5 -25q18 0 41 2.5t43 7t34 9t16 9.5z"/>
<glyph unicode="b" horiz-adv-x="496" d="M127 725v-235q27 20 70.5 35.5t97.5 15.5q48 0 76.5 -15t43.5 -40t19.5 -57.5t4.5 -66.5v-197q0 -32 -5 -64t-24 -57t-55 -40.5t-97 -15.5q-39 0 -84.5 4t-85.5 20q-11 5 -14 11t-3 20v695q0 5 13 8.5t27 3.5q16 0 16 -25zM127 433v-377q0 -2 11 -5.5t29.5 -6.5t42 -5 t48.5 -2q46 0 71 11.5t37 30.5t14.5 42.5t2.5 46.5v190q0 23 -2 47t-11 43t-29 31t-56 12q-30 0 -58 -6.5t-49.5 -15.5t-35.5 -19t-15 -17z"/>
<glyph unicode="c" horiz-adv-x="422" d="M367 48q8 1 10 -6.5t4 -20.5q2 -12 -5 -15.5t-15 -5.5q-17 -4 -47.5 -8t-66.5 -4q-101 0 -145 48.5t-44 154.5v147q0 106 44.5 154.5t150.5 48.5q36 0 67.5 -4t42.5 -7q9 -2 15 -5t4 -13q-2 -18 -5.5 -25t-10.5 -6q-4 0 -15.5 2t-27.5 4.5t-34 4t-36 1.5 q-71 0 -105.5 -35.5t-34.5 -119.5v-146q0 -87 35 -121.5t109 -34.5q22 0 46.5 3t63.5 9z"/>
<glyph unicode="d" horiz-adv-x="491" d="M425 725v-673q0 -17 -2.5 -24.5t-14.5 -12.5t-33 -10t-45.5 -9t-50.5 -6t-47 -2q-60 0 -94.5 15.5t-52 41t-22.5 57.5t-5 65v193q0 30 5 62t21.5 58.5t48 43.5t84.5 17q23 0 46 -3.5t43 -8t36 -10.5t27 -10v229q0 7 15 9.5t24 2.5t13 -5.5t4 -19.5zM369 57v398 q-2 3 -14.5 9t-31.5 11.5t-43.5 10t-49.5 4.5q-43 0 -66.5 -13t-35 -34t-13.5 -48t-2 -55v-154q0 -31 2.5 -58t14.5 -47.5t37.5 -32.5t71.5 -12q20 0 42.5 2t41.5 5.5t31.5 7t14.5 6.5z"/>
<glyph unicode="e" horiz-adv-x="488" d="M416 5q-38 -9 -78.5 -13t-72.5 -4q-63 0 -103 15t-63.5 46t-32.5 79t-9 115v122q0 49 12.5 83t36.5 54.5t59.5 29.5t80.5 9h15q174 0 174 -142v-25q0 -45 -11.5 -76.5t-46 -51.5t-98 -29t-168.5 -9q0 -45 8 -77.5t26.5 -53.5t50 -31.5t79.5 -10.5q40 0 75.5 6t61.5 10 q8 1 11.5 -2t4.5 -22q2 -11 -0.5 -15.5t-11.5 -6.5zM380 379v22q0 47 -30.5 71t-100.5 24q-31 0 -56.5 -5.5t-43.5 -20.5t-28 -40t-10 -64v-114q85 0 137.5 5.5t82 19.5t39.5 39t10 63z"/>
<glyph unicode="f" horiz-adv-x="318" d="M163 633v-105h123q6 0 10.5 -2.5t4.5 -10.5q0 -11 -4 -24t-15 -13h-119v-468q0 -22 -16 -22q-14 0 -26.5 3.5t-12.5 8.5v478h-82q-15 0 -15 11q0 12 4 25.5t15 13.5h78v109q0 54 30.5 88.5t87.5 34.5q18 0 30 -1t21 -2.5t16.5 -4t15.5 -5.5q19 -7 19 -20q0 -15 -5 -24.5 t-11 -7.5q-21 8 -35.5 11.5t-39.5 3.5q-41 0 -57.5 -20.5t-16.5 -56.5z"/>
<glyph unicode="g" horiz-adv-x="504" d="M227 -190q52 0 82.5 9t46.5 28.5t21 50.5t5 76v66q-28 -20 -74.5 -36t-101.5 -16q-47 0 -74.5 16.5t-41 43t-17 58.5t-3.5 62v194q0 33 5 65.5t19.5 57.5t41 40.5t70.5 15.5q12 0 33.5 -2t47.5 -6t52.5 -11t48.5 -17t36 -24t14 -31v-476q0 -56 -7.5 -96t-29 -66 t-61.5 -38t-105 -12q-38 0 -78 3t-78 11q-10 2 -12.5 6.5t-2.5 12.5q0 11 3.5 21t11.5 10q36 -7 75.5 -11.5t72.5 -4.5zM382 95v343q0 10 -16.5 19.5t-41 17.5t-54 13t-54.5 5q-33 0 -51 -13t-26.5 -34t-10.5 -47.5t-2 -53.5v-160q0 -26 2 -52.5t10.5 -47.5t26.5 -34.5 t51 -13.5q31 0 60 6t51.5 15t37 19t17.5 18z"/>
<glyph unicode="h" horiz-adv-x="513" d="M392 0v356q0 31 -2.5 56t-11.5 42t-26.5 26.5t-48.5 9.5q-29 0 -59.5 -7t-55.5 -17t-42 -21t-20 -18v-417q0 -14 -5 -18t-13 -4q-12 0 -25 3.5t-13 8.5v747q1 7 15 9.5t23 2.5q18 0 18 -22v-255q13 10 33.5 20.5t45.5 18.5t53 13.5t56 5.5q46 0 72.5 -13t40 -36.5 t17 -56.5t3.5 -73v-351q0 -14 -5 -18t-13 -4q-12 0 -24.5 3.5t-12.5 8.5z"/>
<glyph unicode="i" horiz-adv-x="250" d="M68 664v69q0 5 12 9.5t29 4.5q10 0 14 -8t4 -19v-44q0 -10 -4 -18t-14 -8q-17 0 -29 4.5t-12 9.5zM241 49q5 1 9 -10.5t5 -22.5q1 -13 -18 -19q-19 -5 -33 -7t-29 -2q-21 0 -40 6.5t-34 20.5t-23.5 37.5t-8.5 57.5v419q0 5 13 8t27 3q8 0 11.5 -6.5t3.5 -15.5v-401 q0 -32 14 -54.5t52 -22.5q14 0 25.5 3t25.5 6z"/>
<glyph unicode="j" horiz-adv-x="191" d="M-43 -153q11 -2 24 -4t32 -2q18 0 28.5 6.5t16 17t7.5 24.5t2 28v612q0 5 12.5 8t26.5 3q9 0 13 -6.5t4 -15.5v-601q0 -60 -22.5 -93t-75.5 -33q-17 0 -29 0.5t-30 5.5q-11 2 -16 6t-5 13q0 14 3 23t9 8zM65 664v69q0 5 12.5 9.5t28.5 4.5q11 0 15 -8t4 -19v-44 q0 -10 -4 -18t-15 -8q-16 0 -28.5 4.5t-12.5 9.5z"/>
<glyph unicode="k" horiz-adv-x="431" d="M126 725v-443l226 245q7 7 18.5 10.5t20.5 3.5q10 0 19 -4.5t-2 -19.5l-222 -241l241 -269q5 -6 4.5 -9.5t-4 -5.5t-9 -3t-10.5 -1q-10 0 -21 2t-19 12l-242 268v-257q0 -25 -16 -25q-14 0 -27 3.5t-13 8.5v738q0 5 13 8.5t27 3.5q16 0 16 -25z"/>
<glyph unicode="l" horiz-adv-x="248" d="M241 49q5 1 9 -10.5t5 -22.5q1 -13 -18 -19q-19 -5 -33 -7t-28 -2q-21 0 -40.5 6t-34.5 20.5t-23.5 37.5t-8.5 58v629q0 5 13 8t27 3q8 0 11.5 -6.5t3.5 -15.5v-611q0 -32 14 -54.5t52 -22.5q14 0 25.5 3t25.5 6z"/>
<glyph unicode="m" horiz-adv-x="808" d="M376 0v353q0 24 -2 48.5t-10.5 44t-25.5 32t-48 12.5q-35 0 -65.5 -6t-53 -14.5t-35.5 -18t-13 -16.5v-425q0 -9 -4.5 -15.5t-12.5 -6.5q-14 0 -26.5 3.5t-12.5 8.5v459q0 11 17 25.5t48 27t74 21t95 8.5q45 0 68.5 -16.5t35.5 -40.5q23 20 77 38.5t130 18.5q44 0 70 -16 t39 -41t16.5 -55.5t3.5 -59.5v-359q0 -9 -4.5 -15.5t-12.5 -6.5q-14 0 -26.5 3.5t-12.5 8.5v353q0 24 -2 48.5t-10.5 44t-25.5 32t-48 12.5q-35 0 -66 -6t-53.5 -15t-35.5 -18.5t-13 -16.5v-424q0 -9 -4 -15.5t-13 -6.5q-14 0 -26 3.5t-12 8.5z"/>
<glyph unicode="n" d="M388 0v386q0 28 -3.5 47.5t-13.5 32t-28 18.5t-46 6q-29 0 -60 -5.5t-56.5 -14t-42 -17.5t-16.5 -15v-428q0 -14 -5 -18t-13 -4q-12 0 -25 3.5t-13 8.5v461q0 12 21 26t55 26t77.5 20t88.5 8q37 0 63 -7.5t42 -25.5t23 -48t7 -75v-375q0 -14 -5 -18t-13 -4 q-12 0 -24.5 3.5t-12.5 8.5z"/>
<glyph unicode="o" horiz-adv-x="511" d="M58 154v219q0 90 47 129t149 39h2q103 0 150 -39t47 -129v-219q0 -90 -47 -128t-150 -38h-2q-102 0 -149 38t-47 128zM254 37h3q78 0 109.5 29t31.5 88v219q0 60 -31.5 89.5t-109.5 29.5h-3q-78 0 -109.5 -29.5t-31.5 -89.5v-219q0 -59 31.5 -88t109.5 -29z"/>
<glyph unicode="p" horiz-adv-x="498" d="M126 -240q0 -14 -5 -18t-13 -4q-12 0 -25 3.5t-13 8.5v698q0 18 14.5 31.5t36.5 24t50 17.5t54 11.5t48.5 6.5t34.5 2q44 0 70 -17.5t39.5 -43.5t17 -55t3.5 -53v-212q0 -36 -4.5 -67.5t-18.5 -55t-41.5 -36.5t-72.5 -13q-24 0 -49 4.5t-48.5 11.5t-44 16t-33.5 18v-278z M126 97q3 -8 19 -18t39.5 -19t52 -15t55.5 -6q49 0 69.5 26.5t20.5 93.5v204q0 38 -6 62.5t-17.5 39t-28 20.5t-37.5 6q-23 0 -51 -5t-53 -12.5t-43 -17.5t-20 -20v-339z"/>
<glyph unicode="q" horiz-adv-x="491" d="M408 -262q-14 0 -26.5 3.5t-12.5 8.5v288q-29 -18 -77 -33.5t-107 -15.5q-44 0 -69.5 16.5t-38.5 42.5t-16 58t-3 62v194q0 33 4.5 65.5t18 57.5t38.5 40.5t66 15.5q12 0 34.5 -2t49 -6t54.5 -10.5t50.5 -15.5t37 -21.5t14.5 -27.5v-698q0 -9 -4.5 -15.5t-12.5 -6.5z M369 95v351q0 8 -17.5 16.5t-43.5 15t-57 11t-58 4.5q-29 0 -45 -13t-24 -34t-9.5 -47.5t-1.5 -53.5v-160q0 -26 1.5 -52.5t9.5 -47.5t24 -34.5t45 -13.5q33 0 63.5 6t54.5 15t39.5 19t18.5 18z"/>
<glyph unicode="r" horiz-adv-x="359" d="M325 482q-20 4 -36.5 6.5t-38.5 2.5q-26 0 -49.5 -4t-41 -10t-27.5 -12t-10 -10v-445q0 -14 -5.5 -18t-13.5 -4q-11 0 -24 3.5t-13 8.5v478q0 9 12.5 20t36 20.5t57.5 16t76 6.5q14 0 35 -2t37 -5q11 -2 15.5 -5t4.5 -11q0 -17 -4.5 -27t-10.5 -9z"/>
<glyph unicode="s" horiz-adv-x="420" d="M58 46q35 -5 67.5 -7t69.5 -2q63 0 97 18.5t34 65.5q0 36 -20 59.5t-50 42t-65 35.5t-65 38t-50 50t-20 73q0 37 14 61t37.5 37.5t54 18.5t64.5 5q44 0 76 -2t56 -7q10 -2 12.5 -5.5t2.5 -8.5q0 -37 -16 -35q-26 3 -56.5 6t-63.5 3q-57 0 -91.5 -16t-34.5 -58 q0 -31 20 -52t50 -38.5t65 -34t65 -39t50 -54t20 -77.5q0 -39 -13 -64.5t-36.5 -41.5t-57 -22.5t-74.5 -6.5q-32 0 -71 2.5t-79 8.5q-8 2 -10 5t-1 11q2 22 6.5 27t12.5 4z"/>
<glyph unicode="t" horiz-adv-x="314" d="M269 476h-111v-356q0 -35 16.5 -58.5t55.5 -23.5q13 0 23.5 2.5t26.5 6.5q8 1 11.5 -11t3.5 -25q0 -10 -19 -15q-18 -5 -33 -6.5t-30 -1.5q-23 0 -43 6.5t-35 21t-24 38.5t-9 60v362h-72q-15 0 -15 13t4 26t15 13h68v149q0 5 13 8.5t27 3.5q8 0 12 -6.5t4 -15.5v-139h115 q15 0 15 -13q0 -12 -3.5 -25.5t-15.5 -13.5z"/>
<glyph unicode="u" horiz-adv-x="511" d="M388 61v468q0 5 12.5 8.5t24.5 3.5q8 0 13 -4t5 -18v-475q0 -13 -5 -17t-14 -8q-26 -10 -77 -20.5t-108 -10.5q-53 0 -86.5 11t-53 33t-26.5 54t-7 73v370q0 5 12.5 8.5t24.5 3.5q8 0 13.5 -4t5.5 -18v-357q0 -31 5 -54.5t17.5 -39.5t35.5 -24t59 -8q24 0 50.5 3t48.5 7 t36 8.5t14 6.5z"/>
<glyph unicode="v" horiz-adv-x="431" d="M228 117l121 397q5 18 14 22.5t31 4.5q17 0 17 -13q0 -3 -1 -7t-3 -9l-163 -501q-5 -14 -9 -18.5t-11 -4.5q-10 0 -22 5t-16 17l-163 502q-2 5 -3 9t-1 7q0 13 18 13q21 0 30 -4.5t14 -22.5l121 -397q5 -17 7.5 -29t5.5 -30q3 20 6 33.5t7 25.5z"/>
<glyph unicode="w" horiz-adv-x="751" d="M546 109l128 419q2 8 15 10.5t25 2.5q7 0 12 -3t5 -11q0 -3 -1 -6.5t-3 -8.5l-166 -508q-5 -16 -18 -16q-10 0 -22 2.5t-14 9.5l-125 415q-2 5 -4 14.5t-3 17.5q-1 -8 -3 -17.5t-4 -14.5l-124 -411q-5 -16 -18 -16q-11 0 -22 2t-13 10l-168 511q-2 4 -2 8v7q0 15 16 15 q11 0 24.5 -2.5t15.5 -10.5l128 -419q5 -17 7.5 -31.5t4.5 -28.5l4 30t7 30l121 420q2 7 11.5 9.5t21.5 2.5q15 0 18 -10l122 -421q3 -11 6.5 -27t5.5 -33q2 16 4.5 30t7.5 29z"/>
<glyph unicode="x" horiz-adv-x="427" d="M249 266l153 -253q5 -8 5 -15q0 -6 -5.5 -8t-9.5 -2q-13 0 -27 2.5t-18 9.5l-134 229l-133 -229q-5 -8 -18.5 -10t-25.5 -2q-4 0 -9.5 2t-5.5 9q0 6 5 14l152 253l-150 250q-3 5 -3.5 9t-0.5 6q0 7 5.5 8.5t10.5 1.5q14 0 26 -2.5t17 -10.5l130 -225l132 225 q4 8 16.5 10.5t26.5 2.5q5 0 10.5 -1.5t5.5 -8.5q0 -8 -5 -15z"/>
<glyph unicode="y" horiz-adv-x="512" d="M390 529q0 5 13 8.5t24 3.5q13 0 16 -9.5t3 -23.5v-532q0 -111 -50 -161t-163 -50q-62 0 -101 6.5t-47 8.5q-11 3 -14.5 5.5t-3.5 10.5q0 33 13 33q3 0 16 -2t33.5 -5t45.5 -5t52 -2q30 0 59 5.5t52.5 22.5t37.5 48.5t14 84.5v64q-15 -9 -36 -18.5t-46.5 -17t-53.5 -12 t-55 -4.5q-66 0 -93 34t-27 112v395q0 5 12.5 8.5t24.5 3.5q8 0 13.5 -4t5.5 -18v-379q0 -60 18.5 -80.5t61.5 -20.5q29 0 60 6.5t56 16t41.5 19.5t17.5 17v431z"/>
<glyph unicode="z" horiz-adv-x="416" d="M385 0h-343q-10 0 -13.5 4t-3.5 15q0 17 10 30l273 431h-238q-14 0 -17.5 8.5t-3.5 24.5q0 11 10 13t20 2h281q8 0 14.5 -2.5t6.5 -9.5q0 -8 -1.5 -18.5t-6.5 -17.5l-275 -433h280q7 0 12.5 -3t5.5 -11q0 -12 -3 -22.5t-8 -10.5z"/>
<glyph unicode="{" horiz-adv-x="380" d="M297 -184q-67 0 -98.5 40t-31.5 100v211q0 18 -5.5 36.5t-16 34.5t-24.5 26t-31 10q-13 0 -16.5 12.5t-3.5 20.5q0 9 5.5 12t13.5 3q33 0 55 26.5t22 80.5v211q0 60 31.5 100t97.5 40q11 0 21 -2.5t10 -10.5q0 -14 -3 -25.5t-8 -11.5q-39 0 -64.5 -24t-25.5 -81v-194 q0 -12 -2 -31.5t-10 -39.5t-24 -38t-44 -27q29 -7 45 -26t24 -40t10 -39.5t2 -24.5v-194q0 -57 26 -81t65 -24q5 0 8 -11.5t3 -25.5q0 -8 -10 -10.5t-21 -2.5z"/>
<glyph unicode="|" horiz-adv-x="231" d="M90 -147v881q0 7 11.5 10.5t25.5 3.5q9 0 12.5 -7.5t3.5 -16.5v-861q0 -9 -3.5 -16.5t-12.5 -7.5q-14 0 -25.5 3.5t-11.5 10.5z"/>
<glyph unicode="}" horiz-adv-x="378" d="M85 -184q-11 0 -21 2.5t-10 10.5q0 14 3.5 25.5t6.5 11.5q40 0 65.5 24t25.5 81v194q0 6 2 24.5t10 39.5t24.5 40t45.5 26q-29 9 -45 27t-24 38t-10 39.5t-2 31.5v194q0 57 -25.5 81t-64.5 24q-4 0 -7.5 11.5t-3.5 25.5q0 8 10 10.5t21 2.5q66 0 97.5 -40t31.5 -100v-211 q0 -54 22 -80.5t56 -26.5q7 0 13 -3t6 -12q0 -8 -3.5 -20.5t-17.5 -12.5q-17 0 -31 -10t-24 -26t-16 -34.5t-6 -36.5v-211q0 -60 -31.5 -100t-97.5 -40z"/>
<glyph unicode="~" horiz-adv-x="491" d="M162 329q24 0 46 -11.5t43 -25t41.5 -25t42.5 -11.5q13 0 25.5 4.5t23 13.5t17 22t6.5 30q0 4 7.5 7t16.5 2.5t16 -4t7 -10.5q-1 -35 -13.5 -57.5t-31 -36t-39.5 -18.5t-39 -5q-24 0 -45.5 11.5t-42 25.5t-41.5 25.5t-43 11.5q-13 0 -25.5 -4.5t-23 -13.5t-17 -22 t-6.5 -30q0 -5 -7.5 -7.5t-16.5 -2.5t-16.5 3.5t-7.5 11.5q1 33 13 55.5t30.5 36t39.5 19t40 5.5z"/>
<glyph horiz-adv-x="0"/>
<glyph unicode="¡" horiz-adv-x="193" d="M68 -174v516q0 5 12.5 9.5t28.5 4.5q8 0 13 -7.5t5 -18.5v-492q0 -11 -5 -18.5t-13 -7.5q-16 0 -28.5 4.5t-12.5 9.5zM68 454v74q0 5 12.5 9t28.5 4q9 0 13.5 -7.5t4.5 -18.5v-49q0 -10 -4.5 -18t-13.5 -8q-16 0 -28.5 4.5t-12.5 9.5z"/>
<glyph unicode="¢" horiz-adv-x="422" d="M218 -100v89q-86 7 -123 55t-37 147v147q0 96 37 144.5t123 56.5v101q0 6 11.5 9.5t25.5 3.5q9 0 12.5 -7t3.5 -16v-89q26 -2 40.5 -3.5t23 -2.5t14 -2t14.5 -3q8 -2 14.5 -4.5t4.5 -13.5q-2 -18 -5.5 -25t-10.5 -6q-4 0 -15.5 2t-27.5 4.5t-34 4t-36 1.5 q-71 0 -105.5 -35.5t-34.5 -119.5v-146q0 -87 35 -121.5t109 -34.5q22 0 46.5 3t63.5 9q8 1 10 -6.5t4 -20.5q2 -11 -4.5 -15t-15.5 -6q-18 -3 -29 -5t-20 -3t-18.5 -1.5t-22.5 -1.5v-78q0 -9 -3.5 -16.5t-12.5 -7.5q-14 0 -25.5 3.5t-11.5 9.5z"/>
<glyph unicode="£" horiz-adv-x="563" d="M358 358h-76q4 -24 7 -49t3 -51q0 -19 -5.5 -46t-18.5 -55.5t-33.5 -56t-51.5 -47.5h336q9 0 16 -4t7 -12q0 -14 -4.5 -25.5t-9.5 -11.5h-415q-8 0 -15.5 3.5t-7.5 12.5q0 14 4.5 23.5t8.5 11.5q128 84 128 208q0 25 -3 49.5t-7 49.5h-92q-15 0 -15 13t3 26t15 13h80 q-5 26 -8 52.5t-3 54.5v22q0 54 14.5 91t40 59.5t61.5 32.5t79 10q28 0 57 -3t58 -10q20 -5 19 -17q0 -4 -2 -10t-4.5 -11t-6 -9t-6.5 -3q-26 5 -49.5 8t-53.5 3q-29 0 -56 -6t-47.5 -22t-32.5 -43t-12 -70v-22q0 -28 3.5 -54.5t8.5 -52.5h89q15 0 15 -13q0 -12 -3 -25.5 t-15 -13.5z"/>
<glyph unicode="¤" horiz-adv-x="569" d="M92 43l-34 32l64 65q-20 25 -31.5 56t-11.5 66q0 36 12 68.5t35 57.5l-67 70l33 32l68 -68q26 20 57 31t66 11t66 -11t57 -31l70 68l35 -32l-71 -71q21 -26 33.5 -57.5t12.5 -67.5t-12.5 -67t-32.5 -56l68 -63l-34 -33l-67 62q-26 -20 -58 -31.5t-67 -11.5 q-37 0 -69 11.5t-58 32.5zM132 263q0 -31 12 -58.5t32 -47.5t47.5 -32t59.5 -12q31 0 58.5 12t47.5 32t32 47.5t12 58.5t-12 58.5t-32 47.5t-47.5 32t-58.5 12q-32 0 -59.5 -12t-47.5 -32t-32 -47.5t-12 -58.5z"/>
<glyph unicode="¥" horiz-adv-x="553" d="M468 131h-162v-117q0 -11 -3.5 -18.5t-13.5 -7.5q-16 0 -29 4.5t-13 9.5v129h-166q-14 0 -14 11q0 12 3 23.5t14 11.5h163v93h-166q-14 0 -14 11t3 22.5t14 11.5h149l-199 387q-9 17 -6 23.5t16 6.5q15 0 30.5 -5t23.5 -21l178 -355l179 355q8 16 23.5 21t30.5 5 q13 0 16 -6.5t-6 -23.5l-200 -387h153q13 0 13 -11t-3 -22.5t-14 -11.5h-162v-93h165q14 0 14 -12q0 -11 -3 -22.5t-14 -11.5z"/>
<glyph unicode="¦" horiz-adv-x="231" d="M90 392v359q0 5 11.5 9t25.5 4q9 0 12.5 -7.5t3.5 -16.5v-338q0 -9 -3.5 -16t-12.5 -7q-14 0 -25.5 4t-11.5 9zM90 -95v359q0 5 11.5 8.5t25.5 3.5q9 0 12.5 -6.5t3.5 -16.5v-338q0 -9 -3.5 -15.5t-12.5 -6.5q-14 0 -25.5 3.5t-11.5 8.5z"/>
<glyph unicode="§" horiz-adv-x="420" d="M58 237q3 0 12 -1.5t19.5 -2.5t20.5 -2t15 -1q-30 21 -49.5 50t-19.5 73q0 54 27.5 80t70.5 35q-20 12 -37.5 25.5t-31 30.5t-21.5 38t-8 48q0 37 14 61t37.5 37.5t54 18.5t64.5 5q44 0 76 -2t56 -7q10 -2 12.5 -5.5t2.5 -8.5q0 -37 -16 -35q-26 3 -56.5 6t-63.5 3 q-57 0 -91.5 -16t-34.5 -58q0 -26 13.5 -44.5t35.5 -33.5t49.5 -28.5t55.5 -28.5q29 -1 51.5 -3t41.5 -5q10 -2 12.5 -5.5t2.5 -8.5q0 -37 -16 -35q-5 0 -8.5 0.5t-8.5 1.5q19 -20 30 -45.5t11 -59.5q0 -49 -20.5 -77.5t-57.5 -42.5q33 -23 55.5 -55t22.5 -82 q0 -39 -13 -64.5t-36.5 -41.5t-57 -22.5t-74.5 -6.5q-32 0 -71 2.5t-79 8.5q-8 2 -10 5t-1 11q2 22 6.5 27t12.5 4q35 -5 67.5 -7t69.5 -2q63 0 97 18.5t34 65.5q0 23 -9 41t-24 33t-35 27t-42 23h-16q-32 0 -71 2.5t-79 8.5q-8 2 -10 5t-1 11q2 22 6.5 27.5t12.5 3.5z M111 352q0 -23 11 -40t29 -31t41.5 -26t47.5 -25q42 6 64 25t22 57q0 21 -7 37.5t-19.5 30t-29 24.5t-35.5 22q-56 0 -90 -16.5t-34 -57.5z"/>
<glyph unicode="¨" horiz-adv-x="226" d="M159 647v68q0 5 12.5 9t28.5 4q12 0 15 -7.5t3 -18.5v-42q0 -11 -3 -18.5t-15 -7.5q-16 0 -28.5 4t-12.5 9zM9 647v68q0 5 12.5 9t28.5 4q12 0 15.5 -7.5t3.5 -18.5v-42q0 -11 -3.5 -18.5t-15.5 -7.5q-16 0 -28.5 4t-12.5 9z"/>
<glyph unicode="©" horiz-adv-x="841" d="M420 -14q-92 0 -160.5 31.5t-113.5 83t-67.5 118t-22.5 135.5q0 70 23.5 137.5t69 121t114 86t158.5 32.5q91 0 159 -31.5t113 -82.5t67.5 -117t22.5 -135q0 -71 -23 -139t-69 -121t-113.5 -86t-157.5 -33zM420 23q81 0 141.5 29.5t101.5 77.5t61 109.5t20 124.5 q0 62 -20 121.5t-60 106t-101 75t-142 28.5t-142 -29.5t-102 -77.5t-61.5 -109t-20.5 -124t20 -122.5t60.5 -106t101.5 -75t143 -28.5zM295 428v-134q0 -41 7.5 -69t24.5 -45.5t44 -25.5t65 -8h5q26 0 46.5 4t43.5 9q3 0 6 -4t6 -10t5 -11.5t2 -7.5q0 -8 -11.5 -12t-28 -6 t-35.5 -3.5t-34 -4.5l-5 -1q-50 0 -86.5 9.5t-61 31.5t-36.5 58.5t-12 89.5v147q0 105 48.5 146.5t147.5 41.5h5q15 0 34 -2t35.5 -5t28 -8t11.5 -11q0 -2 -2 -8t-5 -12t-6 -10t-6 -4q-23 6 -43.5 9.5t-46.5 3.5h-5q-38 0 -65 -8t-44 -25.5t-24.5 -45.5t-7.5 -69z"/>
<glyph unicode="ª" horiz-adv-x="489" d="M321 620v-253q0 -6 -12 -12.5t-31 -12t-43.5 -9t-49.5 -3.5q-67 0 -101 26.5t-34 89.5q0 61 28.5 85.5t88.5 24.5q31 0 63.5 -6t50.5 -12v82q0 43 -21.5 59.5t-78.5 16.5q-32 0 -54.5 -3t-42.5 -7q-6 -1 -8 6.5t-4 15.5q-1 9 5 11q11 3 43 7.5t72 4.5q65 0 97 -23.5 t32 -87.5zM281 382v121q-1 2 -12.5 6t-27.5 7.5t-34.5 6t-33.5 2.5q-42 0 -62.5 -16t-20.5 -65q0 -46 22 -64t72 -18q13 0 29.5 2t31 5t25 6.5t11.5 6.5z"/>
<glyph unicode="«" horiz-adv-x="493" d="M312 289l129 -172q24 -33 4 -36q-17 -4 -35.5 8.5t-28.5 25.5l-141 174l159 196q6 8 20.5 11.5t25.5 0.5q9 -1 6.5 -11t-11 -24t-20 -29t-20.5 -27zM107 289l131 -172q24 -31 4 -36q-17 -3 -35 8.5t-29 25.5l-142 174l161 196q6 8 20 11.5t25 0.5q9 -1 6.5 -11t-11 -24 t-20 -29t-20.5 -27z"/>
<glyph unicode="¬" horiz-adv-x="614" d="M65 392h484v-252h-49v203h-435v49z"/>
<glyph unicode="­" horiz-adv-x="345" d="M282 270h-215q-15 0 -15 13q0 12 3 25.5t15 13.5h215q15 0 15 -13q0 -12 -3 -25.5t-15 -13.5z"/>
<glyph unicode="®" horiz-adv-x="841" d="M420 -14q-92 0 -160.5 31.5t-113.5 83t-67.5 118t-22.5 135.5q0 70 23.5 137.5t69 121t114 86t158.5 32.5q91 0 159 -31.5t113 -82.5t67.5 -117t22.5 -135q0 -71 -23 -139t-69 -121t-113.5 -86t-157.5 -33zM420 23q81 0 141.5 29.5t101.5 77.5t61 109.5t20 124.5 q0 62 -20 121.5t-60 106t-101 75t-142 28.5t-142 -29.5t-102 -77.5t-61.5 -109t-20.5 -124t20 -122.5t60.5 -106t101.5 -75t143 -28.5zM268 106v483q0 8 4 14t12 6h148q48 0 80 -7t51 -24t27 -45t8 -69v-9q0 -66 -22 -98.5t-84 -41.5l108 -194q1 -2 3 -7t2 -10 q0 -6 -6.5 -7.5t-11.5 -1.5q-10 0 -24 4t-20 15l-109 197h-113v-198q0 -18 -14 -18q-11 0 -25 3t-14 8zM432 560h-111v-202h111q34 0 55.5 3.5t34 14t17 29.5t4.5 50v9q0 30 -4.5 49t-17 29.5t-34 14t-55.5 3.5z"/>
<glyph unicode="¯" horiz-adv-x="244" d="M206 669h-165q-6 0 -11.5 3t-5.5 8q0 8 1.5 20t9.5 12h166q5 0 11 -3t6 -8q0 -8 -2.5 -20t-9.5 -12z"/>
<glyph unicode="°" horiz-adv-x="414" d="M206 794q33 0 57.5 -11.5t41.5 -30t25.5 -42.5t8.5 -48q0 -25 -8.5 -48.5t-25.5 -42t-41.5 -29.5t-57.5 -11q-32 0 -57 11.5t-41.5 30t-25 42t-8.5 48.5q0 24 8.5 47.5t25.5 42t41.5 30t56.5 11.5zM207 749q-21 0 -37 -7.5t-26.5 -20t-16 -28t-5.5 -31.5t5 -31.5 t15.5 -27.5t26 -19.5t36.5 -7.5t37.5 7t27 19.5t16 28t5.5 32.5q0 16 -5.5 31.5t-16 27.5t-26 19.5t-36.5 7.5z"/>
<glyph unicode="±" horiz-adv-x="626" d="M289 84v195h-198q-15 0 -15 13q0 12 3.5 25.5t15.5 13.5h194v198q0 14 13 14t26 -3.5t13 -14.5v-194h199q14 0 14 -13t-3.5 -26t-14.5 -13h-195v-199q0 -15 -13 -15q-12 0 -25.5 3.5t-13.5 15.5zM546 -28h-469q-14 0 -14 13t3.5 26t14.5 13h469q14 0 14 -13 q0 -12 -3.5 -25.5t-14.5 -13.5z"/>
<glyph unicode="²" horiz-adv-x="326" d="M298 400h-257q-8 0 -11.5 4.5t-3.5 9.5q0 8 3.5 21.5t8.5 20.5q67 71 107 116.5t62 75t29 46.5t7 31q0 19 -8 31.5t-21.5 20t-30.5 10.5t-36 3t-37.5 -2.5t-34.5 -4.5q-5 0 -9 12t-6 20t1.5 10.5t10.5 4.5q23 5 41.5 7t36.5 2q27 0 53.5 -5.5t47.5 -19t33.5 -35.5 t12.5 -54q0 -17 -7.5 -37.5t-28.5 -51.5t-59.5 -76t-99.5 -112h191q14 0 14 -13q0 -9 -2 -22t-7 -13z"/>
<glyph unicode="³" horiz-adv-x="312" d="M37 448q15 -4 35.5 -5.5t38.5 -1.5q36 0 57.5 7t33.5 18.5t16.5 26t5.5 29.5q0 14 -3 28t-13 25t-29.5 17.5t-52.5 6.5h-18q-5 0 -9 9.5t-4 19.5q0 13 13 13h10q50 0 73.5 24.5t23.5 51.5q0 14 -3.5 27.5t-14.5 24t-31 17t-54 6.5q-13 0 -27 -1.5t-39 -5.5q-3 0 -5.5 3.5 t-4.5 9t-3.5 11.5t-1.5 11q0 6 10 9.5t23.5 6t26.5 3t19 0.5q76 0 118 -25t42 -94v-7q0 -21 -6.5 -37t-16.5 -26.5t-22 -17t-23 -9.5q13 -3 26.5 -9t24.5 -16.5t18 -27.5t7 -43v-18q0 -33 -14.5 -55.5t-38 -36t-53 -19t-60.5 -5.5q-10 0 -25.5 1t-30.5 3t-25.5 6.5 t-10.5 10.5q0 2 1 7.5t3.5 11.5t5.5 10.5t7 4.5z"/>
<glyph unicode="´" horiz-adv-x="210" d="M16 695l67 102q4 6 17.5 5t21.5 -6q14 -8 17 -14.5t0 -10.5l-79 -82q-9 -8 -14.5 -7.5t-16.5 0.5q-8 0 -13 2.5t0 10.5z"/>
<glyph unicode="µ" d="M388 61v468q0 5 12.5 8.5t24.5 3.5q8 0 13 -4t5 -18v-475q0 -13 -5 -17t-14 -8q-26 -10 -77 -20.5t-108 -10.5q-40 0 -68.5 6.5t-48.5 18.5v-226q0 -9 -4.5 -16.5t-13.5 -7.5q-13 0 -25.5 3.5t-12.5 10.5v752q0 5 12.5 8.5t24.5 3.5q8 0 13.5 -4t5.5 -18v-357 q0 -31 5 -54.5t17.5 -39.5t35.5 -24t59 -8q24 0 50.5 3t48.5 7t36 8.5t14 6.5z"/>
<glyph unicode="¶" horiz-adv-x="494" d="M318 14q0 -11 -4 -18.5t-14 -7.5q-16 0 -29 4.5t-13 9.5v331q-54 0 -94 17t-66.5 44.5t-39.5 63t-13 72.5q0 38 13 74t39 64.5t65 46t90 17.5h162q10 0 14 -8t4 -19v-691q0 -11 -4 -18.5t-14 -7.5q-15 0 -28.5 4.5t-13.5 9.5v672h-54v-660z"/>
<glyph unicode="·" horiz-adv-x="252" d="M91 239v73q0 5 12 9.5t29 4.5q12 0 15 -7.5t3 -18.5v-49q0 -11 -3 -18.5t-15 -7.5q-17 0 -29 4.5t-12 9.5z"/>
<glyph unicode="¸" horiz-adv-x="188" d="M33 -52l23 45h30l-17 -32q13 -1 26.5 -5t24 -11.5t17 -19.5t5.5 -29q-1 -21 -9 -34t-19 -20t-24 -9.5t-23 -3.5q-17 -2 -39 1.5t-31 10.5q-4 5 0.5 15t14.5 8q8 -3 19.5 -6.5t22.5 -3.5q19 0 32.5 10.5t13.5 33.5q0 19 -11.5 27t-25 11t-23.5 4.5t-7 7.5z"/>
<glyph unicode="¹" horiz-adv-x="267" d="M180 410q0 -7 -3.5 -12t-10.5 -5q-10 0 -24.5 3t-14.5 8v366q-14 -13 -24.5 -19.5t-17.5 -9.5t-12 -3t-8 1q-8 2 -13.5 8.5t1.5 13.5l70 64q9 8 19.5 10t14.5 2q8 -1 15.5 -4t7.5 -7v-416z"/>
<glyph unicode="º" horiz-adv-x="364" d="M42 453v158q0 65 33.5 93t107.5 28h1q75 0 108.5 -28t33.5 -93v-158q0 -66 -33.5 -93t-108.5 -27h-1q-74 0 -107.5 27t-33.5 93zM183 369h2q57 0 79.5 21t22.5 63v158q0 43 -22.5 64t-79.5 21h-2q-57 0 -79.5 -21t-22.5 -64v-158q0 -42 22.5 -63t79.5 -21z"/>
<glyph unicode="»" horiz-adv-x="493" d="M253 113l131 172l-90 117q-9 12 -21 27.5t-20 29t-10.5 23.5t6.5 11q11 3 25 -0.5t20 -11.5l161 -196l-142 -174q-11 -13 -29 -25t-35 -9q-20 5 4 36zM50 113l129 172l-88 117q-6 7 -17 22t-20.5 30t-13.5 26.5t6 12.5q11 3 25 -0.5t20 -11.5l159 -196l-140 -174 q-11 -13 -29 -25t-35 -9q-19 4 4 36z"/>
<glyph unicode="¼" horiz-adv-x="938" d="M653 749q11 -6 8 -18q-2 -6 -6 -13t-7 -13l-402 -733q-2 -4 -8 -5t-17 4q-8 4 -14.5 14.5t-1.5 18.5l412 751q2 5 13.5 2.5t22.5 -8.5zM769 114h-195q-6 0 -10.5 3.5t-4.5 10.5q0 8 2 18t6 15l211 284q5 6 15 8t17 2q12 0 12 -14v-279h44q14 0 14 -13q0 -11 -2 -23 t-7 -12h-49v-89q0 -16 -15 -16q-10 0 -24 2.5t-14 7.5v95zM771 157v220l-159 -220h159zM190 331q0 -7 -3.5 -12t-10.5 -5q-10 0 -24.5 3t-14.5 8v366q-14 -13 -24.5 -19.5t-17.5 -9.5t-12 -3t-8 1q-8 2 -13.5 8.5t1.5 13.5l70 64q9 8 19.5 10t14.5 2q8 -1 15.5 -4t7.5 -7 v-416z"/>
<glyph unicode="½" horiz-adv-x="911" d="M644 749q11 -8 10 -17q-3 -6 -7 -12.5t-8 -13.5l-403 -732q-5 -8 -10.5 -13t-14.5 0q-13 8 -21 15t-6 10l421 769q3 4 14.5 2.5t24.5 -8.5zM190 309q0 -7 -3.5 -12t-10.5 -5q-10 0 -24.5 3t-14.5 8v366q-14 -13 -24.5 -19.5t-17.5 -9.5t-12 -3t-8 1q-8 2 -13.5 8.5 t1.5 13.5l70 64q9 8 19.5 10t14.5 2q8 -1 15.5 -4t7.5 -7v-416zM844 16h-257q-8 0 -11.5 4.5t-3.5 9.5q0 8 3.5 21.5t8.5 20.5q67 71 107 116.5t62 75t29 46.5t7 31q0 19 -8 31.5t-21.5 20t-30.5 10.5t-36 3t-37.5 -2.5t-34.5 -4.5q-5 0 -9 12t-6 20t1.5 10.5t10.5 4.5 q23 5 41.5 7t36.5 2q27 0 53.5 -5.5t47.5 -19t33.5 -35.5t12.5 -54q0 -17 -7.5 -37.5t-28.5 -51.5t-59.5 -76t-99.5 -112h191q14 0 14 -13q0 -9 -2 -22t-7 -13z"/>
<glyph unicode="¾" horiz-adv-x="982" d="M708 749q11 -6 8 -18q-2 -6 -6 -13t-7 -13l-402 -733q-2 -4 -8 -5t-17 4q-8 4 -14.5 14.5t-1.5 18.5l412 751q2 5 13.5 2.5t22.5 -8.5zM813 114h-195q-6 0 -10.5 3.5t-4.5 10.5q0 8 2 18t6 15l211 284q5 6 15 8t17 2q12 0 12 -14v-279h44q14 0 14 -13q0 -11 -2 -23 t-7 -12h-49v-89q0 -16 -15 -16q-10 0 -24 2.5t-14 7.5v95zM815 157v220l-159 -220h159zM75 369q15 -4 35.5 -5.5t38.5 -1.5q36 0 57.5 7t33.5 18.5t16.5 26t5.5 29.5q0 14 -3 28t-13 25t-29.5 17.5t-52.5 6.5h-18q-5 0 -9 9.5t-4 19.5q0 13 13 13h10q50 0 73.5 24.5 t23.5 51.5q0 14 -3.5 27.5t-14.5 24t-31 17t-54 6.5q-13 0 -27 -1.5t-39 -5.5q-3 0 -5.5 3.5t-4.5 9t-3.5 11.5t-1.5 11q0 6 10 9.5t23.5 6t26.5 3t19 0.5q76 0 118 -25t42 -94v-7q0 -21 -6.5 -37t-16.5 -26.5t-22 -17t-23 -9.5q13 -3 26.5 -9t24.5 -16.5t18 -27.5t7 -43 v-18q0 -33 -14.5 -55.5t-38 -36t-53 -19t-60.5 -5.5q-10 0 -25.5 1t-30.5 3t-25.5 6.5t-10.5 10.5q0 2 1 7.5t3.5 11.5t5.5 10.5t7 4.5z"/>
<glyph unicode="¿" horiz-adv-x="496" d="M315 367v-59q0 -33 -13 -64t-32.5 -60.5t-42 -58t-42 -55.5t-32.5 -53t-13 -52q0 -37 11 -60.5t31 -36.5t48.5 -18t64.5 -5q18 0 33 1t28.5 2.5t27.5 4t31 5.5q6 0 11 -10.5t8 -23.5q3 -15 -22 -19q-23 -5 -51.5 -8.5t-65.5 -3.5q-46 0 -85.5 7t-68 26t-45 52t-16.5 84 q0 32 13 61.5t33 57.5t43 55.5t43 55.5t33 57t13 59v49q0 9 2 16.5t13 7.5q16 1 29 -4t13 -10zM315 526v-68q0 -5 -12.5 -9.5t-28.5 -4.5q-14 0 -16 8t-2 19v41q0 11 2 19.5t16 8.5q16 0 28.5 -4.5t12.5 -9.5z"/>
<glyph unicode="À" horiz-adv-x="557" d="M500 5l-77 236h-261l-82 -241q-3 -9 -15.5 -10.5t-26.5 -1.5q-7 0 -12 2t-5 9q0 2 0.5 4t1.5 5l238 709q2 8 15 11.5t30 3.5q13 0 19 -17l236 -707q1 -3 1.5 -5t0.5 -4q0 -7 -5.5 -9t-10.5 -2q-21 0 -32 3t-15 14zM284 618l-107 -325h230l-107 325q-3 9 -4.5 19t-3.5 18 q-2 -8 -3.5 -18t-4.5 -19zM222 876l69 -85q12 -15 11.5 -20.5t-7.5 -5.5q-11 0 -18.5 3.5t-16.5 11.5l-87 73q-10 8 -10 14t5.5 9.5t15 5.5t19.5 2q5 0 10.5 -1.5t8.5 -6.5z"/>
<glyph unicode="Á" horiz-adv-x="557" d="M500 5l-77 236h-261l-82 -241q-3 -9 -15.5 -10.5t-26.5 -1.5q-7 0 -12 2t-5 9q0 2 0.5 4t1.5 5l238 709q2 8 15 11.5t30 3.5q13 0 19 -17l236 -707q1 -3 1.5 -5t0.5 -4q0 -7 -5.5 -9t-10.5 -2q-21 0 -32 3t-15 14zM284 618l-107 -325h230l-107 325q-3 9 -4.5 19t-3.5 18 q-2 -8 -3.5 -18t-4.5 -19zM236 771l67 102q4 6 17.5 5t21.5 -6q14 -8 17 -14.5t0 -10.5l-79 -82q-9 -8 -14.5 -7.5t-16.5 0.5q-8 0 -13 2.5t0 10.5z"/>
<glyph unicode="Â" horiz-adv-x="557" d="M500 5l-77 236h-261l-82 -241q-3 -9 -15.5 -10.5t-26.5 -1.5q-7 0 -12 2t-5 9q0 2 0.5 4t1.5 5l238 709q2 8 15 11.5t30 3.5q13 0 19 -17l236 -707q1 -3 1.5 -5t0.5 -4q0 -7 -5.5 -9t-10.5 -2q-21 0 -32 3t-15 14zM284 618l-107 -325h230l-107 325q-3 9 -4.5 19t-3.5 18 q-2 -8 -3.5 -18t-4.5 -19zM166 773q-5 5 -4 10t11 12l95 69q3 3 5 3.5t4 0.5t4 -0.5t5 -3.5l98 -69q10 -7 11 -12t-3 -10q-6 -6 -14.5 -9.5t-10.5 -1.5l-90 56l-87 -56q-2 -2 -10.5 1.5t-13.5 9.5z"/>
<glyph unicode="Ã" horiz-adv-x="563" d="M504 5l-77 236h-261l-82 -241q-3 -9 -15.5 -10.5t-26.5 -1.5q-7 0 -12 2t-5 9q0 2 0.5 4t1.5 5l238 709q2 8 15 11.5t30 3.5q13 0 19 -17l236 -707q1 -3 1.5 -5t0.5 -4q0 -7 -5.5 -9t-10.5 -2q-21 0 -32 3t-15 14zM288 618l-107 -325h230l-107 325q-3 9 -4.5 19t-3.5 18 q-2 -8 -3.5 -18t-4.5 -19zM245 837q12 0 21.5 -5l19 -10t18.5 -9.5t20 -4.5q6 -1 12.5 1t12.5 5.5t10 9t4 11.5q0 3 4.5 4t10 1t10 -2.5t4.5 -6.5q-1 -20 -8 -33.5t-17 -21t-21 -10t-20 -2.5q-12 0 -22 4.5t-19.5 10t-19 10t-19.5 4.5q-11 0 -24.5 -6.5t-13.5 -20.5 q0 -3 -4.5 -4.5t-10.5 -1t-10.5 2.5t-4.5 7q1 20 8 33.5t17.5 21t21.5 10t20 2.5z"/>
<glyph unicode="Ä" horiz-adv-x="557" d="M500 5l-77 236h-261l-82 -241q-3 -9 -15.5 -10.5t-26.5 -1.5q-7 0 -12 2t-5 9q0 2 0.5 4t1.5 5l238 709q2 8 15 11.5t30 3.5q13 0 19 -17l236 -707q1 -3 1.5 -5t0.5 -4q0 -7 -5.5 -9t-10.5 -2q-21 0 -32 3t-15 14zM284 618l-107 -325h230l-107 325q-3 9 -4.5 19t-3.5 18 q-2 -8 -3.5 -18t-4.5 -19zM319 779v68q0 5 12.5 9t28.5 4q12 0 15 -7.5t3 -18.5v-42q0 -11 -3 -18.5t-15 -7.5q-16 0 -28.5 4t-12.5 9zM169 779v68q0 5 12.5 9t28.5 4q12 0 15.5 -7.5t3.5 -18.5v-42q0 -11 -3.5 -18.5t-15.5 -7.5q-16 0 -28.5 4t-12.5 9z"/>
<glyph unicode="Å" horiz-adv-x="563" d="M504 5l-77 236h-261l-82 -241q-3 -9 -15.5 -10.5t-26.5 -1.5q-7 0 -12 2t-5 9q0 2 0.5 4t1.5 5l234 698q-32 6 -51.5 28.5t-19.5 56.5q0 40 27 64t65 24q39 0 66.5 -24t27.5 -65q0 -26 -13 -45.5t-34 -30.5l236 -706q1 -3 1.5 -5t0.5 -4q0 -7 -5.5 -9t-10.5 -2 q-21 0 -32 3t-15 14zM288 618l-107 -325h230l-107 325q-3 9 -4.5 19t-3.5 18q-2 -8 -3.5 -18t-4.5 -19zM283 740q23 0 38.5 14.5t15.5 36.5q0 21 -15.5 37t-39.5 16q-23 0 -38 -15.5t-15 -37.5t15 -36.5t39 -14.5z"/>
<glyph unicode="Æ" horiz-adv-x="928" d="M464 15v225h-235l-120 -208q-11 -20 -25 -26.5t-26 -6.5q-31 0 -25 18q2 4 4 8.5t4 9.5l393 653q14 22 23 26.5t25 4.5h375q8 0 15 -2.5t7 -13.5q0 -15 -4 -26t-9 -11h-339v-274h308q9 0 15.5 -2.5t6.5 -13.5q0 -14 -4 -25.5t-9 -11.5h-317v-286h330q8 0 15 -2.5t7 -13.5 q0 -14 -4 -25.5t-9 -11.5h-362q-11 0 -25.5 4t-14.5 11zM260 293h204v356z"/>
<glyph unicode="Ç" horiz-adv-x="521" d="M268 -42l15 31q-57 3 -99.5 18t-70 46t-41.5 80t-14 120v214q0 75 15.5 125.5t47.5 81.5t80 44.5t113 13.5h8q24 0 51.5 -2t50.5 -5.5t38.5 -8t15.5 -10.5q0 -14 -2.5 -27.5t-9.5 -12.5q-6 1 -19 3.5t-32 5t-41.5 4.5t-47.5 2h-8q-55 0 -93 -11.5t-61.5 -37t-34 -68 t-10.5 -103.5v-202q0 -62 10.5 -104t34 -68t61 -37.5t91.5 -11.5h8q53 0 89.5 7t49.5 9q8 1 11 -14t3 -26q0 -5 -14 -10t-36.5 -8.5t-50.5 -5.5t-56 -2h-7l-9 -17q13 -1 26.5 -5t24 -11.5t17 -19.5t5.5 -29q-1 -21 -9 -34t-19 -20t-24 -9.5t-23 -3.5q-17 -2 -39 1.5 t-31 10.5q-4 5 0.5 15t14.5 8q8 -3 19.5 -6.5t22.5 -3.5q19 0 32.5 10.5t13.5 33.5q0 19 -11.5 26.5t-25 10.5t-23.5 5t-7 8z"/>
<glyph unicode="È" horiz-adv-x="530" d="M72 15v678q0 26 18 26h371q8 0 15 -3.5t7 -12.5q0 -13 -3.5 -25t-8.5 -12h-339v-274h307q8 0 15.5 -3.5t7.5 -12.5q0 -12 -4.5 -24.5t-9.5 -12.5h-316v-286h329q8 0 15 -3.5t7 -12.5q0 -13 -3.5 -25t-8.5 -12h-363q-11 0 -23.5 4t-12.5 11zM223 877l69 -85 q12 -15 11.5 -20.5t-7.5 -5.5q-11 0 -18.5 3.5t-16.5 11.5l-87 73q-10 8 -10 14t5.5 9.5t15 5.5t19.5 2q5 0 10.5 -1.5t8.5 -6.5z"/>
<glyph unicode="É" horiz-adv-x="530" d="M72 15v678q0 26 18 26h371q8 0 15 -3.5t7 -12.5q0 -13 -3.5 -25t-8.5 -12h-339v-274h307q8 0 15.5 -3.5t7.5 -12.5q0 -12 -4.5 -24.5t-9.5 -12.5h-316v-286h329q8 0 15 -3.5t7 -12.5q0 -13 -3.5 -25t-8.5 -12h-363q-11 0 -23.5 4t-12.5 11zM237 772l67 102q4 6 17.5 5 t21.5 -6q14 -8 17 -14.5t0 -10.5l-79 -82q-9 -8 -14.5 -7.5t-16.5 0.5q-8 0 -13 2.5t0 10.5z"/>
<glyph unicode="Ê" horiz-adv-x="530" d="M72 15v678q0 26 18 26h371q8 0 15 -3.5t7 -12.5q0 -13 -3.5 -25t-8.5 -12h-339v-274h307q8 0 15.5 -3.5t7.5 -12.5q0 -12 -4.5 -24.5t-9.5 -12.5h-316v-286h329q8 0 15 -3.5t7 -12.5q0 -13 -3.5 -25t-8.5 -12h-363q-11 0 -23.5 4t-12.5 11zM166 773q-5 5 -4 10t11 12 l95 69q3 3 5 3.5t4 0.5t4 -0.5t5 -3.5l98 -69q10 -7 11 -12t-3 -10q-6 -6 -14.5 -9.5t-10.5 -1.5l-90 56l-87 -56q-2 -2 -10.5 1.5t-13.5 9.5z"/>
<glyph unicode="Ë" horiz-adv-x="530" d="M72 15v678q0 26 18 26h371q8 0 15 -3.5t7 -12.5q0 -13 -3.5 -25t-8.5 -12h-339v-274h307q8 0 15.5 -3.5t7.5 -12.5q0 -12 -4.5 -24.5t-9.5 -12.5h-316v-286h329q8 0 15 -3.5t7 -12.5q0 -13 -3.5 -25t-8.5 -12h-363q-11 0 -23.5 4t-12.5 11zM320 779v68q0 5 12.5 9t28.5 4 q12 0 15 -7.5t3 -18.5v-42q0 -11 -3 -18.5t-15 -7.5q-16 0 -28.5 4t-12.5 9zM170 779v68q0 5 12.5 9t28.5 4q12 0 15.5 -7.5t3.5 -18.5v-42q0 -11 -3.5 -18.5t-15.5 -7.5q-16 0 -28.5 4t-12.5 9z"/>
<glyph unicode="Ì" horiz-adv-x="203" d="M132 14q0 -11 -4 -18.5t-14 -7.5q-15 0 -28.5 4.5t-13.5 9.5v715q0 5 13.5 10t28.5 5q10 0 14 -8t4 -19v-691zM49 877l69 -85q12 -15 11.5 -20.5t-7.5 -5.5q-11 0 -18.5 3.5t-16.5 11.5l-87 73q-10 8 -10 14t5.5 9.5t15 5.5t19.5 2q5 0 10.5 -1.5t8.5 -6.5z"/>
<glyph unicode="Í" horiz-adv-x="203" d="M132 14q0 -11 -4 -18.5t-14 -7.5q-15 0 -28.5 4.5t-13.5 9.5v715q0 5 13.5 10t28.5 5q10 0 14 -8t4 -19v-691zM63 772l67 102q4 6 17.5 5t21.5 -6q14 -8 17 -14.5t0 -10.5l-79 -82q-9 -8 -14.5 -7.5t-16.5 0.5q-8 0 -13 2.5t0 10.5z"/>
<glyph unicode="Î" horiz-adv-x="203" d="M132 14q0 -11 -4 -18.5t-14 -7.5q-15 0 -28.5 4.5t-13.5 9.5v715q0 5 13.5 10t28.5 5q10 0 14 -8t4 -19v-691zM-7 773q-5 5 -4 10t11 12l95 69q3 3 5 3.5t4 0.5t4 -0.5t5 -3.5l98 -69q10 -7 11 -12t-3 -10q-6 -6 -14.5 -9.5t-10.5 -1.5l-90 56l-87 -56q-2 -2 -10.5 1.5 t-13.5 9.5z"/>
<glyph unicode="Ï" horiz-adv-x="203" d="M132 14q0 -11 -4 -18.5t-14 -7.5q-15 0 -28.5 4.5t-13.5 9.5v715q0 5 13.5 10t28.5 5q10 0 14 -8t4 -19v-691zM146 779v68q0 5 12.5 9t28.5 4q12 0 15 -7.5t3 -18.5v-42q0 -11 -3 -18.5t-15 -7.5q-16 0 -28.5 4t-12.5 9zM-4 779v68q0 5 12.5 9t28.5 4q12 0 15.5 -7.5 t3.5 -18.5v-42q0 -11 -3.5 -18.5t-15.5 -7.5q-16 0 -28.5 4t-12.5 9z"/>
<glyph unicode="Ð" horiz-adv-x="628" d="M93 719h206q69 0 119.5 -13.5t84.5 -44.5t50.5 -82t16.5 -126v-187q0 -75 -16.5 -126t-50.5 -82t-84.5 -44.5t-119.5 -13.5h-183q-12 0 -26.5 4t-14.5 11v340h-64q-11 0 -18 3t-7 16q0 17 4 29t10 12h75v278q0 11 3 18.5t15 7.5zM217 355h-78v-302h160q70 0 110.5 15 t60.5 45.5t25.5 77t5.5 109.5v119q0 63 -5.5 109t-25.5 77t-60.5 46t-110.5 15h-160v-251h66q11 0 18.5 -3t7.5 -15q0 -16 -4.5 -29t-9.5 -13z"/>
<glyph unicode="Ñ" horiz-adv-x="696" d="M526 101v617q0 5 12.5 9.5t29.5 4.5q9 0 12 -8.5t3 -19.5v-690q0 -11 -4.5 -18.5t-12.5 -7.5q-11 0 -24.5 3.5t-15.5 8.5l-395 618v-604q0 -11 -3.5 -18.5t-12.5 -7.5q-16 0 -28.5 4.5t-12.5 9.5v715q0 5 11.5 10t27.5 5q6 0 11 -4.5t7 -9.5zM316 837q12 0 21.5 -5 l19 -10t18.5 -9.5t20 -4.5q6 -1 12.5 1t12.5 5.5t10 9t4 11.5q0 3 4.5 4t10 1t10 -2.5t4.5 -6.5q-1 -20 -8 -33.5t-17 -21t-21 -10t-20 -2.5q-12 0 -22 4.5t-19.5 10t-19 10t-19.5 4.5q-11 0 -24.5 -6.5t-13.5 -20.5q0 -3 -4.5 -4.5t-10.5 -1t-10.5 2.5t-4.5 7q1 20 8 33.5 t17.5 21t21.5 10t20 2.5z"/>
<glyph unicode="Ò" horiz-adv-x="666" d="M337 -12h-8q-69 0 -120 13.5t-84.5 44.5t-50 81.5t-16.5 125.5v214q0 75 16.5 125.5t50 81.5t84.5 44.5t120 13.5h8q69 0 119.5 -13.5t84.5 -44.5t50.5 -81.5t16.5 -125.5v-214q0 -75 -16.5 -125.5t-50.5 -81.5t-84.5 -44.5t-119.5 -13.5zM119 465v-210q0 -61 11.5 -102 t37 -66t65 -36t96.5 -11h8q57 0 96.5 11t65 36t37 66t11.5 102v210q0 61 -11.5 102t-37 66t-65 35.5t-96.5 10.5h-8q-57 0 -96.5 -10.5t-65 -35.5t-37 -66t-11.5 -102zM277 876l69 -85q12 -15 11.5 -20.5t-7.5 -5.5q-11 0 -18.5 3.5t-16.5 11.5l-87 73q-10 8 -10 14t5.5 9.5 t15 5.5t19.5 2q5 0 10.5 -1.5t8.5 -6.5z"/>
<glyph unicode="Ó" horiz-adv-x="666" d="M337 -12h-8q-69 0 -120 13.5t-84.5 44.5t-50 81.5t-16.5 125.5v214q0 75 16.5 125.5t50 81.5t84.5 44.5t120 13.5h8q69 0 119.5 -13.5t84.5 -44.5t50.5 -81.5t16.5 -125.5v-214q0 -75 -16.5 -125.5t-50.5 -81.5t-84.5 -44.5t-119.5 -13.5zM119 465v-210q0 -61 11.5 -102 t37 -66t65 -36t96.5 -11h8q57 0 96.5 11t65 36t37 66t11.5 102v210q0 61 -11.5 102t-37 66t-65 35.5t-96.5 10.5h-8q-57 0 -96.5 -10.5t-65 -35.5t-37 -66t-11.5 -102zM291 771l67 102q4 6 17.5 5t21.5 -6q14 -8 17 -14.5t0 -10.5l-79 -82q-9 -8 -14.5 -7.5t-16.5 0.5 q-8 0 -13 2.5t0 10.5z"/>
<glyph unicode="Ô" horiz-adv-x="666" d="M337 -12h-8q-69 0 -120 13.5t-84.5 44.5t-50 81.5t-16.5 125.5v214q0 75 16.5 125.5t50 81.5t84.5 44.5t120 13.5h8q69 0 119.5 -13.5t84.5 -44.5t50.5 -81.5t16.5 -125.5v-214q0 -75 -16.5 -125.5t-50.5 -81.5t-84.5 -44.5t-119.5 -13.5zM119 465v-210q0 -61 11.5 -102 t37 -66t65 -36t96.5 -11h8q57 0 96.5 11t65 36t37 66t11.5 102v210q0 61 -11.5 102t-37 66t-65 35.5t-96.5 10.5h-8q-57 0 -96.5 -10.5t-65 -35.5t-37 -66t-11.5 -102zM221 773q-5 5 -4 10t11 12l95 69q3 3 5 3.5t4 0.5t4 -0.5t5 -3.5l98 -69q10 -7 11 -12t-3 -10 q-6 -6 -14.5 -9.5t-10.5 -1.5l-90 56l-87 -56q-2 -2 -10.5 1.5t-13.5 9.5z"/>
<glyph unicode="Õ" horiz-adv-x="666" d="M337 -12h-8q-69 0 -120 13.5t-84.5 44.5t-50 81.5t-16.5 125.5v214q0 75 16.5 125.5t50 81.5t84.5 44.5t120 13.5h8q69 0 119.5 -13.5t84.5 -44.5t50.5 -81.5t16.5 -125.5v-214q0 -75 -16.5 -125.5t-50.5 -81.5t-84.5 -44.5t-119.5 -13.5zM119 465v-210q0 -61 11.5 -102 t37 -66t65 -36t96.5 -11h8q57 0 96.5 11t65 36t37 66t11.5 102v210q0 61 -11.5 102t-37 66t-65 35.5t-96.5 10.5h-8q-57 0 -96.5 -10.5t-65 -35.5t-37 -66t-11.5 -102zM292 837q12 0 21.5 -5l19 -10t18.5 -9.5t20 -4.5q6 -1 12.5 1t12.5 5.5t10 9t4 11.5q0 3 4.5 4t10 1 t10 -2.5t4.5 -6.5q-1 -20 -8 -33.5t-17 -21t-21 -10t-20 -2.5q-12 0 -22 4.5t-19.5 10t-19 10t-19.5 4.5q-11 0 -24.5 -6.5t-13.5 -20.5q0 -3 -4.5 -4.5t-10.5 -1t-10.5 2.5t-4.5 7q1 20 8 33.5t17.5 21t21.5 10t20 2.5z"/>
<glyph unicode="Ö" horiz-adv-x="666" d="M337 -12h-8q-69 0 -120 13.5t-84.5 44.5t-50 81.5t-16.5 125.5v214q0 75 16.5 125.5t50 81.5t84.5 44.5t120 13.5h8q69 0 119.5 -13.5t84.5 -44.5t50.5 -81.5t16.5 -125.5v-214q0 -75 -16.5 -125.5t-50.5 -81.5t-84.5 -44.5t-119.5 -13.5zM119 465v-210q0 -61 11.5 -102 t37 -66t65 -36t96.5 -11h8q57 0 96.5 11t65 36t37 66t11.5 102v210q0 61 -11.5 102t-37 66t-65 35.5t-96.5 10.5h-8q-57 0 -96.5 -10.5t-65 -35.5t-37 -66t-11.5 -102zM374 779v68q0 5 12.5 9t28.5 4q12 0 15 -7.5t3 -18.5v-42q0 -11 -3 -18.5t-15 -7.5q-16 0 -28.5 4 t-12.5 9zM224 779v68q0 5 12.5 9t28.5 4q12 0 15.5 -7.5t3.5 -18.5v-42q0 -11 -3.5 -18.5t-15.5 -7.5q-16 0 -28.5 4t-12.5 9z"/>
<glyph unicode="×" horiz-adv-x="631" d="M315 233l-192 -190l-35 32l192 191l-190 192l33 32l192 -191l192 191l35 -32l-192 -192l190 -190l-34 -33z"/>
<glyph unicode="Ø" horiz-adv-x="670" d="M483 782q11 -4 20.5 -9.5t7.5 -11.5l-21 -54q61 -26 90.5 -83t29.5 -157v-214q0 -75 -16.5 -125.5t-50.5 -81.5t-84.5 -44.5t-119.5 -13.5h-8q-60 0 -109 11l-16 -43q-3 -9 -9 -14t-16 -1q-11 3 -21 8.5t-7 13.5l19 52q-57 26 -84.5 83.5t-27.5 154.5v214 q0 75 16.5 125.5t50 81.5t84.5 44.5t120 13.5h8q55 0 100 -9l18 48q7 18 26 11zM549 465q0 77 -18.5 122t-60.5 67l-229 -605q19 -5 41.5 -7t48.5 -2h8q57 0 96.5 11t65 36t37 66t11.5 102v210zM121 465v-210q0 -74 16.5 -119t54.5 -68l228 604q-34 7 -81 7h-8 q-57 0 -96.5 -10.5t-65 -35.5t-37 -66t-11.5 -102z"/>
<glyph unicode="Ù" horiz-adv-x="643" d="M511 251v465q0 5 13.5 10.5t28.5 5.5q10 0 14 -8.5t4 -19.5v-455q0 -74 -15.5 -123.5t-46.5 -80.5t-78 -44t-110 -13h-8q-61 0 -106 13t-75 44t-45 80.5t-15 123.5v467q0 5 13.5 10.5t29.5 5.5q9 0 13 -8.5t4 -19.5v-453q0 -59 10.5 -99.5t32 -65t56 -35.5t82.5 -11h8 q51 0 87 11t59 35.5t33.5 65t10.5 99.5zM263 876l69 -85q12 -15 11.5 -20.5t-7.5 -5.5q-11 0 -18.5 3.5t-16.5 11.5l-87 73q-10 8 -10 14t5.5 9.5t15 5.5t19.5 2q5 0 10.5 -1.5t8.5 -6.5z"/>
<glyph unicode="Ú" horiz-adv-x="643" d="M511 251v465q0 5 13.5 10.5t28.5 5.5q10 0 14 -8.5t4 -19.5v-455q0 -74 -15.5 -123.5t-46.5 -80.5t-78 -44t-110 -13h-8q-61 0 -106 13t-75 44t-45 80.5t-15 123.5v467q0 5 13.5 10.5t29.5 5.5q9 0 13 -8.5t4 -19.5v-453q0 -59 10.5 -99.5t32 -65t56 -35.5t82.5 -11h8 q51 0 87 11t59 35.5t33.5 65t10.5 99.5zM277 771l67 102q4 6 17.5 5t21.5 -6q14 -8 17 -14.5t0 -10.5l-79 -82q-9 -8 -14.5 -7.5t-16.5 0.5q-8 0 -13 2.5t0 10.5z"/>
<glyph unicode="Û" horiz-adv-x="643" d="M511 251v465q0 5 13.5 10.5t28.5 5.5q10 0 14 -8.5t4 -19.5v-455q0 -74 -15.5 -123.5t-46.5 -80.5t-78 -44t-110 -13h-8q-61 0 -106 13t-75 44t-45 80.5t-15 123.5v467q0 5 13.5 10.5t29.5 5.5q9 0 13 -8.5t4 -19.5v-453q0 -59 10.5 -99.5t32 -65t56 -35.5t82.5 -11h8 q51 0 87 11t59 35.5t33.5 65t10.5 99.5zM207 773q-5 5 -4 10t11 12l95 69q3 3 5 3.5t4 0.5t4 -0.5t5 -3.5l98 -69q10 -7 11 -12t-3 -10q-6 -6 -14.5 -9.5t-10.5 -1.5l-90 56l-87 -56q-2 -2 -10.5 1.5t-13.5 9.5z"/>
<glyph unicode="Ü" horiz-adv-x="643" d="M511 251v465q0 5 13.5 10.5t28.5 5.5q10 0 14 -8.5t4 -19.5v-455q0 -74 -15.5 -123.5t-46.5 -80.5t-78 -44t-110 -13h-8q-61 0 -106 13t-75 44t-45 80.5t-15 123.5v467q0 5 13.5 10.5t29.5 5.5q9 0 13 -8.5t4 -19.5v-453q0 -59 10.5 -99.5t32 -65t56 -35.5t82.5 -11h8 q51 0 87 11t59 35.5t33.5 65t10.5 99.5zM360 779v68q0 5 12.5 9t28.5 4q12 0 15 -7.5t3 -18.5v-42q0 -11 -3 -18.5t-15 -7.5q-16 0 -28.5 4t-12.5 9zM210 779v68q0 5 12.5 9t28.5 4q12 0 15.5 -7.5t3.5 -18.5v-42q0 -11 -3.5 -18.5t-15.5 -7.5q-16 0 -28.5 4t-12.5 9z"/>
<glyph unicode="Ý" horiz-adv-x="543" d="M301 281v-267q0 -11 -3.5 -18.5t-13.5 -7.5q-16 0 -29 4.5t-13 9.5v279l-217 429q-6 11 -1.5 16.5t15.5 5.5q20 0 31 -2.5t15 -10.5l186 -376l186 375q5 9 16 11.5t31 2.5q11 0 15 -5.5t-2 -16.5zM230 772l67 102q4 6 17.5 5t21.5 -6q14 -8 17 -14.5t0 -10.5l-79 -82 q-9 -8 -14.5 -7.5t-16.5 0.5q-8 0 -13 2.5t0 10.5z"/>
<glyph unicode="Þ" horiz-adv-x="577" d="M136 14q0 -11 -3 -18.5t-15 -7.5q-17 0 -31.5 4t-14.5 9v717q0 5 14.5 9.5t31.5 4.5q12 0 15 -7.5t3 -18.5v-135h166q59 0 103.5 -8.5t74 -31t44.5 -62.5t15 -103q0 -62 -14 -101.5t-42.5 -62.5t-70.5 -32t-99 -9h-177v-147zM302 518h-166v-303h166q54 0 87 6.5t51 23 t23.5 46t5.5 75.5t-5.5 76t-23.5 46.5t-51 23t-87 6.5z"/>
<glyph unicode="ß" horiz-adv-x="570" d="M401 535q0 34 -11 60t-29 42.5t-41.5 25t-48.5 8.5t-49 -8.5t-43 -25.5t-30.5 -42.5t-11.5 -59.5v-528q0 -19 -17 -19q-16 0 -29 4t-13 11v533q0 47 17 82t44 58.5t61.5 35t69.5 11.5q36 0 70.5 -12t60.5 -35.5t42 -58.5t16 -82q0 -53 -29 -96t-71 -66q23 -9 54 -23 t59.5 -36t48.5 -52.5t20 -72.5q0 -94 -64 -147.5t-194 -53.5h-41q-14 0 -14 16q0 13 3.5 25t9.5 12h46q39 0 74 8t62 26t43 46t16 68q0 30 -14.5 51t-36 36.5t-46.5 26.5t-46.5 21t-36 21t-14.5 26q0 20 17.5 33t39 28t39 38.5t17.5 64.5z"/>
<glyph unicode="à" horiz-adv-x="477" d="M416 388v-350q0 -8 -16.5 -16.5t-43 -16t-60.5 -12.5t-68 -5q-92 0 -139 36.5t-47 123.5q0 84 39 118t122 34q43 0 87.5 -8.5t70.5 -17.5v114q0 30 -7 50t-23 32t-42.5 17.5t-66.5 5.5q-35 0 -69.5 -4t-63.5 -10q-9 -2 -12 9t-5 21q-2 12 7 15q15 5 59.5 11t98.5 6 q45 0 79 -7t56 -24.5t33 -47t11 -74.5zM361 60v167q-2 3 -17.5 7.5t-38 9.5t-48 8.5t-46.5 3.5q-29 0 -50.5 -4.5t-35.5 -17t-21 -34t-7 -55.5q0 -63 30.5 -88t99.5 -25q18 0 41 2.5t43 7t34 9t16 9.5zM191 758l69 -85q12 -15 11.5 -20.5t-7.5 -5.5q-11 0 -18.5 3.5 t-16.5 11.5l-87 73q-10 8 -10 14t5.5 9.5t15 5.5t19.5 2q5 0 10.5 -1.5t8.5 -6.5z"/>
<glyph unicode="á" horiz-adv-x="477" d="M416 388v-350q0 -8 -16.5 -16.5t-43 -16t-60.5 -12.5t-68 -5q-92 0 -139 36.5t-47 123.5q0 84 39 118t122 34q43 0 87.5 -8.5t70.5 -17.5v114q0 30 -7 50t-23 32t-42.5 17.5t-66.5 5.5q-35 0 -69.5 -4t-63.5 -10q-9 -2 -12 9t-5 21q-2 12 7 15q15 5 59.5 11t98.5 6 q45 0 79 -7t56 -24.5t33 -47t11 -74.5zM361 60v167q-2 3 -17.5 7.5t-38 9.5t-48 8.5t-46.5 3.5q-29 0 -50.5 -4.5t-35.5 -17t-21 -34t-7 -55.5q0 -63 30.5 -88t99.5 -25q18 0 41 2.5t43 7t34 9t16 9.5zM205 653l67 102q4 6 17.5 5t21.5 -6q14 -8 17 -14.5t0 -10.5l-79 -82 q-9 -8 -14.5 -7.5t-16.5 0.5q-8 0 -13 2.5t0 10.5z"/>
<glyph unicode="â" horiz-adv-x="477" d="M416 388v-350q0 -8 -16.5 -16.5t-43 -16t-60.5 -12.5t-68 -5q-92 0 -139 36.5t-47 123.5q0 84 39 118t122 34q43 0 87.5 -8.5t70.5 -17.5v114q0 30 -7 50t-23 32t-42.5 17.5t-66.5 5.5q-35 0 -69.5 -4t-63.5 -10q-9 -2 -12 9t-5 21q-2 12 7 15q15 5 59.5 11t98.5 6 q45 0 79 -7t56 -24.5t33 -47t11 -74.5zM361 60v167q-2 3 -17.5 7.5t-38 9.5t-48 8.5t-46.5 3.5q-29 0 -50.5 -4.5t-35.5 -17t-21 -34t-7 -55.5q0 -63 30.5 -88t99.5 -25q18 0 41 2.5t43 7t34 9t16 9.5zM134 655q-5 5 -4 10t11 12l95 69q3 3 5 3.5t4 0.5t4 -0.5t5 -3.5 l98 -69q10 -7 11 -12t-3 -10q-6 -6 -14.5 -9.5t-10.5 -1.5l-90 56l-87 -56q-2 -2 -10.5 1.5t-13.5 9.5z"/>
<glyph unicode="ã" horiz-adv-x="477" d="M416 388v-350q0 -8 -16.5 -16.5t-43 -16t-60.5 -12.5t-68 -5q-92 0 -139 36.5t-47 123.5q0 84 39 118t122 34q43 0 87.5 -8.5t70.5 -17.5v114q0 30 -7 50t-23 32t-42.5 17.5t-66.5 5.5q-35 0 -69.5 -4t-63.5 -10q-9 -2 -12 9t-5 21q-2 12 7 15q15 5 59.5 11t98.5 6 q45 0 79 -7t56 -24.5t33 -47t11 -74.5zM361 60v167q-2 3 -17.5 7.5t-38 9.5t-48 8.5t-46.5 3.5q-29 0 -50.5 -4.5t-35.5 -17t-21 -34t-7 -55.5q0 -63 30.5 -88t99.5 -25q18 0 41 2.5t43 7t34 9t16 9.5zM207 719q12 0 21.5 -5l19 -10t18.5 -9.5t20 -4.5q6 -1 12.5 1t12.5 5.5 t10 9t4 11.5q0 3 4.5 4t10 1t10 -2.5t4.5 -6.5q-1 -20 -8 -33.5t-17 -21t-21 -10t-20 -2.5q-12 0 -22 4.5t-19.5 10t-19 10t-19.5 4.5q-11 0 -24.5 -6.5t-13.5 -20.5q0 -3 -4.5 -4.5t-10.5 -1t-10.5 2.5t-4.5 7q1 20 8 33.5t17.5 21t21.5 10t20 2.5z"/>
<glyph unicode="ä" horiz-adv-x="477" d="M416 388v-350q0 -8 -16.5 -16.5t-43 -16t-60.5 -12.5t-68 -5q-92 0 -139 36.5t-47 123.5q0 84 39 118t122 34q43 0 87.5 -8.5t70.5 -17.5v114q0 30 -7 50t-23 32t-42.5 17.5t-66.5 5.5q-35 0 -69.5 -4t-63.5 -10q-9 -2 -12 9t-5 21q-2 12 7 15q15 5 59.5 11t98.5 6 q45 0 79 -7t56 -24.5t33 -47t11 -74.5zM361 60v167q-2 3 -17.5 7.5t-38 9.5t-48 8.5t-46.5 3.5q-29 0 -50.5 -4.5t-35.5 -17t-21 -34t-7 -55.5q0 -63 30.5 -88t99.5 -25q18 0 41 2.5t43 7t34 9t16 9.5zM288 661v68q0 5 12.5 9t28.5 4q12 0 15 -7.5t3 -18.5v-42 q0 -11 -3 -18.5t-15 -7.5q-16 0 -28.5 4t-12.5 9zM138 661v68q0 5 12.5 9t28.5 4q12 0 15.5 -7.5t3.5 -18.5v-42q0 -11 -3.5 -18.5t-15.5 -7.5q-16 0 -28.5 4t-12.5 9z"/>
<glyph unicode="å" horiz-adv-x="477" d="M416 388v-350q0 -8 -16.5 -16.5t-43 -16t-60.5 -12.5t-68 -5q-92 0 -139 36.5t-47 123.5q0 84 39 118t122 34q43 0 87.5 -8.5t70.5 -17.5v114q0 30 -7 50t-23 32t-42.5 17.5t-66.5 5.5q-35 0 -69.5 -4t-63.5 -10q-9 -2 -12 9t-5 21q-2 12 7 15q15 5 59.5 11t98.5 6 q45 0 79 -7t56 -24.5t33 -47t11 -74.5zM361 60v167q-2 3 -17.5 7.5t-38 9.5t-48 8.5t-46.5 3.5q-29 0 -50.5 -4.5t-35.5 -17t-21 -34t-7 -55.5q0 -63 30.5 -88t99.5 -25q18 0 41 2.5t43 7t34 9t16 9.5zM245 649q-41 0 -66.5 24t-25.5 63q0 40 27 64t65 24q39 0 66.5 -24 t27.5 -65q0 -38 -26.5 -62t-67.5 -24zM246 685q23 0 38.5 14.5t15.5 36.5q0 21 -15.5 37t-39.5 16q-23 0 -38 -15.5t-15 -37.5t15 -36.5t39 -14.5z"/>
<glyph unicode="æ" horiz-adv-x="769" d="M722 5q-38 -9 -78.5 -13t-72.5 -4q-56 0 -93.5 11.5t-61.5 35.5q-3 -8 -20.5 -16t-43.5 -15t-58 -11.5t-65 -4.5q-92 0 -139 36.5t-47 123.5q0 84 39 118t122 34q43 0 87.5 -8.5t70.5 -17.5v114q0 30 -7 50t-23 32t-42.5 17.5t-66.5 5.5q-35 0 -69.5 -4t-63.5 -10 q-9 -2 -12 9t-5 21q-2 12 7 15q15 5 59.5 11t98.5 6q59 0 98 -12.5t59 -44.5q23 31 62.5 44t94.5 13h15q174 0 174 -142v-25q0 -45 -11.5 -76.5t-46 -51.5t-98 -29t-168.5 -9v-9q0 -42 8 -73t27.5 -51.5t50.5 -30t78 -9.5q40 0 75.5 6t61.5 10q8 1 11.5 -2t4.5 -22 q2 -11 -0.5 -15.5t-11.5 -6.5zM686 379v22q0 47 -30.5 71t-100.5 24q-30 0 -55.5 -5.5t-43.5 -19.5t-28.5 -37.5t-10.5 -60.5v-121q85 0 137.5 5.5t82 19.5t39.5 39t10 63zM362 60v167q-2 3 -17.5 7.5t-38 9.5t-48 8.5t-46.5 3.5q-29 0 -50.5 -4.5t-35.5 -17t-21 -34 t-7 -55.5q0 -63 30.5 -88t99.5 -25q18 0 41 2.5t43 7t34 9t16 9.5z"/>
<glyph unicode="ç" horiz-adv-x="422" d="M213 -45l17 34q-92 4 -132 52.5t-40 149.5v147q0 106 44.5 154.5t150.5 48.5q36 0 67.5 -4t42.5 -7q9 -2 15 -5t4 -13q-2 -18 -5.5 -25t-10.5 -6q-4 0 -15.5 2t-27.5 4.5t-34 4t-36 1.5q-71 0 -105.5 -35.5t-34.5 -119.5v-146q0 -87 35 -121.5t109 -34.5q22 0 46.5 3 t63.5 9q8 1 10 -6.5t4 -20.5q2 -11 -4.5 -15t-15.5 -6q-26 -5 -39.5 -7t-22.5 -3t-17 -1t-23 -1l-10 -20q13 -1 26.5 -5t24 -11.5t17 -19.5t5.5 -29q-1 -21 -9 -34t-19 -20t-24 -9.5t-23 -3.5q-17 -2 -39 1.5t-31 10.5q-4 5 0.5 15t14.5 8q8 -3 19.5 -6.5t22.5 -3.5 q19 0 32.5 10.5t13.5 33.5q0 19 -11.5 27t-25 11t-23.5 4.5t-7 7.5z"/>
<glyph unicode="è" horiz-adv-x="463" d="M416 5q-38 -9 -78.5 -13t-72.5 -4q-63 0 -103 15t-63.5 46t-32.5 79t-9 115v122q0 49 12.5 83t36.5 54.5t59.5 29.5t80.5 9h15q174 0 174 -142v-25q0 -45 -11.5 -76.5t-46 -51.5t-98 -29t-168.5 -9q0 -45 8 -77.5t26.5 -53.5t50 -31.5t79.5 -10.5q40 0 75.5 6t61.5 10 q8 1 11.5 -2t4.5 -22q2 -11 -0.5 -15.5t-11.5 -6.5zM380 379v22q0 47 -30.5 71t-100.5 24q-31 0 -56.5 -5.5t-43.5 -20.5t-28 -40t-10 -64v-114q85 0 137.5 5.5t82 19.5t39.5 39t10 63zM182 758l69 -85q12 -15 11.5 -20.5t-7.5 -5.5q-11 0 -18.5 3.5t-16.5 11.5l-87 73 q-10 8 -10 14t5.5 9.5t15 5.5t19.5 2q5 0 10.5 -1.5t8.5 -6.5z"/>
<glyph unicode="é" horiz-adv-x="463" d="M416 5q-38 -9 -78.5 -13t-72.5 -4q-63 0 -103 15t-63.5 46t-32.5 79t-9 115v122q0 49 12.5 83t36.5 54.5t59.5 29.5t80.5 9h15q174 0 174 -142v-25q0 -45 -11.5 -76.5t-46 -51.5t-98 -29t-168.5 -9q0 -45 8 -77.5t26.5 -53.5t50 -31.5t79.5 -10.5q40 0 75.5 6t61.5 10 q8 1 11.5 -2t4.5 -22q2 -11 -0.5 -15.5t-11.5 -6.5zM380 379v22q0 47 -30.5 71t-100.5 24q-31 0 -56.5 -5.5t-43.5 -20.5t-28 -40t-10 -64v-114q85 0 137.5 5.5t82 19.5t39.5 39t10 63zM196 653l67 102q4 6 17.5 5t21.5 -6q14 -8 17 -14.5t0 -10.5l-79 -82q-9 -8 -14.5 -7.5 t-16.5 0.5q-8 0 -13 2.5t0 10.5z"/>
<glyph unicode="ê" horiz-adv-x="463" d="M416 5q-38 -9 -78.5 -13t-72.5 -4q-63 0 -103 15t-63.5 46t-32.5 79t-9 115v122q0 49 12.5 83t36.5 54.5t59.5 29.5t80.5 9h15q174 0 174 -142v-25q0 -45 -11.5 -76.5t-46 -51.5t-98 -29t-168.5 -9q0 -45 8 -77.5t26.5 -53.5t50 -31.5t79.5 -10.5q40 0 75.5 6t61.5 10 q8 1 11.5 -2t4.5 -22q2 -11 -0.5 -15.5t-11.5 -6.5zM380 379v22q0 47 -30.5 71t-100.5 24q-31 0 -56.5 -5.5t-43.5 -20.5t-28 -40t-10 -64v-114q85 0 137.5 5.5t82 19.5t39.5 39t10 63zM126 655q-5 5 -4 10t11 12l95 69q3 3 5 3.5t4 0.5t4 -0.5t5 -3.5l98 -69q10 -7 11 -12 t-3 -10q-6 -6 -14.5 -9.5t-10.5 -1.5l-90 56l-87 -56q-2 -2 -10.5 1.5t-13.5 9.5z"/>
<glyph unicode="ë" horiz-adv-x="463" d="M416 5q-38 -9 -78.5 -13t-72.5 -4q-63 0 -103 15t-63.5 46t-32.5 79t-9 115v122q0 49 12.5 83t36.5 54.5t59.5 29.5t80.5 9h15q174 0 174 -142v-25q0 -45 -11.5 -76.5t-46 -51.5t-98 -29t-168.5 -9q0 -45 8 -77.5t26.5 -53.5t50 -31.5t79.5 -10.5q40 0 75.5 6t61.5 10 q8 1 11.5 -2t4.5 -22q2 -11 -0.5 -15.5t-11.5 -6.5zM380 379v22q0 47 -30.5 71t-100.5 24q-31 0 -56.5 -5.5t-43.5 -20.5t-28 -40t-10 -64v-114q85 0 137.5 5.5t82 19.5t39.5 39t10 63zM279 661v68q0 5 12.5 9t28.5 4q12 0 15 -7.5t3 -18.5v-42q0 -11 -3 -18.5t-15 -7.5 q-16 0 -28.5 4t-12.5 9zM129 661v68q0 5 12.5 9t28.5 4q12 0 15.5 -7.5t3.5 -18.5v-42q0 -11 -3.5 -18.5t-15.5 -7.5q-16 0 -28.5 4t-12.5 9z"/>
<glyph unicode="ì" horiz-adv-x="250" d="M242 50q4 0 6.5 -4t4 -10t2.5 -11.5t1 -8.5q1 -11 -18 -18q-29 -10 -65 -10q-23 0 -42.5 5.5t-33.5 19.5t-22 37.5t-8 59.5v419q0 7 14.5 9t23.5 2q17 0 17 -22v-401q0 -35 13 -56t50 -21q12 0 24.5 2t32.5 8zM40 757l69 -85q12 -15 11.5 -20.5t-7.5 -5.5 q-11 0 -18.5 3.5t-16.5 11.5l-87 73q-10 8 -10 14t5.5 9.5t15 5.5t19.5 2q5 0 10.5 -1.5t8.5 -6.5z"/>
<glyph unicode="í" horiz-adv-x="250" d="M242 50q4 0 6.5 -4t4 -10t2.5 -11.5t1 -8.5q1 -11 -18 -18q-29 -10 -65 -10q-23 0 -42.5 5.5t-33.5 19.5t-22 37.5t-8 59.5v419q0 7 14.5 9t23.5 2q17 0 17 -22v-401q0 -35 13 -56t50 -21q12 0 24.5 2t32.5 8zM54 652l67 102q4 6 17.5 5t21.5 -6q14 -8 17 -14.5t0 -10.5 l-79 -82q-9 -8 -14.5 -7.5t-16.5 0.5q-8 0 -13 2.5t0 10.5z"/>
<glyph unicode="î" horiz-adv-x="250" d="M242 50q4 0 6.5 -4t4 -10t2.5 -11.5t1 -8.5q1 -11 -18 -18q-29 -10 -65 -10q-23 0 -42.5 5.5t-33.5 19.5t-22 37.5t-8 59.5v419q0 7 14.5 9t23.5 2q17 0 17 -22v-401q0 -35 13 -56t50 -21q12 0 24.5 2t32.5 8zM-17 654q-5 5 -4 10t11 12l95 69q3 3 5 3.5t4 0.5t4 -0.5 t5 -3.5l98 -69q10 -7 11 -12t-3 -10q-6 -6 -14.5 -9.5t-10.5 -1.5l-90 56l-87 -56q-2 -2 -10.5 1.5t-13.5 9.5z"/>
<glyph unicode="ï" horiz-adv-x="250" d="M242 50q4 0 6.5 -4t4 -10t2.5 -11.5t1 -8.5q1 -11 -18 -18q-29 -10 -65 -10q-23 0 -42.5 5.5t-33.5 19.5t-22 37.5t-8 59.5v419q0 7 14.5 9t23.5 2q17 0 17 -22v-401q0 -35 13 -56t50 -21q12 0 24.5 2t32.5 8zM137 660v68q0 5 12.5 9t28.5 4q12 0 15 -7.5t3 -18.5v-42 q0 -11 -3 -18.5t-15 -7.5q-16 0 -28.5 4t-12.5 9zM-13 660v68q0 5 12.5 9t28.5 4q12 0 15.5 -7.5t3.5 -18.5v-42q0 -11 -3.5 -18.5t-15.5 -7.5q-16 0 -28.5 4t-12.5 9z"/>
<glyph unicode="ð" horiz-adv-x="562" d="M167 680q-14 8 -12.5 21.5t9.5 24.5q4 5 10 4.5t14 -4.5q16 -8 34.5 -19t41.5 -26l37 66q8 12 19 6t21 -14.5t5 -18.5l-39 -69q97 -76 153 -185t56 -240v-10q0 -64 -14 -107.5t-42.5 -70.5t-72 -38.5t-103.5 -11.5h-9q-60 0 -103.5 11.5t-72 38.5t-42.5 70.5t-14 107.5 v13q0 61 13 104t39.5 70.5t67.5 40t97 12.5h9q44 0 83.5 -9.5t71.5 -41.5q-29 69 -66 117t-78 82l-36 -64q-2 -5 -7 -7.5t-11 0.5q-10 5 -20.5 14t-4.5 20l38 68l-16.5 11t-15 9.5t-17 10.5t-23.5 14zM284 405h-9q-56 0 -89.5 -12.5t-52.5 -36t-25 -56t-6 -71.5v-13 q0 -39 6 -71.5t25 -56t52.5 -36t89.5 -12.5h9q55 0 89 12.5t52.5 36t24.5 56t6 71.5l-1 10q-4 37 -8.5 69.5t-20.5 57t-49 38.5t-93 14z"/>
<glyph unicode="ñ" d="M388 0v386q0 28 -3.5 47.5t-13.5 32t-28 18.5t-46 6q-29 0 -60 -5.5t-56.5 -14t-42 -17.5t-16.5 -15v-428q0 -14 -5 -18t-13 -4q-12 0 -25 3.5t-13 8.5v461q0 12 21 26t55 26t77.5 20t88.5 8q37 0 63 -7.5t42 -25.5t23 -48t7 -75v-375q0 -14 -5 -18t-13 -4 q-12 0 -24.5 3.5t-12.5 8.5zM219 719q12 0 21.5 -5l19 -10t18.5 -9.5t20 -4.5q6 -1 12.5 1t12.5 5.5t10 9t4 11.5q0 3 4.5 4t10 1t10 -2.5t4.5 -6.5q-1 -20 -8 -33.5t-17 -21t-21 -10t-20 -2.5q-12 0 -22 4.5t-19.5 10t-19 10t-19.5 4.5q-11 0 -24.5 -6.5t-13.5 -20.5 q0 -3 -4.5 -4.5t-10.5 -1t-10.5 2.5t-4.5 7q1 20 8 33.5t17.5 21t21.5 10t20 2.5z"/>
<glyph unicode="ò" horiz-adv-x="495" d="M58 154v219q0 90 47 129t149 39h2q103 0 150 -39t47 -129v-219q0 -90 -47 -128t-150 -38h-2q-102 0 -149 38t-47 128zM254 37h3q78 0 109.5 29t31.5 88v219q0 60 -31.5 89.5t-109.5 29.5h-3q-78 0 -109.5 -29.5t-31.5 -89.5v-219q0 -59 31.5 -88t109.5 -29zM192 758 l69 -85q12 -15 11.5 -20.5t-7.5 -5.5q-11 0 -18.5 3.5t-16.5 11.5l-87 73q-10 8 -10 14t5.5 9.5t15 5.5t19.5 2q5 0 10.5 -1.5t8.5 -6.5z"/>
<glyph unicode="ó" horiz-adv-x="495" d="M58 154v219q0 90 47 129t149 39h2q103 0 150 -39t47 -129v-219q0 -90 -47 -128t-150 -38h-2q-102 0 -149 38t-47 128zM254 37h3q78 0 109.5 29t31.5 88v219q0 60 -31.5 89.5t-109.5 29.5h-3q-78 0 -109.5 -29.5t-31.5 -89.5v-219q0 -59 31.5 -88t109.5 -29zM214 655 l67 102q4 6 17.5 5t21.5 -6q14 -8 17 -14.5t0 -10.5l-79 -82q-9 -8 -14.5 -7.5t-16.5 0.5q-8 0 -13 2.5t0 10.5z"/>
<glyph unicode="ô" horiz-adv-x="495" d="M58 154v219q0 90 47 129t149 39h2q103 0 150 -39t47 -129v-219q0 -90 -47 -128t-150 -38h-2q-102 0 -149 38t-47 128zM254 37h3q78 0 109.5 29t31.5 88v219q0 60 -31.5 89.5t-109.5 29.5h-3q-78 0 -109.5 -29.5t-31.5 -89.5v-219q0 -59 31.5 -88t109.5 -29zM136 655 q-5 5 -4 10t11 12l95 69q3 3 5 3.5t4 0.5t4 -0.5t5 -3.5l98 -69q10 -7 11 -12t-3 -10q-6 -6 -14.5 -9.5t-10.5 -1.5l-90 56l-87 -56q-2 -2 -10.5 1.5t-13.5 9.5z"/>
<glyph unicode="õ" horiz-adv-x="495" d="M58 154v219q0 90 47 129t149 39h2q103 0 150 -39t47 -129v-219q0 -90 -47 -128t-150 -38h-2q-102 0 -149 38t-47 128zM254 37h3q78 0 109.5 29t31.5 88v219q0 60 -31.5 89.5t-109.5 29.5h-3q-78 0 -109.5 -29.5t-31.5 -89.5v-219q0 -59 31.5 -88t109.5 -29zM208 719 q12 0 21.5 -5l19 -10t18.5 -9.5t20 -4.5q6 -1 12.5 1t12.5 5.5t10 9t4 11.5q0 3 4.5 4t10 1t10 -2.5t4.5 -6.5q-1 -20 -8 -33.5t-17 -21t-21 -10t-20 -2.5q-12 0 -22 4.5t-19.5 10t-19 10t-19.5 4.5q-11 0 -24.5 -6.5t-13.5 -20.5q0 -3 -4.5 -4.5t-10.5 -1t-10.5 2.5t-4.5 7 q1 20 8 33.5t17.5 21t21.5 10t20 2.5z"/>
<glyph unicode="ö" horiz-adv-x="495" d="M58 154v219q0 90 47 129t149 39h2q103 0 150 -39t47 -129v-219q0 -90 -47 -128t-150 -38h-2q-102 0 -149 38t-47 128zM254 37h3q78 0 109.5 29t31.5 88v219q0 60 -31.5 89.5t-109.5 29.5h-3q-78 0 -109.5 -29.5t-31.5 -89.5v-219q0 -59 31.5 -88t109.5 -29zM289 661v68 q0 5 12.5 9t28.5 4q12 0 15 -7.5t3 -18.5v-42q0 -11 -3 -18.5t-15 -7.5q-16 0 -28.5 4t-12.5 9zM139 661v68q0 5 12.5 9t28.5 4q12 0 15.5 -7.5t3.5 -18.5v-42q0 -11 -3.5 -18.5t-15.5 -7.5q-16 0 -28.5 4t-12.5 9z"/>
<glyph unicode="÷" horiz-adv-x="487" d="M211 12v74q0 5 12.5 9.5t28.5 4.5q11 0 15 -7.5t4 -18.5v-49q0 -11 -4 -18.5t-15 -7.5q-16 0 -28.5 4t-12.5 9zM211 470v74q0 5 12.5 9t28.5 4q11 0 15 -7.5t4 -18.5v-49q0 -11 -4 -18.5t-15 -7.5q-16 0 -28.5 4.5t-12.5 9.5zM445 251h-407q-15 0 -15 13q0 12 3.5 25.5 t14.5 13.5h407q16 0 16 -13q0 -12 -3.5 -25.5t-15.5 -13.5z"/>
<glyph unicode="ø" horiz-adv-x="495" d="M58 154v219q0 90 47 129t149 39h2q52 0 88 -10l40 89q7 16 24 11q9 -3 15 -8.5t4 -10.5l-44 -95q70 -36 70 -144v-219q0 -90 -47 -128t-150 -38h-2q-61 0 -105 14l-36 -79q-3 -9 -9 -14t-15 -1q-14 5 -17.5 10t-1.5 11l41 92q-53 38 -53 133zM254 37h3q78 0 109.5 29 t31.5 88v219q0 32 -8.5 55.5t-28.5 38.5l-190 -417q30 -13 83 -13zM113 154q0 -52 23 -79l186 409q-14 4 -29.5 6t-35.5 2h-3q-78 0 -109.5 -29.5t-31.5 -89.5v-219z"/>
<glyph unicode="ù" d="M388 61v468q0 5 12.5 8.5t24.5 3.5q8 0 13 -4t5 -18v-475q0 -13 -5 -17t-14 -8q-26 -10 -77 -20.5t-108 -10.5q-53 0 -86.5 11t-53 33t-26.5 54t-7 73v370q0 5 12.5 8.5t24.5 3.5q8 0 13.5 -4t5.5 -18v-357q0 -31 5 -54.5t17.5 -39.5t35.5 -24t59 -8q24 0 50.5 3t48.5 7 t36 8.5t14 6.5zM203 758l69 -85q12 -15 11.5 -20.5t-7.5 -5.5q-11 0 -18.5 3.5t-16.5 11.5l-87 73q-10 8 -10 14t5.5 9.5t15 5.5t19.5 2q5 0 10.5 -1.5t8.5 -6.5z"/>
<glyph unicode="ú" d="M388 61v468q0 5 12.5 8.5t24.5 3.5q8 0 13 -4t5 -18v-475q0 -13 -5 -17t-14 -8q-26 -10 -77 -20.5t-108 -10.5q-53 0 -86.5 11t-53 33t-26.5 54t-7 73v370q0 5 12.5 8.5t24.5 3.5q8 0 13.5 -4t5.5 -18v-357q0 -31 5 -54.5t17.5 -39.5t35.5 -24t59 -8q24 0 50.5 3t48.5 7 t36 8.5t14 6.5zM217 653l67 102q4 6 17.5 5t21.5 -6q14 -8 17 -14.5t0 -10.5l-79 -82q-9 -8 -14.5 -7.5t-16.5 0.5q-8 0 -13 2.5t0 10.5z"/>
<glyph unicode="û" d="M388 61v468q0 5 12.5 8.5t24.5 3.5q8 0 13 -4t5 -18v-475q0 -13 -5 -17t-14 -8q-26 -10 -77 -20.5t-108 -10.5q-53 0 -86.5 11t-53 33t-26.5 54t-7 73v370q0 5 12.5 8.5t24.5 3.5q8 0 13.5 -4t5.5 -18v-357q0 -31 5 -54.5t17.5 -39.5t35.5 -24t59 -8q24 0 50.5 3t48.5 7 t36 8.5t14 6.5zM146 655q-5 5 -4 10t11 12l95 69q3 3 5 3.5t4 0.5t4 -0.5t5 -3.5l98 -69q10 -7 11 -12t-3 -10q-6 -6 -14.5 -9.5t-10.5 -1.5l-90 56l-87 -56q-2 -2 -10.5 1.5t-13.5 9.5z"/>
<glyph unicode="ü" d="M388 61v468q0 5 12.5 8.5t24.5 3.5q8 0 13 -4t5 -18v-475q0 -13 -5 -17t-14 -8q-26 -10 -77 -20.5t-108 -10.5q-53 0 -86.5 11t-53 33t-26.5 54t-7 73v370q0 5 12.5 8.5t24.5 3.5q8 0 13.5 -4t5.5 -18v-357q0 -31 5 -54.5t17.5 -39.5t35.5 -24t59 -8q24 0 50.5 3t48.5 7 t36 8.5t14 6.5zM300 661v68q0 5 12.5 9t28.5 4q12 0 15 -7.5t3 -18.5v-42q0 -11 -3 -18.5t-15 -7.5q-16 0 -28.5 4t-12.5 9zM150 661v68q0 5 12.5 9t28.5 4q12 0 15.5 -7.5t3.5 -18.5v-42q0 -11 -3.5 -18.5t-15.5 -7.5q-16 0 -28.5 4t-12.5 9z"/>
<glyph unicode="ý" horiz-adv-x="512" d="M390 529q0 5 13 8.5t24 3.5q13 0 16 -9.5t3 -23.5v-532q0 -111 -50 -161t-163 -50q-62 0 -101 6.5t-47 8.5q-11 3 -14.5 5.5t-3.5 10.5q0 33 13 33q3 0 16 -2t33.5 -5t45.5 -5t52 -2q30 0 59 5.5t52.5 22.5t37.5 48.5t14 84.5v64q-15 -9 -36 -18.5t-46.5 -17t-53.5 -12 t-55 -4.5q-66 0 -93 34t-27 112v395q0 5 12.5 8.5t24.5 3.5q8 0 13.5 -4t5.5 -18v-379q0 -60 18.5 -80.5t61.5 -20.5q29 0 60 6.5t56 16t41.5 19.5t17.5 17v431zM223 653l67 102q4 6 17.5 5t21.5 -6q14 -8 17 -14.5t0 -10.5l-79 -82q-9 -8 -14.5 -7.5t-16.5 0.5 q-8 0 -13 2.5t0 10.5z"/>
<glyph unicode="þ" horiz-adv-x="496" d="M71 -265v1023q0 5 13 8.5t29 3.5q11 0 13.5 -7t2.5 -16v-252q44 23 93.5 34.5t100.5 11.5q39 0 62 -13.5t35 -36.5t15.5 -53.5t3.5 -63.5q0 -17 -0.5 -34.5t-0.5 -35.5v-127q0 -38 -1.5 -72t-12.5 -60.5t-34.5 -42t-67.5 -15.5q-30 0 -82 4.5t-111 19.5v-265 q0 -10 -2.5 -17t-13.5 -7q-16 0 -29 4t-13 9zM129 438v-355q-3 -9 6 -19q21 -12 67 -20t104 -8q21 0 36 9q14 7 21.5 22t10.5 35.5t3.5 46t0.5 53.5v167q0 41 -6.5 70t-26.5 44q-8 4 -16 6.5t-19 2.5q-14 0 -27.5 -1t-26.5 -3q-55 -7 -91 -21.5t-36 -28.5z"/>
<glyph unicode="ÿ" horiz-adv-x="512" d="M390 529q0 5 13 8.5t24 3.5q13 0 16 -9.5t3 -23.5v-532q0 -111 -50 -161t-163 -50q-62 0 -101 6.5t-47 8.5q-11 3 -14.5 5.5t-3.5 10.5q0 33 13 33q3 0 16 -2t33.5 -5t45.5 -5t52 -2q30 0 59 5.5t52.5 22.5t37.5 48.5t14 84.5v64q-15 -9 -36 -18.5t-46.5 -17t-53.5 -12 t-55 -4.5q-66 0 -93 34t-27 112v395q0 5 12.5 8.5t24.5 3.5q8 0 13.5 -4t5.5 -18v-379q0 -60 18.5 -80.5t61.5 -20.5q29 0 60 6.5t56 16t41.5 19.5t17.5 17v431zM306 661v68q0 5 12.5 9t28.5 4q12 0 15 -7.5t3 -18.5v-42q0 -11 -3 -18.5t-15 -7.5q-16 0 -28.5 4t-12.5 9z M156 661v68q0 5 12.5 9t28.5 4q12 0 15.5 -7.5t3.5 -18.5v-42q0 -11 -3.5 -18.5t-15.5 -7.5q-16 0 -28.5 4t-12.5 9z"/>
<glyph unicode="Ā" horiz-adv-x="557" d="M500 5l-77 236h-261l-82 -241q-3 -9 -15.5 -10.5t-26.5 -1.5q-7 0 -12 2t-5 9q0 2 0.5 4t1.5 5l238 709q2 8 15 11.5t30 3.5q13 0 19 -17l236 -707q1 -3 1.5 -5t0.5 -4q0 -7 -5.5 -9t-10.5 -2q-21 0 -32 3t-15 14zM284 618l-107 -325h230l-107 325q-3 9 -4.5 19t-3.5 18 q-2 -8 -3.5 -18t-4.5 -19zM364 768h-165q-6 0 -11.5 3t-5.5 8q0 8 1.5 20t9.5 12h166q5 0 11 -3t6 -8q0 -8 -2.5 -20t-9.5 -12z"/>
<glyph unicode="ā" horiz-adv-x="477" d="M416 388v-350q0 -8 -16.5 -16.5t-43 -16t-60.5 -12.5t-68 -5q-92 0 -139 36.5t-47 123.5q0 84 39 118t122 34q43 0 87.5 -8.5t70.5 -17.5v114q0 30 -7 50t-23 32t-42.5 17.5t-66.5 5.5q-35 0 -69.5 -4t-63.5 -10q-9 -2 -12 9t-5 21q-2 12 7 15q15 5 59.5 11t98.5 6 q45 0 79 -7t56 -24.5t33 -47t11 -74.5zM361 60v167q-2 3 -17.5 7.5t-38 9.5t-48 8.5t-46.5 3.5q-29 0 -50.5 -4.5t-35.5 -17t-21 -34t-7 -55.5q0 -63 30.5 -88t99.5 -25q18 0 41 2.5t43 7t34 9t16 9.5zM332 650h-165q-6 0 -11.5 3t-5.5 8q0 8 1.5 20t9.5 12h166q5 0 11 -3 t6 -8q0 -8 -2.5 -20t-9.5 -12z"/>
<glyph unicode="Ă" horiz-adv-x="557" d="M500 5l-77 236h-261l-82 -241q-3 -9 -15.5 -10.5t-26.5 -1.5q-7 0 -12 2t-5 9q0 2 0.5 4t1.5 5l238 709q2 8 15 11.5t30 3.5q13 0 19 -17l236 -707q1 -3 1.5 -5t0.5 -4q0 -7 -5.5 -9t-10.5 -2q-21 0 -32 3t-15 14zM284 618l-107 -325h230l-107 325q-3 9 -4.5 19t-3.5 18 q-2 -8 -3.5 -18t-4.5 -19zM278 766q-20 0 -39 4.5t-34 14.5t-24 26.5t-9 39.5q0 5 4.5 7.5t8.5 2.5q9 0 21.5 -1.5t12.5 -7.5q0 -23 18 -35t41 -12t41 12t18 35q0 6 12.5 7.5t22.5 1.5q3 0 7.5 -2.5t4.5 -7.5q0 -23 -9 -39.5t-24 -26.5t-34 -14.5t-39 -4.5z"/>
<glyph unicode="ă" horiz-adv-x="477" d="M416 388v-350q0 -8 -16.5 -16.5t-43 -16t-60.5 -12.5t-68 -5q-92 0 -139 36.5t-47 123.5q0 84 39 118t122 34q43 0 87.5 -8.5t70.5 -17.5v114q0 30 -7 50t-23 32t-42.5 17.5t-66.5 5.5q-35 0 -69.5 -4t-63.5 -10q-9 -2 -12 9t-5 21q-2 12 7 15q15 5 59.5 11t98.5 6 q45 0 79 -7t56 -24.5t33 -47t11 -74.5zM361 60v167q-2 3 -17.5 7.5t-38 9.5t-48 8.5t-46.5 3.5q-29 0 -50.5 -4.5t-35.5 -17t-21 -34t-7 -55.5q0 -63 30.5 -88t99.5 -25q18 0 41 2.5t43 7t34 9t16 9.5zM246 648q-20 0 -39 4.5t-34 14.5t-24 26.5t-9 39.5q0 5 4.5 7.5 t8.5 2.5q9 0 21.5 -1.5t12.5 -7.5q0 -23 18 -35t41 -12t41 12t18 35q0 6 12.5 7.5t22.5 1.5q3 0 7.5 -2.5t4.5 -7.5q0 -23 -9 -39.5t-24 -26.5t-34 -14.5t-39 -4.5z"/>
<glyph unicode="Ą" horiz-adv-x="557" d="M550 -107q4 2 8 -0.5t6.5 -7t3.5 -9.5t0 -8q-11 -14 -30 -21.5t-39 -7.5q-37 0 -54.5 20t-17.5 45q0 30 19 55t42 36h18q-5 5 -6 10l-77 236h-261l-82 -241q-3 -9 -15.5 -10.5t-26.5 -1.5q-7 0 -12 2t-5 9q0 2 0.5 4t1.5 5l238 709q2 8 15 11.5t30 3.5q13 0 19 -17 l236 -707q1 -3 1.5 -5t0.5 -4q0 -7 -5.5 -9t-10.5 -2q-19 0 -31 3q-21 -18 -33 -36t-12 -38q0 -13 8.5 -26.5t31.5 -13.5q11 0 19.5 4t19.5 12zM284 618l-107 -325h230l-107 325q-3 9 -4.5 19t-3.5 18q-2 -8 -3.5 -18t-4.5 -19z"/>
<glyph unicode="ą" horiz-adv-x="477" d="M435 -57q4 2 8 -0.5t6.5 -7t3.5 -9.5t0 -8q-11 -14 -30 -21.5t-39 -7.5q-37 0 -54.5 20t-17.5 45q0 24 12 44q-23 -5 -47 -7.5t-49 -2.5q-92 0 -139 36.5t-47 123.5q0 84 39 118t122 34q43 0 87.5 -8.5t70.5 -17.5v114q0 30 -7 50t-23 32t-42.5 17.5t-66.5 5.5 q-35 0 -69.5 -4t-63.5 -10q-9 -2 -12 9t-5 21q-2 12 7 15q15 5 59.5 11t98.5 6q45 0 79 -7t56 -24.5t33 -47t11 -74.5v-350q0 -7 -12.5 -14t-32.5 -14q-15 -21 -15 -43q0 -13 8.5 -26.5t31.5 -13.5q11 0 19.5 4t19.5 12zM361 60v167q-2 3 -17.5 7.5t-38 9.5t-48 8.5 t-46.5 3.5q-29 0 -50.5 -4.5t-35.5 -17t-21 -34t-7 -55.5q0 -63 30.5 -88t99.5 -25q18 0 41 2.5t43 7t34 9t16 9.5z"/>
<glyph unicode="Ć" horiz-adv-x="521" d="M119 461v-202q0 -62 10.5 -104t34 -68t61 -37.5t91.5 -11.5h8q53 0 89.5 7t49.5 9q8 1 11 -14t3 -26q0 -5 -14 -10t-36.5 -8.5t-50.5 -5.5t-56 -2h-8q-65 0 -112.5 13.5t-79 44.5t-47 81.5t-15.5 125.5v214q0 75 15.5 125.5t47.5 81.5t80 44.5t113 13.5h8q24 0 51.5 -2 t50.5 -5.5t38.5 -8t15.5 -10.5q0 -14 -2.5 -27.5t-9.5 -12.5q-6 1 -19 3.5t-32 5t-41.5 4.5t-47.5 2h-8q-55 0 -93 -11.5t-61.5 -37t-34 -68t-10.5 -103.5zM263 771l67 102q4 6 17.5 5t21.5 -6q14 -8 17 -14.5t0 -10.5l-79 -82q-9 -8 -14.5 -7.5t-16.5 0.5q-8 0 -13 2.5 t0 10.5z"/>
<glyph unicode="ć" horiz-adv-x="422" d="M367 48q8 1 10 -6.5t4 -20.5q2 -12 -5 -15.5t-15 -5.5q-17 -4 -47.5 -8t-66.5 -4q-101 0 -145 48.5t-44 154.5v147q0 106 44.5 154.5t150.5 48.5q36 0 67.5 -4t42.5 -7q9 -2 15 -5t4 -13q-2 -18 -5.5 -25t-10.5 -6q-4 0 -15.5 2t-27.5 4.5t-34 4t-36 1.5 q-71 0 -105.5 -35.5t-34.5 -119.5v-146q0 -87 35 -121.5t109 -34.5q22 0 46.5 3t63.5 9zM198 653l67 102q4 6 17.5 5t21.5 -6q14 -8 17 -14.5t0 -10.5l-79 -82q-9 -8 -14.5 -7.5t-16.5 0.5q-8 0 -13 2.5t0 10.5z"/>
<glyph unicode="Ĉ" horiz-adv-x="521" d="M119 461v-202q0 -62 10.5 -104t34 -68t61 -37.5t91.5 -11.5h8q53 0 89.5 7t49.5 9q8 1 11 -14t3 -26q0 -5 -14 -10t-36.5 -8.5t-50.5 -5.5t-56 -2h-8q-65 0 -112.5 13.5t-79 44.5t-47 81.5t-15.5 125.5v214q0 75 15.5 125.5t47.5 81.5t80 44.5t113 13.5h8q24 0 51.5 -2 t50.5 -5.5t38.5 -8t15.5 -10.5q0 -14 -2.5 -27.5t-9.5 -12.5q-6 1 -19 3.5t-32 5t-41.5 4.5t-47.5 2h-8q-55 0 -93 -11.5t-61.5 -37t-34 -68t-10.5 -103.5zM189 773q-5 5 -4 10t11 12l95 69q3 3 5 3.5t4 0.5t4 -0.5t5 -3.5l98 -69q10 -7 11 -12t-3 -10q-6 -6 -14.5 -9.5 t-10.5 -1.5l-90 56l-87 -56q-2 -2 -10.5 1.5t-13.5 9.5z"/>
<glyph unicode="ĉ" horiz-adv-x="422" d="M367 48q8 1 10 -6.5t4 -20.5q2 -12 -5 -15.5t-15 -5.5q-17 -4 -47.5 -8t-66.5 -4q-101 0 -145 48.5t-44 154.5v147q0 106 44.5 154.5t150.5 48.5q36 0 67.5 -4t42.5 -7q9 -2 15 -5t4 -13q-2 -18 -5.5 -25t-10.5 -6q-4 0 -15.5 2t-27.5 4.5t-34 4t-36 1.5 q-71 0 -105.5 -35.5t-34.5 -119.5v-146q0 -87 35 -121.5t109 -34.5q22 0 46.5 3t63.5 9zM128 655q-5 5 -4 10t11 12l95 69q3 3 5 3.5t4 0.5t4 -0.5t5 -3.5l98 -69q10 -7 11 -12t-3 -10q-6 -6 -14.5 -9.5t-10.5 -1.5l-90 56l-87 -56q-2 -2 -10.5 1.5t-13.5 9.5z"/>
<glyph unicode="Ċ" horiz-adv-x="521" d="M119 461v-202q0 -62 10.5 -104t34 -68t61 -37.5t91.5 -11.5h8q53 0 89.5 7t49.5 9q8 1 11 -14t3 -26q0 -5 -14 -10t-36.5 -8.5t-50.5 -5.5t-56 -2h-8q-65 0 -112.5 13.5t-79 44.5t-47 81.5t-15.5 125.5v214q0 75 15.5 125.5t47.5 81.5t80 44.5t113 13.5h8q24 0 51.5 -2 t50.5 -5.5t38.5 -8t15.5 -10.5q0 -14 -2.5 -27.5t-9.5 -12.5q-6 1 -19 3.5t-32 5t-41.5 4.5t-47.5 2h-8q-55 0 -93 -11.5t-61.5 -37t-34 -68t-10.5 -103.5zM270 782v63q0 5 12 9.5t29 4.5q12 0 15 -8t3 -18v-39q0 -11 -3 -18.5t-15 -7.5q-17 0 -29 4.5t-12 9.5z"/>
<glyph unicode="ċ" horiz-adv-x="422" d="M367 48q8 1 10 -6.5t4 -20.5q2 -12 -5 -15.5t-15 -5.5q-17 -4 -47.5 -8t-66.5 -4q-101 0 -145 48.5t-44 154.5v147q0 106 44.5 154.5t150.5 48.5q36 0 67.5 -4t42.5 -7q9 -2 15 -5t4 -13q-2 -18 -5.5 -25t-10.5 -6q-4 0 -15.5 2t-27.5 4.5t-34 4t-36 1.5 q-71 0 -105.5 -35.5t-34.5 -119.5v-146q0 -87 35 -121.5t109 -34.5q22 0 46.5 3t63.5 9zM209 664v63q0 5 12 9.5t29 4.5q12 0 15 -8t3 -18v-39q0 -11 -3 -18.5t-15 -7.5q-17 0 -29 4.5t-12 9.5z"/>
<glyph unicode="Č" horiz-adv-x="521" d="M119 461v-202q0 -62 10.5 -104t34 -68t61 -37.5t91.5 -11.5h8q53 0 89.5 7t49.5 9q8 1 11 -14t3 -26q0 -5 -14 -10t-36.5 -8.5t-50.5 -5.5t-56 -2h-8q-65 0 -112.5 13.5t-79 44.5t-47 81.5t-15.5 125.5v214q0 75 15.5 125.5t47.5 81.5t80 44.5t113 13.5h8q24 0 51.5 -2 t50.5 -5.5t38.5 -8t15.5 -10.5q0 -14 -2.5 -27.5t-9.5 -12.5q-6 1 -19 3.5t-32 5t-41.5 4.5t-47.5 2h-8q-55 0 -93 -11.5t-61.5 -37t-34 -68t-10.5 -103.5zM191 848q7 6 14.5 10.5t10.5 2.5l84 -59l85 58q3 3 11 -2t13 -10q6 -7 2 -12t-10 -10l-92 -65q-8 -8 -18 0l-91 65 q-5 3 -9.5 9t0.5 13z"/>
<glyph unicode="č" horiz-adv-x="422" d="M367 48q8 1 10 -6.5t4 -20.5q2 -12 -5 -15.5t-15 -5.5q-17 -4 -47.5 -8t-66.5 -4q-101 0 -145 48.5t-44 154.5v147q0 106 44.5 154.5t150.5 48.5q36 0 67.5 -4t42.5 -7q9 -2 15 -5t4 -13q-2 -18 -5.5 -25t-10.5 -6q-4 0 -15.5 2t-27.5 4.5t-34 4t-36 1.5 q-71 0 -105.5 -35.5t-34.5 -119.5v-146q0 -87 35 -121.5t109 -34.5q22 0 46.5 3t63.5 9zM130 730q7 6 14.5 10.5t10.5 2.5l84 -59l85 58q3 3 11 -2t13 -10q6 -7 2 -12t-10 -10l-92 -65q-8 -8 -18 0l-91 65q-5 3 -9.5 9t0.5 13z"/>
<glyph unicode="Ď" horiz-adv-x="613" d="M101 720h183q69 0 120 -13.5t84.5 -45t50 -82t16.5 -125.5v-189q0 -75 -16.5 -125.5t-50 -81.5t-84.5 -44.5t-120 -13.5h-175q-12 0 -24.5 4t-12.5 11v679q0 17 9 21.5t20 4.5zM284 667h-152v-614h152q57 0 96.5 11t65 36.5t37 67.5t11.5 103v177q0 61 -11.5 103 t-37 67.5t-65 37t-96.5 11.5zM178 882q7 6 14.5 10.5t10.5 2.5l84 -59l85 58q3 3 11 -2t13 -10q6 -7 2 -12t-10 -10l-92 -65q-8 -8 -18 0l-91 65q-5 3 -9.5 9t0.5 13z"/>
<glyph unicode="ď" horiz-adv-x="621" d="M427 725v-663q0 -20 -3 -27t-13 -12q-27 -11 -57.5 -18t-62.5 -10.5t-62.5 -4.5t-57.5 -1q-36 0 -57.5 15.5t-33.5 40.5t-16 57t-4 65v195q0 30 2.5 62t14 57.5t33.5 42t61 16.5q64 0 116.5 -14.5t84.5 -34.5v247q0 5 13 8.5t27 3.5q15 0 15 -25zM372 437q-3 4 -19.5 13 t-42 18t-58 15.5t-67.5 6.5q-26 0 -39.5 -13t-20.5 -34t-8 -47.5t-1 -53.5v-158q0 -26 1 -52.5t8 -47.5t20.5 -34t39.5 -13q35 0 68.5 3t60 7.5t42.5 9.5t16 9v371zM623 726l-74 -146q-5 -9 -11 -17.5t-21 -8.5q-8 0 -8 12q0 5 3 13l38 162q2 5 18 10t35 5q11 0 17 -6t6 -14 q0 -6 -3 -10z"/>
<glyph unicode="Đ" horiz-adv-x="637" d="M123 720h183q69 0 120 -13.5t84.5 -45t50 -82t16.5 -125.5v-189q0 -75 -16.5 -125.5t-50 -81.5t-84.5 -44.5t-120 -13.5h-175q-12 0 -24.5 4t-12.5 11v346h-53q-5 0 -10.5 3t-5.5 8q0 8 1.5 20t8.5 12h59v290q0 17 9 21.5t20 4.5zM306 667h-152v-263h60q5 0 10.5 -3 t5.5 -8q0 -8 -2 -20t-9 -12h-65v-308h152q57 0 96.5 11t65 36.5t37 67.5t11.5 103v177q0 61 -11.5 103t-37 67.5t-65 37t-96.5 11.5z"/>
<glyph unicode="đ" horiz-adv-x="506" d="M499 586h-70v-524q0 -20 -3 -27t-14 -12q-27 -11 -57.5 -18t-62 -10.5t-62 -4.5t-57.5 -1q-36 0 -58 15.5t-33.5 40.5t-15.5 57t-4 65v195q0 30 2.5 62t14 57.5t33.5 42t61 16.5q64 0 116.5 -14.5t83.5 -34.5v95h-89q-15 0 -15 13q0 12 3.5 25.5t15.5 13.5h85v100 q0 5 13 8.5t27 3.5q16 0 16 -25v-87h74q15 0 15 -13q0 -12 -3.5 -25.5t-15.5 -13.5zM373 437q-2 4 -18.5 13t-42 18t-58 15.5t-67.5 6.5q-26 0 -40 -13t-20.5 -34t-8 -47.5t-1.5 -53.5v-158q0 -26 1.5 -52.5t8 -47.5t20.5 -34t40 -13q35 0 68.5 3t59.5 7.5t42 9.5t16 9v371z "/>
<glyph unicode="Ē" horiz-adv-x="530" d="M72 15v678q0 26 18 26h371q8 0 15 -3.5t7 -12.5q0 -13 -3.5 -25t-8.5 -12h-339v-274h307q8 0 15.5 -3.5t7.5 -12.5q0 -12 -4.5 -24.5t-9.5 -12.5h-316v-286h329q8 0 15 -3.5t7 -12.5q0 -13 -3.5 -25t-8.5 -12h-363q-11 0 -23.5 4t-12.5 11zM364 768h-165q-6 0 -11.5 3 t-5.5 8q0 8 1.5 20t9.5 12h166q5 0 11 -3t6 -8q0 -8 -2.5 -20t-9.5 -12z"/>
<glyph unicode="ē" horiz-adv-x="463" d="M416 5q-38 -9 -78.5 -13t-72.5 -4q-63 0 -103 15t-63.5 46t-32.5 79t-9 115v122q0 49 12.5 83t36.5 54.5t59.5 29.5t80.5 9h15q174 0 174 -142v-25q0 -45 -11.5 -76.5t-46 -51.5t-98 -29t-168.5 -9q0 -45 8 -77.5t26.5 -53.5t50 -31.5t79.5 -10.5q40 0 75.5 6t61.5 10 q8 1 11.5 -2t4.5 -22q2 -11 -0.5 -15.5t-11.5 -6.5zM380 379v22q0 47 -30.5 71t-100.5 24q-31 0 -56.5 -5.5t-43.5 -20.5t-28 -40t-10 -64v-114q85 0 137.5 5.5t82 19.5t39.5 39t10 63zM324 650h-165q-6 0 -11.5 3t-5.5 8q0 8 1.5 20t9.5 12h166q5 0 11 -3t6 -8 q0 -8 -2.5 -20t-9.5 -12z"/>
<glyph unicode="Ĕ" horiz-adv-x="530" d="M72 15v678q0 26 18 26h371q8 0 15 -3.5t7 -12.5q0 -13 -3.5 -25t-8.5 -12h-339v-274h307q8 0 15.5 -3.5t7.5 -12.5q0 -12 -4.5 -24.5t-9.5 -12.5h-316v-286h329q8 0 15 -3.5t7 -12.5q0 -13 -3.5 -25t-8.5 -12h-363q-11 0 -23.5 4t-12.5 11zM278 767q-20 0 -39 4.5 t-34 14.5t-24 26.5t-9 39.5q0 5 4.5 7.5t8.5 2.5q9 0 21.5 -1.5t12.5 -7.5q0 -23 18 -35t41 -12t41 12t18 35q0 6 12.5 7.5t22.5 1.5q3 0 7.5 -2.5t4.5 -7.5q0 -23 -9 -39.5t-24 -26.5t-34 -14.5t-39 -4.5z"/>
<glyph unicode="ĕ" horiz-adv-x="463" d="M416 5q-38 -9 -78.5 -13t-72.5 -4q-63 0 -103 15t-63.5 46t-32.5 79t-9 115v122q0 49 12.5 83t36.5 54.5t59.5 29.5t80.5 9h15q174 0 174 -142v-25q0 -45 -11.5 -76.5t-46 -51.5t-98 -29t-168.5 -9q0 -45 8 -77.5t26.5 -53.5t50 -31.5t79.5 -10.5q40 0 75.5 6t61.5 10 q8 1 11.5 -2t4.5 -22q2 -11 -0.5 -15.5t-11.5 -6.5zM380 379v22q0 47 -30.5 71t-100.5 24q-31 0 -56.5 -5.5t-43.5 -20.5t-28 -40t-10 -64v-114q85 0 137.5 5.5t82 19.5t39.5 39t10 63zM237 648q-20 0 -39 4.5t-34 14.5t-24 26.5t-9 39.5q0 5 4.5 7.5t8.5 2.5q9 0 21.5 -1.5 t12.5 -7.5q0 -23 18 -35t41 -12t41 12t18 35q0 6 12.5 7.5t22.5 1.5q3 0 7.5 -2.5t4.5 -7.5q0 -23 -9 -39.5t-24 -26.5t-34 -14.5t-39 -4.5z"/>
<glyph unicode="Ė" horiz-adv-x="530" d="M72 15v678q0 26 18 26h371q8 0 15 -3.5t7 -12.5q0 -13 -3.5 -25t-8.5 -12h-339v-274h307q8 0 15.5 -3.5t7.5 -12.5q0 -12 -4.5 -24.5t-9.5 -12.5h-316v-286h329q8 0 15 -3.5t7 -12.5q0 -13 -3.5 -25t-8.5 -12h-363q-11 0 -23.5 4t-12.5 11zM248 782v63q0 5 12 9.5t29 4.5 q12 0 15 -8t3 -18v-39q0 -11 -3 -18.5t-15 -7.5q-17 0 -29 4.5t-12 9.5z"/>
<glyph unicode="ė" horiz-adv-x="463" d="M416 5q-38 -9 -78.5 -13t-72.5 -4q-63 0 -103 15t-63.5 46t-32.5 79t-9 115v122q0 49 12.5 83t36.5 54.5t59.5 29.5t80.5 9h15q174 0 174 -142v-25q0 -45 -11.5 -76.5t-46 -51.5t-98 -29t-168.5 -9q0 -45 8 -77.5t26.5 -53.5t50 -31.5t79.5 -10.5q40 0 75.5 6t61.5 10 q8 1 11.5 -2t4.5 -22q2 -11 -0.5 -15.5t-11.5 -6.5zM380 379v22q0 47 -30.5 71t-100.5 24q-31 0 -56.5 -5.5t-43.5 -20.5t-28 -40t-10 -64v-114q85 0 137.5 5.5t82 19.5t39.5 39t10 63zM208 664v63q0 5 12 9.5t29 4.5q12 0 15 -8t3 -18v-39q0 -11 -3 -18.5t-15 -7.5 q-17 0 -29 4.5t-12 9.5z"/>
<glyph unicode="Ę" horiz-adv-x="530" d="M501 -101q4 2 8 -0.5t6.5 -7t3.5 -9.5t0 -8q-11 -14 -30 -21.5t-39 -7.5q-37 0 -54.5 20t-17.5 45q0 29 18 54t40 36h-328q-11 0 -23.5 4t-12.5 11v678q0 26 18 26h371q8 0 15 -3.5t7 -12.5q0 -13 -3.5 -25t-8.5 -12h-339v-274h307q8 0 15.5 -3.5t7.5 -12.5 q0 -12 -4.5 -24.5t-9.5 -12.5h-316v-286h329q8 0 15 -3.5t7 -12.5q0 -13 -3.5 -24.5t-8.5 -12.5q-23 -18 -36 -37.5t-13 -39.5q0 -13 8.5 -26.5t31.5 -13.5q11 0 19.5 4t19.5 12z"/>
<glyph unicode="ę" horiz-adv-x="463" d="M302 -104q4 2 8 -0.5t6.5 -7t3.5 -9.5t0 -8q-11 -14 -30 -21.5t-39 -7.5q-37 0 -54.5 20t-17.5 45q0 26 14 47.5t33 35.5q-51 4 -83.5 21.5t-51.5 48.5t-26.5 76.5t-7.5 106.5v122q0 49 12.5 83t36.5 54.5t59.5 29.5t80.5 9h15q174 0 174 -142v-25q0 -45 -11.5 -76.5 t-46 -51.5t-98 -29t-168.5 -9q0 -45 8 -77.5t26.5 -53.5t50 -31.5t79.5 -10.5q40 0 75.5 6t61.5 10q8 1 11.5 -2t4.5 -22q2 -11 -0.5 -15.5t-11.5 -6.5q-38 -9 -78.5 -13t-72.5 -4h-3q-39 -34 -39 -68q0 -13 8.5 -26.5t31.5 -13.5q11 0 19.5 4t19.5 12zM380 379v22 q0 47 -30.5 71t-100.5 24q-31 0 -56.5 -5.5t-43.5 -20.5t-28 -40t-10 -64v-114q85 0 137.5 5.5t82 19.5t39.5 39t10 63z"/>
<glyph unicode="Ě" horiz-adv-x="530" d="M72 15v678q0 26 18 26h371q8 0 15 -3.5t7 -12.5q0 -13 -3.5 -25t-8.5 -12h-339v-274h307q8 0 15.5 -3.5t7.5 -12.5q0 -12 -4.5 -24.5t-9.5 -12.5h-316v-286h329q8 0 15 -3.5t7 -12.5q0 -13 -3.5 -25t-8.5 -12h-363q-11 0 -23.5 4t-12.5 11zM169 848q7 6 14.5 10.5 t10.5 2.5l84 -59l85 58q3 3 11 -2t13 -10q6 -7 2 -12t-10 -10l-92 -65q-8 -8 -18 0l-91 65q-5 3 -9.5 9t0.5 13z"/>
<glyph unicode="ě" horiz-adv-x="463" d="M416 5q-38 -9 -78.5 -13t-72.5 -4q-63 0 -103 15t-63.5 46t-32.5 79t-9 115v122q0 49 12.5 83t36.5 54.5t59.5 29.5t80.5 9h15q174 0 174 -142v-25q0 -45 -11.5 -76.5t-46 -51.5t-98 -29t-168.5 -9q0 -45 8 -77.5t26.5 -53.5t50 -31.5t79.5 -10.5q40 0 75.5 6t61.5 10 q8 1 11.5 -2t4.5 -22q2 -11 -0.5 -15.5t-11.5 -6.5zM380 379v22q0 47 -30.5 71t-100.5 24q-31 0 -56.5 -5.5t-43.5 -20.5t-28 -40t-10 -64v-114q85 0 137.5 5.5t82 19.5t39.5 39t10 63zM128 730q7 6 14.5 10.5t10.5 2.5l84 -59l85 58q3 3 11 -2t13 -10q6 -7 2 -12t-10 -10 l-92 -65q-8 -8 -18 0l-91 65q-5 3 -9.5 9t0.5 13z"/>
<glyph unicode="Ĝ" horiz-adv-x="566" d="M119 461v-202q0 -61 12 -103t38 -67.5t66.5 -37t97.5 -11.5h10q43 0 77.5 4.5t79.5 12.5v271q0 6 11.5 9.5t28.5 3.5q12 0 16 -6.5t4 -21.5v-265q0 -18 -3.5 -23.5t-11.5 -8.5q-13 -5 -35.5 -10t-50.5 -9t-58 -6.5t-58 -2.5h-10q-70 0 -121.5 13.5t-85.5 44.5t-51 81.5 t-17 125.5v214q0 75 17.5 125.5t53 81.5t88.5 44.5t125 13.5h21q43 0 80 -2.5t64 -7t42.5 -10t15.5 -12.5q0 -11 -5.5 -26t-13.5 -14q-16 4 -33 7.5t-37.5 6t-46.5 4t-60 1.5h-21q-62 0 -105 -11t-71 -36.5t-40.5 -67.5t-12.5 -103zM202 773q-5 5 -4 10t11 12l95 69 q3 3 5 3.5t4 0.5t4 -0.5t5 -3.5l98 -69q10 -7 11 -12t-3 -10q-6 -6 -14.5 -9.5t-10.5 -1.5l-90 56l-87 -56q-2 -2 -10.5 1.5t-13.5 9.5z"/>
<glyph unicode="ĝ" horiz-adv-x="505" d="M223 -190q52 0 82.5 9t46.5 28.5t21 50.5t5 76v66q-28 -20 -74.5 -36t-101.5 -16q-47 0 -74.5 16.5t-41 43t-17 58.5t-3.5 62v194q0 33 5 65.5t19.5 57.5t41 40.5t70.5 15.5q12 0 33.5 -2t47.5 -6t52.5 -11t48.5 -17t36 -24t14 -31v-476q0 -56 -7.5 -96t-29 -66 t-61.5 -38t-105 -12q-38 0 -78 3t-78 11q-10 2 -12.5 6.5t-2.5 12.5q0 11 3.5 21t11.5 10q36 -7 75.5 -11.5t72.5 -4.5zM378 95v343q0 10 -16.5 19.5t-41 17.5t-54 13t-54.5 5q-33 0 -51 -13t-26.5 -34t-10.5 -47.5t-2 -53.5v-160q0 -26 2 -52.5t10.5 -47.5t26.5 -34.5 t51 -13.5q31 0 60 6t51.5 15t37 19t17.5 18zM157 655q-5 5 -4 10t11 12l95 69q3 3 5 3.5t4 0.5t4 -0.5t5 -3.5l98 -69q10 -7 11 -12t-3 -10q-6 -6 -14.5 -9.5t-10.5 -1.5l-90 56l-87 -56q-2 -2 -10.5 1.5t-13.5 9.5z"/>
<glyph unicode="Ğ" horiz-adv-x="566" d="M119 461v-202q0 -61 12 -103t38 -67.5t66.5 -37t97.5 -11.5h10q43 0 77.5 4.5t79.5 12.5v271q0 6 11.5 9.5t28.5 3.5q12 0 16 -6.5t4 -21.5v-265q0 -18 -3.5 -23.5t-11.5 -8.5q-13 -5 -35.5 -10t-50.5 -9t-58 -6.5t-58 -2.5h-10q-70 0 -121.5 13.5t-85.5 44.5t-51 81.5 t-17 125.5v214q0 75 17.5 125.5t53 81.5t88.5 44.5t125 13.5h21q43 0 80 -2.5t64 -7t42.5 -10t15.5 -12.5q0 -11 -5.5 -26t-13.5 -14q-16 4 -33 7.5t-37.5 6t-46.5 4t-60 1.5h-21q-62 0 -105 -11t-71 -36.5t-40.5 -67.5t-12.5 -103zM298 767q-20 0 -39 4.5t-34 14.5 t-24 26.5t-9 39.5q0 5 4.5 7.5t8.5 2.5q9 0 21.5 -1.5t12.5 -7.5q0 -23 18 -35t41 -12t41 12t18 35q0 6 12.5 7.5t22.5 1.5q3 0 7.5 -2.5t4.5 -7.5q0 -23 -9 -39.5t-24 -26.5t-34 -14.5t-39 -4.5z"/>
<glyph unicode="ğ" horiz-adv-x="505" d="M223 -190q52 0 82.5 9t46.5 28.5t21 50.5t5 76v66q-28 -20 -74.5 -36t-101.5 -16q-47 0 -74.5 16.5t-41 43t-17 58.5t-3.5 62v194q0 33 5 65.5t19.5 57.5t41 40.5t70.5 15.5q12 0 33.5 -2t47.5 -6t52.5 -11t48.5 -17t36 -24t14 -31v-476q0 -56 -7.5 -96t-29 -66 t-61.5 -38t-105 -12q-38 0 -78 3t-78 11q-10 2 -12.5 6.5t-2.5 12.5q0 11 3.5 21t11.5 10q36 -7 75.5 -11.5t72.5 -4.5zM378 95v343q0 10 -16.5 19.5t-41 17.5t-54 13t-54.5 5q-33 0 -51 -13t-26.5 -34t-10.5 -47.5t-2 -53.5v-160q0 -26 2 -52.5t10.5 -47.5t26.5 -34.5 t51 -13.5q31 0 60 6t51.5 15t37 19t17.5 18zM263 648q-20 0 -39 4.5t-34 14.5t-24 26.5t-9 39.5q0 5 4.5 7.5t8.5 2.5q9 0 21.5 -1.5t12.5 -7.5q0 -23 18 -35t41 -12t41 12t18 35q0 6 12.5 7.5t22.5 1.5q3 0 7.5 -2.5t4.5 -7.5q0 -23 -9 -39.5t-24 -26.5t-34 -14.5t-39 -4.5 z"/>
<glyph unicode="Ġ" horiz-adv-x="566" d="M119 461v-202q0 -61 12 -103t38 -67.5t66.5 -37t97.5 -11.5h10q43 0 77.5 4.5t79.5 12.5v271q0 6 11.5 9.5t28.5 3.5q12 0 16 -6.5t4 -21.5v-265q0 -18 -3.5 -23.5t-11.5 -8.5q-13 -5 -35.5 -10t-50.5 -9t-58 -6.5t-58 -2.5h-10q-70 0 -121.5 13.5t-85.5 44.5t-51 81.5 t-17 125.5v214q0 75 17.5 125.5t53 81.5t88.5 44.5t125 13.5h21q43 0 80 -2.5t64 -7t42.5 -10t15.5 -12.5q0 -11 -5.5 -26t-13.5 -14q-16 4 -33 7.5t-37.5 6t-46.5 4t-60 1.5h-21q-62 0 -105 -11t-71 -36.5t-40.5 -67.5t-12.5 -103zM285 781v63q0 5 12 9.5t29 4.5 q12 0 15 -8t3 -18v-39q0 -11 -3 -18.5t-15 -7.5q-17 0 -29 4.5t-12 9.5z"/>
<glyph unicode="ġ" horiz-adv-x="505" d="M223 -190q52 0 82.5 9t46.5 28.5t21 50.5t5 76v66q-28 -20 -74.5 -36t-101.5 -16q-47 0 -74.5 16.5t-41 43t-17 58.5t-3.5 62v194q0 33 5 65.5t19.5 57.5t41 40.5t70.5 15.5q12 0 33.5 -2t47.5 -6t52.5 -11t48.5 -17t36 -24t14 -31v-476q0 -56 -7.5 -96t-29 -66 t-61.5 -38t-105 -12q-38 0 -78 3t-78 11q-10 2 -12.5 6.5t-2.5 12.5q0 11 3.5 21t11.5 10q36 -7 75.5 -11.5t72.5 -4.5zM378 95v343q0 10 -16.5 19.5t-41 17.5t-54 13t-54.5 5q-33 0 -51 -13t-26.5 -34t-10.5 -47.5t-2 -53.5v-160q0 -26 2 -52.5t10.5 -47.5t26.5 -34.5 t51 -13.5q31 0 60 6t51.5 15t37 19t17.5 18zM233 664v63q0 5 12 9.5t29 4.5q12 0 15 -8t3 -18v-39q0 -11 -3 -18.5t-15 -7.5q-17 0 -29 4.5t-12 9.5z"/>
<glyph unicode="Ģ" horiz-adv-x="566" d="M119 461v-202q0 -61 12 -103t38 -67.5t66.5 -37t97.5 -11.5h10q43 0 77.5 4.5t79.5 12.5v271q0 6 11.5 9.5t28.5 3.5q12 0 16 -6.5t4 -21.5v-265q0 -18 -3.5 -23.5t-11.5 -8.5q-13 -5 -35.5 -10t-50.5 -9t-58 -6.5t-58 -2.5h-10q-70 0 -121.5 13.5t-85.5 44.5t-51 81.5 t-17 125.5v214q0 75 17.5 125.5t53 81.5t88.5 44.5t125 13.5h21q43 0 80 -2.5t64 -7t42.5 -10t15.5 -12.5q0 -11 -5.5 -26t-13.5 -14q-16 4 -33 7.5t-37.5 6t-46.5 4t-60 1.5h-21q-62 0 -105 -11t-71 -36.5t-40.5 -67.5t-12.5 -103zM333 -47l-66 -128q-6 -12 -13 -16t-15 -4 q-6 0 -6 4.5t2 15.5l34 141q2 8 18.5 11t32.5 3t16 -13q0 -8 -3 -14z"/>
<glyph unicode="ģ" horiz-adv-x="505" d="M223 -190q52 0 82.5 9t46.5 28.5t21 50.5t5 76v66q-28 -20 -74.5 -36t-101.5 -16q-47 0 -74.5 16.5t-41 43t-17 58.5t-3.5 62v194q0 33 5 65.5t19.5 57.5t41 40.5t70.5 15.5q12 0 33.5 -2t47.5 -6t52.5 -11t48.5 -17t36 -24t14 -31v-476q0 -56 -7.5 -96t-29 -66 t-61.5 -38t-105 -12q-38 0 -78 3t-78 11q-10 2 -12.5 6.5t-2.5 12.5q0 11 3.5 21t11.5 10q36 -7 75.5 -11.5t72.5 -4.5zM378 95v343q0 10 -16.5 19.5t-41 17.5t-54 13t-54.5 5q-33 0 -51 -13t-26.5 -34t-10.5 -47.5t-2 -53.5v-160q0 -26 2 -52.5t10.5 -47.5t26.5 -34.5 t51 -13.5q31 0 60 6t51.5 15t37 19t17.5 18zM243 674l41 123q5 14 13 17t25 3q6 0 8.5 -4t-0.5 -17l-30 -133q-2 -11 -14 -14t-30 -3q-14 0 -16 7t3 21z"/>
<glyph unicode="Ĥ" horiz-adv-x="648" d="M577 704v-689q0 -11 -3 -19t-14 -8q-16 0 -29.5 4.5t-13.5 9.5v346h-385v-334q0 -11 -3.5 -18.5t-14.5 -7.5q-14 0 -28 4.5t-14 9.5v716q0 5 14 9.5t28 4.5q11 0 14.5 -7.5t3.5 -19.5v-304h385v315q0 5 13.5 10.5t29.5 5.5q11 0 14 -8.5t3 -19.5zM215 781q-5 5 -4 10 t11 12l95 69q3 3 5 3.5t4 0.5t4 -0.5t5 -3.5l98 -69q10 -7 11 -12t-3 -10q-6 -6 -14.5 -9.5t-10.5 -1.5l-90 56l-87 -56q-2 -2 -10.5 1.5t-13.5 9.5z"/>
<glyph unicode="ĥ" horiz-adv-x="513" d="M392 0v356q0 31 -2.5 56t-11.5 42t-26.5 26.5t-48.5 9.5q-29 0 -59.5 -7t-55.5 -17t-42 -21t-20 -18v-417q0 -14 -5 -18t-13 -4q-12 0 -25 3.5t-13 8.5v747q1 7 15 9.5t23 2.5q18 0 18 -22v-255q13 10 33.5 20.5t45.5 18.5t53 13.5t56 5.5q46 0 72.5 -13t40 -36.5 t17 -56.5t3.5 -73v-351q0 -14 -5 -18t-13 -4q-12 0 -24.5 3.5t-12.5 8.5zM-15 800q-5 5 -4 10t11 12l95 69q3 3 5 3.5t4 0.5t4 -0.5t5 -3.5l98 -69q10 -7 11 -12t-3 -10q-6 -6 -14.5 -9.5t-10.5 -1.5l-90 56l-87 -56q-2 -2 -10.5 1.5t-13.5 9.5z"/>
<glyph unicode="Ħ" horiz-adv-x="654" d="M580 704v-75h60q15 0 15 -12q0 -13 -3.5 -25t-14.5 -12h-57v-565q0 -11 -3 -19t-14 -8q-16 0 -29.5 4.5t-13.5 9.5v346h-385v-334q0 -11 -3.5 -18.5t-14.5 -7.5q-14 0 -28 4.5t-14 9.5v578h-60q-15 0 -15 13q0 12 3 24t15 12h57v89q0 5 14 9.5t28 4.5q11 0 14.5 -7.5 t3.5 -19.5v-76h385v87q0 5 13.5 10.5t29.5 5.5q11 0 14 -8.5t3 -19.5zM135 401h385v179h-385v-179z"/>
<glyph unicode="ħ" horiz-adv-x="546" d="M200 620h-59v-138q13 10 33.5 20.5t45.5 18.5t53 13.5t56 5.5q46 0 72.5 -13t40 -36.5t17 -56.5t3.5 -73v-351q0 -14 -5 -18t-13 -4q-12 0 -24.5 3.5t-12.5 8.5v356q0 31 -2.5 56t-11.5 42t-26.5 26.5t-48.5 9.5q-29 0 -59.5 -7t-55.5 -17t-42 -21t-20 -18v-417 q0 -14 -5 -18t-13 -4q-12 0 -25 3.5t-13 8.5v620h-50q-6 0 -11.5 3t-5.5 8q0 8 1.5 20t9.5 12h56v84q1 7 15 9.5t23 2.5q18 0 18 -22v-74h54q5 0 11 -3t6 -8q0 -8 -2.5 -20t-9.5 -12z"/>
<glyph unicode="Ĩ" horiz-adv-x="203" d="M132 14q0 -11 -4 -18.5t-14 -7.5q-15 0 -28.5 4.5t-13.5 9.5v715q0 5 13.5 10t28.5 5q10 0 14 -8t4 -19v-691zM65 837q12 0 21.5 -5l19 -10t18.5 -9.5t20 -4.5q6 -1 12.5 1t12.5 5.5t10 9t4 11.5q0 3 4.5 4t10 1t10 -2.5t4.5 -6.5q-1 -20 -8 -33.5t-17 -21t-21 -10 t-20 -2.5q-12 0 -22 4.5t-19.5 10t-19 10t-19.5 4.5q-11 0 -24.5 -6.5t-13.5 -20.5q0 -3 -4.5 -4.5t-10.5 -1t-10.5 2.5t-4.5 7q1 20 8 33.5t17.5 21t21.5 10t20 2.5z"/>
<glyph unicode="ĩ" horiz-adv-x="250" d="M242 50q4 0 6.5 -4t4 -10t2.5 -11.5t1 -8.5q1 -11 -18 -18q-29 -10 -65 -10q-23 0 -42.5 5.5t-33.5 19.5t-22 37.5t-8 59.5v419q0 7 14.5 9t23.5 2q17 0 17 -22v-401q0 -35 13 -56t50 -21q12 0 24.5 2t32.5 8zM56 718q12 0 21.5 -5l19 -10t18.5 -9.5t20 -4.5q6 -1 12.5 1 t12.5 5.5t10 9t4 11.5q0 3 4.5 4t10 1t10 -2.5t4.5 -6.5q-1 -20 -8 -33.5t-17 -21t-21 -10t-20 -2.5q-12 0 -22 4.5t-19.5 10t-19 10t-19.5 4.5q-11 0 -24.5 -6.5t-13.5 -20.5q0 -3 -4.5 -4.5t-10.5 -1t-10.5 2.5t-4.5 7q1 20 8 33.5t17.5 21t21.5 10t20 2.5z"/>
<glyph unicode="Ī" horiz-adv-x="203" d="M132 14q0 -11 -4 -18.5t-14 -7.5q-15 0 -28.5 4.5t-13.5 9.5v715q0 5 13.5 10t28.5 5q10 0 14 -8t4 -19v-691zM191 768h-165q-6 0 -11.5 3t-5.5 8q0 8 1.5 20t9.5 12h166q5 0 11 -3t6 -8q0 -8 -2.5 -20t-9.5 -12z"/>
<glyph unicode="ī" horiz-adv-x="250" d="M242 50q4 0 6.5 -4t4 -10t2.5 -11.5t1 -8.5q1 -11 -18 -18q-29 -10 -65 -10q-23 0 -42.5 5.5t-33.5 19.5t-22 37.5t-8 59.5v419q0 7 14.5 9t23.5 2q17 0 17 -22v-401q0 -35 13 -56t50 -21q12 0 24.5 2t32.5 8zM181 649h-165q-6 0 -11.5 3t-5.5 8q0 8 1.5 20t9.5 12h166 q5 0 11 -3t6 -8q0 -8 -2.5 -20t-9.5 -12z"/>
<glyph unicode="Ĭ" horiz-adv-x="203" d="M132 14q0 -11 -4 -18.5t-14 -7.5q-15 0 -28.5 4.5t-13.5 9.5v715q0 5 13.5 10t28.5 5q10 0 14 -8t4 -19v-691zM104 767q-20 0 -39 4.5t-34 14.5t-24 26.5t-9 39.5q0 5 4.5 7.5t8.5 2.5q9 0 21.5 -1.5t12.5 -7.5q0 -23 18 -35t41 -12t41 12t18 35q0 6 12.5 7.5t22.5 1.5 q3 0 7.5 -2.5t4.5 -7.5q0 -23 -9 -39.5t-24 -26.5t-34 -14.5t-39 -4.5z"/>
<glyph unicode="ĭ" horiz-adv-x="250" d="M242 50q4 0 6.5 -4t4 -10t2.5 -11.5t1 -8.5q1 -11 -18 -18q-29 -10 -65 -10q-23 0 -42.5 5.5t-33.5 19.5t-22 37.5t-8 59.5v419q0 7 14.5 9t23.5 2q17 0 17 -22v-401q0 -35 13 -56t50 -21q12 0 24.5 2t32.5 8zM95 648q-20 0 -39 4.5t-34 14.5t-24 26.5t-9 39.5 q0 5 4.5 7.5t8.5 2.5q9 0 21.5 -1.5t12.5 -7.5q0 -23 18 -35t41 -12t41 12t18 35q0 6 12.5 7.5t22.5 1.5q3 0 7.5 -2.5t4.5 -7.5q0 -23 -9 -39.5t-24 -26.5t-34 -14.5t-39 -4.5z"/>
<glyph unicode="Į" horiz-adv-x="203" d="M146 -106q4 2 8 -0.5t6.5 -7t3.5 -9.5t0 -8q-11 -14 -30 -21.5t-39 -7.5q-37 0 -54.5 20t-17.5 45q0 29 17.5 53.5t39.5 36.5q-8 3 -8 7v715q0 5 13.5 10t28.5 5q10 0 14 -8t4 -19v-691q0 -11 -4 -18.5t-14 -7.5h-6q-20 -17 -30.5 -34.5t-10.5 -35.5q0 -13 8.5 -26.5 t31.5 -13.5q11 0 19.5 4t19.5 12z"/>
<glyph unicode="į" horiz-adv-x="250" d="M220 -94q4 2 8 -0.5t6.5 -7t3.5 -9.5t0 -8q-11 -14 -30 -21.5t-39 -7.5q-37 0 -54.5 20t-17.5 45q0 23 11.5 43t27.5 34q-29 9 -48 36t-19 80v419q0 5 13 8t27 3q8 0 11.5 -6.5t3.5 -15.5v-401q0 -32 14 -54.5t52 -22.5q14 0 25.5 3t25.5 6q5 1 9 -10.5t5 -22.5 q1 -13 -18 -19q-19 -5 -33 -7t-29 -2h-6q-28 -28 -28 -58q0 -13 8.5 -26.5t31.5 -13.5q11 0 19.5 4t19.5 12zM68 664v69q0 5 12 9.5t29 4.5q10 0 14 -8t4 -19v-44q0 -10 -4 -18t-14 -8q-17 0 -29 4.5t-12 9.5z"/>
<glyph unicode="İ" horiz-adv-x="203" d="M132 14q0 -11 -4 -18.5t-14 -7.5q-15 0 -28.5 4.5t-13.5 9.5v715q0 5 13.5 10t28.5 5q10 0 14 -8t4 -19v-691zM74 782v63q0 5 12 9.5t29 4.5q12 0 15 -8t3 -18v-39q0 -11 -3 -18.5t-15 -7.5q-17 0 -29 4.5t-12 9.5z"/>
<glyph unicode="ı" horiz-adv-x="250" d="M242 50q4 0 6.5 -4t4 -10t2.5 -11.5t1 -8.5q1 -11 -18 -18q-29 -10 -65 -10q-23 0 -42.5 5.5t-33.5 19.5t-22 37.5t-8 59.5v419q0 7 14.5 9t23.5 2q17 0 17 -22v-401q0 -35 13 -56t50 -21q12 0 24.5 2t32.5 8z"/>
<glyph unicode="Ĳ" horiz-adv-x="411" d="M132 14q0 -11 -4 -18.5t-14 -7.5q-15 0 -28.5 4.5t-13.5 9.5v715q0 5 13.5 10t28.5 5q10 0 14 -8t4 -19v-691zM128 -175q20 -5 38.5 -8t38.5 -3q37 0 55 21t18 76v806q0 5 13.5 10t29.5 5q10 0 14 -8t4 -19v-793q0 -78 -29 -114t-95 -36q-18 0 -38.5 2.5t-46.5 8.5 q-7 2 -14 5.5t-5 14.5t6.5 22.5t10.5 9.5z"/>
<glyph unicode="ĳ" horiz-adv-x="416" d="M63 666v67q0 5 12 9t29 4q10 0 14 -7.5t4 -18.5v-42q0 -11 -4 -19t-14 -8q-17 0 -29 5t-12 10zM234 50q5 1 10 -10t7 -21q2 -8 -4 -12.5t-12 -6.5q-21 -7 -35 -9.5t-32 -2.5q-21 0 -39.5 6.5t-33 20.5t-23 37.5t-8.5 57.5v419q0 5 13 8t27 3q8 0 12 -6.5t4 -15.5v-401 q0 -32 13.5 -54.5t50.5 -22.5q11 0 20.5 2.5t29.5 7.5zM158 -201q27 -8 61 -8q28 0 43.5 16t23 41.5t9 58t1.5 64.5v558q0 5 12.5 8t26.5 3q8 0 12.5 -6.5t4.5 -15.5v-575q0 -106 -31.5 -155.5t-92.5 -49.5q-17 0 -32 1.5t-39 7.5q-20 5 -17 18q2 14 7.5 24t10.5 10z M294 666v67q0 5 12.5 9t28.5 4q11 0 14.5 -7.5t3.5 -18.5v-42q0 -11 -3.5 -19t-14.5 -8q-16 0 -28.5 5t-12.5 10z"/>
<glyph unicode="Ĵ" horiz-adv-x="231" d="M-75 -175q20 -5 38.5 -8t38.5 -3q37 0 55 21t18 76v806q0 5 13.5 10t29.5 5q10 0 14 -8t4 -19v-793q0 -78 -29 -114t-95 -36q-18 0 -38.5 2.5t-46.5 8.5q-7 2 -14 5.5t-5 14.5t6.5 22.5t10.5 9.5zM-5 777q-5 5 -4 10t11 12l95 69q3 3 5 3.5t4 0.5t4 -0.5t5 -3.5l98 -69 q10 -7 11 -12t-3 -10q-6 -6 -14.5 -9.5t-10.5 -1.5l-90 56l-87 -56q-2 -2 -10.5 1.5t-13.5 9.5z"/>
<glyph unicode="ĵ" horiz-adv-x="192" d="M-44 -153q10 -2 22.5 -4t27.5 -2q20 0 32.5 6.5t19 18t9 26t2.5 29.5v608q0 5 12.5 8t26.5 3q8 0 12 -6.5t4 -15.5v-595q0 -29 -4.5 -53.5t-16.5 -42t-33 -27t-54 -9.5q-12 0 -23.5 1.5t-27.5 4.5q-21 5 -21 15q0 15 3.5 25.5t8.5 9.5zM-14 604q-5 5 -4 10t11 12l95 69 q3 3 5 3.5t4 0.5t4 -0.5t5 -3.5l98 -69q10 -7 11 -12t-3 -10q-6 -6 -14.5 -9.5t-10.5 -1.5l-90 56l-87 -56q-2 -2 -10.5 1.5t-13.5 9.5z"/>
<glyph unicode="Ķ" horiz-adv-x="580" d="M132 14q0 -11 -4 -18.5t-14 -7.5q-15 0 -28.5 4.5t-13.5 9.5v715q0 5 13.5 10t28.5 5q10 0 14 -8t4 -19v-324l334 336q8 9 20.5 12t31.5 3q5 0 11 -2t6 -9q0 -6 -15 -24l-324 -324l347 -351q16 -16 16 -24q0 -7 -6 -8.5t-11 -1.5q-19 0 -32 2.5t-21 11.5l-357 363v-351z M339 -144l-66 -128q-6 -12 -13 -16t-15 -4q-6 0 -6 4.5t2 15.5l34 141q2 8 18.5 11t32.5 3t16 -13q0 -8 -3 -14z"/>
<glyph unicode="ķ" horiz-adv-x="428" d="M126 725v-443l226 245q7 7 18.5 10.5t20.5 3.5q10 0 19 -4.5t-2 -19.5l-222 -241l241 -269q5 -6 4.5 -9.5t-4 -5.5t-9 -3t-10.5 -1q-10 0 -21 2t-19 12l-242 268v-257q0 -25 -16 -25q-14 0 -27 3.5t-13 8.5v738q0 5 13 8.5t27 3.5q16 0 16 -25zM264 -144l-66 -128 q-6 -12 -13 -16t-15 -4q-6 0 -6 4.5t2 15.5l34 141q2 8 18.5 11t32.5 3t16 -13q0 -8 -3 -14z"/>
<glyph unicode="ĸ" horiz-adv-x="443" d="M109 7q0 -8 -4 -13.5t-12 -5.5q-12 0 -25.5 3t-13.5 8v530q0 5 13.5 8.5t25.5 3.5q8 0 12 -6t4 -14v-238l240 246q8 8 20 10t27 2q5 0 10.5 -2t5.5 -8q0 -3 -2 -7.5t-9 -11.5l-236 -236l254 -259q12 -13 12 -20q0 -6 -5.5 -7.5t-10.5 -1.5q-14 0 -26 2t-20 10l-260 269 v-262z"/>
<glyph unicode="Ĺ" horiz-adv-x="522" d="M446 0h-343q-16 0 -23.5 4t-7.5 9v704q0 5 13.5 10t29.5 5q10 0 14 -8t4 -19v-652h303q8 0 15 -3.5t7 -12.5q0 -14 -3.5 -25.5t-8.5 -11.5zM64 775l67 102q4 6 17.5 5t21.5 -6q14 -8 17 -14.5t0 -10.5l-79 -82q-9 -8 -14.5 -7.5t-16.5 0.5q-8 0 -13 2.5t0 10.5z"/>
<glyph unicode="ĺ" horiz-adv-x="248" d="M241 49q5 1 9 -10.5t5 -22.5q1 -13 -18 -19q-19 -5 -33 -7t-28 -2q-21 0 -40.5 6t-34.5 20.5t-23.5 37.5t-8.5 58v629q0 5 13 8t27 3q8 0 11.5 -6.5t3.5 -15.5v-611q0 -32 14 -54.5t52 -22.5q14 0 25.5 3t25.5 6zM150 631l67 102q4 6 17.5 5t21.5 -6q14 -8 17 -14.5 t0 -10.5l-79 -82q-9 -8 -14.5 -7.5t-16.5 0.5q-8 0 -13 2.5t0 10.5z"/>
<glyph unicode="Ļ" horiz-adv-x="522" d="M328 -82l-61 -116q-7 -12 -13.5 -16t-14.5 -4q-6 0 -6 4.5t2 15.5l29 129q2 8 19 11t33 3q15 0 15 -13q0 -8 -3 -14zM446 0h-343q-16 0 -23.5 4t-7.5 9v704q0 5 13.5 10t29.5 5q10 0 14 -8t4 -19v-652h303q8 0 15 -3.5t7 -12.5q0 -14 -3.5 -25.5t-8.5 -11.5z"/>
<glyph unicode="ļ" horiz-adv-x="267" d="M254 50q5 1 10 -10t7 -21q2 -8 -4 -12.5t-12 -6.5q-21 -7 -35 -9.5t-32 -2.5q-21 0 -39.5 6.5t-33 20.5t-23 37.5t-8.5 57.5v628q0 5 13 8.5t27 3.5q16 0 16 -25v-608q0 -35 13.5 -56t50.5 -21q11 0 20.5 2.5t29.5 7.5zM183 -85l-63 -117q-6 -12 -13 -16.5t-15 -4.5 q-6 0 -6 5t2 16l31 130q2 8 18.5 11t32.5 3t16 -13q0 -8 -3 -14z"/>
<glyph unicode="Ľ" horiz-adv-x="520" d="M446 0h-343q-16 0 -23.5 4t-7.5 9v704q0 5 13.5 10t29.5 5q10 0 14 -8t4 -19v-652h303q8 0 15 -3.5t7 -12.5q0 -14 -3.5 -25.5t-8.5 -11.5zM402 704l-41 -123q-5 -14 -13 -17t-25 -3q-6 0 -8.5 4t0.5 17l30 133q2 11 14 14t30 3q14 0 16 -7t-3 -21z"/>
<glyph unicode="ľ" horiz-adv-x="297" d="M241 49q5 1 9 -10.5t5 -22.5q1 -13 -18 -19q-19 -5 -33 -7t-28 -2q-21 0 -40.5 6t-34.5 20.5t-23.5 37.5t-8.5 58v629q0 5 13 8t27 3q8 0 11.5 -6.5t3.5 -15.5v-611q0 -32 14 -54.5t52 -22.5q14 0 25.5 3t25.5 6zM282 721l-41 -123q-5 -14 -13 -17t-25 -3q-6 0 -8.5 4 t0.5 17l30 133q2 11 14 14t30 3q14 0 16 -7t-3 -21z"/>
<glyph unicode="Ŀ" horiz-adv-x="520" d="M446 0h-343q-16 0 -23.5 4t-7.5 9v704q0 5 13.5 10t29.5 5q10 0 14 -8t4 -19v-652h303q8 0 15 -3.5t7 -12.5q0 -14 -3.5 -25.5t-8.5 -11.5zM302 256v73q0 5 12 9.5t29 4.5q12 0 15 -7.5t3 -18.5v-49q0 -11 -3 -18.5t-15 -7.5q-17 0 -29 4.5t-12 9.5z"/>
<glyph unicode="ŀ" horiz-adv-x="469" d="M242 50q6 2 11 -9t7 -22q2 -8 -3.5 -12.5t-13.5 -6.5q-21 -7 -34.5 -9.5t-31.5 -2.5q-21 0 -39.5 6.5t-33 20.5t-23 37.5t-8.5 57.5v628q0 5 12.5 8.5t26.5 3.5q16 0 16 -25v-608q0 -35 13.5 -56t50.5 -21q11 0 20.5 2.5t29.5 7.5zM326 225v73q0 5 12.5 9.5t28.5 4.5 q12 0 15.5 -7.5t3.5 -18.5v-49q0 -11 -3.5 -18.5t-15.5 -7.5q-16 0 -28.5 4.5t-12.5 9.5z"/>
<glyph unicode="Ł" horiz-adv-x="576" d="M502 0h-343q-16 0 -23.5 4t-7.5 9v278l-96 -90q-7 -6 -11.5 -5t-8.5 6q-9 11 -14.5 22t3.5 19l127 119v355q0 5 13.5 10t29.5 5q10 0 14 -8t4 -19v-285l96 90q11 9 20 0q3 -3 6.5 -8.5t6.5 -11.5t3 -11.5t-5 -9.5l-127 -120v-296h303q8 0 15 -3.5t7 -12.5 q0 -14 -3.5 -25.5t-8.5 -11.5z"/>
<glyph unicode="ł" horiz-adv-x="283" d="M277 49q5 1 9 -10.5t5 -22.5q1 -13 -18 -19q-19 -5 -33 -7t-28 -2q-21 0 -40.5 6t-34.5 20.5t-23.5 37.5t-8.5 58v215l-105 -94q-9 -9 -19 1q-7 10 -12 22.5t3 20.5l133 119v345q0 5 13 8t27 3q8 0 11.5 -6.5t3.5 -15.5v-285l102 92q11 8 19 -1t12.5 -22t-3.5 -21 l-130 -117v-257q0 -32 14 -54.5t52 -22.5q14 0 25.5 3t25.5 6z"/>
<glyph unicode="Ń" horiz-adv-x="696" d="M526 101v617q0 5 12.5 9.5t29.5 4.5q9 0 12 -8.5t3 -19.5v-690q0 -11 -4.5 -18.5t-12.5 -7.5q-11 0 -24.5 3.5t-15.5 8.5l-395 618v-604q0 -11 -3.5 -18.5t-12.5 -7.5q-16 0 -28.5 4.5t-12.5 9.5v715q0 5 11.5 10t27.5 5q6 0 11 -4.5t7 -9.5zM314 771l67 102q4 6 17.5 5 t21.5 -6q14 -8 17 -14.5t0 -10.5l-79 -82q-9 -8 -14.5 -7.5t-16.5 0.5q-8 0 -13 2.5t0 10.5z"/>
<glyph unicode="ń" d="M388 0v386q0 28 -3.5 47.5t-13.5 32t-28 18.5t-46 6q-29 0 -60 -5.5t-56.5 -14t-42 -17.5t-16.5 -15v-428q0 -14 -5 -18t-13 -4q-12 0 -25 3.5t-13 8.5v461q0 12 21 26t55 26t77.5 20t88.5 8q37 0 63 -7.5t42 -25.5t23 -48t7 -75v-375q0 -14 -5 -18t-13 -4 q-12 0 -24.5 3.5t-12.5 8.5zM217 653l67 102q4 6 17.5 5t21.5 -6q14 -8 17 -14.5t0 -10.5l-79 -82q-9 -8 -14.5 -7.5t-16.5 0.5q-8 0 -13 2.5t0 10.5z"/>
<glyph unicode="Ņ" horiz-adv-x="696" d="M526 101v617q0 5 12.5 9.5t29.5 4.5q9 0 12 -8.5t3 -19.5v-690q0 -11 -4.5 -18.5t-12.5 -7.5q-11 0 -24.5 3.5t-15.5 8.5l-395 618v-604q0 -11 -3.5 -18.5t-12.5 -7.5q-16 0 -28.5 4.5t-12.5 9.5v715q0 5 11.5 10t27.5 5q6 0 11 -4.5t7 -9.5zM398 -144l-66 -128 q-6 -12 -13 -16t-15 -4q-6 0 -6 4.5t2 15.5l34 141q2 8 18.5 11t32.5 3t16 -13q0 -8 -3 -14z"/>
<glyph unicode="ņ" horiz-adv-x="508" d="M387 0v386q0 28 -3.5 47.5t-13.5 32t-28 18.5t-46 6q-29 0 -60 -5.5t-56.5 -14t-42 -17.5t-16.5 -15v-428q0 -14 -5 -18t-13 -4q-12 0 -25 3.5t-13 8.5v461q0 12 21 26t55 26t77.5 20t88.5 8q37 0 63 -7.5t42 -25.5t23 -48t7 -75v-375q0 -14 -5 -18t-13 -4 q-12 0 -24.5 3.5t-12.5 8.5zM301 -67l-63 -122q-6 -12 -12.5 -16t-14.5 -4q-6 0 -5.5 6t2.5 14l32 135q2 7 18 10t31 3t15 -12q0 -8 -3 -14z"/>
<glyph unicode="Ň" horiz-adv-x="696" d="M526 101v617q0 5 12.5 9.5t29.5 4.5q9 0 12 -8.5t3 -19.5v-690q0 -11 -4.5 -18.5t-12.5 -7.5q-11 0 -24.5 3.5t-15.5 8.5l-395 618v-604q0 -11 -3.5 -18.5t-12.5 -7.5q-16 0 -28.5 4.5t-12.5 9.5v715q0 5 11.5 10t27.5 5q6 0 11 -4.5t7 -9.5zM246 848q7 6 14.5 10.5 t10.5 2.5l84 -59l85 58q3 3 11 -2t13 -10q6 -7 2 -12t-10 -10l-92 -65q-8 -8 -18 0l-91 65q-5 3 -9.5 9t0.5 13z"/>
<glyph unicode="ň" d="M388 0v386q0 28 -3.5 47.5t-13.5 32t-28 18.5t-46 6q-29 0 -60 -5.5t-56.5 -14t-42 -17.5t-16.5 -15v-428q0 -14 -5 -18t-13 -4q-12 0 -25 3.5t-13 8.5v461q0 12 21 26t55 26t77.5 20t88.5 8q37 0 63 -7.5t42 -25.5t23 -48t7 -75v-375q0 -14 -5 -18t-13 -4 q-12 0 -24.5 3.5t-12.5 8.5zM145 730q7 6 14.5 10.5t10.5 2.5l84 -59l85 58q3 3 11 -2t13 -10q6 -7 2 -12t-10 -10l-92 -65q-8 -8 -18 0l-91 65q-5 3 -9.5 9t0.5 13z"/>
<glyph unicode="ŉ" horiz-adv-x="509" d="M388 0v386q0 28 -3.5 47.5t-13.5 32t-28 18.5t-46 6q-29 0 -60 -5.5t-56.5 -14t-42 -17.5t-16.5 -15v-428q0 -14 -5 -18t-13 -4q-12 0 -25 3.5t-13 8.5v461q0 12 21 26t55 26t77.5 20t88.5 8q37 0 63 -7.5t42 -25.5t23 -48t7 -75v-375q0 -14 -5 -18t-13 -4 q-12 0 -24.5 3.5t-12.5 8.5zM183 791l-66 -128q-6 -12 -13 -16t-15 -4q-6 0 -6 4.5t2 15.5l34 141q2 8 18.5 11t32.5 3t16 -13q0 -8 -3 -14z"/>
<glyph unicode="Ŋ" horiz-adv-x="702" d="M633 -47q0 -108 -24.5 -158.5t-86.5 -54.5q-12 -1 -21 -0.5t-20 1.5q-12 2 -26 4t-31 8q-8 2 -14 6t-3 14q2 8 7 19t10 11q7 0 10 -1q17 -4 34 -7t37 -3q17 0 30 8t21.5 27t12.5 49.5t4 74.5v50l-452 617v-603q0 -11 -3.5 -19t-13.5 -8q-14 0 -28 4.5t-14 9.5v702 q0 5 2.5 12t11.5 11q1 2 5 2.5t9 0.5t10 -0.5t8 -1.5q14 -11 25.5 -28t22.5 -32l417 -567v617q0 5 14 9.5t31 4.5q8 0 11.5 -8.5t3.5 -19.5v-751z"/>
<glyph unicode="ŋ" horiz-adv-x="505" d="M379 333q0 33 -1.5 62t-9 50.5t-22 34t-40.5 12.5q-38 0 -70.5 -5.5t-57 -13.5t-38.5 -17.5t-14 -18.5v-423q0 -11 -3.5 -18.5t-15.5 -7.5q-16 0 -28.5 4t-12.5 9v451q0 15 19.5 30.5t53.5 28.5t80.5 21.5t100.5 8.5q42 0 66 -14.5t36 -39.5t14.5 -57.5t2.5 -68.5v-347 q0 -30 -5 -65.5t-18.5 -67t-39 -52.5t-65.5 -21q-18 0 -32.5 2t-39.5 10q-8 2 -13.5 6t-3.5 12q3 14 8.5 23.5t10.5 7.5q13 -3 30 -5.5t33 -2.5q24 0 38.5 12.5t22.5 33.5t11 48t3 55v323z"/>
<glyph unicode="Ō" horiz-adv-x="666" d="M337 -12h-8q-69 0 -120 13.5t-84.5 44.5t-50 81.5t-16.5 125.5v214q0 75 16.5 125.5t50 81.5t84.5 44.5t120 13.5h8q69 0 119.5 -13.5t84.5 -44.5t50.5 -81.5t16.5 -125.5v-214q0 -75 -16.5 -125.5t-50.5 -81.5t-84.5 -44.5t-119.5 -13.5zM119 465v-210q0 -61 11.5 -102 t37 -66t65 -36t96.5 -11h8q57 0 96.5 11t65 36t37 66t11.5 102v210q0 61 -11.5 102t-37 66t-65 35.5t-96.5 10.5h-8q-57 0 -96.5 -10.5t-65 -35.5t-37 -66t-11.5 -102zM419 768h-165q-6 0 -11.5 3t-5.5 8q0 8 1.5 20t9.5 12h166q5 0 11 -3t6 -8q0 -8 -2.5 -20t-9.5 -12z"/>
<glyph unicode="ō" horiz-adv-x="495" d="M58 154v219q0 90 47 129t149 39h2q103 0 150 -39t47 -129v-219q0 -90 -47 -128t-150 -38h-2q-102 0 -149 38t-47 128zM254 37h3q78 0 109.5 29t31.5 88v219q0 60 -31.5 89.5t-109.5 29.5h-3q-78 0 -109.5 -29.5t-31.5 -89.5v-219q0 -59 31.5 -88t109.5 -29zM334 650h-165 q-6 0 -11.5 3t-5.5 8q0 8 1.5 20t9.5 12h166q5 0 11 -3t6 -8q0 -8 -2.5 -20t-9.5 -12z"/>
<glyph unicode="Ŏ" horiz-adv-x="666" d="M337 -12h-8q-69 0 -120 13.5t-84.5 44.5t-50 81.5t-16.5 125.5v214q0 75 16.5 125.5t50 81.5t84.5 44.5t120 13.5h8q69 0 119.5 -13.5t84.5 -44.5t50.5 -81.5t16.5 -125.5v-214q0 -75 -16.5 -125.5t-50.5 -81.5t-84.5 -44.5t-119.5 -13.5zM119 465v-210q0 -61 11.5 -102 t37 -66t65 -36t96.5 -11h8q57 0 96.5 11t65 36t37 66t11.5 102v210q0 61 -11.5 102t-37 66t-65 35.5t-96.5 10.5h-8q-57 0 -96.5 -10.5t-65 -35.5t-37 -66t-11.5 -102zM332 766q-20 0 -39 4.5t-34 14.5t-24 26.5t-9 39.5q0 5 4.5 7.5t8.5 2.5q9 0 21.5 -1.5t12.5 -7.5 q0 -23 18 -35t41 -12t41 12t18 35q0 6 12.5 7.5t22.5 1.5q3 0 7.5 -2.5t4.5 -7.5q0 -23 -9 -39.5t-24 -26.5t-34 -14.5t-39 -4.5z"/>
<glyph unicode="ŏ" horiz-adv-x="495" d="M58 154v219q0 90 47 129t149 39h2q103 0 150 -39t47 -129v-219q0 -90 -47 -128t-150 -38h-2q-102 0 -149 38t-47 128zM254 37h3q78 0 109.5 29t31.5 88v219q0 60 -31.5 89.5t-109.5 29.5h-3q-78 0 -109.5 -29.5t-31.5 -89.5v-219q0 -59 31.5 -88t109.5 -29zM247 648 q-20 0 -39 4.5t-34 14.5t-24 26.5t-9 39.5q0 5 4.5 7.5t8.5 2.5q9 0 21.5 -1.5t12.5 -7.5q0 -23 18 -35t41 -12t41 12t18 35q0 6 12.5 7.5t22.5 1.5q3 0 7.5 -2.5t4.5 -7.5q0 -23 -9 -39.5t-24 -26.5t-34 -14.5t-39 -4.5z"/>
<glyph unicode="Ő" horiz-adv-x="666" d="M337 -12h-8q-69 0 -120 13.5t-84.5 44.5t-50 81.5t-16.5 125.5v214q0 75 16.5 125.5t50 81.5t84.5 44.5t120 13.5h8q69 0 119.5 -13.5t84.5 -44.5t50.5 -81.5t16.5 -125.5v-214q0 -75 -16.5 -125.5t-50.5 -81.5t-84.5 -44.5t-119.5 -13.5zM119 465v-210q0 -61 11.5 -102 t37 -66t65 -36t96.5 -11h8q57 0 96.5 11t65 36t37 66t11.5 102v210q0 61 -11.5 102t-37 66t-65 35.5t-96.5 10.5h-8q-57 0 -96.5 -10.5t-65 -35.5t-37 -66t-11.5 -102zM365 793l49 76q7 11 16 9l42 -8q17 -3 5 -17l-83 -77q-6 -5 -9 -6.5t-7 -1.5q-2 0 -5.5 1.5t-6.5 4.5 t-4 8t3 11zM265 793l50 76q6 11 14 9l43 -8q17 -3 5 -17l-84 -77q-5 -5 -8.5 -6.5t-6.5 -1.5q-2 0 -5.5 1.5t-6.5 4.5t-4 8t3 11z"/>
<glyph unicode="ő" horiz-adv-x="495" d="M58 154v219q0 90 47 129t149 39h2q103 0 150 -39t47 -129v-219q0 -90 -47 -128t-150 -38h-2q-102 0 -149 38t-47 128zM254 37h3q78 0 109.5 29t31.5 88v219q0 60 -31.5 89.5t-109.5 29.5h-3q-78 0 -109.5 -29.5t-31.5 -89.5v-219q0 -59 31.5 -88t109.5 -29zM280 675 l49 76q7 11 16 9l42 -8q17 -3 5 -17l-83 -77q-6 -5 -9 -6.5t-7 -1.5q-2 0 -5.5 1.5t-6.5 4.5t-4 8t3 11zM180 675l50 76q6 11 14 9l43 -8q17 -3 5 -17l-84 -77q-5 -5 -8.5 -6.5t-6.5 -1.5q-2 0 -5.5 1.5t-6.5 4.5t-4 8t3 11z"/>
<glyph unicode="Œ" horiz-adv-x="1008" d="M563 15v63q-31 -49 -87 -69.5t-139 -20.5h-8q-69 0 -120 13.5t-84.5 44.5t-50 81.5t-16.5 125.5v214q0 75 16.5 125.5t50 81.5t84.5 44.5t120 13.5h8q83 0 139 -20.5t87 -71.5v52q0 17 9 22t17 5h348q8 0 15 -2.5t7 -13.5q0 -10 -1.5 -22.5t-6.5 -14.5h-343v-274h307 q9 0 16 -3.5t7 -12.5q0 -12 -4.5 -24.5t-9.5 -12.5h-316v-286h329q8 0 15 -3.5t7 -12.5q0 -13 -3.5 -25t-8.5 -12h-347q-11 0 -24 4t-13 11zM119 461v-202q0 -61 11.5 -102.5t37 -67t65 -37t96.5 -11.5h8q57 0 96.5 11.5t65 37t37 67t11.5 102.5v202q0 61 -11.5 102.5 t-37 67t-65 37t-96.5 11.5h-8q-57 0 -96.5 -11.5t-65 -37t-37 -67t-11.5 -102.5z"/>
<glyph unicode="œ" horiz-adv-x="789" d="M695 3q-15 -5 -49.5 -10t-70.5 -5q-25 0 -44 3q-43 6 -70 25.5t-43 56.5q-18 -45 -59.5 -66t-110.5 -21q-57 0 -94 12.5t-58.5 39t-29.5 68.5t-8 102v149q0 98 45 140.5t144 42.5q66 0 106.5 -20t59.5 -63q18 42 54 63t100 21h22q49 0 78 -16t44 -41.5t19.5 -58.5 t4.5 -67v-38q0 -14 -9.5 -27.5t-41 -24t-90 -17.5t-156.5 -7q0 -98 19.5 -146t73.5 -58q11 -1 21.5 -1.5t21.5 -0.5q15 0 28.5 1t27.5 3t30.5 4.5t36.5 6.5q5 1 9.5 -9.5t7.5 -22.5q2 -8 -4 -12t-15 -6zM246 35q45 0 72 10.5t41 31.5t18.5 52.5t4.5 74.5v122q0 42 -5 73 t-19 51.5t-40.5 30.5t-69.5 10q-44 0 -71 -10.5t-41 -31.5t-18.5 -52t-4.5 -73v-124q0 -42 4.5 -73t19 -51.5t40.5 -30.5t69 -10zM680 334v55q0 51 -23.5 79t-68.5 28q-35 0 -62.5 -6t-47 -23t-30 -47t-10.5 -78v-53q56 0 100.5 2t76 7t48.5 13.5t17 22.5z"/>
<glyph unicode="Ŕ" horiz-adv-x="573" d="M71 2v692q0 11 4.5 18.5t14.5 7.5h207q67 0 111.5 -11t70 -35.5t36 -63.5t10.5 -96v-10q0 -47 -7 -82t-24 -59t-47 -38t-75 -20l156 -284q2 -5 5 -10.5t3 -10.5q0 -7 -6 -9.5t-13 -2.5q-14 0 -29.5 6t-23.5 21l-157 285h-176v-286q0 -11 -4 -18.5t-13 -7.5q-15 0 -29 4.5 t-14 9.5zM299 667h-168v-314h168q50 0 82 6t50.5 23t25.5 46t7 76v10q0 46 -7 76t-25.5 47t-50.5 23.5t-82 6.5zM254 772l67 102q4 6 17.5 5t21.5 -6q14 -8 17 -14.5t0 -10.5l-79 -82q-9 -8 -14.5 -7.5t-16.5 0.5q-8 0 -13 2.5t0 10.5z"/>
<glyph unicode="ŕ" horiz-adv-x="346" d="M325 482q-20 4 -36.5 6.5t-38.5 2.5q-26 0 -49.5 -4t-41 -10t-27.5 -12t-10 -10v-445q0 -14 -5.5 -18t-13.5 -4q-11 0 -24 3.5t-13 8.5v478q0 9 12.5 20t36 20.5t57.5 16t76 6.5q14 0 35 -2t37 -5q11 -2 15.5 -5t4.5 -11q0 -17 -4.5 -27t-10.5 -9zM185 653l67 102 q4 6 17.5 5t21.5 -6q14 -8 17 -14.5t0 -10.5l-79 -82q-9 -8 -14.5 -7.5t-16.5 0.5q-8 0 -13 2.5t0 10.5z"/>
<glyph unicode="Ŗ" horiz-adv-x="573" d="M71 2v692q0 11 4.5 18.5t14.5 7.5h207q67 0 111.5 -11t70 -35.5t36 -63.5t10.5 -96v-10q0 -47 -7 -82t-24 -59t-47 -38t-75 -20l156 -284q2 -5 5 -10.5t3 -10.5q0 -7 -6 -9.5t-13 -2.5q-14 0 -29.5 6t-23.5 21l-157 285h-176v-286q0 -11 -4 -18.5t-13 -7.5q-15 0 -29 4.5 t-14 9.5zM299 667h-168v-314h168q50 0 82 6t50.5 23t25.5 46t7 76v10q0 46 -7 76t-25.5 47t-50.5 23.5t-82 6.5zM332 -48l-66 -128q-6 -12 -13 -16t-15 -4q-6 0 -6 4.5t2 15.5l34 141q2 8 18.5 11t32.5 3t16 -13q0 -8 -3 -14z"/>
<glyph unicode="ŗ" horiz-adv-x="346" d="M325 482q-20 4 -36.5 6.5t-38.5 2.5q-26 0 -49.5 -4t-41 -10t-27.5 -12t-10 -10v-445q0 -14 -5.5 -18t-13.5 -4q-11 0 -24 3.5t-13 8.5v478q0 9 12.5 20t36 20.5t57.5 16t76 6.5q14 0 35 -2t37 -5q11 -2 15.5 -5t4.5 -11q0 -17 -4.5 -27t-10.5 -9zM223 -144l-66 -128 q-6 -12 -13 -16t-15 -4q-6 0 -6 4.5t2 15.5l34 141q2 8 18.5 11t32.5 3t16 -13q0 -8 -3 -14z"/>
<glyph unicode="Ř" horiz-adv-x="573" d="M71 2v692q0 11 4.5 18.5t14.5 7.5h207q67 0 111.5 -11t70 -35.5t36 -63.5t10.5 -96v-10q0 -47 -7 -82t-24 -59t-47 -38t-75 -20l156 -284q2 -5 5 -10.5t3 -10.5q0 -7 -6 -9.5t-13 -2.5q-14 0 -29.5 6t-23.5 21l-157 285h-176v-286q0 -11 -4 -18.5t-13 -7.5q-15 0 -29 4.5 t-14 9.5zM299 667h-168v-314h168q50 0 82 6t50.5 23t25.5 46t7 76v10q0 46 -7 76t-25.5 47t-50.5 23.5t-82 6.5zM186 848q7 6 14.5 10.5t10.5 2.5l84 -59l85 58q3 3 11 -2t13 -10q6 -7 2 -12t-10 -10l-92 -65q-8 -8 -18 0l-91 65q-5 3 -9.5 9t0.5 13z"/>
<glyph unicode="ř" horiz-adv-x="346" d="M325 482q-20 4 -36.5 6.5t-38.5 2.5q-26 0 -49.5 -4t-41 -10t-27.5 -12t-10 -10v-445q0 -14 -5.5 -18t-13.5 -4q-11 0 -24 3.5t-13 8.5v478q0 9 12.5 20t36 20.5t57.5 16t76 6.5q14 0 35 -2t37 -5q11 -2 15.5 -5t4.5 -11q0 -17 -4.5 -27t-10.5 -9zM117 730q7 6 14.5 10.5 t10.5 2.5l84 -59l85 58q3 3 11 -2t13 -10q6 -7 2 -12t-10 -10l-92 -65q-8 -8 -18 0l-91 65q-5 3 -9.5 9t0.5 13z"/>
<glyph unicode="Ś" horiz-adv-x="479" d="M63 63q26 -7 69 -16t93 -9q28 0 58.5 5t56 18t41.5 36.5t16 61.5q0 46 -24.5 80t-61.5 63.5t-80.5 56.5t-80.5 58t-61.5 69t-24.5 89q0 41 16.5 70.5t45 49t66 28.5t80.5 9q14 0 34.5 -1.5t42 -3.5t41.5 -6t34 -8q12 -4 15 -8t1 -13q-2 -11 -6 -20t-16 -7q-34 7 -66 11.5 t-67 4.5q-34 0 -63.5 -6t-51.5 -18.5t-34.5 -32t-12.5 -47.5q0 -40 24.5 -70.5t61.5 -58.5t80.5 -55t80.5 -60t61.5 -75t24.5 -98q0 -48 -19 -81t-50 -53.5t-71.5 -29t-83.5 -8.5q-21 0 -46.5 2t-49.5 5t-44.5 7t-33.5 9q-11 4 -13 8t-2 12q2 13 5.5 24t14.5 8zM220 772 l67 102q4 6 17.5 5t21.5 -6q14 -8 17 -14.5t0 -10.5l-79 -82q-9 -8 -14.5 -7.5t-16.5 0.5q-8 0 -13 2.5t0 10.5z"/>
<glyph unicode="ś" horiz-adv-x="420" d="M58 46q35 -5 67.5 -7t69.5 -2q63 0 97 18.5t34 65.5q0 36 -20 59.5t-50 42t-65 35.5t-65 38t-50 50t-20 73q0 37 14 61t37.5 37.5t54 18.5t64.5 5q44 0 76 -2t56 -7q10 -2 12.5 -5.5t2.5 -8.5q0 -37 -16 -35q-26 3 -56.5 6t-63.5 3q-57 0 -91.5 -16t-34.5 -58 q0 -31 20 -52t50 -38.5t65 -34t65 -39t50 -54t20 -77.5q0 -39 -13 -64.5t-36.5 -41.5t-57 -22.5t-74.5 -6.5q-32 0 -71 2.5t-79 8.5q-8 2 -10 5t-1 11q2 22 6.5 27t12.5 4zM185 653l67 102q4 6 17.5 5t21.5 -6q14 -8 17 -14.5t0 -10.5l-79 -82q-9 -8 -14.5 -7.5t-16.5 0.5 q-8 0 -13 2.5t0 10.5z"/>
<glyph unicode="Ŝ" horiz-adv-x="479" d="M63 63q26 -7 69 -16t93 -9q28 0 58.5 5t56 18t41.5 36.5t16 61.5q0 46 -24.5 80t-61.5 63.5t-80.5 56.5t-80.5 58t-61.5 69t-24.5 89q0 41 16.5 70.5t45 49t66 28.5t80.5 9q14 0 34.5 -1.5t42 -3.5t41.5 -6t34 -8q12 -4 15 -8t1 -13q-2 -11 -6 -20t-16 -7q-34 7 -66 11.5 t-67 4.5q-34 0 -63.5 -6t-51.5 -18.5t-34.5 -32t-12.5 -47.5q0 -40 24.5 -70.5t61.5 -58.5t80.5 -55t80.5 -60t61.5 -75t24.5 -98q0 -48 -19 -81t-50 -53.5t-71.5 -29t-83.5 -8.5q-21 0 -46.5 2t-49.5 5t-44.5 7t-33.5 9q-11 4 -13 8t-2 12q2 13 5.5 24t14.5 8zM150 773 q-5 5 -4 10t11 12l95 69q3 3 5 3.5t4 0.5t4 -0.5t5 -3.5l98 -69q10 -7 11 -12t-3 -10q-6 -6 -14.5 -9.5t-10.5 -1.5l-90 56l-87 -56q-2 -2 -10.5 1.5t-13.5 9.5z"/>
<glyph unicode="ŝ" horiz-adv-x="420" d="M58 46q35 -5 67.5 -7t69.5 -2q63 0 97 18.5t34 65.5q0 36 -20 59.5t-50 42t-65 35.5t-65 38t-50 50t-20 73q0 37 14 61t37.5 37.5t54 18.5t64.5 5q44 0 76 -2t56 -7q10 -2 12.5 -5.5t2.5 -8.5q0 -37 -16 -35q-26 3 -56.5 6t-63.5 3q-57 0 -91.5 -16t-34.5 -58 q0 -31 20 -52t50 -38.5t65 -34t65 -39t50 -54t20 -77.5q0 -39 -13 -64.5t-36.5 -41.5t-57 -22.5t-74.5 -6.5q-32 0 -71 2.5t-79 8.5q-8 2 -10 5t-1 11q2 22 6.5 27t12.5 4zM114 655q-5 5 -4 10t11 12l95 69q3 3 5 3.5t4 0.5t4 -0.5t5 -3.5l98 -69q10 -7 11 -12t-3 -10 q-6 -6 -14.5 -9.5t-10.5 -1.5l-90 56l-87 -56q-2 -2 -10.5 1.5t-13.5 9.5z"/>
<glyph unicode="Ş" horiz-adv-x="479" d="M202 -40l14 28q-21 1 -43.5 3t-44.5 5t-40 7t-30 8q-11 4 -13 8t-2 12q2 13 5.5 24t14.5 8q26 -7 69 -16t93 -9q28 0 58.5 5t56 18t41.5 36.5t16 61.5q0 46 -24.5 80t-61.5 63.5t-80.5 56.5t-80.5 58t-61.5 69t-24.5 89q0 41 16.5 70.5t45 49t66 28.5t80.5 9 q14 0 34.5 -1.5t42 -3.5t41.5 -6t34 -8q12 -4 15 -8t1 -13q-2 -11 -6 -20t-16 -7q-34 7 -66 11.5t-67 4.5q-34 0 -63.5 -6t-51.5 -18.5t-34.5 -32t-12.5 -47.5q0 -40 24.5 -70.5t61.5 -58.5t80.5 -55t80.5 -60t61.5 -75t24.5 -98q0 -47 -17.5 -79t-46.5 -52t-67 -30t-79 -11 l-8 -15q13 -1 26.5 -5t24 -11.5t17 -19.5t5.5 -29q-1 -21 -9 -34t-19 -20t-24 -9.5t-23 -3.5q-17 -2 -39 1.5t-31 10.5q-4 5 0.5 15t14.5 8q8 -3 19.5 -6.5t22.5 -3.5q19 0 32.5 10.5t13.5 33.5q0 19 -11.5 27t-25 11t-23.5 4.5t-7 7.5z"/>
<glyph unicode="ş" horiz-adv-x="420" d="M161 -45l17 33q-29 1 -62 3.5t-66 7.5q-8 2 -10 5t-1 11q2 22 6.5 27t12.5 4q35 -5 67.5 -7t69.5 -2q63 0 97 18.5t34 65.5q0 36 -20 59.5t-50 42t-65 35.5t-65 38t-50 50t-20 73q0 37 14 61t37.5 37.5t54 18.5t64.5 5q44 0 76 -2t56 -7q10 -2 12.5 -5.5t2.5 -8.5 q0 -37 -16 -35q-26 3 -56.5 6t-63.5 3q-57 0 -91.5 -16t-34.5 -58q0 -31 20 -52t50 -38.5t65 -34t65 -39t50 -54t20 -77.5q0 -38 -12.5 -63.5t-35 -41t-55 -22.5t-71.5 -8l-10 -20q13 -1 26.5 -5t24 -11.5t17 -19.5t5.5 -29q-1 -21 -9 -34t-19 -20t-24 -9.5t-23 -3.5 q-17 -2 -39 1.5t-31 10.5q-4 5 0.5 15t14.5 8q8 -3 19.5 -6.5t22.5 -3.5q19 0 32.5 10.5t13.5 33.5q0 19 -11.5 27t-25 11t-23.5 4.5t-7 7.5z"/>
<glyph unicode="Š" horiz-adv-x="479" d="M63 63q26 -7 69 -16t93 -9q28 0 58.5 5t56 18t41.5 36.5t16 61.5q0 46 -24.5 80t-61.5 63.5t-80.5 56.5t-80.5 58t-61.5 69t-24.5 89q0 41 16.5 70.5t45 49t66 28.5t80.5 9q14 0 34.5 -1.5t42 -3.5t41.5 -6t34 -8q12 -4 15 -8t1 -13q-2 -11 -6 -20t-16 -7q-34 7 -66 11.5 t-67 4.5q-34 0 -63.5 -6t-51.5 -18.5t-34.5 -32t-12.5 -47.5q0 -40 24.5 -70.5t61.5 -58.5t80.5 -55t80.5 -60t61.5 -75t24.5 -98q0 -48 -19 -81t-50 -53.5t-71.5 -29t-83.5 -8.5q-21 0 -46.5 2t-49.5 5t-44.5 7t-33.5 9q-11 4 -13 8t-2 12q2 13 5.5 24t14.5 8zM152 848 q7 6 14.5 10.5t10.5 2.5l84 -59l85 58q3 3 11 -2t13 -10q6 -7 2 -12t-10 -10l-92 -65q-8 -8 -18 0l-91 65q-5 3 -9.5 9t0.5 13z"/>
<glyph unicode="š" horiz-adv-x="420" d="M58 46q35 -5 67.5 -7t69.5 -2q63 0 97 18.5t34 65.5q0 36 -20 59.5t-50 42t-65 35.5t-65 38t-50 50t-20 73q0 37 14 61t37.5 37.5t54 18.5t64.5 5q44 0 76 -2t56 -7q10 -2 12.5 -5.5t2.5 -8.5q0 -37 -16 -35q-26 3 -56.5 6t-63.5 3q-57 0 -91.5 -16t-34.5 -58 q0 -31 20 -52t50 -38.5t65 -34t65 -39t50 -54t20 -77.5q0 -39 -13 -64.5t-36.5 -41.5t-57 -22.5t-74.5 -6.5q-32 0 -71 2.5t-79 8.5q-8 2 -10 5t-1 11q2 22 6.5 27t12.5 4zM117 730q7 6 14.5 10.5t10.5 2.5l84 -59l85 58q3 3 11 -2t13 -10q6 -7 2 -12t-10 -10l-92 -65 q-8 -8 -18 0l-91 65q-5 3 -9.5 9t0.5 13z"/>
<glyph unicode="Ţ" horiz-adv-x="537" d="M299 666v-652q0 -11 -4 -18.5t-13 -7.5q-16 0 -29.5 4.5t-13.5 9.5v664h-203q-11 0 -17.5 3.5t-6.5 12.5q0 13 4 25t9 12h477q9 0 16.5 -3.5t7.5 -12.5q0 -14 -4 -25.5t-9 -11.5h-214zM301 -104l-66 -128q-6 -12 -13 -16t-15 -4q-6 0 -6 4.5t2 15.5l34 141q2 8 18.5 11 t32.5 3t16 -13q0 -8 -3 -14z"/>
<glyph unicode="ţ" horiz-adv-x="354" d="M232 -136l-59 -115q-6 -12 -13 -16.5t-15 -4.5q-6 0 -6 5t2 16l27 128q2 8 18.5 11t32.5 3t16 -13q0 -8 -3 -14zM305 476h-111v-356q0 -35 16.5 -58.5t55.5 -23.5q13 0 23.5 2.5t26.5 6.5q8 1 11.5 -11t3.5 -25q0 -10 -19 -15q-18 -5 -33 -6.5t-30 -1.5q-23 0 -43 6.5 t-35 21t-24 38.5t-9 60v362h-72q-15 0 -15 13t4 26t15 13h68v149q0 5 13 8.5t27 3.5q8 0 12 -6.5t4 -15.5v-139h115q15 0 15 -13q0 -12 -3.5 -25.5t-15.5 -13.5z"/>
<glyph unicode="Ť" horiz-adv-x="514" d="M287 666v-652q0 -11 -4 -18.5t-13 -7.5q-16 0 -29.5 4.5t-13.5 9.5v664h-203q-11 0 -17.5 3.5t-6.5 12.5q0 13 4 25t9 12h477q9 0 16.5 -3.5t7.5 -12.5q0 -14 -4 -25.5t-9 -11.5h-214zM148 847q7 6 14.5 10.5t10.5 2.5l84 -59l85 58q3 3 11 -2t13 -10q6 -7 2 -12t-10 -10 l-92 -65q-8 -8 -18 0l-91 65q-5 3 -9.5 9t0.5 13z"/>
<glyph unicode="ť" horiz-adv-x="314" d="M298 685l-47 -95q-7 -14 -15 -15.5t-14 -1.5q-5 0 -7 3t1 13l31 106q3 8 15.5 10.5t24.5 2.5q8 0 10.5 -3.5t2.5 -7.5t-2 -12zM269 476h-111v-356q0 -35 16.5 -58.5t55.5 -23.5q13 0 23.5 2.5t26.5 6.5q8 1 11.5 -11t3.5 -25q0 -10 -19 -15q-18 -5 -33 -6.5t-30 -1.5 q-23 0 -43 6.5t-35 21t-24 38.5t-9 60v362h-72q-15 0 -15 13t4 26t15 13h68v149q0 5 13 8.5t27 3.5q8 0 12 -6.5t4 -15.5v-139h115q15 0 15 -13q0 -12 -3.5 -25.5t-15.5 -13.5z"/>
<glyph unicode="Ŧ" horiz-adv-x="572" d="M416 444h-100v-430q0 -11 -4 -18.5t-13 -7.5q-16 0 -29.5 4.5t-13.5 9.5v442h-94q-9 0 -17.5 4.5t-8.5 12.5q0 6 0.5 14t2 16t5 13.5t9.5 5.5h103v156h-203q-11 0 -17.5 3.5t-6.5 12.5q0 13 4 25t9 12h477q9 0 16.5 -3.5t7.5 -12.5q0 -14 -4 -25.5t-9 -11.5h-214v-156h92 q8 0 17 -4.5t9 -12.5q0 -6 -1 -14.5t-3 -16t-5.5 -13t-8.5 -5.5z"/>
<glyph unicode="ŧ" horiz-adv-x="337" d="M238 332h-59v-212q0 -35 16.5 -58.5t55.5 -23.5q13 0 23.5 2.5t26.5 6.5q8 1 11.5 -11t3.5 -25q0 -10 -19 -15q-18 -5 -33 -6.5t-30 -1.5q-23 0 -43 6.5t-35 21t-24 38.5t-9 60v218h-50q-6 0 -11.5 3t-5.5 8q0 8 1.5 20t9.5 12h56v101h-72q-15 0 -15 13t4 26t15 13h68 v149q0 5 13 8.5t27 3.5q8 0 12 -6.5t4 -15.5v-139h115q15 0 15 -13q0 -12 -3.5 -25.5t-15.5 -13.5h-111v-101h54q5 0 11 -3t6 -8q0 -8 -2.5 -20t-9.5 -12z"/>
<glyph unicode="Ũ" horiz-adv-x="643" d="M511 251v465q0 5 13.5 10.5t28.5 5.5q10 0 14 -8.5t4 -19.5v-455q0 -74 -15.5 -123.5t-46.5 -80.5t-78 -44t-110 -13h-8q-61 0 -106 13t-75 44t-45 80.5t-15 123.5v467q0 5 13.5 10.5t29.5 5.5q9 0 13 -8.5t4 -19.5v-453q0 -59 10.5 -99.5t32 -65t56 -35.5t82.5 -11h8 q51 0 87 11t59 35.5t33.5 65t10.5 99.5zM279 837q12 0 21.5 -5l19 -10t18.5 -9.5t20 -4.5q6 -1 12.5 1t12.5 5.5t10 9t4 11.5q0 3 4.5 4t10 1t10 -2.5t4.5 -6.5q-1 -20 -8 -33.5t-17 -21t-21 -10t-20 -2.5q-12 0 -22 4.5t-19.5 10t-19 10t-19.5 4.5q-11 0 -24.5 -6.5 t-13.5 -20.5q0 -3 -4.5 -4.5t-10.5 -1t-10.5 2.5t-4.5 7q1 20 8 33.5t17.5 21t21.5 10t20 2.5z"/>
<glyph unicode="ũ" d="M388 61v468q0 5 12.5 8.5t24.5 3.5q8 0 13 -4t5 -18v-475q0 -13 -5 -17t-14 -8q-26 -10 -77 -20.5t-108 -10.5q-53 0 -86.5 11t-53 33t-26.5 54t-7 73v370q0 5 12.5 8.5t24.5 3.5q8 0 13.5 -4t5.5 -18v-357q0 -31 5 -54.5t17.5 -39.5t35.5 -24t59 -8q24 0 50.5 3t48.5 7 t36 8.5t14 6.5zM219 719q12 0 21.5 -5l19 -10t18.5 -9.5t20 -4.5q6 -1 12.5 1t12.5 5.5t10 9t4 11.5q0 3 4.5 4t10 1t10 -2.5t4.5 -6.5q-1 -20 -8 -33.5t-17 -21t-21 -10t-20 -2.5q-12 0 -22 4.5t-19.5 10t-19 10t-19.5 4.5q-11 0 -24.5 -6.5t-13.5 -20.5q0 -3 -4.5 -4.5 t-10.5 -1t-10.5 2.5t-4.5 7q1 20 8 33.5t17.5 21t21.5 10t20 2.5z"/>
<glyph unicode="Ū" horiz-adv-x="643" d="M511 251v465q0 5 13.5 10.5t28.5 5.5q10 0 14 -8.5t4 -19.5v-455q0 -74 -15.5 -123.5t-46.5 -80.5t-78 -44t-110 -13h-8q-61 0 -106 13t-75 44t-45 80.5t-15 123.5v467q0 5 13.5 10.5t29.5 5.5q9 0 13 -8.5t4 -19.5v-453q0 -59 10.5 -99.5t32 -65t56 -35.5t82.5 -11h8 q51 0 87 11t59 35.5t33.5 65t10.5 99.5zM405 768h-165q-6 0 -11.5 3t-5.5 8q0 8 1.5 20t9.5 12h166q5 0 11 -3t6 -8q0 -8 -2.5 -20t-9.5 -12z"/>
<glyph unicode="ū" d="M388 61v468q0 5 12.5 8.5t24.5 3.5q8 0 13 -4t5 -18v-475q0 -13 -5 -17t-14 -8q-26 -10 -77 -20.5t-108 -10.5q-53 0 -86.5 11t-53 33t-26.5 54t-7 73v370q0 5 12.5 8.5t24.5 3.5q8 0 13.5 -4t5.5 -18v-357q0 -31 5 -54.5t17.5 -39.5t35.5 -24t59 -8q24 0 50.5 3t48.5 7 t36 8.5t14 6.5zM344 650h-165q-6 0 -11.5 3t-5.5 8q0 8 1.5 20t9.5 12h166q5 0 11 -3t6 -8q0 -8 -2.5 -20t-9.5 -12z"/>
<glyph unicode="Ŭ" horiz-adv-x="643" d="M511 251v465q0 5 13.5 10.5t28.5 5.5q10 0 14 -8.5t4 -19.5v-455q0 -74 -15.5 -123.5t-46.5 -80.5t-78 -44t-110 -13h-8q-61 0 -106 13t-75 44t-45 80.5t-15 123.5v467q0 5 13.5 10.5t29.5 5.5q9 0 13 -8.5t4 -19.5v-453q0 -59 10.5 -99.5t32 -65t56 -35.5t82.5 -11h8 q51 0 87 11t59 35.5t33.5 65t10.5 99.5zM318 766q-20 0 -39 4.5t-34 14.5t-24 26.5t-9 39.5q0 5 4.5 7.5t8.5 2.5q9 0 21.5 -1.5t12.5 -7.5q0 -23 18 -35t41 -12t41 12t18 35q0 6 12.5 7.5t22.5 1.5q3 0 7.5 -2.5t4.5 -7.5q0 -23 -9 -39.5t-24 -26.5t-34 -14.5t-39 -4.5z "/>
<glyph unicode="ŭ" d="M388 61v468q0 5 12.5 8.5t24.5 3.5q8 0 13 -4t5 -18v-475q0 -13 -5 -17t-14 -8q-26 -10 -77 -20.5t-108 -10.5q-53 0 -86.5 11t-53 33t-26.5 54t-7 73v370q0 5 12.5 8.5t24.5 3.5q8 0 13.5 -4t5.5 -18v-357q0 -31 5 -54.5t17.5 -39.5t35.5 -24t59 -8q24 0 50.5 3t48.5 7 t36 8.5t14 6.5zM258 648q-20 0 -39 4.5t-34 14.5t-24 26.5t-9 39.5q0 5 4.5 7.5t8.5 2.5q9 0 21.5 -1.5t12.5 -7.5q0 -23 18 -35t41 -12t41 12t18 35q0 6 12.5 7.5t22.5 1.5q3 0 7.5 -2.5t4.5 -7.5q0 -23 -9 -39.5t-24 -26.5t-34 -14.5t-39 -4.5z"/>
<glyph unicode="Ů" horiz-adv-x="643" d="M511 251v465q0 5 13.5 10.5t28.5 5.5q10 0 14 -8.5t4 -19.5v-455q0 -74 -15.5 -123.5t-46.5 -80.5t-78 -44t-110 -13h-8q-61 0 -106 13t-75 44t-45 80.5t-15 123.5v467q0 5 13.5 10.5t29.5 5.5q9 0 13 -8.5t4 -19.5v-453q0 -59 10.5 -99.5t32 -65t56 -35.5t82.5 -11h8 q51 0 87 11t59 35.5t33.5 65t10.5 99.5zM318 767q-41 0 -66.5 24t-25.5 63q0 40 27 64t65 24q39 0 66.5 -24t27.5 -65q0 -38 -26.5 -62t-67.5 -24zM319 803q23 0 38.5 14.5t15.5 36.5q0 21 -15.5 37t-39.5 16q-23 0 -38 -15.5t-15 -37.5t15 -36.5t39 -14.5z"/>
<glyph unicode="ů" d="M388 61v468q0 5 12.5 8.5t24.5 3.5q8 0 13 -4t5 -18v-475q0 -13 -5 -17t-14 -8q-26 -10 -77 -20.5t-108 -10.5q-53 0 -86.5 11t-53 33t-26.5 54t-7 73v370q0 5 12.5 8.5t24.5 3.5q8 0 13.5 -4t5.5 -18v-357q0 -31 5 -54.5t17.5 -39.5t35.5 -24t59 -8q24 0 50.5 3t48.5 7 t36 8.5t14 6.5zM257 649q-41 0 -66.5 24t-25.5 63q0 40 27 64t65 24q39 0 66.5 -24t27.5 -65q0 -38 -26.5 -62t-67.5 -24zM258 685q23 0 38.5 14.5t15.5 36.5q0 21 -15.5 37t-39.5 16q-23 0 -38 -15.5t-15 -37.5t15 -36.5t39 -14.5z"/>
<glyph unicode="Ű" horiz-adv-x="643" d="M511 251v465q0 5 13.5 10.5t28.5 5.5q10 0 14 -8.5t4 -19.5v-455q0 -74 -15.5 -123.5t-46.5 -80.5t-78 -44t-110 -13h-8q-61 0 -106 13t-75 44t-45 80.5t-15 123.5v467q0 5 13.5 10.5t29.5 5.5q9 0 13 -8.5t4 -19.5v-453q0 -59 10.5 -99.5t32 -65t56 -35.5t82.5 -11h8 q51 0 87 11t59 35.5t33.5 65t10.5 99.5zM352 793l49 76q7 11 16 9l42 -8q17 -3 5 -17l-83 -77q-6 -5 -9 -6.5t-7 -1.5q-2 0 -5.5 1.5t-6.5 4.5t-4 8t3 11zM252 793l50 76q6 11 14 9l43 -8q17 -3 5 -17l-84 -77q-5 -5 -8.5 -6.5t-6.5 -1.5q-2 0 -5.5 1.5t-6.5 4.5t-4 8t3 11z "/>
<glyph unicode="ű" d="M388 61v468q0 5 12.5 8.5t24.5 3.5q8 0 13 -4t5 -18v-475q0 -13 -5 -17t-14 -8q-26 -10 -77 -20.5t-108 -10.5q-53 0 -86.5 11t-53 33t-26.5 54t-7 73v370q0 5 12.5 8.5t24.5 3.5q8 0 13.5 -4t5.5 -18v-357q0 -31 5 -54.5t17.5 -39.5t35.5 -24t59 -8q24 0 50.5 3t48.5 7 t36 8.5t14 6.5zM291 675l49 76q7 11 16 9l42 -8q17 -3 5 -17l-83 -77q-6 -5 -9 -6.5t-7 -1.5q-2 0 -5.5 1.5t-6.5 4.5t-4 8t3 11zM191 675l50 76q6 11 14 9l43 -8q17 -3 5 -17l-84 -77q-5 -5 -8.5 -6.5t-6.5 -1.5q-2 0 -5.5 1.5t-6.5 4.5t-4 8t3 11z"/>
<glyph unicode="Ų" horiz-adv-x="643" d="M363 -101q4 2 8 -0.5t6.5 -7t3.5 -9.5t0 -8q-11 -14 -30 -21.5t-39 -7.5q-37 0 -54.5 20t-17.5 45q0 24 12.5 44.5t29.5 34.5q-53 3 -92.5 18.5t-65.5 46t-39 78.5t-13 117v467q0 5 13.5 10.5t29.5 5.5q9 0 13 -8.5t4 -19.5v-453q0 -59 10.5 -99.5t32 -65t56 -35.5 t82.5 -11h8q51 0 87 11t59 35.5t33.5 65t10.5 99.5v465q0 5 13.5 10.5t28.5 5.5q10 0 14 -8.5t4 -19.5v-455q0 -74 -15.5 -123.5t-46.5 -80.5t-78 -44t-110 -13h-2q-35 -33 -35 -65q0 -13 8.5 -26.5t31.5 -13.5q11 0 19.5 4t19.5 12z"/>
<glyph unicode="ų" d="M458 -54q4 2 8 -0.5t6.5 -7t3.5 -9.5t0 -8q-11 -14 -30 -21.5t-39 -7.5q-37 0 -54.5 20t-17.5 45q0 21 10 41q-24 -5 -51 -7.5t-55 -2.5q-53 0 -86.5 11t-53 33t-26.5 54t-7 73v370q0 5 12.5 8.5t24.5 3.5q8 0 13.5 -4t5.5 -18v-357q0 -31 5 -54.5t17.5 -39.5t35.5 -24 t59 -8q24 0 50.5 3t48.5 7t36 8.5t14 6.5v468q0 5 12.5 8.5t24.5 3.5q8 0 13 -4t5 -18v-475q0 -14 -5.5 -18t-13.5 -7q-2 -1 -5.5 -2.5t-27.5 -8.5q-12 -18 -12 -38q0 -13 8.5 -26.5t31.5 -13.5q11 0 19.5 4t19.5 12z"/>
<glyph unicode="Ŵ" horiz-adv-x="851" d="M674 109l163 605q3 12 15.5 15t29.5 3q16 0 16 -14q0 -7 -3 -16l-197 -691q-4 -13 -8 -18t-12 -5q-11 0 -23 5.5t-15 16.5l-176 591q-2 8 -2.5 16t-2.5 16q-2 -8 -3 -16t-3 -16l-166 -590q-7 -23 -20 -23q-11 0 -23 5.5t-15 16.5l-206 692q-3 9 -3 16q0 14 16 14 q17 0 29 -3t16 -16l174 -604q3 -10 3 -19t1 -19q1 10 1 19t3 19l163 596q5 17 17.5 22t26.5 5q9 0 13 -5t8 -19l174 -599q3 -10 3.5 -19t1.5 -19q1 10 1.5 19t2.5 19zM315 773q-5 5 -4 10t11 12l95 69q3 3 5 3.5t4 0.5t4 -0.5t5 -3.5l98 -69q10 -7 11 -12t-3 -10 q-6 -6 -14.5 -9.5t-10.5 -1.5l-90 56l-87 -56q-2 -2 -10.5 1.5t-13.5 9.5z"/>
<glyph unicode="ŵ" horiz-adv-x="637" d="M546 109l128 419q2 8 15 10.5t25 2.5q7 0 12 -3t5 -11q0 -3 -1 -6.5t-3 -8.5l-166 -508q-5 -16 -18 -16q-10 0 -22 2.5t-14 9.5l-125 415q-2 5 -4 14.5t-3 17.5q-1 -8 -3 -17.5t-4 -14.5l-124 -411q-5 -16 -18 -16q-11 0 -22 2t-13 10l-168 511q-2 4 -2 8v7q0 15 16 15 q11 0 24.5 -2.5t15.5 -10.5l128 -419q5 -17 7.5 -31.5t4.5 -28.5l4 30t7 30l121 420q2 7 11.5 9.5t21.5 2.5q15 0 18 -10l122 -421q6 -21 8 -33t4 -26q2 16 4.5 29.5t7.5 28.5zM208 655q-5 5 -4 10t11 12l95 69q3 3 5 3.5t4 0.5t4 -0.5t5 -3.5l98 -69q10 -7 11 -12t-3 -10 q-6 -6 -14.5 -9.5t-10.5 -1.5l-90 56l-87 -56q-2 -2 -10.5 1.5t-13.5 9.5z"/>
<glyph unicode="Ŷ" horiz-adv-x="543" d="M301 281v-267q0 -11 -3.5 -18.5t-13.5 -7.5q-16 0 -29 4.5t-13 9.5v279l-217 429q-6 11 -1.5 16.5t15.5 5.5q20 0 31 -2.5t15 -10.5l186 -376l186 375q5 9 16 11.5t31 2.5q11 0 15 -5.5t-2 -16.5zM160 773q-5 5 -4 10t11 12l95 69q3 3 5 3.5t4 0.5t4 -0.5t5 -3.5l98 -69 q10 -7 11 -12t-3 -10q-6 -6 -14.5 -9.5t-10.5 -1.5l-90 56l-87 -56q-2 -2 -10.5 1.5t-13.5 9.5z"/>
<glyph unicode="ŷ" horiz-adv-x="512" d="M390 529q0 5 13 8.5t24 3.5q13 0 16 -9.5t3 -23.5v-532q0 -111 -50 -161t-163 -50q-62 0 -101 6.5t-47 8.5q-11 3 -14.5 5.5t-3.5 10.5q0 33 13 33q3 0 16 -2t33.5 -5t45.5 -5t52 -2q30 0 59 5.5t52.5 22.5t37.5 48.5t14 84.5v64q-15 -9 -36 -18.5t-46.5 -17t-53.5 -12 t-55 -4.5q-66 0 -93 34t-27 112v395q0 5 12.5 8.5t24.5 3.5q8 0 13.5 -4t5.5 -18v-379q0 -60 18.5 -80.5t61.5 -20.5q29 0 60 6.5t56 16t41.5 19.5t17.5 17v431zM153 655q-5 5 -4 10t11 12l95 69q3 3 5 3.5t4 0.5t4 -0.5t5 -3.5l98 -69q10 -7 11 -12t-3 -10 q-6 -6 -14.5 -9.5t-10.5 -1.5l-90 56l-87 -56q-2 -2 -10.5 1.5t-13.5 9.5z"/>
<glyph unicode="Ÿ" horiz-adv-x="543" d="M301 281v-267q0 -11 -3.5 -18.5t-13.5 -7.5q-16 0 -29 4.5t-13 9.5v279l-217 429q-6 11 -1.5 16.5t15.5 5.5q20 0 31 -2.5t15 -10.5l186 -376l186 375q5 9 16 11.5t31 2.5q11 0 15 -5.5t-2 -16.5zM313 779v68q0 5 12.5 9t28.5 4q12 0 15 -7.5t3 -18.5v-42q0 -11 -3 -18.5 t-15 -7.5q-16 0 -28.5 4t-12.5 9zM163 779v68q0 5 12.5 9t28.5 4q12 0 15.5 -7.5t3.5 -18.5v-42q0 -11 -3.5 -18.5t-15.5 -7.5q-16 0 -28.5 4t-12.5 9z"/>
<glyph unicode="Ź" horiz-adv-x="546" d="M507 0h-467q-13 0 -13 18q0 8 2 20.5t9 23.5l396 605h-378q-5 0 -8 11.5t-3 25.5q0 9 6 12.5t14 3.5h421q10 0 17 -4t7 -15q0 -8 -3.5 -22t-7.5 -20l-394 -605h394q8 0 15 -4t7 -13q0 -14 -4.5 -25.5t-9.5 -11.5zM265 772l67 102q4 6 17.5 5t21.5 -6q14 -8 17 -14.5 t0 -10.5l-79 -82q-9 -8 -14.5 -7.5t-16.5 0.5q-8 0 -13 2.5t0 10.5z"/>
<glyph unicode="ź" horiz-adv-x="416" d="M385 0h-343q-10 0 -13.5 4t-3.5 15q0 17 10 30l273 431h-238q-14 0 -17.5 8.5t-3.5 24.5q0 11 10 13t20 2h281q8 0 14.5 -2.5t6.5 -9.5q0 -8 -1.5 -18.5t-6.5 -17.5l-275 -433h280q7 0 12.5 -3t5.5 -11q0 -12 -3 -22.5t-8 -10.5zM174 653l67 102q4 6 17.5 5t21.5 -6 q14 -8 17 -14.5t0 -10.5l-79 -82q-9 -8 -14.5 -7.5t-16.5 0.5q-8 0 -13 2.5t0 10.5z"/>
<glyph unicode="Ż" horiz-adv-x="546" d="M507 0h-467q-13 0 -13 18q0 8 2 20.5t9 23.5l396 605h-378q-5 0 -8 11.5t-3 25.5q0 9 6 12.5t14 3.5h421q10 0 17 -4t7 -15q0 -8 -3.5 -22t-7.5 -20l-394 -605h394q8 0 15 -4t7 -13q0 -14 -4.5 -25.5t-9.5 -11.5zM276 782v63q0 5 12 9.5t29 4.5q12 0 15 -8t3 -18v-39 q0 -11 -3 -18.5t-15 -7.5q-17 0 -29 4.5t-12 9.5z"/>
<glyph unicode="ż" horiz-adv-x="416" d="M385 0h-343q-10 0 -13.5 4t-3.5 15q0 17 10 30l273 431h-238q-14 0 -17.5 8.5t-3.5 24.5q0 11 10 13t20 2h281q8 0 14.5 -2.5t6.5 -9.5q0 -8 -1.5 -18.5t-6.5 -17.5l-275 -433h280q7 0 12.5 -3t5.5 -11q0 -12 -3 -22.5t-8 -10.5zM186 664v63q0 5 12 9.5t29 4.5 q12 0 15 -8t3 -18v-39q0 -11 -3 -18.5t-15 -7.5q-17 0 -29 4.5t-12 9.5z"/>
<glyph unicode="Ž" horiz-adv-x="546" d="M507 0h-467q-13 0 -13 18q0 8 2 20.5t9 23.5l396 605h-378q-5 0 -8 11.5t-3 25.5q0 9 6 12.5t14 3.5h421q10 0 17 -4t7 -15q0 -8 -3.5 -22t-7.5 -20l-394 -605h394q8 0 15 -4t7 -13q0 -14 -4.5 -25.5t-9.5 -11.5zM197 848q7 6 14.5 10.5t10.5 2.5l84 -59l85 58q3 3 11 -2 t13 -10q6 -7 2 -12t-10 -10l-92 -65q-8 -8 -18 0l-91 65q-5 3 -9.5 9t0.5 13z"/>
<glyph unicode="ž" horiz-adv-x="416" d="M385 0h-343q-10 0 -13.5 4t-3.5 15q0 17 10 30l273 431h-238q-14 0 -17.5 8.5t-3.5 24.5q0 11 10 13t20 2h281q8 0 14.5 -2.5t6.5 -9.5q0 -8 -1.5 -18.5t-6.5 -17.5l-275 -433h280q7 0 12.5 -3t5.5 -11q0 -12 -3 -22.5t-8 -10.5zM106 730q7 6 14.5 10.5t10.5 2.5l84 -59 l85 58q3 3 11 -2t13 -10q6 -7 2 -12t-10 -10l-92 -65q-8 -8 -18 0l-91 65q-5 3 -9.5 9t0.5 13z"/>
<glyph unicode="ſ" horiz-adv-x="318" d="M163 631v-621q0 -22 -16 -22q-14 0 -26.5 3.5t-12.5 8.5v478h-82q-15 0 -15 11q0 12 3.5 25.5t15.5 13.5h78v109q0 54 30.5 88.5t87.5 34.5q32 0 49.5 -4.5t36.5 -12.5q7 -3 12.5 -9t3.5 -11q-1 -11 -7.5 -22t-12.5 -9q-25 10 -40.5 13t-38.5 3q-36 0 -51 -21t-15 -56z "/>
<glyph unicode="ƒ" horiz-adv-x="337" d="M168 622v-94h122q15 0 15 -11q1 -13 -3 -26t-15 -13h-119v-694q0 -22 -16 -22q-14 0 -27 3.5t-13 8.5v704h-81q-15 0 -15 11q0 12 3.5 25.5t14.5 13.5h78v101q0 54 31 88.5t88 34.5q32 0 49.5 -4.5t35.5 -12.5q8 -4 13 -9.5t4 -10.5q-2 -11 -8.5 -22t-11.5 -9 q-13 5 -22.5 8t-18 5t-17.5 2.5t-21 0.5q-37 0 -51.5 -22t-14.5 -56z"/>
<glyph unicode="Ǽ" horiz-adv-x="928" d="M464 15v225h-235l-120 -208q-11 -20 -25 -26.5t-26 -6.5q-31 0 -25 18q2 4 4 8.5t4 9.5l393 653q14 22 23 26.5t25 4.5h375q8 0 15 -2.5t7 -13.5q0 -15 -4 -26t-9 -11h-339v-274h308q9 0 15.5 -2.5t6.5 -13.5q0 -14 -4 -25.5t-9 -11.5h-317v-286h330q8 0 15 -2.5t7 -13.5 q0 -14 -4 -25.5t-9 -11.5h-362q-11 0 -25.5 4t-14.5 11zM260 293h204v356zM470 769l67 102q4 6 17.5 5t21.5 -6q14 -8 17 -14.5t0 -10.5l-79 -82q-9 -8 -14.5 -7.5t-16.5 0.5q-8 0 -13 2.5t0 10.5z"/>
<glyph unicode="ǽ" horiz-adv-x="765" d="M721 5q-38 -9 -78.5 -13t-72.5 -4q-56 0 -93 11.5t-61 34.5q-4 -8 -21.5 -16t-43.5 -14.5t-58 -11t-64 -4.5q-92 0 -139 36.5t-47 123.5q0 84 39 118t122 34q43 0 87.5 -8.5t70.5 -17.5v114q0 30 -7 50t-23 32t-42.5 17.5t-66.5 5.5q-35 0 -69.5 -4t-63.5 -10 q-9 -2 -12 9t-5 21q-2 12 7 15q15 5 59.5 11t98.5 6q58 0 97 -12t59 -44q24 30 63.5 43t93.5 13h15q174 0 174 -142v-25q0 -45 -11.5 -76.5t-46 -51.5t-98 -29t-167.5 -9v-34q0 -72 38 -105.5t125 -33.5q40 0 75.5 6t61.5 10q8 1 11.5 -2t4.5 -22q2 -11 -0.5 -15.5 t-11.5 -6.5zM685 379v22q0 47 -30.5 71t-100.5 24q-29 0 -53.5 -5t-43.5 -17t-29.5 -33t-10.5 -53v-136q85 0 137.5 5.5t81.5 19.5t39 39t10 63zM362 60v167q-2 3 -17.5 7.5t-38 9.5t-48 8.5t-46.5 3.5q-29 0 -50.5 -4.5t-35.5 -17t-21 -34t-7 -55.5q0 -63 30.5 -88 t99.5 -25q18 0 41 2.5t43 7t34 9t16 9.5zM356 653l67 102q4 6 17.5 5t21.5 -6q14 -8 17 -14.5t0 -10.5l-79 -82q-9 -8 -14.5 -7.5t-16.5 0.5q-8 0 -13 2.5t0 10.5z"/>
<glyph unicode="Ǿ" horiz-adv-x="670" d="M475 781q11 -4 20.5 -9.5t7.5 -11.5l-19 -50q63 -25 94.5 -82.5t31.5 -160.5v-214q0 -75 -16.5 -125.5t-50.5 -81.5t-84.5 -44.5t-119.5 -13.5h-8q-67 0 -116 12l-17 -45q-2 -6 -7.5 -13t-17.5 -2q-11 3 -21 8.5t-7 13.5l21 56q-54 28 -80 84t-26 151v214 q0 75 16.5 125.5t50 81.5t84.5 44.5t120 13.5h8q26 0 49 -2t44 -6l17 46q7 18 26 11zM549 465q0 80 -20 126t-65 67l-230 -607q20 -6 44 -8.5t53 -2.5h8q57 0 96.5 11t65 36t37 66t11.5 102v210zM121 465v-210q0 -71 15.5 -115t50.5 -68l226 601q-33 6 -74 6h-8 q-57 0 -96.5 -10.5t-65 -35.5t-37 -66t-11.5 -102zM283 809l67 102q4 6 17.5 5t21.5 -6q14 -8 17 -14.5t0 -10.5l-79 -82q-9 -8 -14.5 -7.5t-16.5 0.5q-8 0 -13 2.5t0 10.5z"/>
<glyph unicode="ǿ" horiz-adv-x="477" d="M58 154v219q0 90 47 129t149 39h2q52 0 88 -10l40 89q7 16 24 11q9 -3 15 -8.5t4 -10.5l-44 -95q70 -36 70 -144v-219q0 -90 -47 -128t-150 -38h-2q-61 0 -105 14l-36 -79q-3 -9 -9 -14t-15 -1q-14 5 -17.5 10t-1.5 11l41 92q-53 38 -53 133zM254 37h3q78 0 109.5 29 t31.5 88v219q0 32 -8.5 55.5t-28.5 38.5l-190 -417q30 -13 83 -13zM113 154q0 -52 23 -79l186 409q-14 4 -29.5 6t-35.5 2h-3q-78 0 -109.5 -29.5t-31.5 -89.5v-219zM199 602l67 102q4 6 17.5 5t21.5 -6q14 -8 17 -14.5t0 -10.5l-79 -82q-9 -8 -14.5 -7.5t-16.5 0.5 q-8 0 -13 2.5t0 10.5z"/>
<glyph unicode="Ș" horiz-adv-x="479" d="M63 63q26 -7 69 -16t93 -9q28 0 58.5 5t56 18t41.5 36.5t16 61.5q0 46 -24.5 80t-61.5 63.5t-80.5 56.5t-80.5 58t-61.5 69t-24.5 89q0 41 16.5 70.5t45 49t66 28.5t80.5 9q14 0 34.5 -1.5t42 -3.5t41.5 -6t34 -8q12 -4 15 -8t1 -13q-2 -11 -6 -20t-16 -7q-34 7 -66 11.5 t-67 4.5q-34 0 -63.5 -6t-51.5 -18.5t-34.5 -32t-12.5 -47.5q0 -40 24.5 -70.5t61.5 -58.5t80.5 -55t80.5 -60t61.5 -75t24.5 -98q0 -48 -19 -81t-50 -53.5t-71.5 -29t-83.5 -8.5q-21 0 -46.5 2t-49.5 5t-44.5 7t-33.5 9q-11 4 -13 8t-2 12q2 13 5.5 24t14.5 8z"/>
<glyph unicode="ș" horiz-adv-x="420" d="M58 46q35 -5 67.5 -7t69.5 -2q63 0 97 18.5t34 65.5q0 36 -20 59.5t-50 42t-65 35.5t-65 38t-50 50t-20 73q0 37 14 61t37.5 37.5t54 18.5t64.5 5q44 0 76 -2t56 -7q10 -2 12.5 -5.5t2.5 -8.5q0 -37 -16 -35q-26 3 -56.5 6t-63.5 3q-57 0 -91.5 -16t-34.5 -58 q0 -31 20 -52t50 -38.5t65 -34t65 -39t50 -54t20 -77.5q0 -39 -13 -64.5t-36.5 -41.5t-57 -22.5t-74.5 -6.5q-32 0 -71 2.5t-79 8.5q-8 2 -10 5t-1 11q2 22 6.5 27t12.5 4zM260 -144l-66 -128q-6 -12 -13 -16t-15 -4q-6 0 -6 4.5t2 15.5l34 141q2 8 18.5 11t32.5 3t16 -13 q0 -8 -3 -14z"/>
<glyph unicode="ȷ" horiz-adv-x="192" d="M-44 -153q10 -2 22.5 -4t27.5 -2q20 0 32.5 6.5t19 18t9 26t2.5 29.5v608q0 5 12.5 8t26.5 3q8 0 12 -6.5t4 -15.5v-595q0 -29 -4.5 -53.5t-16.5 -42t-33 -27t-54 -9.5q-12 0 -23.5 1.5t-27.5 4.5q-21 5 -21 15q0 15 3.5 25.5t8.5 9.5z"/>
<glyph unicode="ʼ" horiz-adv-x="145" d="M107 706v-186q0 -11 -3 -18.5t-15 -7.5q-16 0 -28.5 4t-12.5 10v210q0 5 12.5 9.5t28.5 4.5q12 0 15 -8t3 -18z"/>
<glyph unicode="ˆ" horiz-adv-x="224" d="M2 682q-5 5 -4 10t11 12l95 69q3 3 5 3.5t4 0.5t4 -0.5t5 -3.5l98 -69q10 -7 11 -12t-3 -10q-6 -6 -14.5 -9.5t-10.5 -1.5l-90 56l-87 -56q-2 -2 -10.5 1.5t-13.5 9.5z"/>
<glyph unicode="ˇ" horiz-adv-x="242" d="M5 755q7 6 14.5 10.5t10.5 2.5l84 -59l85 58q3 3 11 -2t13 -10q6 -7 2 -12t-10 -10l-92 -65q-8 -8 -18 0l-91 65q-5 3 -9.5 9t0.5 13z"/>
<glyph unicode="˘" horiz-adv-x="274" d="M141 676q-20 0 -39 4.5t-34 14.5t-24 26.5t-9 39.5q0 5 4.5 7.5t8.5 2.5q9 0 21.5 -1.5t12.5 -7.5q0 -23 18 -35t41 -12t41 12t18 35q0 6 12.5 7.5t22.5 1.5q3 0 7.5 -2.5t4.5 -7.5q0 -23 -9 -39.5t-24 -26.5t-34 -14.5t-39 -4.5z"/>
<glyph unicode="˙" horiz-adv-x="256" d="M100 649v63q0 5 12 9.5t29 4.5q12 0 15 -8t3 -18v-39q0 -11 -3 -18.5t-15 -7.5q-17 0 -29 4.5t-12 9.5z"/>
<glyph unicode="˚" horiz-adv-x="266" d="M132 677q-41 0 -66.5 24t-25.5 63q0 40 27 64t65 24q39 0 66.5 -24t27.5 -65q0 -38 -26.5 -62t-67.5 -24zM133 713q23 0 38.5 14.5t15.5 36.5q0 21 -15.5 37t-39.5 16q-23 0 -38 -15.5t-15 -37.5t15 -36.5t39 -14.5z"/>
<glyph unicode="˛" horiz-adv-x="259" d="M225 -84q4 2 8 -0.5t6.5 -7t3.5 -9.5t0 -8q-11 -14 -30 -21.5t-39 -7.5q-37 0 -54.5 20t-17.5 45q0 30 19 55t42 36h34q-24 -19 -37.5 -38.5t-13.5 -39.5q0 -13 8.5 -26.5t31.5 -13.5q11 0 19.5 4t19.5 12z"/>
<glyph unicode="˜" horiz-adv-x="276" d="M98 706q12 0 21.5 -5l19 -10t18.5 -9.5t20 -4.5q6 -1 12.5 1t12.5 5.5t10 9t4 11.5q0 3 4.5 4t10 1t10 -2.5t4.5 -6.5q-1 -20 -8 -33.5t-17 -21t-21 -10t-20 -2.5q-12 0 -22 4.5t-19.5 10t-19 10t-19.5 4.5q-11 0 -24.5 -6.5t-13.5 -20.5q0 -3 -4.5 -4.5t-10.5 -1 t-10.5 2.5t-4.5 7q1 20 8 33.5t17.5 21t21.5 10t20 2.5z"/>
<glyph unicode="˝" horiz-adv-x="222" d="M139 659l49 76q7 11 16 9l42 -8q17 -3 5 -17l-83 -77q-6 -5 -9 -6.5t-7 -1.5q-2 0 -5.5 1.5t-6.5 4.5t-4 8t3 11zM39 659l50 76q6 11 14 9l43 -8q17 -3 5 -17l-84 -77q-5 -5 -8.5 -6.5t-6.5 -1.5q-2 0 -5.5 1.5t-6.5 4.5t-4 8t3 11z"/>
<glyph unicode="Ι" horiz-adv-x="202" d="M130 14q0 -11 -2.5 -18.5t-14.5 -7.5q-16 0 -28.5 4t-12.5 9v705q0 11 2.5 18.5t14.5 7.5q16 0 28.5 -4t12.5 -9v-705z"/>
<glyph unicode="Ψ" horiz-adv-x="902" d="M476 14q0 -11 -4 -18.5t-14 -7.5q-15 0 -28.5 4.5t-13.5 9.5v318q-63 2 -101.5 18t-61 41.5t-33 57.5t-17.5 65t-15 64.5t-24.5 56t-46 39.5t-80.5 15h-12q-11 0 -14.5 13.5t-3.5 25.5q0 14 15 14h15q60 0 97 -15t59 -39.5t32.5 -55.5t18.5 -64t16.5 -65t26 -57.5t48 -42 t81.5 -18.5v344q0 5 13.5 10t28.5 5q10 0 14 -8t4 -19v-332q51 2 81 18.5t47.5 42t26 57.5t16 65t18.5 64.5t33 55.5t59 39t97 15h15q15 0 15 -14q0 -12 -3.5 -25.5t-14.5 -13.5h-12q-51 0 -80.5 -15t-46 -39.5t-24.5 -56t-15 -64.5t-18 -65t-33 -57t-60.5 -41.5 t-100.5 -18.5v-306z"/>
<glyph unicode="μ" d="M388 61v468q0 5 12.5 8.5t24.5 3.5q8 0 13 -4t5 -18v-475q0 -13 -5 -17t-14 -8q-26 -10 -77 -20.5t-108 -10.5q-40 0 -68.5 6.5t-48.5 18.5v-226q0 -9 -4.5 -16.5t-13.5 -7.5q-13 0 -25.5 3.5t-12.5 10.5v752q0 5 12.5 8.5t24.5 3.5q8 0 13.5 -4t5.5 -18v-357 q0 -31 5 -54.5t17.5 -39.5t35.5 -24t59 -8q24 0 50.5 3t48.5 7t36 8.5t14 6.5z"/>
<glyph unicode="Ё" horiz-adv-x="532" d="M72 15v678q0 26 18 26h371q8 0 15 -3.5t7 -12.5q0 -13 -3.5 -25t-8.5 -12h-339v-274h307q8 0 15.5 -3.5t7.5 -12.5q0 -12 -4.5 -24.5t-9.5 -12.5h-316v-286h329q8 0 15 -3.5t7 -12.5q0 -13 -3.5 -25t-8.5 -12h-363q-11 0 -23.5 4t-12.5 11zM336 778v68q0 5 12.5 9t28.5 4 q12 0 15 -7.5t3 -18.5v-42q0 -11 -3 -18.5t-15 -7.5q-16 0 -28.5 4t-12.5 9zM186 778v68q0 5 12.5 9t28.5 4q12 0 15.5 -7.5t3.5 -18.5v-42q0 -11 -3.5 -18.5t-15.5 -7.5q-16 0 -28.5 4t-12.5 9z"/>
<glyph unicode="Ђ" horiz-adv-x="688" d="M434 47q10 -2 23.5 -4t30.5 -2q28 0 43.5 16t23 41.5t9 58t1.5 64.5v108q0 27 -1.5 54t-9 48.5t-23 35.5t-43.5 14q-35 0 -68.5 -5.5t-59.5 -13t-42.5 -16.5t-18.5 -16v-419q0 -8 -3.5 -15.5t-11.5 -7.5q-19 0 -31.5 4.5t-12.5 9.5v664h-216q-11 0 -17.5 3.5t-6.5 12.5 q0 13 4 25t9 12h491q11 0 23 -1.5t12 -14.5q0 -14 -4.5 -25.5t-9.5 -11.5h-226v-173q30 15 82.5 27t118.5 12q43 0 67 -18.5t36 -46t15 -61t3 -63.5v-150q0 -106 -31.5 -155.5t-92.5 -49.5q-17 0 -29.5 1t-34.5 6q-8 2 -13.5 7t-3.5 11q2 14 7.5 24t10.5 10z"/>
<glyph unicode="Ѓ" horiz-adv-x="520" d="M446 720h-343q-16 0 -23.5 -4t-7.5 -9v-704q0 -5 13.5 -10t29.5 -5q10 0 14 8t4 19v652h303q8 0 15 3.5t7 12.5q0 14 -3.5 25.5t-8.5 11.5zM239 771l67 102q4 6 17.5 5t21.5 -6q14 -8 17 -14.5t0 -10.5l-79 -82q-9 -8 -14.5 -7.5t-16.5 0.5q-8 0 -13 2.5t0 10.5z"/>
<glyph unicode="Є" horiz-adv-x="511" d="M119 461v-69h286q8 0 15 -3.5t7 -12.5q0 -12 -4 -24.5t-9 -12.5h-295v-80q0 -61 11.5 -103t37 -67.5t65 -37t96.5 -11.5h8q35 0 63.5 5t60.5 13q3 0 7 -4.5t7 -11t5 -13t2 -9.5q0 -9 -15 -14t-37 -8t-47.5 -4.5t-45.5 -4.5l-8 -1q-69 0 -120 13.5t-84.5 44.5t-50 81.5 t-16.5 125.5v214q0 75 16.5 125.5t50 81.5t84.5 44.5t120 13.5h8q22 0 47 -2.5t47 -7t36.5 -10t14.5 -12.5q0 -3 -2 -9.5t-5 -13t-7 -11t-7 -4.5q-32 8 -60.5 12.5t-63.5 4.5h-8q-57 0 -96.5 -11t-65 -36.5t-37 -67.5t-11.5 -103z"/>
<glyph unicode="Ѕ" horiz-adv-x="487" d="M54 69q40 -11 84 -19.5t89 -8.5q24 0 52 4t52 16.5t40.5 35.5t16.5 61q0 42 -24.5 77t-61.5 66t-80 61t-80 62.5t-61.5 69.5t-24.5 83q0 44 18 74t48 48t69 25.5t80 7.5q29 0 67 -7t76 -20q7 -3 12.5 -7.5t3.5 -11.5q-1 -6 -3 -12.5t-5.5 -11.5t-8.5 -7.5t-12 -0.5 q-29 9 -62 17t-68 8q-29 0 -57 -5.5t-49.5 -18t-35 -32.5t-13.5 -48q0 -35 24.5 -65t61.5 -59t80 -59t80 -65t61.5 -76.5t24.5 -94.5q0 -50 -18 -82.5t-48.5 -51.5t-70.5 -26.5t-84 -7.5q-42 0 -87.5 7t-94.5 23q-7 2 -12 6.5t-3 11.5q1 3 2.5 9t4.5 12t7.5 9.5t9.5 2.5z "/>
<glyph unicode="І" horiz-adv-x="203" d="M132 14q0 -11 -4 -18.5t-14 -7.5q-15 0 -28.5 4.5t-13.5 9.5v715q0 5 13.5 10t28.5 5q10 0 14 -8t4 -19v-691z"/>
<glyph unicode="Ї" horiz-adv-x="261" d="M155 14q0 -11 -4 -18.5t-14 -7.5q-15 0 -28.5 4.5t-13.5 9.5v715q0 5 13.5 10t28.5 5q10 0 14 -8t4 -19v-691zM172 778v68q0 5 12.5 9t28.5 4q12 0 15 -7.5t3 -18.5v-42q0 -11 -3 -18.5t-15 -7.5q-16 0 -28.5 4t-12.5 9zM22 778v68q0 5 12.5 9t28.5 4q12 0 15.5 -7.5 t3.5 -18.5v-42q0 -11 -3.5 -18.5t-15.5 -7.5q-16 0 -28.5 4t-12.5 9z"/>
<glyph unicode="Ј" horiz-adv-x="207" d="M-76 -175q20 -5 38.5 -8t38.5 -3q37 0 55 21t18 76v806q0 5 13.5 10t29.5 5q10 0 14 -8t4 -19v-793q0 -78 -29 -114t-95 -36q-18 0 -38.5 2.5t-46.5 8.5q-7 2 -14 5.5t-5 14.5t6.5 22.5t10.5 9.5z"/>
<glyph unicode="Љ" horiz-adv-x="1149" d="M61 54q19 -5 37 -8.5t38 -3.5q17 0 30 8t23 27t17.5 49.5t12.5 74.5l59 505q2 13 15 13h339q20 0 26 -5.5t6 -20.5v-303h225q65 0 105 -11t61.5 -34t29 -57.5t7.5 -82.5v-19q0 -42 -6.5 -76t-27.5 -58.5t-61.5 -38t-107.5 -13.5h-249q-11 0 -23.5 4t-12.5 11v651h-270 l-55 -470q-13 -109 -46.5 -158.5t-99.5 -49.5q-21 0 -39.5 3.5t-42.5 11.5q-11 4 -14.5 8t-0.5 12q5 14 12.5 23.5t12.5 7.5zM889 341h-225v-292h217q55 0 86 10.5t45 28.5t17 42.5t3 51.5v21q0 27 -2 52t-15.5 44t-42.5 30.5t-83 11.5z"/>
<glyph unicode="Њ" horiz-adv-x="1044" d="M577 704v-306h225q65 0 105 -11t61.5 -34t29 -58t7.5 -83v-26q0 -50 -8.5 -85t-31 -57.5t-62.5 -33t-103 -10.5h-231q-25 0 -38.5 2.5t-13.5 10.5v335h-385v-334q0 -11 -4 -18.5t-14 -7.5q-14 0 -28 4.5t-14 9.5v716q0 5 14 9.5t28 4.5q10 0 14 -8t4 -19v-304h385v315 q0 5 13.5 10.5t29.5 5.5q9 0 13 -8.5t4 -19.5zM802 349h-225v-300h218q55 0 85.5 10.5t44.5 28.5t17 42.5t3 51.5v28q0 28 -2 53t-15.5 44t-42.5 30.5t-83 11.5z"/>
<glyph unicode="Ћ" horiz-adv-x="722" d="M300 666v-281q32 17 88 29t124 12q42 0 68.5 -16.5t41.5 -42.5t21 -58t6 -62v-237q0 -9 -4.5 -15.5t-12.5 -6.5q-14 0 -28.5 3.5t-14.5 8.5v223q0 27 -3.5 54.5t-13 49t-27 35t-45.5 13.5q-35 0 -70 -5.5t-63.5 -13t-46.5 -16t-20 -15.5v-311q0 -11 -4 -18.5t-14 -7.5 q-16 0 -29 4.5t-13 9.5v664h-216q-10 0 -17 3.5t-7 12.5q0 13 4.5 25t9.5 12h511q9 0 16.5 -3.5t7.5 -12.5q0 -14 -4.5 -25.5t-9.5 -11.5h-235z"/>
<glyph unicode="Ќ" horiz-adv-x="580" d="M132 14q0 -11 -4 -18.5t-14 -7.5q-15 0 -28.5 4.5t-13.5 9.5v715q0 5 13.5 10t28.5 5q10 0 14 -8t4 -19v-324l334 336q8 9 20.5 12t31.5 3q5 0 11 -2t6 -9q0 -6 -15 -24l-324 -324l347 -351q16 -16 16 -24q0 -7 -6 -8.5t-11 -1.5q-19 0 -32 2.5t-21 11.5l-357 363v-351z M248 758l67 102q4 6 17.5 5t21.5 -6q14 -8 17 -14.5t0 -10.5l-79 -82q-9 -8 -14.5 -7.5t-16.5 0.5q-8 0 -13 2.5t0 10.5z"/>
<glyph unicode="Ў" horiz-adv-x="556" d="M43 54q19 -5 38 -8.5t39 -3.5q18 0 32 5.5t28 21.5t29.5 44.5t35.5 74.5l-220 523q-5 12 1.5 16.5t12.5 4.5q17 0 31.5 -3.5t17.5 -14.5l191 -459l191 460q2 11 17 14t30 3q6 0 12.5 -4.5t2.5 -16.5l-224 -529q-21 -50 -40.5 -86.5t-40.5 -60.5t-46 -35.5t-56 -11.5 q-18 0 -39 3t-47 12q-9 3 -14 7t-3 13q4 13 10 23t11 8zM277 766q-20 0 -39 4.5t-34 14.5t-24 26.5t-9 39.5q0 5 4.5 7.5t8.5 2.5q9 0 21.5 -1.5t12.5 -7.5q0 -23 18 -35t41 -12t41 12t18 35q0 6 12.5 7.5t22.5 1.5q3 0 7.5 -2.5t4.5 -7.5q0 -23 -9 -39.5t-24 -26.5 t-34 -14.5t-39 -4.5z"/>
<glyph unicode="Џ" horiz-adv-x="614" d="M352 -98q0 -11 -4 -19t-14 -8q-16 0 -29 4.5t-13 9.5v111h-189q-16 0 -23.5 4t-7.5 9v704q0 5 13.5 10t29.5 5q10 0 14 -8t4 -19v-652h373v664q0 5 13.5 10t30.5 5q10 0 13.5 -8t3.5 -19v-668q0 -14 -3.5 -25.5t-8.5 -11.5h-203v-98z"/>
<glyph unicode="А" horiz-adv-x="562" d="M503 5l-77 236h-261l-82 -241q-3 -9 -15.5 -10.5t-26.5 -1.5q-7 0 -12 2t-5 9q0 2 0.5 4t1.5 5l238 709q2 8 15 11.5t30 3.5q13 0 19 -17l236 -707q1 -3 1.5 -5t0.5 -4q0 -7 -5.5 -9t-10.5 -2q-21 0 -32 3t-15 14zM287 618l-107 -325h230l-107 325q-3 9 -4.5 19t-3.5 18 q-2 -8 -3.5 -18t-4.5 -19z"/>
<glyph unicode="Б" horiz-adv-x="617" d="M498 666h-367v-276h225q65 0 105 -13.5t61.5 -38.5t29 -59t7.5 -74v-19q0 -43 -8 -77.5t-30.5 -58.5t-62.5 -37t-104 -13h-246q-12 0 -24.5 4t-12.5 11v678q0 15 6 20.5t26 5.5h399q15 0 15 -13q0 -12 -3 -26t-16 -14zM356 341h-225v-288h218q54 0 84.5 10.5t45 28.5 t17.5 42.5t3 51.5v19q0 27 -2.5 51.5t-16.5 43.5t-43 30t-81 11z"/>
<glyph unicode="В" horiz-adv-x="617" d="M103 719h251q57 0 94 -15t58.5 -40.5t30 -59t8.5 -70.5v-6q0 -78 -25.5 -113t-68.5 -46q24 -4 44 -18.5t34 -36.5t22 -50t8 -59v-19q0 -55 -13.5 -91t-40 -57t-64.5 -29.5t-87 -8.5h-246q-12 0 -24.5 4t-12.5 11v678q0 15 6 20.5t26 5.5zM356 341h-225v-288h224 q39 0 66.5 6t44.5 21t25 41t8 65v19q0 72 -34 104t-109 32zM354 666h-223v-276h221q74 0 103.5 33t29.5 105v6q0 29 -6.5 53.5t-22 42t-40.5 27t-62 9.5z"/>
<glyph unicode="Г" horiz-adv-x="519" d="M103 732h391q5 0 8.5 -11.5t3.5 -25.5q0 -9 -7 -12.5t-15 -3.5h-351v-653q0 -10 -4 -18t-14 -8q-16 0 -29.5 4.5t-13.5 9.5v704q0 5 7.5 9.5t23.5 4.5z"/>
<glyph unicode="Д" horiz-adv-x="629" d="M206 732h318q17 0 24.5 -4.5t7.5 -9.5v-665h42q9 0 18 -2t9 -13v-203q0 -12 -8 -16t-21 -1q-7 1 -19.5 2.5t-12.5 5.5v174h-479v-171q0 -4 -16.5 -8t-29.5 -4q-6 0 -10.5 7t-4.5 15v200q0 14 20 14h33q29 0 49.5 27t33 71t19.5 100t10 113t3.5 110t0.5 92v121 q0 17 2.5 31t10.5 14zM495 679h-242v-120q0 -37 -0.5 -84t-2.5 -97.5t-7.5 -100.5t-15 -94t-24.5 -78t-37 -52h329v626z"/>
<glyph unicode="Е" horiz-adv-x="532" d="M72 15v678q0 11 3 18.5t15 7.5h371q8 0 15 -2.5t7 -13.5q0 -15 -3.5 -26t-8.5 -11h-339v-274h307q8 0 15.5 -3.5t7.5 -12.5q0 -12 -4.5 -24.5t-9.5 -12.5h-316v-286h329q8 0 15 -3.5t7 -12.5q0 -13 -3.5 -25t-8.5 -12h-363q-11 0 -23.5 4t-12.5 11z"/>
<glyph unicode="Ж" horiz-adv-x="922" d="M48 677h-12q-11 0 -14.5 13.5t-3.5 25.5q0 14 15 14h15q59 0 95.5 -15t58.5 -39t33 -55.5t19 -64.5t16.5 -64.5t26.5 -57t48.5 -42t81.5 -18.5v343q0 5 13.5 10t28.5 5q10 0 14 -8t4 -19v-331q51 2 81 18.5t47.5 42t26.5 57.5t17 64.5t18.5 64t32.5 55.5t59 39t96 15h15 q15 0 15 -14q0 -12 -3.5 -25.5t-14.5 -13.5h-12q-57 0 -87 -18.5t-46 -48.5t-23 -66.5t-16.5 -73t-27.5 -68t-56 -51.5l290 -329q16 -19 16 -24q0 -7 -6 -8.5t-11 -1.5q-19 0 -32 2.5t-21 11.5l-289 326q-15 -4 -32 -5.5t-37 -2.5v-306q0 -11 -4 -18.5t-14 -7.5 q-15 0 -28.5 4.5t-13.5 9.5v318q-39 1 -70 8l-289 -326q-8 -9 -20.5 -11.5t-31.5 -2.5q-5 0 -11 1.5t-6 8.5t15 24l291 328q-39 20 -57 52t-28 68t-16.5 73t-22.5 67t-46.5 48.5t-86.5 18.5z"/>
<glyph unicode="З" horiz-adv-x="497" d="M44 55q10 -1 27 -3.5t37.5 -5t43 -4.5t44.5 -2q32 0 65.5 5.5t60.5 21.5t44.5 45t17.5 76v20q0 48 -14.5 77.5t-39.5 45.5t-58.5 21.5t-71.5 5.5h-28q-6 0 -12 11t-6 25q0 9 5.5 12t14.5 3h12q39 0 73 6.5t59 22t39.5 40.5t14.5 61v8q0 76 -41.5 105.5t-131.5 29.5 q-23 0 -52 -2.5t-83 -10.5q-4 0 -9 11.5t-5 24.5q0 7 16.5 12t41 8.5t52 5t49.5 1.5q54 0 95 -8.5t69.5 -29t43 -56t14.5 -89.5v-12q0 -39 -11.5 -65t-30 -43.5t-40.5 -27t-43 -14.5q25 -3 49.5 -12t44 -29t32 -52.5t12.5 -81.5v-29q0 -57 -19.5 -94.5t-52 -60t-75.5 -31.5 t-90 -9q-24 0 -55 2t-58.5 5.5t-46 8t-18.5 9.5q0 3 0.5 10.5t2 14.5t4.5 12.5t8 4.5z"/>
<glyph unicode="И" horiz-adv-x="702" d="M526 2v617l-395 -617q-2 -5 -7 -9.5t-11 -4.5q-16 0 -27.5 5t-11.5 10v715q0 5 12.5 9.5t28.5 4.5q9 0 12.5 -7.5t3.5 -18.5v-604l395 618q2 5 15.5 8.5t24.5 3.5q8 0 12.5 -7.5t4.5 -18.5v-690q0 -11 -3 -19.5t-12 -8.5q-17 0 -29.5 4.5t-12.5 9.5z"/>
<glyph unicode="Й" horiz-adv-x="702" d="M526 619v-617q0 -5 12.5 -9.5t29.5 -4.5q9 0 12 8.5t3 19.5v690q0 11 -4.5 18.5t-12.5 7.5q-11 0 -24.5 -3.5t-15.5 -8.5l-395 -618v604q0 11 -3.5 18.5t-12.5 7.5q-16 0 -28.5 -4.5t-12.5 -9.5v-715q0 -5 11.5 -10t27.5 -5q6 0 11 4.5t7 9.5zM351 767q-20 0 -39 4.5 t-34 14.5t-24 26.5t-9 39.5q0 5 4.5 7.5t8.5 2.5q9 0 21.5 -1.5t12.5 -7.5q0 -23 18 -35t41 -12t41 12t18 35q0 6 12.5 7.5t22.5 1.5q3 0 7.5 -2.5t4.5 -7.5q0 -23 -9 -39.5t-24 -26.5t-34 -14.5t-39 -4.5z"/>
<glyph unicode="К" horiz-adv-x="577" d="M72 2v715q0 5 13.5 10t28.5 5q13 0 15.5 -9.5t2.5 -17.5v-331q51 2 81 18.5t47.5 41.5t26.5 56.5t17 64t18.5 63.5t32.5 55t59 38.5t96 14.5h15q11 0 13 -8q2 -11 -0.5 -27t-15.5 -18h-12q-57 0 -87 -18.5t-46 -47.5t-22.5 -65.5t-16.5 -72.5t-28.5 -67.5t-56.5 -50.5 l291 -329q16 -19 16 -24q0 -7 -6 -8.5t-11 -1.5q-16 0 -30.5 2.5t-22.5 11.5l-289 326q-15 -4 -32 -5.5t-37 -2.5v-306q0 -11 -4 -18.5t-14 -7.5q-15 0 -28.5 4.5t-13.5 9.5z"/>
<glyph unicode="Л" horiz-adv-x="735" d="M664 14q0 -11 -4 -18.5t-14 -7.5q-16 0 -29 4.5t-13 9.5v664h-271l-54 -470q-13 -109 -46.5 -158.5t-99.5 -49.5q-21 0 -39.5 3.5t-42.5 11.5q-11 4 -14.5 8t-0.5 12q5 14 12.5 23.5t12.5 7.5q19 -5 37 -8.5t38 -3.5q17 0 30 8t23 27t17.5 49.5t12.5 74.5l59 505 q2 13 15 13h339q20 0 26 -5.5t6 -20.5v-679z"/>
<glyph unicode="М" horiz-adv-x="885" d="M132 14q0 -11 -4 -18.5t-14 -7.5q-15 0 -28.5 4.5t-13.5 9.5v715q0 5 13.5 10t28.5 5q10 0 16 -8t11 -19l302 -637l308 649q3 7 17.5 11t26.5 4q10 0 14 -8t4 -19v-691q0 -11 -4 -18.5t-14 -7.5q-15 0 -28.5 4.5t-13.5 9.5v590l-279 -588q-7 -16 -20 -16q-17 0 -29.5 4 t-15.5 12l-277 588v-578z"/>
<glyph unicode="Н" horiz-adv-x="648" d="M577 704v-689q0 -11 -4 -19t-13 -8q-16 0 -29.5 4.5t-13.5 9.5v346h-385v-334q0 -11 -4 -18.5t-14 -7.5q-14 0 -28 4.5t-14 9.5v716q0 5 14 9.5t28 4.5q10 0 14 -8t4 -19v-304h385v315q0 5 13.5 10.5t29.5 5.5q9 0 13 -8.5t4 -19.5z"/>
<glyph unicode="О" horiz-adv-x="666" d="M337 -12h-8q-69 0 -120 13.5t-84.5 44.5t-50 81.5t-16.5 125.5v214q0 75 16.5 125.5t50 81.5t84.5 44.5t120 13.5h8q69 0 119.5 -13.5t84.5 -44.5t50.5 -81.5t16.5 -125.5v-214q0 -75 -16.5 -125.5t-50.5 -81.5t-84.5 -44.5t-119.5 -13.5zM119 461v-202 q0 -61 11.5 -102.5t37 -67t65 -37t96.5 -11.5h8q57 0 96.5 11.5t65 37t37 67t11.5 102.5v202q0 61 -11.5 102.5t-37 67t-65 37t-96.5 11.5h-8q-57 0 -96.5 -11.5t-65 -37t-37 -67t-11.5 -102.5z"/>
<glyph unicode="П" horiz-adv-x="614" d="M103 732h452q5 0 8.5 -11.5t3.5 -25.5v-681q0 -10 -3.5 -18t-13.5 -8q-17 0 -30.5 4.5t-13.5 9.5v677h-373v-665q0 -10 -4 -18t-14 -8q-16 0 -29.5 4.5t-13.5 9.5v716q0 5 7.5 9.5t23.5 4.5z"/>
<glyph unicode="Р" horiz-adv-x="564" d="M71 2v691q0 9 6 14t15 8t19 3.5t19 0.5h167q67 0 111.5 -11t70 -35t36 -63t10.5 -96v-10q0 -59 -11 -98t-37.5 -62.5t-70.5 -33.5t-109 -10h-166v-286q0 -11 -4 -18.5t-13 -7.5q-15 0 -29 4.5t-14 9.5zM297 666h-166v-313h166q50 0 82.5 6.5t51 23.5t26 46.5t7.5 74.5v10 q0 46 -7.5 75.5t-26 46.5t-51 23.5t-82.5 6.5z"/>
<glyph unicode="С" horiz-adv-x="511" d="M119 461v-202q0 -61 11.5 -103t37 -67.5t65 -37t96.5 -11.5h8q35 0 63.5 5t60.5 13q3 0 7 -4.5t7 -11t5 -13t2 -9.5q0 -9 -15 -14t-37 -8t-47.5 -4.5t-45.5 -4.5l-8 -1q-69 0 -120 13.5t-84.5 44.5t-50 81.5t-16.5 125.5v214q0 75 16.5 125.5t50 81.5t84.5 44.5t120 13.5 h8q22 0 47 -2.5t47 -7t36.5 -10t14.5 -12.5q0 -3 -2 -9.5t-5 -13t-7 -11t-7 -4.5q-32 8 -60.5 12.5t-63.5 4.5h-8q-57 0 -96.5 -11t-65 -36.5t-37 -67.5t-11.5 -103z"/>
<glyph unicode="Т" horiz-adv-x="540" d="M301 666v-652q0 -11 -4 -18.5t-14 -7.5q-16 0 -29 4.5t-13 9.5v664h-215q-11 0 -17.5 3.5t-6.5 12.5q0 13 4 25t9 12h501q9 0 16.5 -3.5t7.5 -12.5q0 -14 -4 -25.5t-9 -11.5h-226z"/>
<glyph unicode="У" horiz-adv-x="556" d="M43 54q19 -5 38 -8.5t39 -3.5q18 0 32 5.5t28 21.5t29.5 44.5t35.5 74.5l-220 523q-5 12 1.5 16.5t12.5 4.5q17 0 31.5 -3.5t17.5 -14.5l191 -459l191 460q2 11 17 14t30 3q6 0 12.5 -4.5t2.5 -16.5l-224 -529q-21 -50 -40.5 -86.5t-40.5 -60.5t-46 -35.5t-56 -11.5 q-18 0 -39 3t-47 12q-9 3 -14 7t-3 13q4 13 10 23t11 8z"/>
<glyph unicode="Ф" horiz-adv-x="684" d="M372 14q0 -11 -4 -18.5t-14 -7.5q-15 0 -28.5 4.5t-13.5 9.5v79q-65 1 -112.5 15.5t-79 46t-47 81.5t-15.5 122v30q0 72 15.5 122t47 81t79 45.5t112.5 16.5v76q0 5 13.5 10t28.5 5q10 0 14 -8t4 -19v-64q64 -2 112 -16.5t79.5 -45.5t47 -81t15.5 -122v-30 q0 -72 -15.5 -122t-47 -81.5t-79.5 -46t-112 -15.5v-67zM565 370q0 58 -11 98.5t-34 66.5t-59.5 38t-88.5 14v-454q52 1 88.5 13.5t59.5 38.5t34 67t11 100v18zM119 370v-18q0 -59 10.5 -100t34 -67t60 -38.5t88.5 -13.5v454q-52 -2 -88.5 -14t-60 -38t-34 -66.5 t-10.5 -98.5z"/>
<glyph unicode="Х" horiz-adv-x="534" d="M498 702l-193 -342l194 -342q10 -17 6.5 -23.5t-14.5 -6.5q-13 0 -27.5 2t-21.5 14l-175 309l-175 -309q-7 -12 -21.5 -14t-27.5 -2q-11 0 -14.5 6.5t6.5 23.5l194 342l-193 342q-10 17 -7 23.5t14 6.5q14 0 28.5 -2.5t21.5 -14.5l174 -306l174 306q7 12 21.5 14.5 t27.5 2.5q12 0 15 -6.5t-7 -23.5z"/>
<glyph unicode="Ц" horiz-adv-x="546" d="M546 37v-193q0 -11 -3.5 -18.5t-13.5 -7.5q-16 0 -29.5 4.5t-13.5 9.5v168h-383q-16 0 -23.5 4t-7.5 9v704q0 5 13.5 10t29.5 5q10 0 14 -8t4 -19v-652h319v664q0 5 13.5 10t29.5 5q10 0 13.5 -8t3.5 -19v-652h12q8 0 15 -3.5t7 -12.5z"/>
<glyph unicode="Ч" horiz-adv-x="617" d="M485 343q-27 -12 -61.5 -22t-71.5 -16t-74 -9t-70 -1q-49 2 -81.5 16.5t-52 38t-28 55t-8.5 68.5v247q0 5 14.5 8.5t28.5 3.5q9 0 13 -7t4 -16v-222q0 -76 41.5 -109.5t119.5 -31.5q33 0 71 6.5t72 15t57 18t26 17.5v315q0 5 13.5 9.5t28.5 4.5q10 0 14 -8t4 -19v-695 q0 -9 -4.5 -15.5t-12.5 -6.5q-14 0 -28.5 3.5t-14.5 8.5v343z"/>
<glyph unicode="Ш" horiz-adv-x="856" d="M780 -12h-677q-14 0 -22 4t-8 9v716q0 5 13 10t29 5q6 0 11 -3.5t7 -8.5v-679h270v676q0 5 13 10t29 5q6 0 11 -3.5t7 -8.5v-679h269v676q0 5 13 10t30 5q14 0 17 -12v-687q0 -18 -2 -31.5t-10 -13.5z"/>
<glyph unicode="Щ" horiz-adv-x="859" d="M807 -182q-15 0 -28.5 4.5t-13.5 9.5v156h-662q-14 0 -22 4t-8 9v701v10t1 10q2 5 16.5 7.5t24.5 2.5q6 0 11 -3.5t7 -8.5v-679h270v676q0 5 13 10t29 5q6 0 11 -3.5t7 -8.5v-679h269v676q0 5 13 10t30 5q14 0 17 -12v-553l11 -126q8 0 15 -3.5t7 -12.5v-167 q0 -14 -2.5 -27t-15.5 -13z"/>
<glyph unicode="Ъ" horiz-adv-x="763" d="M217 15l-1 652h-195q-15 0 -15 13q0 4 0.5 10.5t1 12.5t2 10.5t4.5 5.5h231q20 0 26 -5.5t6 -20.5v-303h225q66 0 106 -14t61.5 -39.5t28.5 -60t7 -74.5v-9q0 -44 -7.5 -80t-29.5 -61t-62.5 -38.5t-105.5 -13.5h-246q-12 0 -24.5 4t-12.5 11zM502 341h-225v-292h218 q54 0 84 10.5t44.5 28.5t18 42.5t3.5 51.5v21q0 27 -3 52t-16.5 44t-42.5 30.5t-81 11.5z"/>
<glyph unicode="Ы" horiz-adv-x="824" d="M131 705v-315h225q65 0 105 -13.5t61.5 -38.5t29 -59t7.5 -74v-19q0 -43 -8 -77.5t-30.5 -58.5t-62.5 -37t-104 -13h-246q-12 0 -24.5 4t-12.5 11v702q0 5 13.5 10t29.5 5q9 0 13 -8t4 -19zM753 14q0 -11 -4 -18.5t-13 -7.5q-16 0 -29.5 4.5t-13.5 9.5v715q0 5 13.5 10 t29.5 5q9 0 13 -8t4 -19v-691zM356 341h-225v-292h218q54 0 84.5 10.5t45 28.5t17.5 42.5t3 51.5v23q0 27 -2.5 51.5t-16.5 43.5t-43 30t-81 11z"/>
<glyph unicode="Ь" horiz-adv-x="565" d="M131 705v-315h225q65 0 105 -13.5t61.5 -38.5t29 -59t7.5 -74v-19q0 -43 -8 -77.5t-30.5 -58.5t-62.5 -37t-104 -13h-246q-12 0 -24.5 4t-12.5 11v702q0 5 13.5 10t29.5 5q9 0 13 -8t4 -19zM356 341h-225v-288h218q54 0 84.5 10.5t45 28.5t17.5 42.5t3 51.5v19 q0 27 -2.5 51.5t-16.5 43.5t-43 30t-81 11z"/>
<glyph unicode="Э" horiz-adv-x="511" d="M393 383q0 84 -7.5 140.5t-29.5 91t-63.5 49.5t-110.5 15h-8q-35 0 -63.5 -4.5t-60.5 -12.5q-3 0 -7 4.5t-7 11t-5 13t-2 9.5q0 9 14.5 13.5t36.5 7.5t47.5 5t46.5 5l8 1q75 0 127 -15t84.5 -50.5t46.5 -93t14 -142.5v-178q0 -75 -16.5 -125.5t-50.5 -81.5t-85 -44.5 t-120 -13.5h-8q-21 0 -46.5 2.5t-47.5 7t-36.5 10t-14.5 12.5q0 3 2 9.5t5 13t7 11t7 4.5q32 -8 60.5 -13t63.5 -5h8q70 0 111.5 15t63.5 49t29 89.5t7 136.5h-275h-12t-11 1q-6 0 -8.5 11.5t-2.5 19.5q0 11 5.5 16t8.5 5h295z"/>
<glyph unicode="Ю" horiz-adv-x="847" d="M518 -12h-8q-69 0 -120 13.5t-84.5 44.5t-50 81.5t-16.5 125.5v95h-107v-334q0 -11 -4 -18.5t-14 -7.5q-14 0 -28 4.5t-14 9.5v716q0 5 14 9.5t28 4.5q10 0 14 -8t4 -19v-304h107v66q0 75 16.5 125.5t50 81.5t84.5 44.5t120 13.5h8q69 0 119.5 -13.5t84.5 -44.5 t50.5 -81.5t16.5 -125.5v-214q0 -75 -16.5 -125.5t-50.5 -81.5t-84.5 -44.5t-119.5 -13.5zM300 465v-210q0 -61 11.5 -102t37 -66t65 -36t96.5 -11h8q57 0 96.5 11t65 36t37 66t11.5 102v210q0 61 -11.5 102t-37 66t-65 35.5t-96.5 10.5h-8q-57 0 -96.5 -10.5t-65 -35.5 t-37 -66t-11.5 -102z"/>
<glyph unicode="Я" horiz-adv-x="578" d="M511 694v-692q0 -5 -14 -9.5t-29 -4.5q-9 0 -13 7.5t-4 18.5v286h-176l-157 -285q-8 -15 -23.5 -21t-29.5 -6q-7 0 -13 2.5t-6 9.5q0 5 3 10.5t5 10.5l156 284q-45 6 -75 20t-47 38t-24 59t-7 82v10q0 57 10.5 96t36 63.5t69.5 35.5t112 11h207q10 0 14.5 -7.5t4.5 -18.5 zM451 667h-168q-50 0 -82 -6.5t-50.5 -23.5t-25.5 -47t-7 -76v-10q0 -47 7 -76t25.5 -46t50.5 -23t82 -6h168v314z"/>
<glyph unicode="а" horiz-adv-x="477" d="M416 388v-350q0 -8 -16.5 -16.5t-43 -16t-60.5 -12.5t-68 -5q-92 0 -139 36.5t-47 123.5q0 84 39 118t122 34q43 0 87.5 -8.5t70.5 -17.5v114q0 30 -7 50t-23 32t-42.5 17.5t-66.5 5.5q-35 0 -69.5 -4t-63.5 -10q-9 -2 -12 9t-5 21q-2 12 7 15q15 5 59.5 11t98.5 6 q45 0 79 -7t56 -24.5t33 -47t11 -74.5zM361 60v167q-2 3 -17.5 7.5t-38 9.5t-48 8.5t-46.5 3.5q-29 0 -50.5 -4.5t-35.5 -17t-21 -34t-7 -55.5q0 -63 30.5 -88t99.5 -25q18 0 41 2.5t43 7t34 9t16 9.5z"/>
<glyph unicode="б" horiz-adv-x="495" d="M58 168v189q0 41 6 94t20.5 104t38.5 92.5t60 59.5q19 10 51.5 20.5t67 20t65.5 16.5t46 10q9 1 12 -3t4 -12q1 -11 -3.5 -22.5t-13.5 -13.5t-37 -9t-60 -16.5t-60.5 -18.5t-39.5 -15q-16 -8 -29.5 -25.5t-25 -40t-19.5 -49t-13 -51.5q20 26 51.5 34t66.5 8h3 q98 0 143 -42.5t45 -140.5v-189q0 -98 -45 -140t-143 -42h-3q-98 0 -143 42t-45 140zM246 35h3q42 0 68 10t40.5 29.5t19.5 49t5 68.5v141q0 39 -5 68.5t-19.5 49.5t-40.5 30t-68 10h-3q-42 0 -68 -10t-40.5 -30t-19.5 -49.5t-5 -68.5v-141q0 -39 5 -68.5t19.5 -49 t40.5 -29.5t68 -10z"/>
<glyph unicode="в" horiz-adv-x="468" d="M76 532h191q43 0 71.5 -10.5t45 -29t23 -44t6.5 -54.5v-5q0 -56 -19 -82.5t-49 -34.5q34 -5 56.5 -39.5t22.5 -80.5v-14q0 -41 -10 -67.5t-30 -42.5t-49 -22.5t-68 -6.5h-185q-10 0 -19.5 3.5t-9.5 8.5v502q0 10 4.5 14.5t18.5 4.5zM267 247h-158v-202h156q55 0 79 19 t24 72v18q0 49 -24.5 71t-76.5 22zM265 484h-156v-192h154q53 0 73.5 22.5t20.5 72.5v6q0 41 -20 66t-72 25z"/>
<glyph unicode="г" horiz-adv-x="388" d="M81 541h287q5 0 8 -12.5t3 -23.5q0 -7 -5 -10.5t-12 -3.5h-253v-472q0 -8 -3.5 -14t-11.5 -6q-12 0 -26 3.5t-14 9.5v518q0 11 27 11z"/>
<glyph unicode="д" horiz-adv-x="491" d="M163 541h241q12 0 20 -3t8 -8v-481h35q8 0 14.5 -2t6.5 -11v-156q0 -8 -6.5 -12.5t-17.5 -1.5q-6 1 -19.5 2t-13.5 5v126h-356v-125q0 -2 -5 -3.5t-11.5 -3t-14 -2t-12.5 -0.5t-9.5 5t-4.5 11v156q0 12 17 12h26q22 0 37.5 19.5t25.5 50.5t16 71t9 81t3.5 79.5t0.5 67.5 v82q0 15 1 28t9 13zM375 491h-167v-81q0 -45 -2 -100t-9 -106.5t-20.5 -93.5t-37.5 -61h236v442z"/>
<glyph unicode="е" horiz-adv-x="464" d="M417 5q-38 -9 -78.5 -13t-72.5 -4q-63 0 -103 15t-63.5 46t-32.5 79t-9 115v122q0 49 12.5 83t36.5 54.5t59.5 29.5t80.5 9h15q174 0 174 -142v-25q0 -45 -11.5 -76.5t-46 -51.5t-98 -29t-168.5 -9q0 -45 8 -77.5t26.5 -53.5t50 -31.5t79.5 -10.5q40 0 75.5 6t61.5 10 q8 1 11.5 -2t4.5 -22q2 -11 -0.5 -15.5t-11.5 -6.5zM381 379v22q0 47 -30.5 71t-100.5 24q-31 0 -56.5 -5.5t-43.5 -20.5t-28 -40t-10 -64v-114q85 0 137.5 5.5t82 19.5t39.5 39t10 63z"/>
<glyph unicode="ж" horiz-adv-x="720" d="M52 490h-10q-9 0 -11.5 13t-2.5 23q0 13 12 13h12q59 0 89.5 -18t46 -45.5t22.5 -60t18.5 -61t34.5 -48.5t70 -23v246q0 5 13.5 8.5t26.5 3.5q8 0 11.5 -6t3.5 -14v-238q47 3 69.5 23t34 48.5t18 61t22 60t46.5 45.5t90 18h12q12 0 12 -13q0 -10 -2.5 -23t-11.5 -13h-10 q-41 0 -63 -13t-33.5 -33.5t-17 -46.5t-12.5 -51.5t-20 -48t-39 -37.5l212 -241q12 -14 12 -20t-6 -7.5t-11 -1.5q-14 0 -26.5 2.5t-19.5 10.5l-208 236q-21 -5 -48 -6v-223q0 -8 -3.5 -14t-11.5 -6q-13 0 -26.5 3.5t-13.5 8.5v231q-28 1 -49 6l-207 -236q-8 -8 -20 -10.5 t-27 -2.5q-5 0 -10.5 1.5t-5.5 7.5t12 20l212 240q-27 15 -39.5 37.5t-20 48.5t-12.5 51.5t-17 46.5t-34 34t-63 13z"/>
<glyph unicode="з" horiz-adv-x="374" d="M39 48q19 -5 39 -7t42 -2q28 0 55.5 3.5t50 13.5t36.5 28t14 48v21q0 30 -10 48t-27.5 28.5t-40.5 14t-49 3.5h-22q-5 0 -9 12t-4 23q0 14 14 14h11q27 0 50.5 4.5t40.5 15.5t27 29t10 44v7q0 56 -32.5 76.5t-104.5 20.5q-14 0 -30.5 -1.5t-48.5 -6.5q-5 0 -10 12t-5 22 q0 7 12.5 11.5t28.5 6.5t31 3t21 1q46 0 81.5 -6.5t60.5 -22.5t38 -44.5t13 -71.5v-7q0 -29 -8.5 -49.5t-22 -34t-29 -21t-29.5 -10.5q16 -4 34 -11t32 -20.5t23.5 -35t9.5 -55.5v-19q0 -43 -17.5 -71t-46 -44t-64.5 -22t-74 -6q-11 0 -29.5 1t-36 4t-30.5 7.5t-13 11.5 q0 6 5 20t13 14z"/>
<glyph unicode="и" horiz-adv-x="537" d="M485 521v-510q0 -8 -3 -14.5t-11 -6.5q-13 0 -27.5 3.5t-14.5 8.5v443l-321 -442q-3 -5 -7 -9t-10 -4q-10 0 -24 3.5t-14 8.5v526q0 5 14.5 9t25.5 4q8 0 11.5 -6.5t3.5 -14.5v-437l321 447q4 5 17.5 8t22.5 3q16 0 16 -20z"/>
<glyph unicode="й" horiz-adv-x="529" d="M264 568q-18 0 -36 5.5t-33 17t-24.5 30t-9.5 44.5q0 5 4 7t8 2q8 0 20.5 -1.5t12.5 -6.5q0 -29 18 -42t40 -13q23 0 41 13t18 42q0 5 13 6.5t21 1.5q4 0 7.5 -2t3.5 -7q0 -26 -9.5 -44.5t-24.5 -30t-33.5 -17t-36.5 -5.5zM485 521q0 20 -16 20q-9 0 -22.5 -3t-17.5 -8 l-321 -447v437q0 8 -3.5 14.5t-11.5 6.5q-11 0 -25.5 -4t-14.5 -9v-526q0 -5 14 -8.5t24 -3.5q6 0 10 4t7 9l321 442v-443q0 -5 14.5 -8.5t27.5 -3.5q8 0 11 6.5t3 14.5v510z"/>
<glyph unicode="к" horiz-adv-x="443" d="M54 2v527q0 5 13.5 8.5t25.5 3.5q11 0 13.5 -7t2.5 -13v-238q47 3 69.5 23t33.5 48t18 60t22.5 59t46 45t89.5 18h13q9 0 10 -7q1 -4 1.5 -10.5t-1 -13t-4.5 -11.5t-8 -6h-11q-41 0 -63 -13t-33.5 -33t-17 -45.5t-12.5 -51t-20 -48t-39 -37.5l213 -241q11 -12 11 -20 q0 -6 -5.5 -7.5t-10.5 -1.5q-14 0 -26.5 2.5t-20.5 10.5l-207 236q-21 -5 -48 -6v-223q0 -8 -4 -14t-12 -6q-12 0 -25.5 3.5t-13.5 8.5z"/>
<glyph unicode="л" horiz-adv-x="551" d="M498 10q0 -8 -4 -14t-12 -6q-12 0 -26 3.5t-14 8.5v480h-186l-39 -337q-10 -81 -36.5 -118t-77.5 -37q-14 0 -30.5 3t-33.5 9q-16 5 -10 18q3 10 10 20.5t12 8.5q14 -4 26.5 -6t26.5 -2q23 0 37 25t21 85l43 368q2 5 4 8.5t8 3.5h257q14 0 19 -4t5 -15v-502z"/>
<glyph unicode="м" horiz-adv-x="656" d="M108 10q0 -8 -4.5 -14t-12.5 -6q-12 0 -25.5 3.5t-13.5 9.5v525q0 6 15 9.5t26 3.5q8 0 13 -6t9 -14l214 -455l214 462q3 7 17.5 10t24.5 3q8 0 12.5 -6t4.5 -14v-511q0 -8 -4.5 -14t-12.5 -6q-12 0 -25.5 3.5t-13.5 9.5v426l-189 -425q-7 -14 -18 -14q-14 0 -25 3 t-16 11l-190 426v-420z"/>
<glyph unicode="н" horiz-adv-x="489" d="M436 520v-511q0 -8 -3.5 -14.5t-11.5 -6.5q-12 0 -26 3.5t-14 8.5v252h-272v-244q0 -8 -4 -14t-12 -6q-11 0 -25.5 3.5t-14.5 8.5v528q0 5 14.5 9t25.5 4q8 0 12 -6.5t4 -14.5v-219h272v227q0 5 14 9t26 4q8 0 11.5 -6.5t3.5 -14.5z"/>
<glyph unicode="о" horiz-adv-x="493" d="M58 154v219q0 90 47 129t149 39h2q103 0 150 -39t47 -129v-219q0 -90 -47 -128t-150 -38h-2q-102 0 -149 38t-47 128zM254 37h3q78 0 109.5 29t31.5 88v219q0 60 -31.5 89.5t-109.5 29.5h-3q-78 0 -109.5 -29.5t-31.5 -89.5v-219q0 -59 31.5 -88t109.5 -29z"/>
<glyph unicode="п" horiz-adv-x="475" d="M80 541h332q5 0 7.5 -12.5t2.5 -23.5v-495q0 -8 -3.5 -14t-11.5 -6q-13 0 -27 4t-14 9v488h-258v-481q0 -8 -3.5 -14t-11.5 -6q-12 0 -26 4t-14 9v527q0 11 27 11z"/>
<glyph unicode="р" horiz-adv-x="494" d="M126 -240q0 -14 -5 -18t-13 -4q-12 0 -25 3.5t-13 8.5v698q0 18 14.5 31.5t36.5 24t50 17.5t54 11.5t48.5 6.5t34.5 2q44 0 70 -17.5t39.5 -43.5t17 -55t3.5 -53v-212q0 -36 -4.5 -67.5t-18.5 -55t-41.5 -36.5t-72.5 -13q-24 0 -49 4.5t-48.5 11.5t-44 16t-33.5 18v-278z M126 97q3 -8 19 -18t39.5 -19t52 -15t55.5 -6q49 0 69.5 26.5t20.5 93.5v204q0 38 -6 62.5t-17.5 39t-28 20.5t-37.5 6q-23 0 -51 -5t-53 -12.5t-43 -17.5t-20 -20v-339z"/>
<glyph unicode="с" horiz-adv-x="410" d="M364 52q5 0 9.5 -10.5t7.5 -21.5q2 -8 -4 -12.5t-14 -6.5q-19 -5 -51.5 -9t-72.5 -4q-96 0 -138.5 52.5t-42.5 150.5v147q0 98 42.5 150.5t138.5 52.5q40 0 72 -3.5t52 -8.5q8 -2 14 -6.5t4 -12.5q-8 -33 -17 -33q-26 4 -44 7t-32 5t-25.5 2.5t-23.5 0.5q-61 0 -93.5 -37 t-32.5 -121v-138q0 -85 32.5 -122t93.5 -37q13 0 24.5 0.5t25.5 2.5l31.5 4.5t43.5 7.5z"/>
<glyph unicode="т" horiz-adv-x="407" d="M231 478v-471q0 -8 -3.5 -13.5t-11.5 -5.5q-13 0 -26.5 3t-13.5 8v479h-157q-8 0 -13 4t-5 11q0 11 3 23t8 12h376q7 0 12.5 -3.5t5.5 -10.5q0 -11 -3.5 -23.5t-8.5 -12.5h-163z"/>
<glyph unicode="у" horiz-adv-x="505" d="M390 529q0 5 13 8.5t24 3.5q13 0 16 -9.5t3 -23.5v-532q0 -111 -50 -161t-163 -50q-62 0 -101 6.5t-47 8.5q-11 3 -14.5 5.5t-3.5 10.5q0 33 13 33q3 0 16 -2t33.5 -5t45.5 -5t52 -2q30 0 59 5.5t52.5 22.5t37.5 48.5t14 84.5v64q-15 -9 -36 -18.5t-46.5 -17t-53.5 -12 t-55 -4.5q-66 0 -93 34t-27 112v395q0 5 12.5 8.5t24.5 3.5q8 0 13.5 -4t5.5 -18v-379q0 -60 18.5 -80.5t61.5 -20.5q29 0 60 6.5t56 16t41.5 19.5t17.5 17v431z"/>
<glyph unicode="ф" horiz-adv-x="719" d="M387 -240q0 -9 -4 -15.5t-13 -6.5q-14 0 -26.5 3.5t-12.5 8.5v290q-25 -16 -50 -28.5t-63 -18.5q-15 -2 -33 -3t-32 0q-34 2 -53.5 19t-29.5 42.5t-12.5 56.5t-2.5 60v140q0 7 -0.5 15t-0.5 18q0 33 2.5 67.5t13 63t31 47.5t55.5 21q8 0 19 0.5t23 -1.5q35 -4 70.5 -13 t62.5 -26v238q0 5 13 8.5t27 3.5q16 0 16 -25v-225q28 17 64 26t70 13q15 2 24 1.5t17 -0.5q36 -2 56 -21.5t30 -48t12.5 -62.5t2.5 -64v-176q0 -29 -2.5 -60t-12.5 -56.5t-29.5 -42.5t-53.5 -19q-16 -1 -33 0t-31 3q-38 6 -63 18.5t-51 28.5v-280zM387 97q4 -8 15 -18 t29.5 -19t45 -15t61.5 -6q26 0 40.5 14.5t21 37t7.5 50t1 54.5v140q0 27 -1 54.5t-7.5 50t-21 36.5t-40.5 14q-28 0 -54 -4.5t-46 -11.5t-33.5 -17t-17.5 -20v-340zM331 437q-3 10 -16.5 20t-34 17t-46 11.5t-53.5 4.5q-27 0 -41 -14t-20.5 -36.5t-7.5 -50t-1 -54.5v-140 q0 -27 1 -54.5t7.5 -50t20.5 -37t41 -14.5q35 0 61.5 6t45 15t29.5 19t14 18v340z"/>
<glyph unicode="х" horiz-adv-x="428" d="M254 266l134 -253q5 -10 5 -15q0 -7 -5.5 -8.5t-9.5 -1.5q-11 0 -25.5 2.5t-18.5 9.5l-115 225l-115 -225q-4 -8 -18.5 -10t-25.5 -2q-4 0 -9.5 1.5t-5.5 9.5q0 6 5 14l134 253l-129 250q-5 10 -5 15q0 7 5.5 8.5t9.5 1.5q11 0 25 -2.5t19 -10.5l110 -219l110 219 q5 8 19 10.5t25 2.5q4 0 9 -1.5t5 -8.5t-4 -15z"/>
<glyph unicode="ц" horiz-adv-x="440" d="M423 34v-150q0 -8 -3.5 -14t-11.5 -6q-12 0 -26.5 3.5t-14.5 8.5v123h-286q-27 0 -27 11v519q0 5 14 8.5t26 3.5q8 0 11.5 -6t3.5 -14v-472h230v480q0 5 14 8.5t26 3.5q8 0 11.5 -6t3.5 -14v-472h13q6 0 11 -3.5t5 -11.5z"/>
<glyph unicode="ч" horiz-adv-x="465" d="M357 248q-36 -15 -82 -23.5t-91 -8.5h-17.5t-16.5 1q-35 2 -58 12.5t-37 28t-20 41t-6 50.5v181q0 5 14.5 8t25.5 3q7 0 11 -5t4 -12v-159q0 -58 33 -80t89 -21q23 0 49 4.5t48.5 10.5t37.5 12t16 11v228q0 5 14 8t26 3q8 0 11.5 -6t3.5 -14v-513q0 -7 -3.5 -12.5 t-11.5 -5.5q-11 0 -25.5 3t-14.5 8v247z"/>
<glyph unicode="ш" horiz-adv-x="645" d="M586 -10h-505q-11 0 -19 3t-8 8v528q0 5 14 8.5t26 3.5q5 0 10 -3t5 -8v-490h189v489q0 5 14 8.5t26 3.5q5 0 10 -3t5 -8v-490h188v489q0 5 14 8.5t26 3.5q5 0 10 -3t5 -8v-500q0 -13 -1 -26.5t-9 -13.5z"/>
<glyph unicode="щ" horiz-adv-x="651" d="M610 -136q-12 0 -26 3.5t-14 9.5v113h-489q-11 0 -19 3t-8 8v528q0 5 14 8.5t26 3.5q5 0 10 -3t5 -8v-490h189v489q0 5 14 8.5t26 3.5q5 0 10 -3t5 -8v-490h188v489q0 5 14 8.5t26 3.5q5 0 10 -3t5 -8v-490h15q15 0 15 -15v-127q0 -11 -2.5 -22.5t-13.5 -11.5z"/>
<glyph unicode="ъ" horiz-adv-x="574" d="M161 11l-1 472h-144q-12 0 -12 13v9t1 12t2.5 10.5t4.5 4.5h181q14 0 19 -4t5 -15v-205h160q51 0 81.5 -11t46.5 -29.5t21 -44.5t5 -56v-23q0 -33 -6 -60t-23 -46t-47.5 -29t-79.5 -10h-185q-10 0 -19.5 3.5t-9.5 8.5zM375 262h-158v-217h157q36 0 56.5 7t30.5 19.5 t12.5 29t2.5 35.5v33q0 18 -2.5 35t-12 30t-30 20.5t-56.5 7.5z"/>
<glyph unicode="ы" horiz-adv-x="631" d="M578 10q0 -8 -3.5 -13.5t-11.5 -5.5q-13 0 -26.5 3t-13.5 8v526q0 5 13.5 9t26.5 4q8 0 11.5 -6.5t3.5 -14.5v-510zM109 521v-215h160q50 0 80.5 -10.5t47 -28.5t22 -43.5t5.5 -55.5v-28q0 -33 -6.5 -59t-24 -44t-48 -28t-78.5 -10h-185q-10 0 -19.5 3.5t-9.5 8.5v518 q0 5 14 8.5t26 3.5q8 0 12 -6t4 -14zM268 261h-159v-216h157q36 0 56.5 7t30.5 19.5t12.5 29t2.5 35.5v32q0 19 -2.5 35.5t-12 29.5t-29.5 20.5t-56 7.5z"/>
<glyph unicode="ь" horiz-adv-x="461" d="M109 521v-215h160q50 0 80.5 -10.5t47 -28.5t22 -43.5t5.5 -55.5v-28q0 -33 -6.5 -59t-24 -44t-48 -28t-78.5 -10h-185q-10 0 -19.5 3.5t-9.5 8.5v518q0 5 14 8.5t26 3.5q8 0 12 -6t4 -14zM268 261h-159v-216h157q36 0 56.5 7t30.5 19.5t12.5 29t2.5 35.5v32 q0 19 -2.5 35.5t-12 29.5t-29.5 20.5t-56 7.5z"/>
<glyph unicode="э" horiz-adv-x="422" d="M56 52q22 -5 38.5 -7.5t30 -4.5t26 -2.5t26.5 -0.5q65 0 98 37t33 122v54h-183q-15 0 -15 13q0 12 3 25.5t15 13.5h180v32q0 85 -33 121.5t-97 36.5q-15 0 -28 -1t-26.5 -3t-29 -4.5t-36.5 -6.5q-6 -1 -11 11t-7 22q-2 8 4 12.5t15 6.5q16 4 45.5 8t76.5 4q97 0 140 -50 t43 -153v-147q0 -103 -42.5 -153t-139.5 -50q-40 0 -72 4t-51 9q-9 2 -15 6t-4 13q3 15 7 24t9 8z"/>
<glyph unicode="ю" horiz-adv-x="646" d="M399 -9h-6q-52 0 -90.5 10t-64 33t-38 60.5t-12.5 93.5v64h-79v-241q0 -9 -4 -15t-12 -6q-11 0 -25 3.5t-14 9.5v525q0 5 14 9t25 4q8 0 12 -6.5t4 -14.5v-219h79v42q0 55 12.5 93t38 61.5t64 33.5t90.5 10h6q52 0 90.5 -10t64 -33.5t38 -61.5t12.5 -93v-155 q0 -56 -12.5 -93.5t-38 -60.5t-64 -33t-90.5 -10zM245 336v-141q0 -43 8 -72.5t25.5 -48t45.5 -26.5t69 -8h6q41 0 69 8t45.5 26.5t25.5 48t8 72.5v141q0 43 -8 73t-25.5 48.5t-45.5 26.5t-69 8h-6q-41 0 -69 -8t-45.5 -26.5t-25.5 -48.5t-8 -73z"/>
<glyph unicode="я" horiz-adv-x="442" d="M393 507v-507q0 -5 -14.5 -8.5t-25.5 -3.5q-15 0 -15 19v208h-119l-115 -207q-6 -11 -20.5 -15.5t-25.5 -4.5q-5 0 -12 2t-7 8q0 5 2 9t4 9l113 204q-33 4 -54 14.5t-34 28.5t-18 43.5t-5 60.5v9q0 43 8.5 72.5t28.5 47t53.5 25t83.5 7.5h156q8 0 12 -6.5t4 -14.5z M338 477h-117q-35 0 -58 -4t-36 -15t-18 -30.5t-5 -51.5v-9q0 -32 5 -52t18 -31t36 -15t58 -4h117v212z"/>
<glyph unicode="ё" horiz-adv-x="464" d="M417 5q-38 -9 -78.5 -13t-72.5 -4q-63 0 -103 15t-63.5 46t-32.5 79t-9 115v122q0 49 12.5 83t36.5 54.5t59.5 29.5t80.5 9h15q174 0 174 -142v-25q0 -45 -11.5 -76.5t-46 -51.5t-98 -29t-168.5 -9q0 -45 8 -77.5t26.5 -53.5t50 -31.5t79.5 -10.5q40 0 75.5 6t61.5 10 q8 1 11.5 -2t4.5 -22q2 -11 -0.5 -15.5t-11.5 -6.5zM381 379v22q0 47 -30.5 71t-100.5 24q-31 0 -56.5 -5.5t-43.5 -20.5t-28 -40t-10 -64v-114q85 0 137.5 5.5t82 19.5t39.5 39t10 63zM285 594v68q0 5 12.5 9t28.5 4q12 0 15 -7.5t3 -18.5v-42q0 -11 -3 -18.5t-15 -7.5 q-16 0 -28.5 4t-12.5 9zM135 594v68q0 5 12.5 9t28.5 4q12 0 15.5 -7.5t3.5 -18.5v-42q0 -11 -3.5 -18.5t-15.5 -7.5q-16 0 -28.5 4t-12.5 9z"/>
<glyph unicode="ђ" horiz-adv-x="518" d="M230 614h-100v-134q13 10 33 20.5t46.5 19.5t57 14.5t64.5 5.5q42 0 66 -16.5t36 -42.5t15 -58t3 -62v-418q0 -106 -31.5 -155.5t-92.5 -49.5q-17 0 -32 1.5t-39 7.5q-20 5 -17 18q2 14 7.5 24t10.5 10q27 -8 61 -8q28 0 44 16t23.5 41.5t9 58t1.5 64.5v367 q0 27 -1.5 54.5t-9 49t-23 35t-43.5 13.5q-36 0 -69 -7.5t-58.5 -17.5t-42 -21t-19.5 -17v-417q0 -9 -4.5 -15.5t-12.5 -6.5q-14 0 -26.5 3.5t-12.5 8.5v614h-59q-15 0 -15 13q0 12 3 25.5t15 13.5h56v81q1 5 13.5 8.5t26.5 3.5q8 0 12 -6.5t4 -15.5v-71h103q15 0 15 -13 q0 -12 -3 -25.5t-15 -13.5z"/>
<glyph unicode="ѓ" horiz-adv-x="387" d="M368 541h-287q-27 0 -27 -11v-518q0 -5 14 -9t26 -4q8 0 11.5 6.5t3.5 14.5v471h253q7 0 12 3.5t5 11.5q0 11 -3 23t-8 12zM170 605l67 102q4 6 17.5 5t21.5 -6q14 -8 17 -14.5t0 -10.5l-79 -82q-9 -8 -14.5 -7.5t-16.5 0.5q-8 0 -13 2.5t0 10.5z"/>
<glyph unicode="є" horiz-adv-x="389" d="M100 336v-41h206q7 0 12 -3.5t5 -11.5q0 -10 -3 -22.5t-8 -12.5h-212v-50q0 -43 8 -73t25.5 -48.5t45.5 -26.5t69 -8h6q27 0 49 4t45 10q3 0 6.5 -4.5t6.5 -10.5t5 -12t2 -8q0 -8 -12 -12.5t-29.5 -6.5t-37 -3.5t-35.5 -4.5l-6 -1q-52 0 -91 10t-64.5 33t-38 61t-12.5 94 v155q0 55 12.5 93t38 61.5t64.5 33.5t91 10h6q16 0 35.5 -2t37 -5.5t29.5 -8.5t12 -11q0 -3 -2 -9t-5 -12t-6.5 -10.5t-6.5 -4.5q-23 6 -45 10t-49 4h-6q-41 0 -69 -8t-45.5 -26.5t-25.5 -48.5t-8 -73z"/>
<glyph unicode="ѕ" horiz-adv-x="420" d="M58 46q35 -5 67.5 -7t69.5 -2q63 0 97 18.5t34 65.5q0 36 -20 59.5t-50 42t-65 35.5t-65 38t-50 50t-20 73q0 37 14 61t37.5 37.5t54 18.5t64.5 5q44 0 76 -2t56 -7q10 -2 12.5 -5.5t2.5 -8.5q0 -37 -16 -35q-26 3 -56.5 6t-63.5 3q-57 0 -91.5 -16t-34.5 -58 q0 -31 20 -52t50 -38.5t65 -34t65 -39t50 -54t20 -77.5q0 -39 -13 -64.5t-36.5 -41.5t-57 -22.5t-74.5 -6.5q-32 0 -71 2.5t-79 8.5q-8 2 -10 5t-1 11q2 22 6.5 27t12.5 4z"/>
<glyph unicode="і" horiz-adv-x="253" d="M66 664v69q0 5 12 9.5t29 4.5q10 0 14 -8t4 -19v-44q0 -10 -4 -18t-14 -8q-17 0 -29 4.5t-12 9.5zM239 49q5 1 9 -10.5t5 -22.5q1 -13 -18 -19q-19 -5 -33 -7t-29 -2q-21 0 -40 6.5t-34 20.5t-23.5 37.5t-8.5 57.5v419q0 5 13 8t27 3q8 0 11.5 -6.5t3.5 -15.5v-401 q0 -32 14 -54.5t52 -22.5q14 0 25.5 3t25.5 6z"/>
<glyph unicode="ї" horiz-adv-x="255" d="M239 50q5 2 10.5 -9t7.5 -22q2 -7 -3.5 -12t-13.5 -7q-20 -7 -34.5 -9.5t-32.5 -2.5q-21 0 -39.5 6.5t-33 20.5t-23 37.5t-8.5 57.5v419q0 5 13 8t27 3q8 0 12 -6.5t4 -15.5v-401q0 -32 13.5 -54.5t50.5 -22.5q11 0 20.5 2.5t29.5 7.5zM143 662v68q0 5 12.5 9t28.5 4 q12 0 15 -7.5t3 -18.5v-42q0 -11 -3 -18.5t-15 -7.5q-16 0 -28.5 4t-12.5 9zM-7 662v68q0 5 12.5 9t28.5 4q12 0 15.5 -7.5t3.5 -18.5v-42q0 -11 -3.5 -18.5t-15.5 -7.5q-16 0 -28.5 4t-12.5 9z"/>
<glyph unicode="ј" horiz-adv-x="194" d="M-42 -153q11 -2 24 -4t32 -2q18 0 28.5 6.5t16 17t7.5 24.5t2 28v612q0 5 12.5 8t26.5 3q9 0 13 -6.5t4 -15.5v-601q0 -60 -22.5 -93t-75.5 -33q-17 0 -29 0.5t-30 5.5q-11 2 -16 6t-5 13q0 14 3 23t9 8zM66 664v69q0 5 12.5 9.5t28.5 4.5q11 0 15 -8t4 -19v-44 q0 -10 -4 -18t-15 -8q-16 0 -28.5 4.5t-12.5 9.5z"/>
<glyph unicode="љ" horiz-adv-x="856" d="M50 49q28 -9 48 -9q17 0 28 7t17.5 21.5t10.5 35t7 47.5l44 368q2 5 4 8.5t8 3.5h259q14 0 19 -4t5 -15v-203h160q50 0 80.5 -9t47 -26t22 -43t5.5 -60v-31q0 -37 -7.5 -63.5t-28.5 -44t-57.5 -25.5t-94.5 -8h-154q-10 0 -19.5 3.5t-9.5 8.5v471h-187l-40 -337 q-10 -85 -36.5 -120t-77.5 -35q-14 0 -31 3t-34 9q-16 5 -10 18q5 13 11.5 22t10.5 7zM660 262h-160v-217h159q37 0 57.5 7.5t30 20t11 29.5t1.5 36v30q0 18 -1.5 35t-11 30t-29.5 21t-57 8z"/>
<glyph unicode="њ" horiz-adv-x="793" d="M437 520v-213h160q50 0 80 -9.5t46.5 -27.5t22 -44.5t5.5 -61.5v-25q0 -37 -6.5 -63.5t-24 -43.5t-47.5 -25t-78 -8h-176q-18 0 -28 1.5t-10 9.5v251h-272v-250q0 -9 -4 -15t-12 -6q-11 0 -25 3.5t-14 9.5v525q0 5 14 9t25 4q8 0 12 -6.5t4 -14.5v-213h272v221q0 5 14 9 t26 4q8 0 12 -6.5t4 -14.5zM597 262h-160v-218h159q37 0 57 7.5t29.5 20t11.5 29.5t2 36v25q0 19 -1.5 37.5t-11 32t-29.5 22t-57 8.5z"/>
<glyph unicode="ћ" horiz-adv-x="518" d="M237 614h-108v-132q13 10 33.5 20.5t45.5 18.5t53 13.5t56 5.5q46 0 72.5 -13t40 -36.5t17 -56.5t3.5 -73v-351q0 -14 -5 -18t-13 -4q-12 0 -24.5 3.5t-12.5 8.5v356q0 31 -2.5 56t-11.5 42t-26.5 26.5t-48.5 9.5q-29 0 -59.5 -7t-55.5 -17t-42 -21t-20 -18v-417 q0 -14 -5 -18t-13 -4q-12 0 -25 3.5t-13 8.5v614h-51q-15 0 -15 13q0 12 3 25.5t15 13.5h48v81q1 7 15 9.5t23 2.5q18 0 18 -22v-71h111q15 0 15 -13q0 -12 -3 -25.5t-15 -13.5z"/>
<glyph unicode="ќ" horiz-adv-x="494" d="M109 7q0 -8 -4 -13.5t-12 -5.5q-12 0 -25.5 3t-13.5 8v530q0 5 13.5 8.5t25.5 3.5q8 0 12 -6t4 -14v-238l240 246q8 8 20 10t27 2q5 0 10.5 -2t5.5 -8q0 -3 -2 -7.5t-9 -11.5l-236 -236l254 -259q12 -13 12 -20q0 -6 -5.5 -7.5t-10.5 -1.5q-14 0 -26 2t-20 10l-260 269 v-262zM180 603l67 102q4 6 17.5 5t21.5 -6q14 -8 17 -14.5t0 -10.5l-79 -82q-9 -8 -14.5 -7.5t-16.5 0.5q-8 0 -13 2.5t0 10.5z"/>
<glyph unicode="ў" horiz-adv-x="505" d="M390 529q0 5 13 8.5t24 3.5q13 0 16 -9.5t3 -23.5v-532q0 -111 -50 -161t-163 -50q-62 0 -101 6.5t-47 8.5q-11 3 -14.5 5.5t-3.5 10.5q0 33 13 33q3 0 16 -2t33.5 -5t45.5 -5t52 -2q30 0 59 5.5t52.5 22.5t37.5 48.5t14 84.5v64q-15 -9 -36 -18.5t-46.5 -17t-53.5 -12 t-55 -4.5q-66 0 -93 34t-27 112v395q0 5 12.5 8.5t24.5 3.5q8 0 13.5 -4t5.5 -18v-379q0 -60 18.5 -80.5t61.5 -20.5q29 0 60 6.5t56 16t41.5 19.5t17.5 17v431zM262 598q-20 0 -39 4.5t-34 14.5t-24 26.5t-9 39.5q0 5 4.5 7.5t8.5 2.5q9 0 21.5 -1.5t12.5 -7.5 q0 -23 18 -35t41 -12t41 12t18 35q0 6 12.5 7.5t22.5 1.5q3 0 7.5 -2.5t4.5 -7.5q0 -23 -9 -39.5t-24 -26.5t-34 -14.5t-39 -4.5z"/>
<glyph unicode="џ" horiz-adv-x="473" d="M273 -77q0 -8 -4 -13.5t-12 -5.5q-11 0 -25.5 3t-14.5 8v84h-136q-27 0 -27 11v519q0 5 14 8.5t26 3.5q8 0 11.5 -6t3.5 -14v-472h270v480q0 5 14 8.5t27 3.5q8 0 11.5 -6t3.5 -14v-487q0 -11 -2.5 -23t-7.5 -12h-152v-76z"/>
<glyph unicode="Ґ" horiz-adv-x="505" d="M506 889v-194q0 -9 -7 -12.5t-15 -3.5h-351v-653q0 -10 -4 -18t-14 -8q-16 0 -29.5 4.5t-13.5 9.5v704q0 5 7.5 9.5t23.5 4.5h343v169q0 5 13.5 10t29.5 5q10 0 13.5 -8t3.5 -19z"/>
<glyph unicode="ґ" horiz-adv-x="378" d="M379 659v-154q0 -7 -5 -10.5t-12 -3.5h-253v-472q0 -8 -3.5 -14t-11.5 -6q-12 0 -26 3.5t-14 9.5v518q0 11 27 11h242v125q0 6 14 9t26 3q8 0 12 -5.5t4 -13.5z"/>
<glyph unicode="Ẁ" horiz-adv-x="851" d="M674 109l163 605q3 12 15.5 15t29.5 3q16 0 16 -14q0 -7 -3 -16l-197 -691q-4 -13 -8 -18t-12 -5q-11 0 -23 5.5t-15 16.5l-176 591q-2 8 -2.5 16t-2.5 16q-2 -8 -3 -16t-3 -16l-166 -590q-7 -23 -20 -23q-11 0 -23 5.5t-15 16.5l-206 692q-3 9 -3 16q0 14 16 14 q17 0 29 -3t16 -16l174 -604q3 -10 3 -19t1 -19q1 10 1 19t3 19l163 596q5 17 17.5 22t26.5 5q9 0 13 -5t8 -19l174 -599q3 -10 3.5 -19t1.5 -19q1 10 1.5 19t2.5 19zM371 876l69 -85q12 -15 11.5 -20.5t-7.5 -5.5q-11 0 -18.5 3.5t-16.5 11.5l-87 73q-10 8 -10 14t5.5 9.5 t15 5.5t19.5 2q5 0 10.5 -1.5t8.5 -6.5z"/>
<glyph unicode="ẁ" horiz-adv-x="637" d="M546 109l128 419q2 8 15 10.5t25 2.5q7 0 12 -3t5 -11q0 -3 -1 -6.5t-3 -8.5l-166 -508q-5 -16 -18 -16q-10 0 -22 2.5t-14 9.5l-125 415q-2 5 -4 14.5t-3 17.5q-1 -8 -3 -17.5t-4 -14.5l-124 -411q-5 -16 -18 -16q-11 0 -22 2t-13 10l-168 511q-2 4 -2 8v7q0 15 16 15 q11 0 24.5 -2.5t15.5 -10.5l128 -419q5 -17 7.5 -31.5t4.5 -28.5l4 30t7 30l121 420q2 7 11.5 9.5t21.5 2.5q15 0 18 -10l122 -421q6 -21 8 -33t4 -26q2 16 4.5 29.5t7.5 28.5zM264 758l69 -85q12 -15 11.5 -20.5t-7.5 -5.5q-11 0 -18.5 3.5t-16.5 11.5l-87 73q-10 8 -10 14 t5.5 9.5t15 5.5t19.5 2q5 0 10.5 -1.5t8.5 -6.5z"/>
<glyph unicode="Ẃ" horiz-adv-x="851" d="M674 109l163 605q3 12 15.5 15t29.5 3q16 0 16 -14q0 -7 -3 -16l-197 -691q-4 -13 -8 -18t-12 -5q-11 0 -23 5.5t-15 16.5l-176 591q-2 8 -2.5 16t-2.5 16q-2 -8 -3 -16t-3 -16l-166 -590q-7 -23 -20 -23q-11 0 -23 5.5t-15 16.5l-206 692q-3 9 -3 16q0 14 16 14 q17 0 29 -3t16 -16l174 -604q3 -10 3 -19t1 -19q1 10 1 19t3 19l163 596q5 17 17.5 22t26.5 5q9 0 13 -5t8 -19l174 -599q3 -10 3.5 -19t1.5 -19q1 10 1.5 19t2.5 19zM385 771l67 102q4 6 17.5 5t21.5 -6q14 -8 17 -14.5t0 -10.5l-79 -82q-9 -8 -14.5 -7.5t-16.5 0.5 q-8 0 -13 2.5t0 10.5z"/>
<glyph unicode="ẃ" horiz-adv-x="637" d="M546 109l128 419q2 8 15 10.5t25 2.5q7 0 12 -3t5 -11q0 -3 -1 -6.5t-3 -8.5l-166 -508q-5 -16 -18 -16q-10 0 -22 2.5t-14 9.5l-125 415q-2 5 -4 14.5t-3 17.5q-1 -8 -3 -17.5t-4 -14.5l-124 -411q-5 -16 -18 -16q-11 0 -22 2t-13 10l-168 511q-2 4 -2 8v7q0 15 16 15 q11 0 24.5 -2.5t15.5 -10.5l128 -419q5 -17 7.5 -31.5t4.5 -28.5l4 30t7 30l121 420q2 7 11.5 9.5t21.5 2.5q15 0 18 -10l122 -421q6 -21 8 -33t4 -26q2 16 4.5 29.5t7.5 28.5zM278 653l67 102q4 6 17.5 5t21.5 -6q14 -8 17 -14.5t0 -10.5l-79 -82q-9 -8 -14.5 -7.5 t-16.5 0.5q-8 0 -13 2.5t0 10.5z"/>
<glyph unicode="Ẅ" horiz-adv-x="851" d="M674 109l163 605q3 12 15.5 15t29.5 3q16 0 16 -14q0 -7 -3 -16l-197 -691q-4 -13 -8 -18t-12 -5q-11 0 -23 5.5t-15 16.5l-176 591q-2 8 -2.5 16t-2.5 16q-2 -8 -3 -16t-3 -16l-166 -590q-7 -23 -20 -23q-11 0 -23 5.5t-15 16.5l-206 692q-3 9 -3 16q0 14 16 14 q17 0 29 -3t16 -16l174 -604q3 -10 3 -19t1 -19q1 10 1 19t3 19l163 596q5 17 17.5 22t26.5 5q9 0 13 -5t8 -19l174 -599q3 -10 3.5 -19t1.5 -19q1 10 1.5 19t2.5 19zM468 779v68q0 5 12.5 9t28.5 4q12 0 15 -7.5t3 -18.5v-42q0 -11 -3 -18.5t-15 -7.5q-16 0 -28.5 4 t-12.5 9zM318 779v68q0 5 12.5 9t28.5 4q12 0 15.5 -7.5t3.5 -18.5v-42q0 -11 -3.5 -18.5t-15.5 -7.5q-16 0 -28.5 4t-12.5 9z"/>
<glyph unicode="ẅ" horiz-adv-x="637" d="M546 109l128 419q2 8 15 10.5t25 2.5q7 0 12 -3t5 -11q0 -3 -1 -6.5t-3 -8.5l-166 -508q-5 -16 -18 -16q-10 0 -22 2.5t-14 9.5l-125 415q-2 5 -4 14.5t-3 17.5q-1 -8 -3 -17.5t-4 -14.5l-124 -411q-5 -16 -18 -16q-11 0 -22 2t-13 10l-168 511q-2 4 -2 8v7q0 15 16 15 q11 0 24.5 -2.5t15.5 -10.5l128 -419q9 -28 12 -59q2 15 4 29.5t7 29.5l121 420q2 7 11.5 9.5t21.5 2.5q15 0 18 -10l122 -421q9 -30 12 -61q3 29 12 60zM211 661v68q0 5 12.5 9t28.5 4q12 0 15.5 -7.5t3.5 -18.5v-42q0 -11 -3.5 -18.5t-15.5 -7.5q-16 0 -28.5 4t-12.5 9z M361 661v68q0 5 12.5 9t28.5 4q12 0 15 -7.5t3 -18.5v-42q0 -11 -3 -18.5t-15 -7.5q-16 0 -28.5 4t-12.5 9z"/>
<glyph unicode="Ỳ" horiz-adv-x="543" d="M301 281v-267q0 -11 -3.5 -18.5t-13.5 -7.5q-16 0 -29 4.5t-13 9.5v279l-217 429q-6 11 -1.5 16.5t15.5 5.5q20 0 31 -2.5t15 -10.5l186 -376l186 375q5 9 16 11.5t31 2.5q11 0 15 -5.5t-2 -16.5zM216 877l69 -85q12 -15 11.5 -20.5t-7.5 -5.5q-11 0 -18.5 3.5 t-16.5 11.5l-87 73q-10 8 -10 14t5.5 9.5t15 5.5t19.5 2q5 0 10.5 -1.5t8.5 -6.5z"/>
<glyph unicode="ỳ" horiz-adv-x="512" d="M390 529q0 5 13 8.5t24 3.5q13 0 16 -9.5t3 -23.5v-532q0 -111 -50 -161t-163 -50q-62 0 -101 6.5t-47 8.5q-11 3 -14.5 5.5t-3.5 10.5q0 33 13 33q3 0 16 -2t33.5 -5t45.5 -5t52 -2q30 0 59 5.5t52.5 22.5t37.5 48.5t14 84.5v64q-15 -9 -36 -18.5t-46.5 -17t-53.5 -12 t-55 -4.5q-66 0 -93 34t-27 112v395q0 5 12.5 8.5t24.5 3.5q8 0 13.5 -4t5.5 -18v-379q0 -60 18.5 -80.5t61.5 -20.5q29 0 60 6.5t56 16t41.5 19.5t17.5 17v431zM209 758l69 -85q12 -15 11.5 -20.5t-7.5 -5.5q-11 0 -18.5 3.5t-16.5 11.5l-87 73q-10 8 -10 14t5.5 9.5 t15 5.5t19.5 2q5 0 10.5 -1.5t8.5 -6.5z"/>
<glyph unicode="–" horiz-adv-x="480" d="M428 262h-391q-14 0 -14 13q0 12 3 25.5t14 13.5h392q14 0 14 -13q0 -12 -3 -25.5t-15 -13.5z"/>
<glyph unicode="—" horiz-adv-x="785" d="M738 270h-696q-14 0 -14 13q0 12 3 25.5t14 13.5h696q15 0 15 -13q0 -12 -3.5 -25.5t-14.5 -13.5z"/>
<glyph unicode="‘" horiz-adv-x="189" d="M83 593l41 123q5 14 13 17t25 3q6 0 8.5 -4t-0.5 -17l-30 -133q-2 -11 -14 -14t-30 -3q-14 0 -16 7t3 21z"/>
<glyph unicode="’" horiz-adv-x="176" d="M142 714l-41 -123q-5 -14 -13 -17t-25 -3q-6 0 -8.5 4t0.5 17l30 133q2 11 14 14t30 3q14 0 16 -7t-3 -21z"/>
<glyph unicode="‚" horiz-adv-x="159" d="M119 59l-65 -128q-4 -8 -9 -14.5t-18 -6.5q-8 0 -8 9q0 2 1 5t1 6l34 142q2 5 15.5 9.5t30.5 4.5q10 0 15 -5t5 -13q0 -3 -2 -9z"/>
<glyph unicode="“" horiz-adv-x="316" d="M90 593l41 123q5 14 13 17t25 3q6 0 8.5 -4t-0.5 -17l-30 -133q-2 -11 -14 -14t-30 -3q-14 0 -16 7t3 21zM217 593l41 123q5 14 13 17t25 3q6 0 8.5 -4t-0.5 -17l-30 -133q-2 -11 -14 -14t-30 -3q-14 0 -16 7t3 21z"/>
<glyph unicode="”" horiz-adv-x="313" d="M100 713l-41 -123q-5 -14 -13 -17t-25 -3q-6 0 -8.5 4t0.5 17l30 133q2 11 14 14t30 3q14 0 16 -7t-3 -21zM226 713l-41 -123q-5 -14 -13 -17t-25 -3q-6 0 -8.5 4t0.5 17l30 133q2 11 14 14t30 3q14 0 16 -7t-3 -21z"/>
<glyph unicode="„" horiz-adv-x="316" d="M102 38l-41 -123q-5 -14 -13 -17t-25 -3q-6 0 -8.5 4t0.5 17l30 133q2 11 14 14t30 3q14 0 16 -7t-3 -21zM259 38l-41 -123q-5 -14 -13 -17t-25 -3q-6 0 -8.5 4t0.5 17l30 133q2 11 14 14t30 3q14 0 16 -7t-3 -21z"/>
<glyph unicode="†" horiz-adv-x="529" d="M289 733q10 0 10 -11v-233h195q8 0 13.5 -3.5t5.5 -11.5q0 -12 -2 -23.5t-9 -11.5h-203v-604q0 -8 -3 -13.5t-11 -5.5q-13 0 -25.5 3t-12.5 8v612h-185q-8 0 -14 3t-6 11q0 13 3 24.5t9 11.5h193v232q0 5 4.5 7.5t11 3.5t14 1h12.5z"/>
<glyph unicode="‡" horiz-adv-x="545" d="M247 315v124h-185q-8 0 -14 3t-6 11q0 13 3 24.5t9 11.5h193v232q0 5 4.5 7.5t11 3.5t14 1h12.5q10 0 10 -11v-233h195q8 0 13.5 -3.5t5.5 -11.5q0 -12 -2 -23.5t-9 -11.5h-203v-124h195q8 0 13.5 -3t5.5 -11q0 -13 -2 -24.5t-9 -11.5h-203v-430q0 -8 -3 -13.5t-11 -5.5 q-13 0 -25.5 3t-12.5 8v438h-185q-8 0 -14 3t-6 11q0 13 3 24.5t9 11.5h193z"/>
<glyph unicode="•" horiz-adv-x="350" d="M88 174v194q0 7 8.5 13.5t23.5 12t34.5 9t40.5 3.5q29 0 39 -21.5t10 -50.5v-126q0 -29 -10 -49.5t-39 -20.5q-21 0 -40.5 3t-34.5 8t-23.5 11.5t-8.5 13.5z"/>
<glyph unicode="․" horiz-adv-x="156" d="M48 1v74q0 5 12.5 9t28.5 4q12 0 15 -7.5t3 -18.5v-48q0 -11 -3 -18.5t-15 -7.5q-16 0 -28.5 4t-12.5 9z"/>
<glyph unicode="‥" horiz-adv-x="314" d="M48 1v74q0 5 12.5 9t28.5 4q12 0 15 -7.5t3 -18.5v-48q0 -11 -3 -18.5t-15 -7.5q-16 0 -28.5 4t-12.5 9zM208 1v74q0 5 12 9t29 4q12 0 15 -7.5t3 -18.5v-48q0 -11 -3 -18.5t-15 -7.5q-17 0 -29 4t-12 9z"/>
<glyph unicode="…" horiz-adv-x="474" d="M48 1v74q0 5 12.5 9t28.5 4q12 0 15 -7.5t3 -18.5v-48q0 -11 -3 -18.5t-15 -7.5q-16 0 -28.5 4t-12.5 9zM208 1v74q0 5 12 9t29 4q12 0 15 -7.5t3 -18.5v-48q0 -11 -3 -18.5t-15 -7.5q-17 0 -29 4t-12 9zM366 1v74q0 5 13 9t28 4q13 0 16 -7.5t3 -18.5v-48 q0 -11 -3 -18.5t-16 -7.5q-15 0 -28 4t-13 9z"/>
<glyph unicode="‰" horiz-adv-x="1265" d="M575 235q0 64 32 97.5t98 33.5q39 0 65 -10t41.5 -30t22 -49t6.5 -68v-92q0 -130 -130 -130q-77 0 -106 39t-29 116v93zM961 235q0 131 132 131q40 0 66 -10.5t41 -30.5t21 -49t6 -67v-92q0 -130 -134 -130q-39 0 -64.5 10t-40.5 30t-21 48.5t-6 66.5v93zM52 615 q0 64 32 97.5t97 33.5q39 0 65.5 -10t42 -29.5t22 -48.5t6.5 -68v-92q0 -63 -32.5 -97t-98.5 -34q-77 0 -105.5 39.5t-28.5 116.5v92zM264 518v72q0 25 -2.5 45.5t-11 34.5t-24.5 21.5t-42 7.5q-27 0 -42.5 -7.5t-24 -22t-11 -34.5t-2.5 -45v-66q0 -26 2.5 -46.5t11 -34.5 t24 -22t42.5 -8q26 0 42 7t24.5 20.5t11 33t2.5 44.5zM1175 138v71q0 25 -2.5 45.5t-11 34.5t-25 22t-43.5 8t-42.5 -7.5t-24 -22t-11 -35t-2.5 -46.5v-64q0 -26 2.5 -46.5t11 -35t24 -22t42.5 -7.5t43 7t24.5 20.5t11.5 33t3 44.5zM788 138v71q0 25 -2.5 45.5t-11 34.5 t-24.5 22t-42 8q-27 0 -43 -7.5t-24.5 -22t-11 -35t-2.5 -46.5v-64q0 -26 3 -46.5t11.5 -35t24.5 -22t42 -7.5q25 0 41 7t24.5 20.5t11.5 33t3 44.5zM585 775q11 -4 20.5 -9.5t7.5 -11.5l-305 -805q-3 -9 -9 -14t-16 -1q-11 3 -21 8.5t-7 13.5l304 808q7 18 26 11z"/>
<glyph unicode="‹" horiz-adv-x="305" d="M211 93l-159 197l159 197q10 10 14 10q1 0 5 -3t8 -6.5t7 -7.5t3 -7q0 -6 -5 -13l-128 -170l128 -171q5 -6 5 -13q0 -2 -3 -6t-7 -8t-8 -6.5t-5 -2.5q-4 0 -14 10z"/>
<glyph unicode="›" horiz-adv-x="305" d="M248 290l-159 -197q-3 -3 -9 -4t-12.5 0.5t-11 6t-4.5 10.5q0 2 1 5.5t5 7.5l128 171l-128 170q-6 7 -6 14q0 6 4.5 10.5t10.5 6.5t12.5 1t9.5 -5z"/>
<glyph unicode="⁄" horiz-adv-x="367" d="M409 749q11 -6 8 -18q-2 -6 -6 -13t-7 -13l-402 -733q-2 -4 -8 -5t-17 4q-8 4 -14.5 14.5t-1.5 18.5l412 751q2 5 13.5 2.5t22.5 -8.5z"/>
<glyph unicode="⁰" horiz-adv-x="385" d="M194 393h-3q-83 0 -120 38.5t-37 123.5v122q0 85 37 123.5t120 38.5h3q83 0 119.5 -38.5t36.5 -123.5v-122q0 -85 -36.5 -123.5t-119.5 -38.5zM89 670v-108q0 -64 21.5 -93.5t80.5 -29.5h3q57 0 79 29.5t22 93.5v108q0 63 -22 92.5t-79 29.5h-3q-59 0 -80.5 -29.5 t-21.5 -92.5z"/>
<glyph unicode="⁴" horiz-adv-x="332" d="M211 498h-195q-6 0 -10.5 3.5t-4.5 10.5q0 8 2 18t6 15l211 284q5 6 15 8t17 2q12 0 12 -14v-279h44q14 0 14 -13q0 -11 -2 -23t-7 -12h-49v-89q0 -16 -15 -16q-10 0 -24 2.5t-14 7.5v95zM213 541v220l-159 -220h159z"/>
<glyph unicode="⁵" horiz-adv-x="347" d="M281 790h-146l-22 -134q-2 -10 5.5 -8.5t18 7t22 11.5t19.5 6q68 0 101.5 -29t33.5 -105v-6q0 -40 -13 -67t-35 -43t-51 -23t-62 -7q-29 0 -56 3.5t-55 13.5q-14 3 -11 14q2 8 7 19.5t10 10.5q29 -8 53.5 -10.5t47.5 -2.5q48 0 79 21.5t31 75.5q0 50 -20 72.5t-70 22.5 q-13 0 -27.5 -2t-25.5 -11q-5 -6 -9.5 -7.5t-11.5 -1.5h-25q-13 0 -10 13v12l25 191q1 8 17 9.5t32 1.5h150q12 0 12 -11q0 -4 -0.5 -10t-2 -12t-4.5 -10t-7 -4z"/>
<glyph unicode="⁶" horiz-adv-x="350" d="M255 795q-45 -23 -85 -56.5t-63 -87.5q18 14 39.5 19.5t44.5 5.5h6q65 0 94.5 -33t29.5 -105v-7q0 -77 -35 -107.5t-109 -30.5h-4q-74 0 -109.5 30.5t-35.5 107.5v6q0 101 56 179t150 120q12 5 17 -1q8 -9 9 -23t-5 -17zM177 629h-4q-51 0 -70.5 -21.5t-19.5 -70.5v-6 q0 -20 3 -36.5t13 -28.5t27.5 -18.5t46.5 -6.5h4q29 0 47 6.5t27.5 18.5t12.5 28.5t3 36.5v7q0 21 -3 37.5t-12.5 28.5t-27.5 18.5t-47 6.5z"/>
<glyph unicode="⁷" horiz-adv-x="315" d="M56 422l187 362h-218q-5 0 -7.5 12.5t-2.5 21.5q0 7 4.5 10t9.5 3h265q8 0 11.5 -4t3.5 -9t-2 -15.5t-6 -18.5l-199 -386q-3 -6 -16.5 -0.5t-23.5 8.5q-5 2 -6.5 6.5t0.5 9.5z"/>
<glyph unicode="⁸" horiz-adv-x="373" d="M51 720q0 66 29.5 92.5t97.5 26.5h17q60 0 91 -22.5t34 -74.5q2 -30 -6 -56q-5 -23 -20 -35t-28 -17q12 -5 25 -10.5t23.5 -17t17 -30t6.5 -49.5q0 -40 -9 -65.5t-26.5 -40.5t-44.5 -21t-63 -6h-17q-36 0 -62.5 6t-44.5 20.5t-27 39.5t-9 63q0 32 6.5 51.5t17 31t23 17.5 t25.5 11q-20 7 -38 26t-18 60zM195 613h-17q-89 0 -89 -90q0 -19 3.5 -35.5t13 -28.5t27 -19t45.5 -7h17q27 0 44.5 7t27.5 19t13.5 28t3.5 35q0 91 -89 91zM195 795h-17q-24 0 -38.5 -5t-22.5 -14.5t-10.5 -22.5t-2.5 -29q0 -12 2.5 -24.5t10 -23t22.5 -17t39 -6.5h17 q24 0 39 6.5t22.5 17t10 23t2.5 24.5q0 16 -2.5 29t-10 22.5t-22.5 14.5t-39 5z"/>
<glyph unicode="⁹" horiz-adv-x="350" d="M95 439q47 24 86.5 57.5t61.5 86.5q-17 -15 -39.5 -19.5t-45.5 -4.5h-5q-66 0 -95.5 32.5t-29.5 103.5v8q0 77 35.5 107.5t109.5 30.5h4q74 0 109 -30.5t35 -107.5v-6q0 -103 -55.5 -179.5t-149.5 -119.5q-12 -5 -17 1q-8 9 -9.5 22.5t5.5 17.5zM173 605h4q30 0 46 6 t24.5 17.5t11.5 28.5t7 40l1 6q0 21 -3 37.5t-12.5 28.5t-27.5 18.5t-47 6.5h-4q-29 0 -47 -6.5t-27.5 -18.5t-12.5 -28.5t-3 -37.5v-8q0 -21 3 -37.5t12.5 -28t27.5 -18t47 -6.5z"/>
<glyph unicode="⁽" horiz-adv-x="0"/>
<glyph unicode="⁾" horiz-adv-x="0"/>
<glyph unicode="₀" horiz-adv-x="385" d="M194 -207h-3q-83 0 -120 38.5t-37 123.5v122q0 85 37 123.5t120 38.5h3q83 0 119.5 -38.5t36.5 -123.5v-122q0 -85 -36.5 -123.5t-119.5 -38.5zM89 70v-108q0 -64 21.5 -93.5t80.5 -29.5h3q57 0 79 29.5t22 93.5v108q0 63 -22 92.5t-79 29.5h-3q-59 0 -80.5 -29.5 t-21.5 -92.5z"/>
<glyph unicode="₁" horiz-adv-x="267" d="M180 -190q0 -7 -3.5 -12t-10.5 -5q-10 0 -24.5 3t-14.5 8v366l-30 -30q-4 -4 -14 -2.5t-18 4.5q-8 1 -14 7t2 12l55 49q8 8 26 17t27 11q8 2 13.5 -2.5t5.5 -13.5v-412z"/>
<glyph unicode="₂" horiz-adv-x="326" d="M298 -200h-257q-8 0 -11.5 4.5t-3.5 9.5q0 8 3.5 21.5t8.5 20.5q67 71 107 116.5t62 75t29 46.5t7 31q0 19 -8 31.5t-21.5 20t-30.5 10.5t-36 3t-37.5 -2.5t-34.5 -4.5q-5 0 -9 12t-6 20t1.5 10.5t10.5 4.5q23 5 41.5 7t36.5 2q27 0 53.5 -5.5t47.5 -19t33.5 -35.5 t12.5 -54q0 -17 -7.5 -37.5t-28.5 -51.5t-59.5 -76t-99.5 -112h191q14 0 14 -13q0 -9 -2 -22t-7 -13z"/>
<glyph unicode="₃" horiz-adv-x="312" d="M37 -155q15 -5 35.5 -6.5t38.5 -1.5q36 0 57.5 7t33.5 18.5t16.5 26t5.5 29.5q0 14 -3 27.5t-13 24t-29.5 17t-52.5 6.5h-18q-5 0 -9 12.5t-4 22.5q0 13 13 13h10q49 0 73 22.5t24 49.5q0 14 -3.5 27.5t-14.5 24t-31 17t-54 6.5q-13 0 -27 -1t-39 -5q-3 -1 -5.5 2.5 t-4.5 9t-3.5 11.5t-1.5 11q0 6 10 9.5t23.5 6t26.5 3t19 0.5q76 0 118 -25t42 -93v-8q0 -41 -20.5 -62t-41.5 -28q12 -4 24.5 -10.5t22.5 -18t16.5 -28t6.5 -39.5v-18q0 -33 -14.5 -55.5t-38 -36t-53 -19t-60.5 -5.5q-10 0 -25.5 1t-30.5 3.5t-25.5 6.5t-10.5 10q0 3 1 8.5 t3.5 11.5t5.5 10.5t7 4.5z"/>
<glyph unicode="₄" horiz-adv-x="332" d="M211 -102h-195q-6 0 -10.5 3.5t-4.5 10.5q0 8 2 18t6 15l211 284q5 6 15 8t17 2q12 0 12 -14v-279h44q14 0 14 -13q0 -11 -2 -23t-7 -12h-49v-89q0 -16 -15 -16q-10 0 -24 2.5t-14 7.5v95zM213 -59v212l-151 -212h151z"/>
<glyph unicode="₅" horiz-adv-x="347" d="M281 190h-146l-22 -134q-2 -10 5.5 -8.5t18 7t22 11.5t19.5 6q68 0 101.5 -29t33.5 -105v-6q0 -40 -13 -67t-35 -43t-51 -23t-62 -7q-29 0 -56 3.5t-55 13.5q-14 3 -11 14q2 8 7 19.5t10 10.5q29 -8 53.5 -10.5t47.5 -2.5q48 0 79 21.5t31 75.5q0 50 -20 72.5t-70 22.5 q-13 0 -27.5 -2t-25.5 -11q-5 -6 -9.5 -7.5t-11.5 -1.5h-25q-13 0 -10 13v12l25 191q1 8 17 9.5t32 1.5h150q12 0 12 -11q0 -4 -0.5 -10t-2 -12t-4.5 -10t-7 -4z"/>
<glyph unicode="₆" horiz-adv-x="350" d="M255 195q-45 -23 -85 -56.5t-63 -87.5q18 14 39.5 19.5t44.5 5.5h6q65 0 94.5 -33t29.5 -105v-7q0 -77 -35 -107.5t-109 -30.5h-4q-74 0 -109.5 30.5t-35.5 107.5v6q0 101 56 179t150 120q12 5 17 -1q8 -9 9 -23t-5 -17zM177 29h-4q-51 0 -70.5 -21.5t-19.5 -70.5v-6 q0 -20 3 -36.5t13 -28.5t27.5 -18.5t46.5 -6.5h4q29 0 47 6.5t27.5 18.5t12.5 28.5t3 36.5v7q0 21 -3 37.5t-12.5 28.5t-27.5 18.5t-47 6.5z"/>
<glyph unicode="₇" horiz-adv-x="315" d="M56 -178l187 362h-218q-5 0 -7.5 12.5t-2.5 21.5q0 7 4.5 10t9.5 3h265q8 0 11.5 -4t3.5 -9t-2 -15.5t-6 -18.5l-199 -386q-3 -6 -16.5 -0.5t-23.5 8.5q-5 2 -6.5 6.5t0.5 9.5z"/>
<glyph unicode="₈" horiz-adv-x="373" d="M51 120q0 66 29.5 92.5t97.5 26.5h17q60 0 91 -22.5t34 -74.5q2 -30 -6 -56q-5 -23 -20 -35t-28 -17q12 -5 25 -10.5t23.5 -17t17 -30t6.5 -49.5q0 -40 -9 -65.5t-26.5 -40.5t-44.5 -21t-63 -6h-17q-36 0 -62.5 6t-44.5 20.5t-27 39.5t-9 63q0 32 6.5 51.5t17 31t23 17.5 t25.5 11q-20 7 -38 26t-18 60zM195 9h-17q-46 0 -67.5 -20.5t-21.5 -65.5q0 -19 3.5 -35t13 -27t27 -17.5t45.5 -6.5h17q27 0 44.5 6t27.5 17.5t13.5 27t3.5 34.5q0 46 -21.5 66.5t-67.5 20.5zM195 191h-17q-24 0 -38.5 -4.5t-22.5 -13t-10.5 -21t-2.5 -28.5q0 -12 2.5 -24 t10 -21.5t22.5 -15.5t39 -6h17q24 0 39 6t22.5 15.5t10 21.5t2.5 24q0 16 -2.5 28.5t-10 21t-22.5 13t-39 4.5z"/>
<glyph unicode="₉" horiz-adv-x="350" d="M95 -161q47 24 86.5 57.5t61.5 86.5q-17 -15 -39.5 -19.5t-45.5 -4.5h-5q-66 0 -95.5 32.5t-29.5 103.5v8q0 77 35.5 107.5t109.5 30.5h4q74 0 109 -30.5t35 -107.5v-6q0 -103 -55.5 -179.5t-149.5 -119.5q-12 -5 -17 1q-8 9 -9.5 22.5t5.5 17.5zM173 5h4q30 0 46 6 t24.5 17.5t11.5 28.5t7 40l1 6q0 21 -3 37.5t-12.5 28.5t-27.5 18.5t-47 6.5h-4q-29 0 -47 -6.5t-27.5 -18.5t-12.5 -28.5t-3 -37.5v-8q0 -21 3 -37.5t12.5 -28t27.5 -18t47 -6.5z"/>
<glyph unicode="₍" horiz-adv-x="0"/>
<glyph unicode="₎" horiz-adv-x="0"/>
</font>
</defs>
</svg>
