<?xml version="1.0" encoding="UTF-8" standalone="no"?>
<!DOCTYPE svg PUBLIC "-//W3C//DTD SVG 1.1//EN" "http://www.w3.org/Graphics/SVG/1.1/DTD/svg11.dtd">
<svg xmlns="http://www.w3.org/2000/svg" xmlns:xlink="http://www.w3.org/1999/xlink" version="1.1">
<metadata/>
<defs>
<font id="worldly_boldbold" horiz-adv-x="537">
<font-face units-per-em="1000" ascent="750" descent="-250"/>
<missing-glyph horiz-adv-x="214"/>
<glyph horiz-adv-x="0"/>
<glyph horiz-adv-x="0"/>
<glyph unicode=" " horiz-adv-x="214"/>
<glyph unicode="	" horiz-adv-x="214"/>
<glyph unicode=" " horiz-adv-x="214"/>
<glyph unicode="!" horiz-adv-x="232" d="M62 236v508q0 6 9.5 10t23 6t27.5 3t23 1q12 0 21.5 -7.5t9.5 -18.5v-496q0 -12 -9.5 -19t-21.5 -7q-9 0 -23 0.5t-27.5 3t-23 6.5t-9.5 10zM61 12v118q0 6 9.5 10t23 6.5t27.5 3t23 0.5q12 0 21.5 -7.5t9.5 -18.5v-105q0 -12 -9.5 -19t-21.5 -7q-9 0 -23 0.5t-27.5 3 t-23 6t-9.5 9.5z"/>
<glyph unicode="&quot;" horiz-adv-x="372" d="M156 717v-222q0 -11 -8.5 -19.5t-20.5 -8.5q-9 0 -23 1t-27.5 3.5t-23 7t-9.5 10.5v234q0 6 9.5 10t23 6.5t27.5 4t23 1.5q12 0 20.5 -8.5t8.5 -19.5zM328 717v-222q0 -11 -8.5 -19.5t-20.5 -8.5q-8 0 -22 1t-27.5 3.5t-23.5 7t-10 10.5v234q0 6 10 10t23.5 6.5t27.5 4 t22 1.5q12 0 20.5 -8.5t8.5 -19.5z"/>
<glyph unicode="#" horiz-adv-x="633" d="M557 188h-94l-38 -179q-2 -11 -12 -16t-19 -5q-6 0 -18 1.5t-24 4.5t-20.5 8t-6.5 11l38 175h-130l-38 -179q-2 -11 -12 -16t-19 -5q-6 0 -18 1.5t-24 4.5t-20.5 8t-6.5 11l38 175h-70q-8 0 -13 8t-5 18q0 7 0.5 19.5t2 25t5.5 21.5t11 9h96l26 135h-74q-8 0 -12.5 8 t-4.5 17q0 7 0.5 20t2 25.5t5 21.5t10.5 9h101l39 177q1 6 12 7t24.5 -1t26 -5t17.5 -4q11 -4 12 -13t-1 -19l-29 -142h129l39 177q1 6 12 7t24.5 -1t26 -5t17.5 -4q11 -4 12 -13t-1 -19l-29 -142h57q8 0 12.5 -8t4.5 -18q0 -7 -0.5 -19.5t-2 -25t-5 -21.5t-10.5 -9h-84 l-26 -135h67q8 0 13 -8t5 -18q0 -7 -0.5 -19.5t-2 -25t-5.5 -21.5t-11 -9zM287 424l-26 -135h129l26 135h-129z"/>
<glyph unicode="$" horiz-adv-x="550" d="M348 789v-60q30 -2 63 -7t53 -13q14 -6 17 -13t1 -23q-2 -26 -11 -43.5t-25 -14.5q-25 5 -57 10t-72 5q-62 0 -101 -18t-39 -60q0 -33 23.5 -56.5t59 -45t77 -44t77 -53t59 -73t23.5 -103.5q0 -44 -13 -76t-35.5 -53.5t-53 -34t-66.5 -18.5v-77q0 -11 -7.5 -17.5 t-20.5 -6.5q-9 0 -22 0.5t-26 3t-22 6.5t-9 10v74q-43 2 -88 7.5t-73 14.5q-15 5 -18 11.5t-1 22.5q3 29 11 49.5t22 17.5q8 -2 24.5 -6t38 -8t47 -7t51.5 -3q28 0 53.5 4.5t45.5 15t32 28t12 43.5q0 36 -23.5 61t-59 47t-77 44.5t-77 52t-59 70t-23.5 98.5q0 84 50 126 t132 51v65q0 6 9 10t22 6.5t26 3t22 0.5q13 0 20.5 -6.5t7.5 -17.5z"/>
<glyph unicode="%" horiz-adv-x="945" d="M578 235q0 145 152 145h15q83 0 117.5 -41.5t34.5 -120.5v-84q0 -71 -37.5 -107.5t-114.5 -36.5h-15q-83 0 -117.5 41t-34.5 120v84zM49 591q0 71 37.5 108t114.5 37h16q83 0 117.5 -41.5t34.5 -120.5v-84q0 -71 -37.5 -107.5t-114.5 -36.5h-16q-83 0 -117.5 41 t-34.5 120v84zM703 726q8 -5 14.5 -13t3.5 -16q-7 -13 -14.5 -25.5t-14.5 -25.5l-371 -673q-3 -5 -14 -6.5t-23 3.5q-6 2 -16 7.5t-20 12t-15.5 14t-2.5 13.5l401 725q3 6 12 5.5t20.5 -4t22.5 -8.5t17 -9zM262 499v64q0 21 -1 38t-6.5 29t-15.5 19t-28 7h-4q-18 0 -28 -6 t-15 -17t-6.5 -26.5t-1.5 -34.5v-55q0 -20 1 -37t6.5 -29t15.5 -19t28 -7h4q33 0 42 20t9 54zM790 143v64q0 21 -1 38t-6.5 29.5t-15.5 19t-28 6.5h-3q-36 0 -44 -23t-8 -61v-55q0 -20 1 -37t6.5 -29t16 -19t28.5 -7h3q33 0 42 20t9 54z"/>
<glyph unicode="&amp;" horiz-adv-x="778" d="M726 316h-104v-170q0 -25 7.5 -39t28.5 -14q11 0 25.5 5.5t35.5 12.5q5 1 10.5 -5.5t10.5 -16.5t9 -21t6 -18q1 -5 2 -9t-1 -8q-2 -10 -11 -15q-14 -8 -27 -14t-27 -9.5t-30 -5t-36 -1.5q-26 0 -47.5 7.5t-36.5 25.5t-23.5 47.5t-8.5 73.5v174h-175q-32 0 -62 -2.5 t-53.5 -11.5t-37.5 -27t-14 -49v-45q0 -21 10.5 -35.5t27.5 -23.5t39 -14.5t45 -8.5q17 -2 34.5 -3.5t35.5 -1.5q29 0 58 3q13 0 24.5 -9t20.5 -20t15.5 -21t10.5 -12q6 0 6 -7q0 -11 -14.5 -18.5t-35.5 -12t-45 -7t-43 -2.5h-42q-51 0 -99 10.5t-85 34.5t-59.5 62.5 t-22.5 94.5v17q0 36 8.5 63t22.5 47t32 33.5t38 22.5q-15 6 -30.5 18t-28.5 29t-21 40.5t-8 53.5v16q0 58 19.5 97t55.5 62t87 32.5t115 9.5q12 0 32 -1t40.5 -3.5t37.5 -7.5t23 -13q2 -5 2 -7.5v-11.5q-5 -4 -12.5 -15t-16.5 -22.5t-19 -20t-21 -7.5q-23 2 -42 2.5t-36 0.5 h-18t-17 -1q-60 -5 -85.5 -25t-25.5 -63q0 -32 8 -61q5 -18 19.5 -29t36 -17t48 -7.5t54.5 -1.5h163v127q0 6 10 10t23.5 6t27.5 2.5t23 0.5q23 0 26 -13.5t3 -30.5v-102h106q10 0 15.5 -8t5.5 -18q0 -8 -0.5 -21.5t-3 -26t-7 -21.5t-12.5 -9z"/>
<glyph unicode="'" horiz-adv-x="196" d="M156 712v-222q0 -11 -8 -19.5t-21 -8.5q-9 0 -23 1t-27.5 4t-23 7t-9.5 10v234q0 6 9.5 10t23 7t27.5 4t23 1q13 0 21 -8.5t8 -19.5z"/>
<glyph unicode="(" horiz-adv-x="321" d="M177 321q0 -54 6.5 -111.5t20 -112.5t35 -103.5t51.5 -84.5q5 -6 -0.5 -18.5t-15.5 -23.5t-21.5 -17t-17.5 0q-45 43 -78 98.5t-54.5 117t-32.5 126.5t-11 129t11 129t32.5 126.5t54.5 116.5t78 99q6 6 17.5 0t21.5 -17t15.5 -23.5t0.5 -18.5q-30 -36 -51.5 -84.5 t-35 -103.5t-20 -112.5t-6.5 -111.5z"/>
<glyph unicode=")" horiz-adv-x="321" d="M171 321q0 54 -6.5 111.5t-20.5 112.5t-35 103.5t-51 84.5q-5 6 0.5 18.5t15.5 23.5t21.5 17t17.5 0q45 -44 78 -99t54.5 -116.5t32.5 -126.5t11 -129t-11 -129t-32.5 -126.5t-54.5 -117t-78 -98.5q-6 -6 -17.5 0t-21.5 17t-15.5 23.5t-0.5 18.5q30 36 51 84.5t35 103.5 t20.5 112.5t6.5 111.5z"/>
<glyph unicode="*" horiz-adv-x="520" d="M294 418l-40 63q-8 -12 -16 -27.5t-17.5 -29t-19.5 -22.5t-21 -9l-9.5 4t-20.5 10.5t-20 14.5t-9 17q0 11 3 15.5t8 9.5l55 66l-66 20q-17 5 -30.5 12t-13.5 26q0 2 2.5 11t8 19.5t13 19t17.5 8.5q8 0 14 -2.5t11 -5.5q17 -8 35 -14.5t35 -13.5l-5 64q-2 15 0 25t4 17 q4 11 13.5 12.5t27.5 1.5q23 0 32 -1.5t13 -12.5q4 -12 4 -42l-6 -64l70 28q5 3 11 5.5t15 2.5q10 0 17.5 -8.5t12.5 -19t8 -19.5t3 -11q0 -20 -14 -26.5t-30 -11.5l-66 -20l55 -66q5 -5 8 -9.5t3 -15.5q0 -9 -9 -17t-20 -14.5t-20.5 -10.5l-9.5 -4q-14 0 -22 8t-14 17z"/>
<glyph unicode="+" horiz-adv-x="633" d="M263 35v179h-181q-9 0 -14.5 8.5t-5.5 18.5q0 8 0.5 21t2.5 26t6.5 22t12.5 9h179v180q0 10 8 15t19 5q8 0 21 -0.5t26 -2.5t22 -6.5t9 -12.5v-178h180q10 0 15 -8t5 -18q0 -8 -0.5 -21.5t-2.5 -26t-6.5 -22t-12.5 -9.5h-178v-181q0 -10 -8 -15t-18 -5q-8 0 -21.5 0.5 t-26.5 2.5t-22 6.5t-9 12.5z"/>
<glyph unicode="," horiz-adv-x="268" d="M169 43l-63 -157q-11 -19 -30 -22.5t-48 -3.5q-23 0 -16 27l44 171q5 21 32.5 26t59.5 5q23 0 26 -13.5t-5 -32.5z"/>
<glyph unicode="-" horiz-adv-x="380" d="M312 238h-244q-9 0 -14.5 8.5t-5.5 18.5q0 8 0.5 21t2.5 26t6 22t12 9h245q9 0 14 -8t5 -18q0 -8 -0.5 -21.5t-2.5 -26t-6 -22t-12 -9.5z"/>
<glyph unicode="." horiz-adv-x="203" d="M44 9v115q0 6 9.5 10.5t23 6.5t27.5 3t23 1q13 0 22 -7.5t9 -19.5v-102q0 -12 -9 -19.5t-22 -7.5q-9 0 -23 0.5t-27.5 3t-23 6.5t-9.5 10z"/>
<glyph unicode="/" horiz-adv-x="497" d="M400 762q5 -1 16.5 -4.5t22.5 -9t18.5 -11.5t4.5 -12l-315 -766q-4 -9 -15 -13t-22 -1q-3 1 -14.5 4t-23 8t-19.5 11.5t-5 14.5l316 766q4 8 14.5 11.5t21.5 1.5z"/>
<glyph unicode="0" horiz-adv-x="633" d="M337 -12h-41q-127 0 -185 59.5t-58 184.5v254q0 125 58 185t185 60h41q127 0 185 -60t58 -185v-254q0 -125 -58 -184.5t-185 -59.5zM172 488v-257q0 -36 6 -63t20.5 -44t38.5 -25.5t59 -8.5h41q70 0 97 34t27 107v257q0 73 -27 107.5t-97 34.5h-41q-35 0 -59 -8.5 t-38.5 -26t-20.5 -44.5t-6 -63z"/>
<glyph unicode="1" horiz-adv-x="400" d="M304 712v-694q0 -11 -8 -20.5t-21 -9.5q-9 0 -23 1.5t-28 4t-24 7t-10 10.5v572l-58 -56q-9 -8 -29.5 2t-36.5 27q-22 25 -3 43l130 116q11 10 32 13t49 3q17 0 23.5 -5.5t6.5 -13.5z"/>
<glyph unicode="2" horiz-adv-x="533" d="M493 0h-450q-14 0 -20 10t-6 19q0 6 2 17.5t5 24t7 24.5t9 18q106 100 172.5 163t103 104t49.5 70t13 62q0 67 -40 91t-113 24q-51 0 -85.5 -7t-65.5 -14q-8 -1 -14 4.5t-10.5 15.5t-7.5 22t-4 25q-2 14 4 21.5t27 13.5q19 5 43 9.5t49.5 7.5t51 4.5t47.5 1.5 q55 0 99 -10.5t74.5 -35.5t47 -66.5t16.5 -103.5q0 -25 -4 -47.5t-16.5 -47.5t-34 -54.5t-57 -67t-86.5 -85t-121 -109.5h310q11 0 18 -8.5t7 -20.5q0 -8 -0.5 -20.5t-3 -24.5t-6.5 -21t-10 -9z"/>
<glyph unicode="3" horiz-adv-x="547" d="M57 102q27 -2 67.5 -7.5t88.5 -5.5q26 0 54.5 3.5t52.5 15t39.5 33t15.5 56.5v21q0 34 -12 55t-32.5 32.5t-47.5 15.5t-58 4h-34q-8 0 -13.5 8.5t-10 20t-6.5 23.5t-2 20q0 14 8 21.5t20 7.5h24q31 0 59 4.5t48.5 15t32.5 28t12 44.5v16q0 51 -33 74t-114 23 q-29 0 -62 -3t-81 -10q-3 0 -6.5 9t-6.5 21t-5 24t-2 18q0 13 21 21t51 12.5t63 6t57 1.5q56 0 100 -8t74 -29t46 -58.5t16 -95.5v-28q0 -33 -9.5 -55.5t-25 -37.5t-34.5 -23.5t-37 -14.5q21 -3 42 -12t38.5 -26.5t28.5 -45t11 -67.5v-46q0 -57 -20 -95t-54.5 -60.5 t-81 -31.5t-99.5 -9q-18 0 -52.5 1.5t-68.5 5t-59.5 10t-25.5 15.5q0 3 1 16t3 28t6.5 26.5t12.5 11.5z"/>
<glyph unicode="4" horiz-adv-x="577" d="M348 138h-316q-11 0 -17 8t-6 20q0 15 3 37.5t13 35.5l347 476q4 5 12.5 8t18.5 5t19.5 2.5t15.5 0.5q11 0 17.5 -5.5t6.5 -15.5v-467h72q11 0 18 -8.5t7 -19.5q0 -9 -1 -22t-3 -25t-5.5 -21t-9.5 -9h-78v-123q0 -12 -8.5 -19.5t-21.5 -7.5q-9 0 -23.5 1t-28 3t-23 6.5 t-9.5 10.5v129zM348 243v299l-211 -299h211z"/>
<glyph unicode="5" horiz-adv-x="586" d="M481 623h-240l-24 -151h77q120 0 179.5 -54t59.5 -178v-20q0 -66 -21.5 -110.5t-59 -71.5t-88.5 -38.5t-109 -11.5q-39 0 -90.5 4.5t-105.5 16.5q-10 2 -14 11t-3 16q0 10 1.5 23t5 25t8.5 20t13 8q12 -3 34 -6.5t48 -6.5t53.5 -5.5t50.5 -2.5q34 0 63 7t50.5 23.5 t33.5 42.5t12 65q0 36 -7.5 62t-25.5 43t-49 25.5t-79 8.5h-128q-20 0 -27.5 5.5t-5.5 23.5l37 302q1 10 7.5 15.5t16 8t20.5 3t22 0.5h287q7 0 14.5 -5t7.5 -23q0 -6 -1 -18t-3.5 -25t-7 -22.5t-12.5 -9.5z"/>
<glyph unicode="6" horiz-adv-x="613" d="M462 638q-88 -42 -154 -92.5t-96 -115.5q29 19 65 26t71 7h9q112 0 162 -58t50 -173v-11q0 -65 -15.5 -109.5t-47.5 -72t-80.5 -39.5t-114.5 -12h-9q-66 0 -114.5 12t-80.5 39.5t-47.5 72t-15.5 109.5v9q0 88 26 164t74.5 139t117 112t153.5 83q9 4 18.5 4t15.5 -7 q7 -8 13 -21.5t8.5 -27t0.5 -24.5t-9 -14zM311 362h-9q-41 0 -68 -7.5t-43 -24t-22 -41.5t-6 -59v-9q0 -30 4.5 -54.5t19.5 -41t42.5 -25.5t72.5 -9h9q45 0 72.5 9t42.5 25.5t20 41t5 54.5v11q0 31 -5 55t-20 40.5t-42.5 25.5t-72.5 9z"/>
<glyph unicode="7" d="M68 14l314 602h-320q-6 0 -9.5 9t-6 21t-3 25t-0.5 21q0 11 7 19.5t17 8.5h444q7 0 12 -9t5 -18q0 -5 -0.5 -13.5t-1.5 -17.5t-3 -17.5t-5 -14.5l-326 -619q-4 -8 -14 -12.5t-23.5 -7t-28.5 -3t-29 -0.5q-6 0 -13 1.5t-11.5 4.5t-6.5 8t2 12z"/>
<glyph unicode="8" horiz-adv-x="629" d="M79 521q0 61 12 101.5t38.5 64.5t69 34t103.5 10h25q103 0 158.5 -34.5t62.5 -121.5q2 -23 -0.5 -47t-5.5 -44q-3 -23 -12.5 -39.5t-20.5 -28.5t-23.5 -19.5t-21.5 -11.5q17 -7 36.5 -15.5t36.5 -26t28 -48t11 -79.5q0 -68 -15 -112t-46 -69.5t-77.5 -35t-110.5 -9.5h-25 q-62 0 -109 9.5t-78 34t-46.5 66.5t-15.5 107q0 53 10.5 84.5t27 50t36.5 27t38 16.5q-13 5 -28 15t-28 26t-21.5 39t-8.5 56zM327 331h-25q-74 0 -102 -25.5t-28 -89.5q0 -31 4 -54t17.5 -38.5t39 -23t69.5 -7.5h25q42 0 67.5 7.5t39.5 21.5t18.5 35.5t4.5 49.5 q0 35 -6 58.5t-20.5 38t-39.5 21t-64 6.5zM327 628h-25q-36 0 -57.5 -5t-33 -16.5t-14.5 -30t-3 -44.5q0 -23 3 -41t14.5 -30.5t32.5 -19t57 -6.5h27q36 0 57 6.5t32.5 18.5t14.5 30t3 41q0 27 -3 45.5t-14.5 30t-33 16.5t-57.5 5z"/>
<glyph unicode="9" horiz-adv-x="599" d="M110 80q35 9 61.5 16.5t48.5 15.5t41.5 17.5t40.5 24.5q47 32 69 67.5t32 74.5q-27 -27 -66.5 -36.5t-75.5 -9.5h-9q-109 0 -158.5 59.5t-49.5 177.5v16q0 66 15.5 110.5t47 72t79 39.5t112.5 12h8q65 0 113 -12t79.5 -39.5t47 -72t15.5 -110.5v-14q0 -121 -33 -208 t-89 -146t-130 -93.5t-156 -51.5q-7 -2 -16 -1.5t-16 8.5q-6 8 -10.5 21t-6.5 26t-1 23t7 13zM298 351h8q40 0 66.5 8t42 25t21.5 43t6 62v14q0 31 -4.5 55t-19 41t-41 26t-71.5 9h-8q-44 0 -71 -9t-41.5 -26t-19 -41t-4.5 -55v-16q0 -32 4.5 -57.5t19 -43t41.5 -26.5t71 -9 z"/>
<glyph unicode=":" horiz-adv-x="254" d="M72 11v118q0 6 9.5 10t23 6.5t27.5 3t23 0.5q13 0 22 -7.5t9 -18.5v-105q0 -12 -9 -19t-22 -7q-9 0 -23 0.5t-27.5 3t-23 6t-9.5 9.5zM72 403v118q0 6 9.5 9.5t23 6t27.5 3t23 0.5q13 0 22 -7t9 -19v-105q0 -11 -9 -18.5t-22 -7.5q-9 0 -23 0.5t-27.5 3t-23 6.5t-9.5 10z "/>
<glyph unicode=";" horiz-adv-x="322" d="M105 403v118q0 6 9.5 9.5t23 6t27.5 3t23 0.5q24 0 27.5 -13t3.5 -31v-69q0 -18 -3.5 -31t-27.5 -13q-10 0 -24 0.5t-27 3t-22.5 6.5t-9.5 10zM226 109l-103 -164q-13 -20 -26 -23.5t-31 -3.5q-16 0 -8 27l47 181q3 12 31 15t61 3q6 0 13 -2t12.5 -6.5t7 -11t-3.5 -15.5z "/>
<glyph unicode="&lt;" horiz-adv-x="552" d="M495 500v-108l-305 -127l305 -128v-107l-457 190v89z"/>
<glyph unicode="=" horiz-adv-x="634" d="M574 123h-514v101h514v-101zM574 329h-513v101h513v-101z"/>
<glyph unicode="&gt;" horiz-adv-x="553" d="M58 392v108l458 -191v-89l-458 -190v107l305 128z"/>
<glyph unicode="?" horiz-adv-x="530" d="M171 210v70q0 40 25 80.5t55.5 78t55.5 72t25 63.5q0 51 -29.5 68t-83.5 17q-42 0 -70 -4.5t-50 -8.5q-6 -1 -11.5 7t-9.5 19.5t-7.5 23t-4.5 17.5q-7 25 19 31q29 7 60.5 12t73.5 5q46 0 88.5 -7.5t74.5 -28t51 -55t19 -88.5q0 -32 -12.5 -60.5t-31 -54t-40.5 -49 t-40.5 -46.5t-31 -45.5t-12.5 -46.5v-55q0 -14 -5 -24t-20 -12q-10 0 -25 0.5t-29 3t-24 6.5t-10 11zM171 12v103q0 6 9.5 10.5t23 6.5t27.5 3t23 1q23 0 27 -13.5t4 -31.5v-54q0 -19 -4 -32t-27 -13q-9 0 -23.5 0.5t-27.5 3t-22.5 6.5t-9.5 10z"/>
<glyph unicode="@" horiz-adv-x="868" d="M461 39q18 0 32 -6t21 -26q5 -13 7.5 -22t2.5 -16q0 -17 -15.5 -20.5t-48.5 -3.5q-83 0 -157 20t-129.5 63.5t-88 111.5t-32.5 163q0 99 36 174t93.5 125t130 75.5t145.5 25.5q77 0 142.5 -24.5t113.5 -67t75 -100t27 -122.5q0 -47 -12.5 -94t-37.5 -85t-62.5 -61.5 t-86.5 -23.5q-34 0 -63 12t-40 40q-28 -27 -55 -37.5t-56 -10.5q-38 0 -68 12t-50 33t-30.5 48.5t-10.5 58.5q0 41 13.5 82.5t41.5 74.5t69.5 54t97.5 21q40 0 69 -11.5t48 -30.5t28 -44t9 -52t-9 -53t-17 -44q-7 -16 -7 -29q0 -12 6.5 -20.5t23.5 -8.5q16 0 33 10t30.5 31 t22 53t8.5 76q0 48 -19.5 88t-54 69.5t-80.5 46t-99 16.5q-62 0 -117 -22t-95.5 -62.5t-64 -97t-23.5 -125.5q0 -74 24.5 -124.5t66.5 -81.5t97 -44.5t115 -13.5zM412 222q24 0 44 14t34.5 34.5t22 44.5t7.5 44q0 35 -20 49t-54 10q-23 -2 -41.5 -14.5t-31.5 -31t-20.5 -40 t-7.5 -42.5q0 -29 17 -48.5t50 -19.5z"/>
<glyph unicode="A" horiz-adv-x="635" d="M497 12l-56 169h-246l-59 -172q-5 -15 -30.5 -18t-54.5 -3q-14 0 -26 4.5t-12 17.5q0 2 0.5 4t1.5 5l245 691q2 7 12.5 11t24 6t28 3t25.5 1q8 0 16 -5.5t12 -16.5l242 -690q1 -3 1.5 -5t0.5 -4q0 -13 -12.5 -17.5t-25.5 -4.5q-33 0 -57.5 3.5t-29.5 20.5zM311 541 l-85 -256h184l-85 256q-3 8 -4.5 17.5t-3.5 17.5q-2 -8 -2.5 -17.5t-3.5 -17.5z"/>
<glyph unicode="B" horiz-adv-x="657" d="M97 720h276q62 0 104 -14t67.5 -39.5t36 -62.5t10.5 -83v-10q0 -34 -7 -58t-19 -40t-27.5 -25t-32.5 -13q14 -4 31.5 -12.5t32.5 -26t25 -45t10 -69.5v-22q0 -54 -13 -92t-40.5 -62t-71.5 -35t-106 -11h-263q-14 0 -29 6.5t-15 13.5v674q0 11 7.5 18.5t23.5 7.5zM379 322 h-193v-215h189q31 0 52 4.5t33.5 15t18 29t5.5 45.5v21q0 52 -23 76t-82 24zM373 612h-187v-195h186q30 0 49 5.5t30 17t15.5 29t4.5 42.5v10q0 22 -4 39t-15 28.5t-30 17.5t-49 6z"/>
<glyph unicode="C" horiz-adv-x="557" d="M176 440v-161q0 -51 6.5 -87.5t25.5 -59t52.5 -33t86.5 -10.5h8q45 0 81 5.5t58 9.5q8 1 13.5 -7t8.5 -20t4.5 -26t1.5 -26q0 -11 -19.5 -18t-47.5 -11t-59 -6t-53 -2h-8q-71 0 -124 14t-88 46t-52.5 84t-17.5 129v197q0 77 17.5 129t53.5 84t90 46t127 14h8 q20 0 49.5 -2t57 -6.5t47 -11.5t19.5 -16q0 -16 -1 -30.5t-4 -25.5t-7 -17.5t-10 -5.5q-17 2 -56.5 8t-82.5 6h-8q-56 0 -90.5 -10.5t-53.5 -33t-26 -59t-7 -87.5z"/>
<glyph unicode="D" horiz-adv-x="654" d="M96 720h212q75 0 130 -14t91.5 -46t54.5 -84t18 -129v-174q0 -77 -18 -129t-54.5 -84t-91.5 -46t-130 -14h-198q-14 0 -29 6.5t-15 13.5v674q0 12 9 19t21 7zM308 613h-122v-506h122q51 0 84 10t52.5 32t27 57t7.5 84v139q0 49 -7.5 84t-27 57t-52.5 32.5t-84 10.5z"/>
<glyph unicode="E" horiz-adv-x="567" d="M66 20v674q0 13 9 19.5t22 6.5h401q11 0 18.5 -9t7.5 -20q0 -8 -1 -21.5t-3 -26t-6 -21.5t-10 -9h-318v-194h274q10 0 17.5 -8.5t7.5 -19.5q0 -8 -1 -21.5t-3 -26.5t-6 -22t-10 -9h-279v-205h312q11 0 18.5 -8.5t7.5 -20.5q0 -8 -1 -21t-3 -26t-6 -22t-10 -9h-393 q-14 0 -29.5 6.5t-15.5 13.5z"/>
<glyph unicode="F" horiz-adv-x="534" d="M186 312v-295q0 -11 -9 -20t-22 -9q-9 0 -24 1t-29.5 4t-25 7.5t-10.5 10.5v685q0 24 34 24h398q11 0 18.5 -9t7.5 -20q0 -8 -1 -21.5t-3 -26t-6 -21.5t-10 -9h-318v-194h262q11 0 17.5 -8.5t6.5 -19.5q0 -9 -0.5 -22t-3 -26t-6 -22t-9.5 -9h-267z"/>
<glyph unicode="G" horiz-adv-x="651" d="M176 440v-161q0 -50 8 -85t27.5 -57t53.5 -32t87 -10h9q32 0 59 3t59 8v237q0 6 8.5 10t22 6.5t30 3.5t31.5 1t21 -9t6 -23v-275q0 -17 -4.5 -24t-16.5 -12q-15 -7 -40 -13t-54.5 -10.5t-61 -7t-60.5 -2.5h-9q-76 0 -132 14t-93 46t-55.5 84t-18.5 129v197q0 77 18.5 129 t56.5 84t95 46t134 14h19q37 0 77 -2t72 -6.5t53 -12.5t21 -19q0 -14 -2 -29t-6 -27.5t-10 -20t-13 -7.5q-22 4 -67 10.5t-107 6.5h-19q-60 0 -98.5 -10t-61 -32t-31 -57t-8.5 -85z"/>
<glyph unicode="H" horiz-adv-x="687" d="M621 701v-683q0 -30 -30 -30q-9 0 -24 1.5t-30 4t-25.5 7t-10.5 10.5v308h-315v-302q0 -29 -31 -29q-9 0 -24 1t-29.5 4t-25 7.5t-10.5 10.5v696q0 6 10.5 10.5t25 7.5t29.5 4.5t24 1.5q31 0 31 -30v-273h315v279q0 6 10.5 10.5t25.5 7.5t30 4.5t24 1.5q30 0 30 -30z"/>
<glyph unicode="I" horiz-adv-x="252" d="M186 15q0 -12 -9 -19.5t-22 -7.5q-9 0 -24 1t-29.5 3t-25 6.5t-10.5 10.5v701q0 6 10.5 10.5t25 6.5t29.5 3t24 1q13 0 22 -8t9 -19v-689z"/>
<glyph unicode="J" horiz-adv-x="254" d="M-58 89q20 -3 34.5 -5t28.5 -2q32 0 47.5 14t15.5 58v556q0 6 10.5 10.5t24.5 6.5t29.5 3t24.5 1q13 0 22 -8t9 -19v-546q0 -94 -37.5 -136t-115.5 -42q-18 0 -42.5 1.5t-58.5 8.5q-14 3 -18.5 11.5t-2.5 21.5q9 69 29 66z"/>
<glyph unicode="K" horiz-adv-x="632" d="M185 15q0 -12 -8.5 -19.5t-21.5 -7.5q-9 0 -24 1t-29.5 3t-25 6.5t-10.5 10.5v701q0 6 10.5 10.5t25 6.5t29.5 3t24 1q13 0 21.5 -8t8.5 -19v-315l278 321q13 15 41 18t54 3q9 0 21.5 -3t12.5 -16q0 -12 -17 -32l-264 -302l295 -339q18 -21 18 -32q0 -14 -12.5 -16.5 t-22.5 -2.5q-25 0 -53.5 3t-41.5 18l-309 357v-351z"/>
<glyph unicode="L" horiz-adv-x="510" d="M478 0h-358q-18 0 -36 4t-18 16v690q0 6 10.5 10.5t25 6.5t30 3t24.5 1q13 0 21.5 -8t8.5 -19v-597h287q10 0 17 -8.5t7 -20.5q0 -8 -0.5 -21.5t-3 -26t-6 -21.5t-9.5 -9z"/>
<glyph unicode="M" horiz-adv-x="993" d="M838 12l-94 470q-2 6 -2 11.5t-2 25.5q-2 -11 -5 -21t-5 -16l-178 -471q-4 -10 -13 -16.5t-27 -6.5q-6 0 -17 1t-22 3t-19.5 6.5t-11.5 12.5l-177 471q-9 20 -10 41l-4 -40l-96 -471q-2 -8 -11 -13t-22.5 -7.5t-28 -3t-26.5 -0.5q-4 0 -10 1.5t-11.5 5t-8.5 10t-1 15.5 l146 689q1 7 9.5 11.5t20 6.5t23.5 3t21 1q26 0 35 -22l196 -499q4 -10 8 -30t6 -27q2 10 5 26.5t8 29.5l191 500q3 7 12 11t20.5 6.5t23 3.5t17.5 1q19 0 27 -7t10 -15l143 -689q2 -10 -1 -16.5t-8 -10t-11.5 -4.5t-10.5 -1q-13 0 -28 0.5t-28 3t-22.5 7.5t-10.5 13z"/>
<glyph unicode="N" horiz-adv-x="694" d="M510 210v502q0 6 11 9.5t26 5.5t30.5 3t24.5 1q26 0 26 -30v-687q0 -12 -9.5 -19t-20.5 -7q-8 0 -21.5 0.5t-27 3t-24.5 6t-15 9.5l-325 500v-492q0 -12 -9 -19.5t-21 -7.5q-9 0 -24.5 1t-29.5 3t-24.5 6.5t-10.5 10.5v701q0 6 10.5 10.5t24.5 6.5t29 3t24 1 q11 0 18.5 -6.5t12.5 -14.5z"/>
<glyph unicode="O" horiz-adv-x="701" d="M354 -12h-8q-74 0 -129 14t-91.5 46t-54.5 84.5t-18 129.5v196q0 77 18 129t54.5 84t91.5 46t129 14h8q75 0 130 -14t92 -46t55 -84t18 -129v-196q0 -77 -18 -129.5t-55 -84.5t-92 -46t-130 -14zM176 452v-184q0 -50 7.5 -83t26.5 -53t52 -28.5t84 -8.5h8q51 0 84.5 8.5 t53 28.5t27 53t7.5 83v184q0 49 -7.5 82.5t-27 53t-53 28t-84.5 8.5h-8q-51 0 -84 -8.5t-52 -28t-26.5 -53t-7.5 -82.5z"/>
<glyph unicode="P" horiz-adv-x="609" d="M66 9v685q0 15 9.5 20.5t20.5 5.5h222q69 0 117.5 -10t79.5 -35t45 -66.5t14 -105.5v-22q0 -65 -14 -107t-44.5 -66t-79 -33.5t-118.5 -9.5h-133v-251q0 -12 -9 -19t-21 -7q-9 0 -24 1t-29.5 3t-25 6.5t-10.5 10.5zM318 613h-133v-241h133q41 0 66.5 4.5t40 16.5t20 33.5 t5.5 54.5v22q0 33 -5.5 54.5t-20 33.5t-40 17t-66.5 5z"/>
<glyph unicode="Q" horiz-adv-x="691" d="M336 94q56 0 92 12l-7 6q-8 7 -5 18t10.5 23t17 23.5t15.5 18.5q8 10 20 12.5t21 -4.5l3 -3q6 34 6 79v161q0 49 -7.5 84.5t-27 57.5t-53 32.5t-85.5 10.5h-8q-51 0 -84 -10.5t-52.5 -32.5t-27 -57.5t-7.5 -84.5v-161q0 -50 7.5 -85t27 -57.5t52.5 -32.5t84 -10h8v0z M648 87q9 -8 9 -19.5t-7 -22.5q-6 -9 -14.5 -21.5t-18 -22t-20 -14.5t-19.5 1l-47 37q-29 -17 -65.5 -27.5t-81.5 -10.5q-18 -1 -37 -1h-37t-40 2q-63 5 -108 23.5t-73.5 54t-41.5 89t-13 128.5v175q0 77 18 129.5t54.5 84.5t91.5 46t130 14h8q75 0 131 -14t92.5 -46 t55 -84.5t18.5 -129.5v-197q0 -87 -24 -144l39 -30v0z"/>
<glyph unicode="R" horiz-adv-x="620" d="M66 9v685q0 11 9 18.5t22 7.5h221q69 0 117.5 -10t79.5 -35t45 -66.5t14 -105.5v-22q0 -47 -7.5 -82t-23.5 -60t-42.5 -40t-63.5 -23l139 -240q11 -19 11 -29q0 -6 -5 -10t-11 -6t-12.5 -2.5t-9.5 -0.5q-9 0 -23 1t-28.5 3.5t-26 7.5t-16.5 14l-147 251h-123v-251 q0 -12 -9 -19t-21 -7q-9 0 -24 1t-29.5 3t-25 6.5t-10.5 10.5zM324 613h-139v-241h139q41 0 65.5 4.5t38 16.5t18 33t4.5 55v22q0 34 -4.5 55.5t-18 33.5t-38 16.5t-65.5 4.5z"/>
<glyph unicode="S" horiz-adv-x="515" d="M59 111q8 -2 24.5 -6t38 -8t47 -7t51.5 -3q28 0 53.5 4.5t45.5 15t32 28t12 43.5q0 36 -23.5 61t-59 47t-77 44.5t-77 52t-59 70t-23.5 98.5q0 49 17.5 83t48.5 55.5t74 31.5t95 10q11 0 33.5 -1t47.5 -3.5t49.5 -6.5t39.5 -11q14 -6 17 -13t1 -23q-2 -26 -11 -43.5 t-25 -14.5q-25 5 -57 10t-72 5q-62 0 -101 -18t-39 -60q0 -33 23.5 -56.5t59 -45t77 -44t77 -53t59 -73t23.5 -103.5q0 -57 -21.5 -94t-57 -58t-82 -29t-96.5 -8q-23 0 -48 1.5t-49 4.5t-45.5 7t-36.5 9t-18 11.5t-1 22.5q3 29 11 49.5t22 17.5z"/>
<glyph unicode="T" horiz-adv-x="551" d="M336 612v-597q0 -12 -9.5 -19.5t-21.5 -7.5q-9 0 -24.5 1t-29.5 3t-24.5 6.5t-10.5 10.5v603h-184q-11 0 -18.5 8.5t-7.5 20.5q0 8 1 21t3 26t6 22t10 9h493q11 0 18.5 -8.5t7.5 -20.5q0 -8 -1 -21.5t-3 -26t-6 -21.5t-10 -9h-189z"/>
<glyph unicode="U" horiz-adv-x="672" d="M486 255v452q0 6 10.5 10.5t25.5 7.5t30 4.5t24 1.5q13 0 21.5 -9.5t8.5 -20.5v-452q0 -74 -16.5 -123.5t-49.5 -80.5t-83.5 -44t-118.5 -13h-8q-66 0 -115.5 13t-82.5 44t-49.5 80.5t-16.5 123.5v458q0 6 10.5 10.5t25 7.5t30 4.5t24.5 1.5q12 0 21 -9.5t9 -20.5v-446 q0 -43 6.5 -73.5t23 -49.5t44.5 -28t70 -9h8q43 0 71.5 9t45.5 28t24 49.5t7 73.5z"/>
<glyph unicode="V" horiz-adv-x="602" d="M313 192l151 518q14 14 32.5 17.5t42.5 3.5q10 0 20.5 -1t18 -4.5t11 -10t-0.5 -18.5l-231 -693q-2 -8 -10.5 -12t-17.5 -4q-33 0 -55.5 3.5t-27.5 11.5l-232 694q-3 10 0 16.5t9 10.5t13.5 5.5t12.5 1.5q15 0 30.5 -1t28.5 -3.5t22 -7.5t12 -13l154 -514 q4 -12 5.5 -25.5t3.5 -24.5q1 11 2.5 24.5t5.5 25.5z"/>
<glyph unicode="W" horiz-adv-x="990" d="M713 182l141 523q5 17 32 21.5t55 4.5q17 0 25.5 -7.5t8.5 -19.5q0 -8 -3 -17l-208 -673q-8 -26 -31 -26q-8 0 -21 1t-26 3.5t-23 7t-12 12.5l-151 497q-3 9 -3.5 17.5t-1.5 19.5q-1 -9 -2 -19t-3 -18l-146 -495q-8 -26 -32 -26q-8 0 -21 1t-25.5 3.5t-23 7t-12.5 12.5 l-212 675q-3 9 -3 17q0 12 8.5 19.5t25.5 7.5q28 0 55 -4.5t32 -21.5l150 -523q2 -8 2.5 -20t1.5 -20q1 8 1.5 20t2.5 20l139 519q3 9 14 15t24.5 9.5t27 4.5t21.5 1q17 0 24.5 -8t11.5 -22l149 -519q2 -8 2.5 -20t1.5 -20q1 8 1.5 20t2.5 20z"/>
<glyph unicode="X" horiz-adv-x="621" d="M580 685l-194 -324l196 -327q14 -23 6 -34.5t-31 -11.5q-14 0 -28.5 0.5t-27.5 2.5t-22.5 6t-13.5 10l-154 259l-154 -259q-4 -6 -13.5 -10t-22.5 -6t-28 -2.5t-28 -0.5q-23 0 -31 11t6 35l196 327l-195 324q-14 23 -5.5 34.5t30.5 11.5q40 0 62 -3t30 -16l153 -254 l153 254q8 13 30 16t61 3q23 0 31 -11.5t-6 -34.5z"/>
<glyph unicode="Y" horiz-adv-x="600" d="M360 264v-249q0 -12 -9 -19.5t-22 -7.5q-9 0 -23.5 1t-29 3t-25 6.5t-10.5 10.5v255l-218 425q-11 22 -3 32t31 10q14 0 28.5 -0.5t27 -2.5t21.5 -5t12 -9l160 -327l160 326q3 6 12 9.5t21.5 5.5t27 2.5t28.5 0.5q23 0 30.5 -9.5t-3.5 -32.5z"/>
<glyph unicode="Z" horiz-adv-x="589" d="M544 0h-491q-9 0 -15 9t-6 20q0 6 0.5 17t2 23t4 23t6.5 17l350 504h-324q-6 0 -9.5 9t-6 21.5t-3 26t-0.5 21.5q0 12 6.5 20.5t16.5 8.5h452q10 0 16.5 -8.5t6.5 -21.5q0 -5 -1 -16t-2.5 -23t-4 -23t-6.5 -16l-348 -505h352q10 0 17 -8.5t7 -20.5q0 -8 -0.5 -21.5 t-3 -26t-6.5 -21.5t-10 -9z"/>
<glyph unicode="[" horiz-adv-x="303" d="M64 -132v855q0 14 4.5 18.5t18.5 4.5h151q11 0 17 -7.5t6 -18.5q0 -8 -0.5 -20.5t-2.5 -24t-5.5 -20t-9.5 -8.5h-67v-706h68q5 0 8.5 -9t5.5 -21t2.5 -24.5t0.5 -20.5q0 -10 -7 -17t-18 -7h-153q-11 0 -15 5t-4 21z"/>
<glyph unicode="\" horiz-adv-x="449" d="M79 759q11 3 22 -1.5t15 -14.5l314 -759q3 -6 -4.5 -12t-18.5 -11.5t-22.5 -9.5t-17.5 -5q-10 -2 -21 1.5t-15 13.5l-313 759q-2 6 5 12t17.5 11.5t21.5 9.5t17 6z"/>
<glyph unicode="]" horiz-adv-x="300" d="M241 723v-855q0 -16 -4 -21t-15 -5h-153q-11 0 -18.5 7t-7.5 17q0 8 1 20.5t3 24.5t5.5 21t8.5 9h67v706h-67q-5 0 -8.5 8.5t-5.5 20t-3 24t-1 20.5q0 11 6.5 18.5t17.5 7.5h151q14 0 18.5 -4.5t4.5 -18.5z"/>
<glyph unicode="^" horiz-adv-x="630" d="M560 389l-81 -64l-164 203l-164 -203l-81 64l245 288z"/>
<glyph unicode="_" horiz-adv-x="422" d="M378 -110h-341q-10 0 -15 8t-5 19q0 8 1 21t3 26t6.5 22t11.5 9h341q10 0 15 -8t5 -18q0 -8 -1 -21.5t-3 -26t-6.5 -22t-11.5 -9.5z"/>
<glyph unicode="`" horiz-adv-x="289" d="M116 792l63 -89q22 -32 20.5 -41.5t-12.5 -9.5q-26 0 -38.5 3.5t-28.5 17.5l-101 86q-15 12 -14.5 21.5t10.5 15.5t26.5 9t33.5 3q11 0 22.5 -3t18.5 -13z"/>
<glyph unicode="a" horiz-adv-x="500" d="M445 359v-311q0 -9 -13 -19.5t-38.5 -19.5t-64 -15t-88.5 -6q-56 0 -95 10t-63 31t-35 53t-11 76q0 37 7 66t25.5 48.5t49.5 30t79 10.5q37 0 74.5 -6t63.5 -13v63q0 45 -25.5 66t-93.5 21q-34 0 -71 -4.5t-56 -7.5q-9 0 -14 7.5t-7.5 18t-3.5 21t-1 15.5q-1 16 2 21.5 t10 7.5t23.5 5t39 5.5t49 4t54.5 1.5q51 0 89 -7.5t63.5 -27.5t38 -55t12.5 -90zM336 88v123q-5 2 -17 5.5t-28 6.5t-33 5t-32 2q-42 0 -61 -15.5t-19 -64.5q0 -45 20 -62t70 -17q13 0 28.5 1.5t29.5 4t25.5 5.5t16.5 6z"/>
<glyph unicode="b" horiz-adv-x="533" d="M176 728v-231q35 20 72.5 31t77.5 11q49 0 79.5 -16t47 -42t22 -60t5.5 -70v-179q0 -41 -9 -75t-32 -58t-62.5 -37.5t-99.5 -13.5q-18 0 -43 1t-51.5 4.5t-52 9.5t-45.5 16q-12 6 -16.5 14.5t-4.5 22.5v685q0 6 9.5 10t23 6.5t27.5 3t23 0.5q13 0 21 -8t8 -25zM176 403 v-305q0 -2 9 -4.5t23.5 -4.5t31.5 -3.5t33 -1.5q32 0 51 7.5t28.5 20.5t12 28.5t2.5 32.5v176q0 16 -2 32t-9.5 29t-21.5 20.5t-38 7.5q-19 0 -40 -4t-38.5 -9.5t-29 -11.5t-12.5 -10z"/>
<glyph unicode="c" horiz-adv-x="453" d="M392 94q7 0 11 -5t6 -13t3 -17.5t1 -18.5q1 -21 -4 -28.5t-19 -10.5q-15 -4 -51 -8.5t-79 -4.5q-55 0 -94.5 11t-64.5 35.5t-36.5 64.5t-11.5 97v135q0 57 12 96.5t38 64.5t67.5 36t100.5 11q38 0 74 -3.5t51 -8.5q10 -3 16 -8t5 -22q0 -9 -1.5 -20.5t-4.5 -21.5 t-8 -16.5t-12 -6.5q-4 0 -14.5 2t-25 4t-31.5 3.5t-34 1.5q-68 0 -94 -28.5t-26 -85.5v-130q0 -60 25.5 -87t91.5 -27q24 0 55 3t54 6z"/>
<glyph unicode="d" horiz-adv-x="528" d="M469 728v-667q0 -15 -3 -22.5t-17 -15.5q-12 -6 -34.5 -12.5t-50.5 -11.5t-58 -8t-57 -3q-67 0 -106 15t-59 41t-25.5 60t-5.5 72v169q0 35 6 70t23.5 62.5t49.5 44.5t84 17q36 0 73.5 -8t66.5 -19v229q0 7 10 11t24 6t27.5 2.5t21.5 0.5q14 0 22 -7t8 -26zM356 96v318 q-6 3 -17 7t-25.5 8t-31 6.5t-32.5 2.5q-29 0 -45.5 -8t-25 -22.5t-11 -33t-2.5 -39.5v-150q0 -23 2.5 -41.5t11.5 -32.5t27 -21.5t49 -7.5q13 0 28.5 1.5t30 3.5t25.5 4.5t16 4.5z"/>
<glyph unicode="e" horiz-adv-x="521" d="M451 6q-17 -5 -38 -8t-44 -5.5t-46 -3.5t-43 -1q-60 0 -103.5 11t-71.5 38t-41 71.5t-13 111.5v134q0 97 53 141t165 44h13q54 0 90.5 -11.5t58.5 -32.5t31 -50.5t9 -64.5v-25q0 -40 -13 -70.5t-47.5 -51.5t-95 -31.5t-155.5 -10.5q0 -61 34 -85t112 -24q40 0 80 6t61 8 q4 0 7.5 -1t6 -6.5t4.5 -17t2 -31.5q1 -17 -1.5 -23.5t-14.5 -10.5zM361 370v17q0 32 -22 49t-71 17q-23 0 -43 -4.5t-34.5 -15.5t-22.5 -30t-8 -48v-78q60 0 99 4t61.5 14.5t31.5 28.5t9 46z"/>
<glyph unicode="f" horiz-adv-x="359" d="M214 618v-90h107q8 0 14.5 -5.5t6.5 -20.5q0 -6 -1 -18.5t-3.5 -25t-6.5 -22t-11 -9.5h-106v-414q0 -13 -10 -19t-20 -6q-9 0 -23 0.5t-27.5 2.5t-23 6t-9.5 11v419h-67q-8 0 -14 6.5t-6 14.5t0.5 21.5t3 26.5t6.5 22.5t11 9.5h66v104q0 34 11.5 60.5t31 43.5t45.5 26 t56 9q25 0 42 -1.5t28 -3.5t18 -4l14 -4q12 -3 17 -13.5t5 -20.5q0 -29 -6 -47.5t-18 -17.5q-13 5 -28 8t-39 3q-64 0 -64 -52z"/>
<glyph unicode="g" horiz-adv-x="535" d="M230 -143q42 0 68 6.5t40.5 20t19.5 35.5t5 52v60q-34 -18 -75 -30.5t-81 -12.5q-53 0 -83 16.5t-44.5 43.5t-17.5 61t-3 69v173q0 44 6.5 79t23.5 59t45.5 37t72.5 13q11 0 35 -2t53.5 -6t61.5 -11t58 -17.5t43 -24.5t17 -32v-475q0 -54 -11 -93.5t-37.5 -65t-69 -38 t-105.5 -12.5q-39 0 -84.5 2.5t-83.5 10.5q-14 3 -18 11.5t-4 21.5q0 9 2 20t5 20.5t8 16t11 6.5q24 -4 63.5 -9t78.5 -5zM363 120v289q0 6 -12.5 12.5t-31.5 11.5t-40.5 8.5t-39.5 3.5q-21 0 -34.5 -8.5t-20.5 -22t-9.5 -31t-2.5 -35.5v-166q0 -18 2.5 -36t9.5 -31.5 t20.5 -22t34.5 -8.5q42 0 76 12t48 24z"/>
<glyph unicode="h" horiz-adv-x="538" d="M369 8v334q0 22 -2 39.5t-9 30t-20 19.5t-34 7q-20 0 -42 -4.5t-40.5 -10.5t-31.5 -12.5t-14 -10.5v-387q0 -14 -10 -19.5t-21 -5.5q-8 0 -22 0.5t-27.5 3t-23 6.5t-9.5 10v738q1 7 13 11t26.5 5.5t27 2t15.5 0.5q12 0 21.5 -6.5t9.5 -18.5v-245q27 17 69 30.5t88 13.5 q52 0 82 -15t45 -40.5t18.5 -60t3.5 -74.5v-336q0 -14 -10.5 -19.5t-21.5 -5.5q-8 0 -22 0.5t-27 3t-22.5 6.5t-9.5 10z"/>
<glyph unicode="i" horiz-adv-x="291" d="M63 631v105q0 6 9.5 10t23 6.5t27.5 3t23 0.5q13 0 21.5 -7.5t8.5 -19.5v-92q0 -11 -8.5 -19t-21.5 -8q-9 0 -23 1t-27.5 3t-23 6.5t-9.5 10.5zM265 100q5 0 9.5 -7.5t7.5 -18t5 -22t3 -18.5q1 -25 -20 -32q-26 -8 -44 -11t-40 -3q-25 0 -47.5 6.5t-39.5 22.5t-27 42.5 t-10 65.5v395q0 6 10 9.5t23.5 6t27.5 3t23 0.5q11 0 20 -6.5t9 -17.5v-369q0 -24 8 -38.5t34 -14.5q11 0 23 2.5t25 4.5z"/>
<glyph unicode="j" horiz-adv-x="229" d="M-45 -106l21 -3t26 -2q31 0 43.5 15t12.5 41v575q0 6 10 9.5t23.5 6t27.5 3t22 0.5q14 0 22 -6.5t8 -17.5v-571q0 -44 -10.5 -73.5t-28 -47.5t-41 -25.5t-50.5 -7.5q-24 0 -42 1.5t-38 6.5q-15 5 -21 10.5t-6 22.5q0 9 1 20.5t3.5 21t6.5 15.5t10 6zM57 631v105 q0 6 9.5 10t23 6.5t28 3t23.5 0.5q13 0 22 -7.5t9 -19.5v-92q0 -11 -8.5 -19t-22.5 -8q-9 0 -23.5 1t-28 3t-23 6.5t-9.5 10.5z"/>
<glyph unicode="k" horiz-adv-x="492" d="M176 728v-437l177 227q4 7 13 11t19 6t20 3t17 1q9 0 19.5 -1.5t18 -5.5t9.5 -11.5t-6 -19.5l-172 -220l199 -269q9 -12 -5.5 -18t-39.5 -6q-5 0 -15 0.5t-21 2.5t-21.5 6.5t-15.5 13.5l-196 260v-250q0 -17 -8 -25t-21 -8q-9 0 -23.5 0.5t-28 3t-23 6.5t-9.5 10v733 q0 6 9.5 10t23 6.5t28 3t23.5 0.5q13 0 21 -8t8 -25z"/>
<glyph unicode="l" horiz-adv-x="291" d="M265 100q5 0 9.5 -7.5t7.5 -18t5 -22t3 -18.5q1 -25 -20 -32q-26 -8 -44 -11t-37 -3q-26 0 -49.5 6.5t-40.5 22t-27 42t-10 66.5v617q0 6 10 9.5t23.5 6t27.5 3t23 0.5q11 0 20 -6.5t9 -17.5v-591q0 -24 8 -38.5t34 -14.5q11 0 23 2.5t25 4.5z"/>
<glyph unicode="m" horiz-adv-x="812" d="M349 8v345q0 16 -2 30.5t-8 26t-17 18.5t-29 7q-54 0 -87.5 -12.5t-33.5 -20.5v-389q0 -11 -9 -18t-20 -7q-9 0 -23 0.5t-27.5 3t-23 6.5t-9.5 10v444q0 12 18 27t51 28.5t79 22.5t102 9q47 0 70.5 -14t35.5 -30q27 18 75 31t114 13q51 0 80.5 -16.5t44 -42.5t18.5 -59.5 t4 -67.5v-340q0 -11 -9 -18t-20 -7q-9 0 -23 0.5t-27.5 3t-23 6.5t-9.5 10v345q0 16 -2.5 31t-9 26t-18 18t-28.5 7q-27 0 -49 -4t-38 -9t-24.5 -11t-8.5 -10v-388q0 -11 -9.5 -18t-21.5 -7q-8 0 -22 0.5t-27.5 3t-23 6.5t-9.5 10z"/>
<glyph unicode="n" d="M365 8v357q0 38 -12 54t-53 16q-19 0 -41 -4t-41.5 -9t-32.5 -11t-13 -10v-388q0 -14 -9.5 -19.5t-21.5 -5.5q-8 0 -21.5 0.5t-27 3t-23.5 6.5t-10 10v444q0 14 22.5 29.5t59 28t83.5 21t96 8.5q51 0 82 -11t48 -33t22.5 -55.5t5.5 -78.5v-348q0 -14 -10.5 -19.5 t-21.5 -5.5q-8 0 -22 0.5t-27 3t-22.5 6.5t-9.5 10z"/>
<glyph unicode="o" horiz-adv-x="540" d="M53 175v177q0 54 12 90t38 57.5t66.5 30.5t97.5 9h5q58 0 99 -9t67 -30.5t38 -57.5t12 -90v-177q0 -54 -12 -90t-38 -57.5t-67 -30.5t-99 -9h-5q-57 0 -97.5 9t-66.5 30.5t-38 57.5t-12 90zM266 88h8q58 0 79.5 19.5t21.5 66.5v178q0 48 -21.5 67.5t-79.5 19.5h-8 q-58 0 -79.5 -19.5t-21.5 -67.5v-178q0 -48 21.5 -67t79.5 -19z"/>
<glyph unicode="p" horiz-adv-x="533" d="M174 -225q0 -14 -9.5 -20t-21.5 -6q-8 0 -22 0.5t-27.5 3t-23 6.5t-9.5 10v671q0 19 17 34t43 26t57.5 18.5t61 12t53 6.5t34.5 2q46 0 75 -14t45.5 -38.5t23 -58.5t6.5 -73v-181q0 -38 -3.5 -72t-18.5 -59.5t-46 -40t-85 -14.5q-35 0 -76.5 11t-73.5 26v-250zM174 126 q6 -6 19 -12.5t30 -11.5t36 -8.5t38 -3.5q40 0 54 23t14 69v160q0 50 -15.5 73.5t-51.5 23.5q-17 0 -36 -3t-36.5 -7.5t-31.5 -11.5t-20 -14v-277z"/>
<glyph unicode="q" horiz-adv-x="528" d="M439 -250q-8 0 -22 0.5t-27.5 3t-23.5 6.5t-10 10v255q-34 -15 -75.5 -25t-83.5 -10q-52 0 -81 16t-43 42.5t-17 60.5t-3 69v173q0 44 6.5 79t22.5 59t44 37t70 13q11 0 35.5 -2t55 -6t62.5 -11t59 -17t44 -23t17 -30v-675q0 -11 -9.5 -18t-20.5 -7zM356 120v293 q0 5 -13.5 11t-34 10.5t-43.5 7.5t-42 3t-30 -8.5t-17 -22t-8 -31t-2 -35.5v-166q0 -18 2 -36t8 -31.5t17 -22t30 -8.5q44 0 81.5 12t51.5 24z"/>
<glyph unicode="r" horiz-adv-x="376" d="M336 433q-14 2 -28 3.5t-35 1.5q-18 0 -36 -2.5t-33 -6.5t-24 -8t-9 -7v-401q0 -14 -10 -19.5t-21 -5.5q-8 0 -21.5 0.5t-27 3t-23 6.5t-9.5 10v454q0 16 16.5 30.5t45 24.5t66.5 16t81 6q26 0 68 -6q14 -2 18.5 -7t4.5 -19q0 -40 -7 -57.5t-16 -16.5z"/>
<glyph unicode="s" horiz-adv-x="465" d="M79 97q21 -3 51 -6t70 -3q55 0 85.5 11t30.5 41q0 25 -19 40t-48 27.5t-62.5 25.5t-62.5 33t-48 51t-19 79q0 46 17.5 74.5t45.5 43.5t63 20t70 5q59 0 91.5 -2.5t54.5 -7.5q12 -2 15.5 -9.5t3.5 -18.5q0 -33 -8 -51.5t-18 -17.5q-21 2 -46.5 4.5t-63.5 2.5 q-54 0 -83 -10t-29 -36q0 -21 19 -34t48 -25t62 -25t62 -34t48 -53.5t19 -81.5q0 -48 -16.5 -77.5t-45 -46t-65.5 -22.5t-77 -6q-35 0 -82 3t-82 12q-14 4 -16 11.5t0 19.5q4 24 7.5 37t8 19t9 7t10.5 0z"/>
<glyph unicode="t" horiz-adv-x="359" d="M311 423h-104v-270q0 -34 16.5 -49t43.5 -15q14 0 25.5 1.5t22.5 3.5q8 1 13 -6.5t7.5 -19t3.5 -25t1 -23.5q0 -14 -21 -21q-19 -7 -45 -9t-44 -2q-29 0 -53.5 7t-42.5 24t-28.5 45.5t-10.5 72.5v286h-58q-9 0 -15 8t-6 19q0 8 0.5 21t3 26t7 22t12.5 9h56v120 q0 6 9.5 9.5t23 5.5t27.5 2.5t23 0.5q12 0 20.5 -6.5t8.5 -17.5v-114h106q10 0 15.5 -8t5.5 -18q0 -8 -0.5 -21.5t-3 -26.5t-7 -22t-12.5 -9z"/>
<glyph unicode="u" horiz-adv-x="540" d="M365 98v421q0 6 10 10t23.5 6.5t27 3t21.5 0.5q11 0 21 -5.5t10 -19.5v-457q0 -19 -5.5 -25t-15.5 -10q-30 -13 -84.5 -23.5t-120.5 -10.5q-65 0 -103 14t-58 38.5t-26 58.5t-6 75v345q0 6 9.5 10t22.5 6.5t27 3t22 0.5q11 0 21.5 -5.5t10.5 -19.5v-341q0 -45 17 -68.5 t69 -23.5q16 0 35 2t35 5t26.5 5.5t10.5 4.5z"/>
<glyph unicode="v" horiz-adv-x="480" d="M255 185l93 324q5 20 26 25t61 5q35 0 35 -26q0 -9 -3 -18l-170 -481q-9 -26 -32 -26q-8 0 -21 1t-25.5 3.5t-22.5 7t-13 12.5l-170 483q-3 9 -3 18q0 26 36 26q39 0 60 -5t26 -25l93 -324q5 -16 9 -34t6 -37q4 34 15 71z"/>
<glyph unicode="w" horiz-adv-x="756" d="M538 174l91 345q2 7 13.5 11.5t25 6t25.5 2t15 0.5q14 0 25 -4t11 -21q0 -8 -4 -19l-158 -484q-2 -10 -10 -16.5t-20 -6.5q-8 0 -20 0.5t-24 2.5t-21 6t-11 10l-93 317q-2 7 -2.5 10.5t-2.5 15.5q-1 -6 -2.5 -13t-3.5 -13l-93 -313q-3 -10 -11 -16.5t-19 -6.5 q-8 0 -20 0.5t-23.5 2.5t-20.5 5.5t-11 10.5l-159 485q-2 5 -2.5 10t-0.5 9q0 28 36 28q6 0 19 -1t25.5 -3t22.5 -6t12 -10l91 -345q5 -17 6.5 -34t3.5 -33q2 16 3 33t6 34l89 344q2 7 9.5 11t17 6.5t20 3t18.5 0.5q13 0 23 -2.5t12 -10.5l91 -351q5 -17 6.5 -33t3.5 -33 q2 17 4 32.5t7 32.5z"/>
<glyph unicode="x" horiz-adv-x="460" d="M301 269l140 -239q9 -15 9 -23q0 -13 -13 -16t-20 -3q-8 0 -21 1t-26 3t-24 5t-14 8l-102 187l-103 -187q-3 -6 -13.5 -9t-23.5 -5t-26 -2.5t-21 -0.5q-7 0 -20 3.5t-13 16.5q0 7 9 22l140 239l-130 228q-8 15 -8 23q0 13 12 16t20 3t21 -0.5t26 -2t23 -5.5t13 -10 l94 -179l94 179q3 6 13 9.5t23 5.5t26 2.5t21 0.5q4 0 9.5 -0.5t10.5 -2.5t8.5 -5.5t3.5 -10.5q0 -5 -1 -10t-6 -13z"/>
<glyph unicode="y" horiz-adv-x="538" d="M368 519q0 6 10 10t23.5 6.5t27 3t21.5 0.5q22 0 26.5 -18t4.5 -38v-504q0 -51 -9.5 -91t-35 -67.5t-69 -42t-111.5 -14.5q-29 0 -57 1.5t-51.5 4t-40.5 4.5t-25 4q-13 5 -17 10t-4 21q0 39 8 53t18 14q4 0 18.5 -2t35.5 -4t45.5 -4t49.5 -2t48.5 4.5t42 17t30 34.5 t11.5 57v55q-35 -18 -75.5 -31t-86.5 -13q-45 0 -72 13t-41.5 36t-19.5 54.5t-5 69.5v358q0 6 9.5 10t22.5 6.5t27 3t22 0.5q11 0 21 -5.5t10 -19.5v-348q0 -46 14 -60t44 -14q21 0 43.5 4t42 9.5t32 12t12.5 11.5v390z"/>
<glyph unicode="z" horiz-adv-x="459" d="M416 0h-365q-15 0 -19.5 10t-4.5 31q0 30 20 61l221 330h-177q-31 0 -37 17.5t-6 52.5q0 10 5 15t13 7.5t17 3t17 0.5h291q8 0 15.5 -6t7.5 -15q0 -6 -1 -16t-3 -20.5t-5 -21t-7 -16.5l-223 -337h238q8 0 14.5 -7.5t6.5 -18.5q0 -8 -0.5 -19.5t-2.5 -23t-5.5 -19.5 t-9.5 -8z"/>
<glyph unicode="{" horiz-adv-x="401" d="M286 -163q-35 0 -60 11.5t-41 31t-23.5 45t-7.5 54.5v184q0 15 -4 31t-13 30t-23.5 23t-35.5 9q-7 0 -10.5 8t-5.5 18.5t-2.5 21t-0.5 15.5q0 11 5 17.5t14 6.5q42 0 59 27.5t17 65.5v183q0 28 7.5 54t23.5 45.5t41 31t60 11.5q8 0 20 -0.5t23 -3t18.5 -7.5t7.5 -13 q0 -13 -1.5 -27.5t-4.5 -26.5t-7 -20t-8 -8q-29 0 -46 -15.5t-17 -61.5v-136q0 -21 -3.5 -43t-12.5 -41.5t-25.5 -36t-43.5 -26.5q27 -7 43.5 -23t25.5 -35.5t12.5 -41t3.5 -39.5v-136q0 -23 4.5 -38t12.5 -23.5t20 -11.5t26 -3q4 0 8 -8t7 -20t4.5 -26.5t1.5 -27.5 q0 -9 -7.5 -14t-18.5 -7.5t-23 -3t-20 -0.5z"/>
<glyph unicode="|" horiz-adv-x="248" d="M73 -146v865q0 6 9 10t22 6.5t26.5 3t21.5 0.5q12 0 20 -7t8 -18v-855q0 -11 -8 -18t-20 -7q-8 0 -21.5 0.5t-26.5 3t-22 6.5t-9 10z"/>
<glyph unicode="}" horiz-adv-x="395" d="M120 -163q-8 0 -20 0.5t-23 3t-18.5 7.5t-7.5 14q0 13 2 27.5t5 26.5t6.5 20t6.5 8q15 0 26.5 3t20 11.5t13 23.5t4.5 38v28.5t-0.5 24.5t-0.5 32v51q0 18 3.5 39.5t12.5 41t26 35.5t44 23q-27 10 -43.5 26.5t-26 36t-12.5 41.5t-3 43v136q0 47 -17.5 62t-46.5 15 q-3 0 -6.5 8t-6.5 20t-5 26.5t-2 27.5q0 8 7.5 13t18.5 7.5t23 3t20 0.5q35 0 60 -11.5t41 -31t23.5 -45.5t7.5 -54v-183q0 -38 17 -65.5t59 -27.5q8 0 13.5 -6.5t5.5 -17.5q0 -5 -0.5 -15.5t-2.5 -21t-5.5 -18.5t-10.5 -8q-21 0 -35.5 -9t-24 -23t-13.5 -30t-4 -31v-184 q0 -29 -7.5 -54.5t-23.5 -45t-41 -31t-59 -11.5z"/>
<glyph unicode="~" horiz-adv-x="506" d="M175 359q22 -1 39.5 -9.5t34 -18.5t32.5 -18t34 -8q9 0 18.5 2.5t17.5 8.5t14 15.5t6 21.5q0 6 13.5 10t30.5 4q20 0 36.5 -6.5t15.5 -20.5q-2 -39 -17 -65.5t-36.5 -43t-46 -23t-45.5 -5.5q-22 1 -39.5 9t-33.5 17.5t-32 17.5t-35 9q-8 0 -18 -2.5t-18 -8t-13.5 -14.5 t-5.5 -22q0 -4 -12 -9t-33 -5q-20 0 -36.5 6.5t-15.5 20.5q3 38 17.5 64.5t35.5 43t45.5 23.5t46.5 6z"/>
<glyph horiz-adv-x="0"/>
<glyph unicode="¡" horiz-adv-x="232" d="M62 -212v508q0 6 9.5 10t23 6.5t27.5 3t23 0.5q12 0 21.5 -7t9.5 -19v-496q0 -11 -9.5 -18.5t-21.5 -7.5q-9 0 -23 1t-27.5 3t-23 6t-9.5 10zM61 402v118q0 6 9.5 9.5t23 6t27.5 3t23 0.5q12 0 21.5 -7t9.5 -19v-105q0 -11 -9.5 -18.5t-21.5 -7.5q-9 0 -23 0.5t-27.5 3 t-23 6.5t-9.5 10z"/>
<glyph unicode="¢" horiz-adv-x="453" d="M207 -97v88q-82 10 -118 57.5t-36 147.5v135q0 97 35.5 145t118.5 59v96q0 7 9 11t22 6t26.5 3t21.5 1q12 0 20 -7t8 -18v-89q27 -2 50.5 -5.5t31.5 -5.5q10 -3 16 -8t5 -22q0 -9 -1.5 -20.5t-4.5 -21.5t-8 -16.5t-12 -6.5q-4 0 -14.5 2t-25 4t-31.5 3.5t-34 1.5 q-68 0 -94 -28.5t-26 -85.5v-130q0 -60 25.5 -87t91.5 -27q24 0 55 3t54 6q7 0 11 -5t6 -13t3 -17.5t1 -18.5q1 -21 -4 -28.5t-19 -10.5q-10 -2 -30 -5.5t-46 -5.5v-82q0 -11 -8 -18t-20 -7q-8 0 -21.5 0.5t-26.5 2.5t-22 6t-9 11z"/>
<glyph unicode="£" horiz-adv-x="570" d="M379 323h-72q6 -35 6 -68q0 -15 -4.5 -35t-14.5 -41.5t-24.5 -41.5t-33.5 -33h294q11 0 18 -8.5t7 -19.5q0 -8 -1 -21t-3 -25.5t-6 -21.5t-10 -9h-458q-10 0 -16 8t-6 22q0 16 3 35t11 24q25 16 47.5 33t39 37t26 45t9.5 57q0 16 -1.5 31.5t-3.5 31.5h-94q-9 0 -14 8 t-5 19q0 8 0.5 21t2.5 26t6 22t12 9h75q-2 17 -3.5 34t-1.5 34v36q0 56 16.5 94.5t46 62t69.5 33.5t87 10q32 0 64.5 -6.5t68.5 -17.5q17 -5 17 -21q0 -6 -3.5 -18t-8.5 -24t-12 -21t-13 -10q-24 5 -48.5 10t-53.5 5q-22 0 -42 -4t-35.5 -15t-24.5 -30t-9 -48v-36 q0 -17 1.5 -34t3.5 -34h92q10 0 15 -8t5 -18q0 -8 -0.5 -21.5t-2.5 -26.5t-6.5 -22t-11.5 -9z"/>
<glyph unicode="¤" horiz-adv-x="617" d="M126 28l-73 68l58 55q-33 50 -33 113q0 32 9 61t26 54l-59 58l73 68l54 -53q27 17 58.5 27.5t66.5 10.5t67.5 -10.5t59.5 -28.5l58 54l73 -68l-64 -61q33 -50 33 -112t-33 -112l63 -56l-75 -68l-55 50q-27 -18 -59.5 -28t-67.5 -10q-70 0 -126 39zM183 265q0 -26 9.5 -48 t26.5 -39t39 -26.5t48 -9.5q25 0 47.5 9.5t39 26.5t26.5 39t10 48q0 25 -10 47.5t-26.5 39.5t-39 26.5t-47.5 9.5q-26 0 -48 -9.5t-39 -26.5t-26.5 -39.5t-9.5 -47.5z"/>
<glyph unicode="¥" horiz-adv-x="630" d="M505 117h-130v-102q0 -12 -9 -19.5t-22 -7.5q-9 0 -23.5 1t-29 3t-25 6.5t-10.5 10.5v108h-133q-8 0 -12.5 7t-4.5 15q0 7 0.5 18t2.5 21.5t5.5 18t10.5 7.5h131v53h-133q-8 0 -12.5 7t-4.5 15q0 7 0.5 17.5t2.5 21t5.5 18t10.5 7.5h101l-186 342q-14 25 -5.5 35.5 t31.5 10.5q8 0 22 -1t28.5 -3.5t26.5 -7t16 -12.5l156 -296l156 296q4 8 16 12.5t26.5 7t28.5 3.5t22 1q23 0 31.5 -10.5t-5.5 -35.5l-185 -342h102q8 0 12.5 -6.5t4.5 -15.5q0 -6 -0.5 -17t-2.5 -21.5t-5.5 -18t-10.5 -7.5h-130v-53h131q8 0 12.5 -7t4.5 -15q0 -7 -0.5 -18 t-2 -21.5t-5.5 -18t-10 -7.5z"/>
<glyph unicode="¦" horiz-adv-x="248" d="M73 382v358q0 6 9 9.5t22 6t26.5 3t21.5 0.5q12 0 20 -6.5t8 -17.5v-348q0 -11 -8 -17.5t-20 -6.5q-8 0 -21.5 0.5t-26.5 2.5t-22 6t-9 10zM73 -93v358q0 6 9 9.5t22 5.5t26.5 2.5t21.5 0.5q12 0 20 -6t8 -17v-348q0 -11 -8 -17.5t-20 -6.5q-8 0 -21.5 0.5t-26.5 2.5 t-22 6t-9 10z"/>
<glyph unicode="§" horiz-adv-x="465" d="M79 56q21 -3 51 -6t70 -3q55 0 85.5 11t30.5 41q0 16 -8 27.5t-22 21t-32.5 17t-38.5 15.5q-17 0 -37.5 0.5t-41 2.5t-40.5 4.5t-36 7.5q-14 4 -16 11.5t0 19.5q5 33 10.5 46.5t14.5 16.5q-12 27 -12 66q0 43 14.5 70t39.5 43q-24 20 -39 48.5t-15 71.5q0 46 17.5 74.5 t45.5 43.5t63 20t70 5q59 0 91.5 -2.5t54.5 -7.5q12 -2 15.5 -9.5t3.5 -18.5q0 -33 -8 -51.5t-18 -17.5q-21 2 -46.5 4.5t-63.5 2.5q-54 0 -83 -10t-29 -36q0 -17 12 -28t31.5 -20.5t44 -18.5t50.5 -21q32 -1 53.5 -3.5t37.5 -5.5q12 -2 15.5 -9.5t3.5 -18.5q0 -31 -8 -50 q8 -16 13 -35.5t5 -42.5q0 -42 -12.5 -70t-35.5 -45q21 -20 34.5 -48.5t13.5 -69.5q0 -48 -16.5 -77.5t-45 -46t-65.5 -22.5t-77 -6q-35 0 -82 3t-82 12q-14 4 -16 11.5t0 19.5q4 24 7.5 37t8 19t9 7t10.5 0zM170 352q0 -13 7 -22.5t19 -17t28.5 -14.5t34.5 -14q27 5 42 16 t15 32q0 23 -18 38t-45 27q-41 -2 -62 -12t-21 -33z"/>
<glyph unicode="¨" horiz-adv-x="267" d="M163 644v98q0 6 9.5 10t23 6t27.5 3t23 1q14 0 22.5 -7.5t8.5 -19.5v-84q0 -12 -8.5 -20t-22.5 -8q-9 0 -23 1t-27.5 3t-23 6.5t-9.5 10.5zM-10 644v98q0 6 9.5 10t22.5 6t27.5 3t23.5 1q14 0 22.5 -7.5t8.5 -19.5v-84q0 -12 -8.5 -20t-22.5 -8q-9 0 -23.5 1t-27.5 3 t-22.5 6.5t-9.5 10.5z"/>
<glyph unicode="©" horiz-adv-x="832" d="M415 -13q-92 0 -160.5 31t-113.5 82t-67.5 116t-22.5 133q0 69 23.5 136t69 119.5t114 84.5t158.5 32q91 0 159.5 -31t114 -81.5t68 -115.5t22.5 -133q0 -70 -23 -137t-69 -119.5t-114.5 -84.5t-158.5 -32zM415 46q75 0 131 27t93.5 71.5t56 100.5t17.5 114 q0 57 -19 111.5t-56 97t-92.5 68.5t-129.5 26t-129.5 -27t-93 -71t-56.5 -100t-19 -114q0 -57 18.5 -112t55 -97.5t92.5 -68.5t131 -26zM334 398v-88q0 -54 18.5 -79t75.5 -25h4q26 0 48.5 4.5t45.5 10.5q4 1 10 -7.5t10.5 -19.5t8 -22t3.5 -14q0 -10 -15 -17t-35.5 -11.5 t-42 -6.5t-33.5 -2h-4q-49 0 -85 9t-60 29t-36 53.5t-12 83.5v118q0 49 12 82.5t36 53.5t60 29t85 9h4q12 0 33.5 -2t42 -6.5t35.5 -11.5t15 -17q0 -4 -3.5 -15t-8 -22t-10.5 -19.5t-10 -6.5q-21 6 -46 9.5t-48 3.5h-4q-57 0 -75.5 -24t-18.5 -79z"/>
<glyph unicode="ª" horiz-adv-x="498" d="M343 600v-225q0 -13 -37.5 -28.5t-110.5 -15.5q-80 0 -113.5 30t-33.5 93q0 54 23.5 83.5t92.5 29.5q27 0 54 -4.5t46 -9.5v46q0 32 -18.5 47.5t-67.5 15.5q-24 0 -51 -3.5t-41 -5.5q-6 0 -10 5.5t-5.5 13t-2.5 15t-1 11.5q0 11 2 15t7 6q11 3 45.5 7.5t74.5 4.5 q37 0 64.5 -5.5t46 -20t27.5 -40t9 -65.5zM264 404v89q-3 1 -12 3.5t-20 5t-24 4t-23 1.5q-31 0 -44.5 -11.5t-13.5 -46.5q0 -33 14.5 -45.5t50.5 -12.5q19 0 41.5 4t30.5 9z"/>
<glyph unicode="«" horiz-adv-x="576" d="M402 285l110 -147q23 -30 26.5 -47t-16.5 -25q-11 -4 -26 -3.5t-30.5 5t-29.5 12t-21 16.5l-152 189l161 201q9 11 29.5 17t40.5 6q16 0 28 -5q12 -3 13.5 -13t-4.5 -23.5t-17 -30t-23 -32.5zM166 285l115 -147q23 -29 27 -46.5t-17 -25.5q-11 -4 -26 -3.5t-30.5 5 t-29 12t-20.5 16.5l-158 189l167 201q6 7 18.5 12.5t26.5 8.5t28.5 2t23.5 -5q12 -3 13.5 -13t-4 -23.5t-16.5 -30t-24 -32.5z"/>
<glyph unicode="¬" horiz-adv-x="634" d="M60 407h514v-282h-104v181h-410v101z"/>
<glyph unicode="­" horiz-adv-x="380" d="M317 238h-244q-9 0 -14.5 8.5t-5.5 18.5q0 8 0.5 21t2.5 26t6 22t12 9h245q9 0 14 -8t5 -18q0 -8 -0.5 -21.5t-2.5 -26t-6 -22t-12 -9.5z"/>
<glyph unicode="®" horiz-adv-x="832" d="M415 -13q-92 0 -160.5 31t-113.5 82t-67.5 116t-22.5 133q0 69 23.5 136t69 119.5t114 84.5t158.5 32q91 0 159.5 -31t114 -81.5t68 -115.5t22.5 -133q0 -70 -23 -137t-69 -119.5t-114.5 -84.5t-158.5 -32zM415 46q75 0 131 27t93.5 71.5t56 100.5t17.5 114 q0 57 -19 111.5t-56 97t-92.5 68.5t-129.5 26t-129.5 -27t-93 -71t-56.5 -100t-19 -114q0 -57 18.5 -112t55 -97.5t92.5 -68.5t131 -26zM260 137v429q0 8 7.5 12.5t15.5 4.5h145q44 0 76.5 -5.5t53.5 -21t31 -43t10 -70.5v-18q0 -60 -19 -89.5t-62 -41.5l83 -138 q8 -14 8 -21q0 -5 -4 -7.5t-9.5 -4t-10.5 -2t-7 -0.5q-6 0 -17.5 0.5t-23 2t-21 5t-12.5 8.5l-89 148h-59v-148q0 -8 -7.5 -12t-15.5 -4q-6 0 -18.5 0.5t-24.5 2t-21 4.5t-9 9zM428 496h-72v-124h72q23 0 37.5 2t22 7.5t10 16t2.5 27.5v18q0 17 -2.5 27.5t-10 16t-22 7.5 t-37.5 2z"/>
<glyph unicode="¯" horiz-adv-x="299" d="M248 651h-198q-8 0 -15.5 7t-7.5 15t0.5 19t2.5 21t5.5 17t10.5 7h201q8 0 16 -6.5t8 -15.5q0 -8 -1 -19t-3.5 -21t-7 -17t-11.5 -7z"/>
<glyph unicode="°" horiz-adv-x="443" d="M221 792q38 0 66.5 -12.5t47 -33.5t28 -47.5t9.5 -53.5t-9.5 -53t-28.5 -46.5t-47.5 -33t-65.5 -12.5q-38 0 -66 12.5t-47 33.5t-28.5 47t-9.5 53t10 53.5t29 47t47 33t65 12.5zM222 702q-29 0 -43 -17.5t-15 -37.5q-1 -21 13 -38.5t43 -17.5q29 -1 43.5 16.5t14.5 38.5 q0 20 -14 38t-42 18z"/>
<glyph unicode="±" horiz-adv-x="644" d="M276 109v179h-181q-9 0 -14.5 8.5t-5.5 18.5q0 8 0.5 21.5t2.5 26t6.5 22t12.5 9.5h179v180q0 9 8 14.5t19 5.5q8 0 21 -0.5t26 -2.5t22 -6.5t9 -12.5v-178h180q10 0 15 -8t5 -19q0 -8 -0.5 -21.5t-2.5 -26t-6.5 -22t-12.5 -9.5h-178v-181q0 -9 -8 -14t-18 -5 q-8 0 -21.5 0.5t-26.5 2.5t-22 6t-9 12zM565 -63h-485q-10 0 -15 8.5t-5 18.5q0 8 0.5 21.5t2.5 26t6.5 22t12.5 9.5h485q10 0 15 -8t5 -19q0 -8 -0.5 -21.5t-2.5 -26t-6.5 -22t-12.5 -9.5z"/>
<glyph unicode="²" horiz-adv-x="355" d="M335 400h-290q-11 0 -13.5 9t-2.5 14q0 4 1 14t3 21t4.5 20.5t5.5 13.5q60 58 95.5 96t54 62t24 37t5.5 23q0 21 -17 28t-42 7q-18 0 -37.5 -2.5t-38.5 -4.5q-5 -1 -9.5 6.5t-8 18t-6.5 21t-4 15.5q-2 8 0 16t10 10q36 8 59 10.5t39 2.5q33 0 62 -7t50.5 -22t34.5 -39.5 t13 -59.5q0 -14 -5.5 -31.5t-21.5 -42.5t-45.5 -60t-77.5 -84h157q7 0 11.5 -8t4.5 -16q0 -6 -0.5 -17.5t-2 -22.5t-4.5 -19.5t-8 -8.5z"/>
<glyph unicode="³" horiz-adv-x="345" d="M54 491q17 -4 37 -5.5t37 -1.5q39 0 57 14.5t22 32.5q1 8 0 17t-7.5 16.5t-19.5 12t-35 4.5h-24q-6 0 -9.5 5.5t-6 13.5t-3.5 16.5t-1 14.5q0 9 4 16.5t12 7.5h20q19 0 31.5 5t20 13t10 16.5t2.5 16.5q-1 15 -14.5 28t-55.5 13q-18 0 -32.5 -1.5t-37.5 -5.5q-6 -1 -11 8 t-8.5 21t-6 23.5t-2.5 16.5q0 9 9.5 14.5t23.5 9t31 4.5t32 1q40 0 72.5 -6t55.5 -20.5t35.5 -38.5t12.5 -60v-15q0 -15 -5 -27.5t-12.5 -22t-17 -15.5t-17.5 -8q9 -2 19.5 -7.5t19.5 -15t15 -24.5t6 -36v-26q0 -35 -16 -58.5t-42 -38t-58.5 -20.5t-65.5 -6q-11 0 -29 1 t-35 4.5t-29.5 9.5t-12.5 15q0 3 2.5 14t6 23t9 21.5t11.5 9.5z"/>
<glyph unicode="´" horiz-adv-x="305" d="M7 690l89 123q4 6 15 6t23.5 -3t23.5 -7t16 -7q23 -13 26 -21.5t0 -12.5l-103 -90q-8 -8 -24.5 -9.5t-35.5 0.5q-17 1 -27.5 5.5t-2.5 15.5z"/>
<glyph unicode="µ" d="M365 98v421q0 6 10 10t23.5 6.5t27 3t21.5 0.5q11 0 21 -5.5t10 -19.5v-457q0 -19 -5.5 -25t-15.5 -10q-30 -13 -84.5 -23.5t-120.5 -10.5q-46 0 -81 8v-205q0 -11 -9 -18t-21 -7q-8 0 -22 0.5t-27.5 3t-23 6.5t-9.5 10v733q0 6 9.5 10t22.5 6.5t27 3t22 0.5 q11 0 21.5 -5.5t10.5 -19.5v-341q0 -45 17 -68.5t69 -23.5q16 0 35 2t35 5t26.5 5.5t10.5 4.5z"/>
<glyph unicode="¶" horiz-adv-x="575" d="M371 15q0 -12 -9.5 -19.5t-21.5 -7.5q-9 0 -24 1t-29.5 3t-25 6.5t-10.5 10.5v309q-51 0 -89.5 17.5t-64 46.5t-38 65.5t-12.5 75.5t12 76t36 66.5t60 47.5t84 18h262q13 0 22 -8t9 -19v-689q0 -12 -9 -19.5t-22 -7.5q-9 0 -24 1t-29.5 3t-25 6.5t-10.5 10.5v602h-41 v-596z"/>
<glyph unicode="·" horiz-adv-x="279" d="M83 214v117q0 6 9.5 10t23 6.5t27.5 3t23 0.5q14 0 22 -7.5t8 -18.5v-105q0 -12 -8 -19t-22 -7q-9 0 -23 0.5t-27.5 3t-23 6.5t-9.5 10z"/>
<glyph unicode="¸" horiz-adv-x="259" d="M68 -47l29 55h58l-20 -32q34 -5 54.5 -25.5t15.5 -55.5q-5 -36 -28 -52.5t-53 -22.5q-6 -1 -16.5 -2t-21.5 -1q-20 0 -37.5 3.5t-22.5 11.5q-1 4 0 11t4.5 14t10 11.5t16.5 2.5q7 -2 14.5 -4t15.5 -2q26 0 37 13.5t11 28.5t-12.5 20t-27 7t-24 5t-3.5 14z"/>
<glyph unicode="¹" horiz-adv-x="299" d="M219 413q0 -8 -8 -14t-18 -6q-6 0 -18.5 0.5t-25 2.5t-22.5 5.5t-10 9.5v298q-16 -12 -33 -12q-14 0 -24.5 6.5t-18.5 14.5q-9 11 -10.5 21.5t6.5 17.5l91 75q6 5 15.5 7t18.5 2t17 -1t11 -2q9 -1 19 -6t10 -9v-410z"/>
<glyph unicode="º" horiz-adv-x="387" d="M38 469v127q0 39 8.5 65t27.5 41.5t48 22t70 6.5h4q42 0 71 -6.5t48 -22t27.5 -41.5t8.5 -65v-127q0 -39 -8.5 -65t-27.5 -41.5t-48 -22t-71 -6.5h-4q-41 0 -70 6.5t-48 22t-27.5 41.5t-8.5 65zM192 406h5q42 0 57.5 14t15.5 48v128q0 35 -15.5 49t-57.5 14h-5 q-42 0 -57.5 -14t-15.5 -49v-128q0 -34 15.5 -48t57.5 -14z"/>
<glyph unicode="»" horiz-adv-x="576" d="M286 126l115 147l-94 120q-13 16 -24 32.5t-17 30t-4.5 23.5t13.5 13q9 4 23.5 5t28.5 -2t27 -8.5t19 -12.5l167 -201l-158 -189q-8 -9 -21.5 -16.5t-29 -12t-31 -5t-25.5 3.5q-20 8 -16 25t27 47zM55 126l109 147l-88 120q-12 17 -23 33t-17 29.5t-4.5 23.5t13.5 13 q9 4 23 5t28.5 -2t27 -8.5t18.5 -12.5l161 -201l-152 -189q-8 -9 -21 -16.5t-28.5 -12t-30.5 -5t-26 3.5q-20 8 -16.5 25t26.5 47z"/>
<glyph unicode="¼" horiz-adv-x="1005" d="M703 726q9 -5 14.5 -13t3.5 -16l-28 -51l-371 -673q-4 -6 -15 -7t-22 4q-6 2 -16 7.5t-20 12t-15.5 14t-2.5 13.5l401 725q2 6 11 5.5t20.5 -4t22.5 -9zM795 88h-178q-6 0 -9 7t-3 14q0 11 2.5 32t11.5 33l202 260q3 3 10 5t16 3t17 1.5t13 0.5q7 0 13.5 -2.5t6.5 -8.5 v-253h37q8 0 13 -7.5t5 -16.5q0 -6 -0.5 -17.5t-2 -22.5t-4.5 -19.5t-9 -8.5h-39v-72q0 -8 -8.5 -12.5t-17.5 -4.5q-6 0 -19 0.5t-25.5 2t-22 5t-9.5 9.5v72zM244 335q0 -8 -8 -14t-18 -6q-6 0 -18.5 0.5t-25 2.5t-22.5 5.5t-10 9.5v298q-16 -12 -33 -12q-14 0 -24.5 6.5 t-18.5 14.5q-9 11 -10.5 21.5t6.5 17.5l91 75q6 5 15.5 7t18.5 2t17 -1t11 -2q9 -1 19 -6t10 -9v-410zM803 164v148l-111 -148h111z"/>
<glyph unicode="½" horiz-adv-x="968" d="M676 731q8 -5 14 -13t5 -16q-7 -13 -14.5 -25.5t-14.5 -25.5l-373 -672q-5 -8 -15.5 -11.5t-21.5 1.5q-8 3 -19.5 9t-21 12t-15.5 12t-3 11l406 734q3 5 12.5 4.5t20.5 -3.5t22.5 -8t17.5 -9zM244 325q0 -8 -8 -14t-18 -6q-6 0 -18.5 0.5t-25 2.5t-22.5 5.5t-10 9.5v298 q-16 -12 -33 -12q-14 0 -24.5 6.5t-18.5 14.5q-9 11 -10.5 21.5t6.5 17.5l91 75q6 5 15.5 7t18.5 2t17 -1t11 -2q9 -1 19 -6t10 -9v-410zM900 6h-290q-11 0 -13.5 9t-2.5 14q0 4 1 14t3 21t4.5 20.5t5.5 13.5q60 58 95.5 96t54 62t24 37t5.5 23q0 21 -17 28t-42 7 q-18 0 -37.5 -2.5t-38.5 -4.5q-5 -1 -9.5 6.5t-8 18t-6.5 21t-4 15.5q-2 8 0 16t10 10q36 8 59 10.5t39 2.5q33 0 62 -7t50.5 -22t34.5 -39.5t13 -59.5q0 -14 -5.5 -31.5t-21.5 -42.5t-45.5 -60t-77.5 -84h157q7 0 11.5 -8t4.5 -16q0 -6 -0.5 -17.5t-2 -22.5t-4.5 -19.5 t-8 -8.5z"/>
<glyph unicode="¾" horiz-adv-x="1013" d="M727 726q9 -5 14.5 -13t3.5 -16l-28 -51l-371 -673q-4 -6 -15 -7t-22 4q-6 2 -16 7.5t-20 12t-15.5 14t-2.5 13.5l401 725q2 6 11 5.5t20.5 -4t22.5 -9zM803 88h-178q-6 0 -9 7t-3 14q0 11 2.5 32t11.5 33l202 260q3 3 10 5t16 3t17 1.5t13 0.5q7 0 13.5 -2.5t6.5 -8.5 v-253h37q8 0 13 -7.5t5 -16.5q0 -6 -0.5 -17.5t-2 -22.5t-4.5 -19.5t-9 -8.5h-39v-72q0 -8 -8.5 -12.5t-17.5 -4.5q-6 0 -19 0.5t-25.5 2t-22 5t-9.5 9.5v72zM82 413q17 -4 37 -5.5t37 -1.5q39 0 57 14.5t22 32.5q1 8 0 17t-7.5 16.5t-19.5 12t-35 4.5h-24q-6 0 -9.5 5.5 t-6 13.5t-3.5 16.5t-1 14.5q0 9 4 16.5t12 7.5h20q19 0 31.5 5t20 13t10 16.5t2.5 16.5q-1 15 -14.5 28t-55.5 13q-18 0 -32.5 -1.5t-37.5 -5.5q-6 -1 -11 8t-8.5 21t-6 23.5t-2.5 16.5q0 9 9.5 14.5t23.5 9t31 4.5t32 1q40 0 72.5 -6t55.5 -20.5t35.5 -38.5t12.5 -60v-15 q0 -15 -5 -27.5t-12.5 -22t-17 -15.5t-17.5 -8q9 -2 19.5 -7.5t19.5 -15t15 -24.5t6 -36v-26q0 -35 -16 -58.5t-42 -38t-58.5 -20.5t-65.5 -6q-11 0 -29 1t-35 4.5t-29.5 9.5t-12.5 15q0 3 2.5 14t6 23t9 21.5t11.5 9.5zM811 164v148l-111 -148h111z"/>
<glyph unicode="¿" horiz-adv-x="492" d="M339 325v-70q0 -41 -25 -81t-55.5 -77.5t-55.5 -72t-25 -63.5q0 -51 29.5 -68t83.5 -17q42 0 70 4.5t50 8.5q6 1 11.5 -7t9.5 -19.5t7 -23t5 -17.5q7 -25 -19 -31q-29 -7 -60.5 -12t-73.5 -5q-47 0 -89 7.5t-74 28t-51 55t-19 88.5q0 32 12.5 60.5t31 54t40.5 49 t40.5 46.5t31 45.5t12.5 46.5v55q0 14 5 24t20 12q10 0 25 -1t29 -3t24 -6t10 -11zM339 523v-103q0 -6 -9.5 -10.5t-23 -6.5t-27.5 -3t-23 -1q-23 0 -27 13.5t-4 31.5v54q0 19 4 32t27 13q9 0 23.5 -0.5t27.5 -3t22.5 -6.5t9.5 -10z"/>
<glyph unicode="À" horiz-adv-x="613" d="M497 12l-56 169h-246l-59 -172q-5 -15 -30.5 -18t-54.5 -3q-14 0 -26 4.5t-12 17.5q0 2 0.5 4t1.5 5l245 691q2 7 12.5 11t24 6t28 3t25.5 1q8 0 16 -5.5t12 -16.5l242 -690q1 -3 1.5 -5t0.5 -4q0 -13 -12.5 -17.5t-25.5 -4.5q-33 0 -57.5 3.5t-29.5 20.5zM311 541 l-85 -256h184l-85 256q-3 8 -4.5 17.5t-3.5 17.5q-2 -8 -2.5 -17.5t-3.5 -17.5zM265 900l63 -89q22 -32 20.5 -41.5t-12.5 -9.5q-26 0 -38.5 3.5t-28.5 17.5l-101 86q-15 12 -14.5 21.5t10.5 15.5t26.5 9t33.5 3q11 0 22.5 -3t18.5 -13z"/>
<glyph unicode="Á" horiz-adv-x="613" d="M497 12l-56 169h-246l-59 -172q-5 -15 -30.5 -18t-54.5 -3q-14 0 -26 4.5t-12 17.5q0 2 0.5 4t1.5 5l245 691q2 7 12.5 11t24 6t28 3t25.5 1q8 0 16 -5.5t12 -16.5l242 -690q1 -3 1.5 -5t0.5 -4q0 -13 -12.5 -17.5t-25.5 -4.5q-33 0 -57.5 3.5t-29.5 20.5zM311 541 l-85 -256h184l-85 256q-3 8 -4.5 17.5t-3.5 17.5q-2 -8 -2.5 -17.5t-3.5 -17.5zM241 779l89 123q4 6 15 6t23.5 -3t23.5 -7t16 -7q23 -13 26 -21.5t0 -12.5l-103 -90q-8 -8 -24.5 -9.5t-35.5 0.5q-17 1 -27.5 5.5t-2.5 15.5z"/>
<glyph unicode="Â" horiz-adv-x="613" d="M497 12l-56 169h-246l-59 -172q-5 -15 -30.5 -18t-54.5 -3q-14 0 -26 4.5t-12 17.5q0 2 0.5 4t1.5 5l245 691q2 7 12.5 11t24 6t28 3t25.5 1q8 0 16 -5.5t12 -16.5l242 -690q1 -3 1.5 -5t0.5 -4q0 -13 -12.5 -17.5t-25.5 -4.5q-33 0 -57.5 3.5t-29.5 20.5zM311 541 l-85 -256h184l-85 256q-3 8 -4.5 17.5t-3.5 17.5q-2 -8 -2.5 -17.5t-3.5 -17.5zM172 788q-5 6 -6 13t7 12l119 82q5 4 10 4t10 -4l121 -82q6 -5 6.5 -12t-5.5 -13q-14 -15 -25.5 -23.5t-15.5 -4.5l-91 44l-89 -44q-3 -2 -8.5 0.5t-11.5 7.5t-12 10.5t-9 9.5z"/>
<glyph unicode="Ã" horiz-adv-x="616" d="M499 12l-56 169h-246l-59 -172q-5 -15 -30.5 -18t-54.5 -3q-14 0 -26 4.5t-12 17.5q0 2 0.5 4t1.5 5l245 691q2 7 12.5 11t24 6t28 3t25.5 1q8 0 16 -5.5t12 -16.5l242 -690q1 -3 1.5 -5t0.5 -4q0 -13 -12.5 -17.5t-25.5 -4.5q-33 0 -57.5 3.5t-29.5 20.5zM313 541 l-85 -256h184l-85 256q-3 8 -4.5 17.5t-3.5 17.5q-2 -8 -2.5 -17.5t-3.5 -17.5zM267 868q13 -1 23 -5t19 -9t17.5 -9t18.5 -4q9 -1 21.5 5t12.5 18q0 5 9.5 7.5t20.5 2.5q14 0 26 -4.5t11 -15.5q-2 -27 -11.5 -45.5t-23.5 -30t-29.5 -16t-29.5 -3.5q-13 1 -22.5 5t-18.5 9 t-18 9t-19 4q-10 1 -22 -4.5t-12 -18.5q0 -5 -9 -7.5t-21 -2.5q-14 0 -26 4.5t-11 15.5q1 27 11 45.5t23.5 29.5t29.5 16t30 4z"/>
<glyph unicode="Ä" horiz-adv-x="613" d="M497 12l-56 169h-246l-59 -172q-5 -15 -30.5 -18t-54.5 -3q-14 0 -26 4.5t-12 17.5q0 2 0.5 4t1.5 5l245 691q2 7 12.5 11t24 6t28 3t25.5 1q8 0 16 -5.5t12 -16.5l242 -690q1 -3 1.5 -5t0.5 -4q0 -13 -12.5 -17.5t-25.5 -4.5q-33 0 -57.5 3.5t-29.5 20.5zM311 541 l-85 -256h184l-85 256q-3 8 -4.5 17.5t-3.5 17.5q-2 -8 -2.5 -17.5t-3.5 -17.5zM331 777v98q0 6 9.5 10t23 6t27.5 3t23 1q14 0 22.5 -7.5t8.5 -19.5v-84q0 -12 -8.5 -20t-22.5 -8q-9 0 -23 1t-27.5 3t-23 6.5t-9.5 10.5zM158 777v98q0 6 9.5 10t22.5 6t27.5 3t23.5 1 q14 0 22.5 -7.5t8.5 -19.5v-84q0 -12 -8.5 -20t-22.5 -8q-9 0 -23.5 1t-27.5 3t-22.5 6.5t-9.5 10.5z"/>
<glyph unicode="Å" horiz-adv-x="616" d="M499 12l-56 169h-246l-59 -172q-5 -15 -30.5 -18t-54.5 -3q-14 0 -26 4.5t-12 17.5q0 2 0.5 4t1.5 5l239 674q-33 13 -50 40t-17 60q0 22 8 42t23 35t37 24t51 9q57 0 88.5 -33t31.5 -78q0 -26 -12 -49.5t-35 -38.5l241 -685q1 -3 1.5 -5t0.5 -4q0 -13 -12.5 -17.5 t-25.5 -4.5q-33 0 -57.5 3.5t-29.5 20.5zM313 541l-85 -256h184l-85 256q-3 8 -4.5 17.5t-3.5 17.5q-2 -8 -2.5 -17.5t-3.5 -17.5zM308 750q23 0 35 13.5t12 30.5t-12 31t-35 14t-35 -14t-12 -31t12 -30.5t35 -13.5z"/>
<glyph unicode="Æ" horiz-adv-x="974" d="M465 20v157h-217l-92 -157q-6 -10 -18.5 -15.5t-27.5 -8.5t-29 -3.5t-22 -0.5q-7 0 -15 1.5t-13.5 5.5t-7 10t4.5 15l24 38l383 615q17 28 31.5 35t29.5 7h405q11 0 17.5 -8t6.5 -21q0 -9 -0.5 -22t-3 -25.5t-6 -21.5t-9.5 -9h-320v-193h276q11 0 17.5 -8t6.5 -20 q0 -9 -0.5 -22t-3 -26t-6 -22t-9.5 -9h-281v-205h315q11 0 17.5 -8t6.5 -21q0 -9 -0.5 -22t-3 -25.5t-6 -21.5t-9.5 -9h-393q-7 0 -15.5 2t-15.5 5t-12 6.5t-5 6.5zM311 284h154v264z"/>
<glyph unicode="Ç" horiz-adv-x="570" d="M272 -48l19 37q-60 4 -104.5 20.5t-74.5 48.5t-44.5 82t-14.5 121v197q0 77 17.5 129t53.5 84t90 46t127 14h8q20 0 49.5 -2t57 -6.5t47 -11.5t19.5 -16q0 -16 -1 -30.5t-4 -25.5t-7 -17.5t-10 -5.5q-17 2 -56.5 8t-82.5 6h-8q-56 0 -90.5 -10.5t-53.5 -33t-26 -59 t-7 -87.5v-161q0 -51 6.5 -87.5t25.5 -59t52.5 -33t86.5 -10.5h8q45 0 81 5.5t58 9.5q8 1 13.5 -7t8.5 -20t4.5 -26t1.5 -26q0 -10 -19 -17t-46 -11.5t-57.5 -6.5t-52.5 -2l-8 -13q34 -5 54.5 -25.5t15.5 -55.5q-5 -36 -28 -52.5t-53 -22.5q-6 -1 -16.5 -2t-21.5 -1 q-20 0 -37.5 3.5t-22.5 11.5q-1 4 0 11t4.5 14t10 11.5t16.5 2.5q7 -2 14.5 -4t15.5 -2q26 0 37 13.5t11 28.5t-12.5 20t-27 7t-24 5t-3.5 14z"/>
<glyph unicode="È" horiz-adv-x="567" d="M66 20v674q0 13 9 19.5t22 6.5h401q11 0 18.5 -9t7.5 -20q0 -8 -1 -21.5t-3 -26t-6 -21.5t-10 -9h-318v-194h274q10 0 17.5 -8.5t7.5 -19.5q0 -8 -1 -21.5t-3 -26.5t-6 -22t-10 -9h-279v-205h312q11 0 18.5 -8.5t7.5 -20.5q0 -8 -1 -21t-3 -26t-6 -22t-10 -9h-393 q-14 0 -29.5 6.5t-15.5 13.5zM257 901l63 -89q22 -32 20.5 -41.5t-12.5 -9.5q-26 0 -38.5 3.5t-28.5 17.5l-101 86q-15 12 -14.5 21.5t10.5 15.5t26.5 9t33.5 3q11 0 22.5 -3t18.5 -13z"/>
<glyph unicode="É" horiz-adv-x="567" d="M66 20v674q0 13 9 19.5t22 6.5h401q11 0 18.5 -9t7.5 -20q0 -8 -1 -21.5t-3 -26t-6 -21.5t-10 -9h-318v-194h274q10 0 17.5 -8.5t7.5 -19.5q0 -8 -1 -21.5t-3 -26.5t-6 -22t-10 -9h-279v-205h312q11 0 18.5 -8.5t7.5 -20.5q0 -8 -1 -21t-3 -26t-6 -22t-10 -9h-393 q-14 0 -29.5 6.5t-15.5 13.5zM233 780l89 123q4 6 15 6t23.5 -3t23.5 -7t16 -7q23 -13 26 -21.5t0 -12.5l-103 -90q-8 -8 -24.5 -9.5t-35.5 0.5q-17 1 -27.5 5.5t-2.5 15.5z"/>
<glyph unicode="Ê" horiz-adv-x="567" d="M66 20v674q0 13 9 19.5t22 6.5h401q11 0 18.5 -9t7.5 -20q0 -8 -1 -21.5t-3 -26t-6 -21.5t-10 -9h-318v-194h274q10 0 17.5 -8.5t7.5 -19.5q0 -8 -1 -21.5t-3 -26.5t-6 -22t-10 -9h-279v-205h312q11 0 18.5 -8.5t7.5 -20.5q0 -8 -1 -21t-3 -26t-6 -22t-10 -9h-393 q-14 0 -29.5 6.5t-15.5 13.5zM164 789q-5 6 -6 13t7 12l119 82q5 4 10 4t10 -4l121 -82q6 -5 6.5 -12t-5.5 -13q-14 -15 -25.5 -23.5t-15.5 -4.5l-91 44l-89 -44q-3 -2 -8.5 0.5t-11.5 7.5t-12 10.5t-9 9.5z"/>
<glyph unicode="Ë" horiz-adv-x="567" d="M66 20v674q0 13 9 19.5t22 6.5h401q11 0 18.5 -9t7.5 -20q0 -8 -1 -21.5t-3 -26t-6 -21.5t-10 -9h-318v-194h274q10 0 17.5 -8.5t7.5 -19.5q0 -8 -1 -21.5t-3 -26.5t-6 -22t-10 -9h-279v-205h312q11 0 18.5 -8.5t7.5 -20.5q0 -8 -1 -21t-3 -26t-6 -22t-10 -9h-393 q-14 0 -29.5 6.5t-15.5 13.5zM323 779v98q0 6 9.5 10t23 6t27.5 3t23 1q14 0 22.5 -7.5t8.5 -19.5v-84q0 -12 -8.5 -20t-22.5 -8q-9 0 -23 1t-27.5 3t-23 6.5t-9.5 10.5zM150 779v98q0 6 9.5 10t22.5 6t27.5 3t23.5 1q14 0 22.5 -7.5t8.5 -19.5v-84q0 -12 -8.5 -20t-22.5 -8 q-9 0 -23.5 1t-27.5 3t-22.5 6.5t-9.5 10.5z"/>
<glyph unicode="Ì" horiz-adv-x="252" d="M186 15q0 -12 -9 -19.5t-22 -7.5q-9 0 -24 1t-29.5 3t-25 6.5t-10.5 10.5v701q0 6 10.5 10.5t25 6.5t29.5 3t24 1q13 0 22 -8t9 -19v-689zM88 901l63 -89q22 -32 20.5 -41.5t-12.5 -9.5q-26 0 -38.5 3.5t-28.5 17.5l-101 86q-15 12 -14.5 21.5t10.5 15.5t26.5 9t33.5 3 q11 0 22.5 -3t18.5 -13z"/>
<glyph unicode="Í" horiz-adv-x="252" d="M186 15q0 -12 -9 -19.5t-22 -7.5q-9 0 -24 1t-29.5 3t-25 6.5t-10.5 10.5v701q0 6 10.5 10.5t25 6.5t29.5 3t24 1q13 0 22 -8t9 -19v-689zM64 780l89 123q4 6 15 6t23.5 -3t23.5 -7t16 -7q23 -13 26 -21.5t0 -12.5l-103 -90q-8 -8 -24.5 -9.5t-35.5 0.5q-17 1 -27.5 5.5 t-2.5 15.5z"/>
<glyph unicode="Î" horiz-adv-x="252" d="M186 15q0 -12 -9 -19.5t-22 -7.5q-9 0 -24 1t-29.5 3t-25 6.5t-10.5 10.5v701q0 6 10.5 10.5t25 6.5t29.5 3t24 1q13 0 22 -8t9 -19v-689zM-5 789q-5 6 -6 13t7 12l119 82q5 4 10 4t10 -4l121 -82q6 -5 6.5 -12t-5.5 -13q-14 -15 -25.5 -23.5t-15.5 -4.5l-91 44l-89 -44 q-3 -2 -8.5 0.5t-11.5 7.5t-12 10.5t-9 9.5z"/>
<glyph unicode="Ï" horiz-adv-x="252" d="M186 15q0 -12 -9 -19.5t-22 -7.5q-9 0 -24 1t-29.5 3t-25 6.5t-10.5 10.5v701q0 6 10.5 10.5t25 6.5t29.5 3t24 1q13 0 22 -8t9 -19v-689zM154 779v98q0 6 9.5 10t23 6t27.5 3t23 1q14 0 22.5 -7.5t8.5 -19.5v-84q0 -12 -8.5 -20t-22.5 -8q-9 0 -23 1t-27.5 3t-23 6.5 t-9.5 10.5zM-19 779v98q0 6 9.5 10t22.5 6t27.5 3t23.5 1q14 0 22.5 -7.5t8.5 -19.5v-84q0 -12 -8.5 -20t-22.5 -8q-9 0 -23.5 1t-27.5 3t-22.5 6.5t-9.5 10.5z"/>
<glyph unicode="Ð" horiz-adv-x="669" d="M106 719h216q75 0 130 -14t91.5 -46t54.5 -84t18 -129v-173q0 -77 -18 -129t-54.5 -84t-91.5 -46t-130 -14h-201q-14 0 -30 6.5t-16 13.5v292h-57q-11 0 -18 8t-7 21q0 9 0.5 23t3 26.5t6.5 22t10 9.5h62v271q0 11 8.5 18.5t22.5 7.5zM258 312h-62v-205h126q58 0 91.5 12 t50 36.5t21 62t4.5 87.5v109q0 50 -4.5 87t-21 62t-50 37t-91.5 12h-126v-190h56q11 0 18 -8t7 -22q0 -9 -0.5 -22.5t-3 -26t-6 -22t-9.5 -9.5z"/>
<glyph unicode="Ñ" horiz-adv-x="725" d="M510 210v502q0 6 11 9.5t26 5.5t30.5 3t24.5 1q26 0 26 -30v-687q0 -12 -9.5 -19t-20.5 -7q-8 0 -21.5 0.5t-27 3t-24.5 6t-15 9.5l-325 500v-492q0 -12 -9 -19.5t-21 -7.5q-9 0 -24.5 1t-29.5 3t-24.5 6.5t-10.5 10.5v701q0 6 10.5 10.5t24.5 6.5t29 3t24 1 q11 0 18.5 -6.5t12.5 -14.5zM322 868q13 -1 23 -5t19 -9t17.5 -9t18.5 -4q9 -1 21.5 5t12.5 18q0 5 9.5 7.5t20.5 2.5q14 0 26 -4.5t11 -15.5q-2 -27 -11.5 -45.5t-23.5 -30t-29.5 -16t-29.5 -3.5q-13 1 -22.5 5t-18.5 9t-18 9t-19 4q-10 1 -22 -4.5t-12 -18.5q0 -5 -9 -7.5 t-21 -2.5q-14 0 -26 4.5t-11 15.5q1 27 11 45.5t23.5 29.5t29.5 16t30 4z"/>
<glyph unicode="Ò" horiz-adv-x="701" d="M354 -12h-8q-74 0 -129 14t-91.5 46t-54.5 84.5t-18 129.5v196q0 77 18 129t54.5 84t91.5 46t129 14h8q75 0 130 -14t92 -46t55 -84t18 -129v-196q0 -77 -18 -129.5t-55 -84.5t-92 -46t-130 -14zM176 452v-184q0 -50 7.5 -83t26.5 -53t52 -28.5t84 -8.5h8q51 0 84.5 8.5 t53 28.5t27 53t7.5 83v184q0 49 -7.5 82.5t-27 53t-53 28t-84.5 8.5h-8q-51 0 -84 -8.5t-52 -28t-26.5 -53t-7.5 -82.5zM312 900l63 -89q22 -32 20.5 -41.5t-12.5 -9.5q-26 0 -38.5 3.5t-28.5 17.5l-101 86q-15 12 -14.5 21.5t10.5 15.5t26.5 9t33.5 3q11 0 22.5 -3 t18.5 -13z"/>
<glyph unicode="Ó" horiz-adv-x="701" d="M354 -12h-8q-74 0 -129 14t-91.5 46t-54.5 84.5t-18 129.5v196q0 77 18 129t54.5 84t91.5 46t129 14h8q75 0 130 -14t92 -46t55 -84t18 -129v-196q0 -77 -18 -129.5t-55 -84.5t-92 -46t-130 -14zM176 452v-184q0 -50 7.5 -83t26.5 -53t52 -28.5t84 -8.5h8q51 0 84.5 8.5 t53 28.5t27 53t7.5 83v184q0 49 -7.5 82.5t-27 53t-53 28t-84.5 8.5h-8q-51 0 -84 -8.5t-52 -28t-26.5 -53t-7.5 -82.5zM288 779l89 123q4 6 15 6t23.5 -3t23.5 -7t16 -7q23 -13 26 -21.5t0 -12.5l-103 -90q-8 -8 -24.5 -9.5t-35.5 0.5q-17 1 -27.5 5.5t-2.5 15.5z"/>
<glyph unicode="Ô" horiz-adv-x="701" d="M354 -12h-8q-74 0 -129 14t-91.5 46t-54.5 84.5t-18 129.5v196q0 77 18 129t54.5 84t91.5 46t129 14h8q75 0 130 -14t92 -46t55 -84t18 -129v-196q0 -77 -18 -129.5t-55 -84.5t-92 -46t-130 -14zM176 452v-184q0 -50 7.5 -83t26.5 -53t52 -28.5t84 -8.5h8q51 0 84.5 8.5 t53 28.5t27 53t7.5 83v184q0 49 -7.5 82.5t-27 53t-53 28t-84.5 8.5h-8q-51 0 -84 -8.5t-52 -28t-26.5 -53t-7.5 -82.5zM219 788q-5 6 -6 13t7 12l119 82q5 4 10 4t10 -4l121 -82q6 -5 6.5 -12t-5.5 -13q-14 -15 -25.5 -23.5t-15.5 -4.5l-91 44l-89 -44q-3 -2 -8.5 0.5 t-11.5 7.5t-12 10.5t-9 9.5z"/>
<glyph unicode="Õ" horiz-adv-x="701" d="M354 -12h-8q-74 0 -129 14t-91.5 46t-54.5 84.5t-18 129.5v196q0 77 18 129t54.5 84t91.5 46t129 14h8q75 0 130 -14t92 -46t55 -84t18 -129v-196q0 -77 -18 -129.5t-55 -84.5t-92 -46t-130 -14zM176 452v-184q0 -50 7.5 -83t26.5 -53t52 -28.5t84 -8.5h8q51 0 84.5 8.5 t53 28.5t27 53t7.5 83v184q0 49 -7.5 82.5t-27 53t-53 28t-84.5 8.5h-8q-51 0 -84 -8.5t-52 -28t-26.5 -53t-7.5 -82.5zM312 868q13 -1 23 -5t19 -9t17.5 -9t18.5 -4q9 -1 21.5 5t12.5 18q0 5 9.5 7.5t20.5 2.5q14 0 26 -4.5t11 -15.5q-2 -27 -11.5 -45.5t-23.5 -30 t-29.5 -16t-29.5 -3.5q-13 1 -22.5 5t-18.5 9t-18 9t-19 4q-10 1 -22 -4.5t-12 -18.5q0 -5 -9 -7.5t-21 -2.5q-14 0 -26 4.5t-11 15.5q1 27 11 45.5t23.5 29.5t29.5 16t30 4z"/>
<glyph unicode="Ö" horiz-adv-x="701" d="M354 -12h-8q-74 0 -129 14t-91.5 46t-54.5 84.5t-18 129.5v196q0 77 18 129t54.5 84t91.5 46t129 14h8q75 0 130 -14t92 -46t55 -84t18 -129v-196q0 -77 -18 -129.5t-55 -84.5t-92 -46t-130 -14zM176 452v-184q0 -50 7.5 -83t26.5 -53t52 -28.5t84 -8.5h8q51 0 84.5 8.5 t53 28.5t27 53t7.5 83v184q0 49 -7.5 82.5t-27 53t-53 28t-84.5 8.5h-8q-51 0 -84 -8.5t-52 -28t-26.5 -53t-7.5 -82.5zM378 777v98q0 6 9.5 10t23 6t27.5 3t23 1q14 0 22.5 -7.5t8.5 -19.5v-84q0 -12 -8.5 -20t-22.5 -8q-9 0 -23 1t-27.5 3t-23 6.5t-9.5 10.5zM205 777v98 q0 6 9.5 10t22.5 6t27.5 3t23.5 1q14 0 22.5 -7.5t8.5 -19.5v-84q0 -12 -8.5 -20t-22.5 -8q-9 0 -23.5 1t-27.5 3t-22.5 6.5t-9.5 10.5z"/>
<glyph unicode="×" horiz-adv-x="674" d="M336 198l-182 -170l-73 68l181 169l-179 172l72 68l181 -171l183 171l74 -68l-182 -171l180 -170l-75 -68z"/>
<glyph unicode="Ø" horiz-adv-x="705" d="M497 768q5 -1 16.5 -4.5t22.5 -9t18.5 -11.5t4.5 -12l-15 -36q54 -29 80.5 -86t26.5 -151v-196q0 -77 -18 -129.5t-55 -84.5t-92 -46t-130 -14h-8q-52 0 -92 6l-12 -29q-4 -9 -15 -13t-22 -1q-3 1 -14.5 4t-23 8t-19.5 11.5t-5 14.5l15 36q-54 29 -79.5 86t-25.5 151v196 q0 77 18 129t54.5 84t91.5 46t129 14h8q50 0 92 -6l13 30q4 8 14.5 11.5t21.5 1.5zM528 452q0 47 -6.5 78.5t-23.5 51.5l-200 -485q11 -1 23.5 -1.5t26.5 -0.5h8q51 0 84.5 8.5t53 28.5t27 53t7.5 83v184zM178 452v-184q0 -46 6 -78t22 -52l200 483q-23 3 -50 3h-8 q-51 0 -84 -8.5t-52 -28t-26.5 -53t-7.5 -82.5z"/>
<glyph unicode="Ù" horiz-adv-x="672" d="M486 255v452q0 6 10.5 10.5t25.5 7.5t30 4.5t24 1.5q13 0 21.5 -9.5t8.5 -20.5v-452q0 -74 -16.5 -123.5t-49.5 -80.5t-83.5 -44t-118.5 -13h-8q-66 0 -115.5 13t-82.5 44t-49.5 80.5t-16.5 123.5v458q0 6 10.5 10.5t25 7.5t30 4.5t24.5 1.5q12 0 21 -9.5t9 -20.5v-446 q0 -43 6.5 -73.5t23 -49.5t44.5 -28t70 -9h8q43 0 71.5 9t45.5 28t24 49.5t7 73.5zM297 900l63 -89q22 -32 20.5 -41.5t-12.5 -9.5q-26 0 -38.5 3.5t-28.5 17.5l-101 86q-15 12 -14.5 21.5t10.5 15.5t26.5 9t33.5 3q11 0 22.5 -3t18.5 -13z"/>
<glyph unicode="Ú" horiz-adv-x="672" d="M486 255v452q0 6 10.5 10.5t25.5 7.5t30 4.5t24 1.5q13 0 21.5 -9.5t8.5 -20.5v-452q0 -74 -16.5 -123.5t-49.5 -80.5t-83.5 -44t-118.5 -13h-8q-66 0 -115.5 13t-82.5 44t-49.5 80.5t-16.5 123.5v458q0 6 10.5 10.5t25 7.5t30 4.5t24.5 1.5q12 0 21 -9.5t9 -20.5v-446 q0 -43 6.5 -73.5t23 -49.5t44.5 -28t70 -9h8q43 0 71.5 9t45.5 28t24 49.5t7 73.5zM273 779l89 123q4 6 15 6t23.5 -3t23.5 -7t16 -7q23 -13 26 -21.5t0 -12.5l-103 -90q-8 -8 -24.5 -9.5t-35.5 0.5q-17 1 -27.5 5.5t-2.5 15.5z"/>
<glyph unicode="Û" horiz-adv-x="672" d="M486 255v452q0 6 10.5 10.5t25.5 7.5t30 4.5t24 1.5q13 0 21.5 -9.5t8.5 -20.5v-452q0 -74 -16.5 -123.5t-49.5 -80.5t-83.5 -44t-118.5 -13h-8q-66 0 -115.5 13t-82.5 44t-49.5 80.5t-16.5 123.5v458q0 6 10.5 10.5t25 7.5t30 4.5t24.5 1.5q12 0 21 -9.5t9 -20.5v-446 q0 -43 6.5 -73.5t23 -49.5t44.5 -28t70 -9h8q43 0 71.5 9t45.5 28t24 49.5t7 73.5zM205 788q-5 6 -6 13t7 12l119 82q5 4 10 4t10 -4l121 -82q6 -5 6.5 -12t-5.5 -13q-14 -15 -25.5 -23.5t-15.5 -4.5l-91 44l-89 -44q-3 -2 -8.5 0.5t-11.5 7.5t-12 10.5t-9 9.5z"/>
<glyph unicode="Ü" horiz-adv-x="672" d="M486 255v452q0 6 10.5 10.5t25.5 7.5t30 4.5t24 1.5q13 0 21.5 -9.5t8.5 -20.5v-452q0 -74 -16.5 -123.5t-49.5 -80.5t-83.5 -44t-118.5 -13h-8q-66 0 -115.5 13t-82.5 44t-49.5 80.5t-16.5 123.5v458q0 6 10.5 10.5t25 7.5t30 4.5t24.5 1.5q12 0 21 -9.5t9 -20.5v-446 q0 -43 6.5 -73.5t23 -49.5t44.5 -28t70 -9h8q43 0 71.5 9t45.5 28t24 49.5t7 73.5zM363 777v98q0 6 9.5 10t23 6t27.5 3t23 1q14 0 22.5 -7.5t8.5 -19.5v-84q0 -12 -8.5 -20t-22.5 -8q-9 0 -23 1t-27.5 3t-23 6.5t-9.5 10.5zM190 777v98q0 6 9.5 10t22.5 6t27.5 3t23.5 1 q14 0 22.5 -7.5t8.5 -19.5v-84q0 -12 -8.5 -20t-22.5 -8q-9 0 -23.5 1t-27.5 3t-22.5 6.5t-9.5 10.5z"/>
<glyph unicode="Ý" horiz-adv-x="600" d="M360 264v-249q0 -12 -9 -19.5t-22 -7.5q-9 0 -23.5 1t-29 3t-25 6.5t-10.5 10.5v255l-218 425q-11 22 -3 32t31 10q14 0 28.5 -0.5t27 -2.5t21.5 -5t12 -9l160 -327l160 326q3 6 12 9.5t21.5 5.5t27 2.5t28.5 0.5q23 0 30.5 -9.5t-3.5 -32.5zM238 780l89 123q4 6 15 6 t23.5 -3t23.5 -7t16 -7q23 -13 26 -21.5t0 -12.5l-103 -90q-8 -8 -24.5 -9.5t-35.5 0.5q-17 1 -27.5 5.5t-2.5 15.5z"/>
<glyph unicode="Þ" horiz-adv-x="616" d="M187 14q0 -12 -8 -19t-22 -7q-9 0 -24.5 0.5t-30.5 3t-25.5 6.5t-10.5 10v704q0 6 10.5 10t25.5 6.5t30.5 3t24.5 0.5q14 0 22 -7.5t8 -18.5v-126h134q65 0 113.5 -8.5t81 -32.5t48.5 -66.5t16 -109.5t-16 -109.5t-48 -66.5t-80 -33t-112 -9h-137v-131zM321 473h-134 v-221h134q43 0 69 5t39.5 17.5t18 34t4.5 54.5q0 34 -4.5 55.5t-18 33.5t-39.5 16.5t-69 4.5z"/>
<glyph unicode="ß" horiz-adv-x="610" d="M374 507q0 24 -8 42t-21 30t-29.5 17.5t-33.5 5.5q-18 0 -35.5 -6t-31 -18t-22 -29.5t-8.5 -41.5v-495q0 -11 -9 -17.5t-21 -6.5q-9 0 -24 1t-28.5 3t-23.5 6.5t-10 11.5v497q0 51 19 88.5t49.5 61.5t68.5 35.5t75 11.5q42 0 79.5 -12.5t66 -37.5t45.5 -62t17 -86 q0 -42 -18.5 -78.5t-46.5 -60.5q22 -11 47.5 -26t47 -35.5t35.5 -47.5t14 -61q0 -97 -69 -153t-205 -56h-23q-9 0 -14.5 8t-5.5 20q0 8 0.5 21t3 25t6 21t9.5 9h34q30 0 56.5 6.5t46.5 19t32 32.5t12 47q0 21 -13.5 36t-33.5 27t-43 22.5t-43 22t-33.5 25t-13.5 32.5 q0 26 16 40.5t35.5 27t35.5 29.5t16 48z"/>
<glyph unicode="à" horiz-adv-x="500" d="M445 359v-311q0 -9 -13 -19.5t-38.5 -19.5t-64 -15t-88.5 -6q-56 0 -95 10t-63 31t-35 53t-11 76q0 37 7 66t25.5 48.5t49.5 30t79 10.5q37 0 74.5 -6t63.5 -13v63q0 45 -25.5 66t-93.5 21q-34 0 -71 -4.5t-56 -7.5q-9 0 -14 7.5t-7.5 18t-3.5 21t-1 15.5q-1 16 2 21.5 t10 7.5t23.5 5t39 5.5t49 4t54.5 1.5q51 0 89 -7.5t63.5 -27.5t38 -55t12.5 -90zM336 88v123q-5 2 -17 5.5t-28 6.5t-33 5t-32 2q-42 0 -61 -15.5t-19 -64.5q0 -45 20 -62t70 -17q13 0 28.5 1.5t29.5 4t25.5 5.5t16.5 6zM213 742l63 -89q22 -32 20.5 -41.5t-12.5 -9.5 q-26 0 -38.5 3.5t-28.5 17.5l-101 86q-15 12 -14.5 21.5t10.5 15.5t26.5 9t33.5 3q11 0 22.5 -3t18.5 -13z"/>
<glyph unicode="á" horiz-adv-x="500" d="M445 359v-311q0 -9 -13 -19.5t-38.5 -19.5t-64 -15t-88.5 -6q-56 0 -95 10t-63 31t-35 53t-11 76q0 37 7 66t25.5 48.5t49.5 30t79 10.5q37 0 74.5 -6t63.5 -13v63q0 45 -25.5 66t-93.5 21q-34 0 -71 -4.5t-56 -7.5q-9 0 -14 7.5t-7.5 18t-3.5 21t-1 15.5q-1 16 2 21.5 t10 7.5t23.5 5t39 5.5t49 4t54.5 1.5q51 0 89 -7.5t63.5 -27.5t38 -55t12.5 -90zM336 88v123q-5 2 -17 5.5t-28 6.5t-33 5t-32 2q-42 0 -61 -15.5t-19 -64.5q0 -45 20 -62t70 -17q13 0 28.5 1.5t29.5 4t25.5 5.5t16.5 6zM189 621l89 123q4 6 15 6t23.5 -3t23.5 -7t16 -7 q23 -13 26 -21.5t0 -12.5l-103 -90q-8 -8 -24.5 -9.5t-35.5 0.5q-17 1 -27.5 5.5t-2.5 15.5z"/>
<glyph unicode="â" horiz-adv-x="500" d="M445 359v-311q0 -9 -13 -19.5t-38.5 -19.5t-64 -15t-88.5 -6q-56 0 -95 10t-63 31t-35 53t-11 76q0 37 7 66t25.5 48.5t49.5 30t79 10.5q37 0 74.5 -6t63.5 -13v63q0 45 -25.5 66t-93.5 21q-34 0 -71 -4.5t-56 -7.5q-9 0 -14 7.5t-7.5 18t-3.5 21t-1 15.5q-1 16 2 21.5 t10 7.5t23.5 5t39 5.5t49 4t54.5 1.5q51 0 89 -7.5t63.5 -27.5t38 -55t12.5 -90zM336 88v123q-5 2 -17 5.5t-28 6.5t-33 5t-32 2q-42 0 -61 -15.5t-19 -64.5q0 -45 20 -62t70 -17q13 0 28.5 1.5t29.5 4t25.5 5.5t16.5 6zM120 630q-5 6 -6 13t7 12l119 82q5 4 10 4t10 -4 l121 -82q6 -5 6.5 -12t-5.5 -13q-14 -15 -25.5 -23.5t-15.5 -4.5l-91 44l-89 -44q-3 -2 -8.5 0.5t-11.5 7.5t-12 10.5t-9 9.5z"/>
<glyph unicode="ã" horiz-adv-x="500" d="M445 359v-311q0 -9 -13 -19.5t-38.5 -19.5t-64 -15t-88.5 -6q-56 0 -95 10t-63 31t-35 53t-11 76q0 37 7 66t25.5 48.5t49.5 30t79 10.5q37 0 74.5 -6t63.5 -13v63q0 45 -25.5 66t-93.5 21q-34 0 -71 -4.5t-56 -7.5q-9 0 -14 7.5t-7.5 18t-3.5 21t-1 15.5q-1 16 2 21.5 t10 7.5t23.5 5t39 5.5t49 4t54.5 1.5q51 0 89 -7.5t63.5 -27.5t38 -55t12.5 -90zM336 88v123q-5 2 -17 5.5t-28 6.5t-33 5t-32 2q-42 0 -61 -15.5t-19 -64.5q0 -45 20 -62t70 -17q13 0 28.5 1.5t29.5 4t25.5 5.5t16.5 6zM207 710q13 -1 23 -5t19 -9t17.5 -9t18.5 -4 q9 -1 21.5 5t12.5 18q0 5 9.5 7.5t20.5 2.5q14 0 26 -4.5t11 -15.5q-2 -27 -11.5 -45.5t-23.5 -30t-29.5 -16t-29.5 -3.5q-13 1 -22.5 5t-18.5 9t-18 9t-19 4q-10 1 -22 -4.5t-12 -18.5q0 -5 -9 -7.5t-21 -2.5q-14 0 -26 4.5t-11 15.5q1 27 11 45.5t23.5 29.5t29.5 16t30 4z "/>
<glyph unicode="ä" horiz-adv-x="500" d="M445 359v-311q0 -9 -13 -19.5t-38.5 -19.5t-64 -15t-88.5 -6q-56 0 -95 10t-63 31t-35 53t-11 76q0 37 7 66t25.5 48.5t49.5 30t79 10.5q37 0 74.5 -6t63.5 -13v63q0 45 -25.5 66t-93.5 21q-34 0 -71 -4.5t-56 -7.5q-9 0 -14 7.5t-7.5 18t-3.5 21t-1 15.5q-1 16 2 21.5 t10 7.5t23.5 5t39 5.5t49 4t54.5 1.5q51 0 89 -7.5t63.5 -27.5t38 -55t12.5 -90zM336 88v123q-5 2 -17 5.5t-28 6.5t-33 5t-32 2q-42 0 -61 -15.5t-19 -64.5q0 -45 20 -62t70 -17q13 0 28.5 1.5t29.5 4t25.5 5.5t16.5 6zM279 619v98q0 6 9.5 10t23 6t27.5 3t23 1 q14 0 22.5 -7.5t8.5 -19.5v-84q0 -12 -8.5 -20t-22.5 -8q-9 0 -23 1t-27.5 3t-23 6.5t-9.5 10.5zM106 619v98q0 6 9.5 10t22.5 6t27.5 3t23.5 1q14 0 22.5 -7.5t8.5 -19.5v-84q0 -12 -8.5 -20t-22.5 -8q-9 0 -23.5 1t-27.5 3t-22.5 6.5t-9.5 10.5z"/>
<glyph unicode="å" horiz-adv-x="500" d="M445 359v-311q0 -9 -13 -19.5t-38.5 -19.5t-64 -15t-88.5 -6q-56 0 -95 10t-63 31t-35 53t-11 76q0 37 7 66t25.5 48.5t49.5 30t79 10.5q37 0 74.5 -6t63.5 -13v63q0 45 -25.5 66t-93.5 21q-34 0 -71 -4.5t-56 -7.5q-9 0 -14 7.5t-7.5 18t-3.5 21t-1 15.5q-1 16 2 21.5 t10 7.5t23.5 5t39 5.5t49 4t54.5 1.5q51 0 89 -7.5t63.5 -27.5t38 -55t12.5 -90zM336 88v123q-5 2 -17 5.5t-28 6.5t-33 5t-32 2q-42 0 -61 -15.5t-19 -64.5q0 -45 20 -62t70 -17q13 0 28.5 1.5t29.5 4t25.5 5.5t16.5 6zM250 611q-29 0 -51.5 9t-37.5 24t-22.5 34.5 t-7.5 41.5t8 42t23 35t37 24t51 9q57 0 88.5 -33t31.5 -78q0 -21 -8 -40.5t-23.5 -34.5t-38 -24t-50.5 -9zM250 677q23 0 35 13.5t12 30.5t-12 31t-35 14t-35 -14t-12 -31t12 -30.5t35 -13.5z"/>
<glyph unicode="æ" horiz-adv-x="786" d="M739 6q-17 -5 -38 -8t-44 -5.5t-46 -3.5t-43 -1q-49 0 -86 7t-65 24q-24 -13 -67.5 -22t-106.5 -9q-56 0 -95 10t-63 31t-35 53t-11 76q0 37 7 66t25.5 48.5t49.5 30t79 10.5q37 0 74.5 -6t63.5 -13v63q0 45 -25.5 66t-93.5 21q-34 0 -71 -4.5t-56 -7.5q-9 0 -14 7.5 t-7.5 18t-3.5 21t-1 15.5q-1 16 2 21.5t10 7.5t23.5 5t39 5.5t49 4t54.5 1.5q53 0 91.5 -8t64.5 -31q54 39 157 39h13q54 0 90.5 -11.5t58.5 -32.5t31 -50.5t9 -64.5v-25q0 -40 -13 -70.5t-47.5 -51.5t-95 -31.5t-155.5 -10.5q0 -61 34 -85t112 -24q40 0 80 6t61 8 q4 0 7.5 -1t6 -6.5t4.5 -17t2 -31.5q1 -17 -1.5 -23.5t-14.5 -10.5zM649 370v17q0 32 -22 49t-71 17q-23 0 -43 -4.5t-34.5 -15.5t-22.5 -30t-8 -48v-78q60 0 99 4t61.5 14.5t31.5 28.5t9 46zM338 88v123q-5 2 -17 5.5t-28 6.5t-33 5t-32 2q-42 0 -61 -15.5t-19 -64.5 q0 -45 20 -62t70 -17q13 0 28.5 1.5t29.5 4t25.5 5.5t16.5 6z"/>
<glyph unicode="ç" horiz-adv-x="453" d="M207 -53l22 42q-47 3 -80.5 15.5t-54.5 37.5t-31 63t-10 91v135q0 57 12 96.5t38 64.5t67.5 36t100.5 11q38 0 74 -3.5t51 -8.5q10 -3 16 -8t5 -22q0 -9 -1.5 -20.5t-4.5 -21.5t-8 -16.5t-12 -6.5q-4 0 -14.5 2t-25 4t-31.5 3.5t-34 1.5q-68 0 -94 -28.5t-26 -85.5v-130 q0 -60 25.5 -87t91.5 -27q24 0 55 3t54 6q7 0 11 -5t6 -13t3 -17.5t1 -18.5q1 -21 -4 -28.5t-19 -10.5q-13 -3 -41.5 -6.5t-63.5 -5.5l-11 -19q34 -5 54.5 -25.5t15.5 -55.5q-5 -36 -28 -52.5t-53 -22.5q-6 -1 -16.5 -2t-21.5 -1q-20 0 -37.5 3.5t-22.5 11.5q-1 4 0 11 t4.5 14t10 11.5t16.5 2.5q7 -2 14.5 -4t15.5 -2q26 0 37 13.5t11 28.5t-12.5 20t-27 7t-24 5t-3.5 14z"/>
<glyph unicode="è" horiz-adv-x="494" d="M451 6q-17 -5 -38 -8t-44 -5.5t-46 -3.5t-43 -1q-60 0 -103.5 11t-71.5 38t-41 71.5t-13 111.5v134q0 97 53 141t165 44h13q54 0 90.5 -11.5t58.5 -32.5t31 -50.5t9 -64.5v-25q0 -40 -13 -70.5t-47.5 -51.5t-95 -31.5t-155.5 -10.5q0 -61 34 -85t112 -24q40 0 80 6t61 8 q4 0 7.5 -1t6 -6.5t4.5 -17t2 -31.5q1 -17 -1.5 -23.5t-14.5 -10.5zM361 370v17q0 32 -22 49t-71 17q-23 0 -43 -4.5t-34.5 -15.5t-22.5 -30t-8 -48v-78q60 0 99 4t61.5 14.5t31.5 28.5t9 46zM220 742l63 -89q22 -32 20.5 -41.5t-12.5 -9.5q-26 0 -38.5 3.5t-28.5 17.5 l-101 86q-15 12 -14.5 21.5t10.5 15.5t26.5 9t33.5 3q11 0 22.5 -3t18.5 -13z"/>
<glyph unicode="é" horiz-adv-x="494" d="M451 6q-17 -5 -38 -8t-44 -5.5t-46 -3.5t-43 -1q-60 0 -103.5 11t-71.5 38t-41 71.5t-13 111.5v134q0 97 53 141t165 44h13q54 0 90.5 -11.5t58.5 -32.5t31 -50.5t9 -64.5v-25q0 -40 -13 -70.5t-47.5 -51.5t-95 -31.5t-155.5 -10.5q0 -61 34 -85t112 -24q40 0 80 6t61 8 q4 0 7.5 -1t6 -6.5t4.5 -17t2 -31.5q1 -17 -1.5 -23.5t-14.5 -10.5zM361 370v17q0 32 -22 49t-71 17q-23 0 -43 -4.5t-34.5 -15.5t-22.5 -30t-8 -48v-78q60 0 99 4t61.5 14.5t31.5 28.5t9 46zM196 621l89 123q4 6 15 6t23.5 -3t23.5 -7t16 -7q23 -13 26 -21.5t0 -12.5 l-103 -90q-8 -8 -24.5 -9.5t-35.5 0.5q-17 1 -27.5 5.5t-2.5 15.5z"/>
<glyph unicode="ê" horiz-adv-x="494" d="M451 6q-17 -5 -38 -8t-44 -5.5t-46 -3.5t-43 -1q-60 0 -103.5 11t-71.5 38t-41 71.5t-13 111.5v134q0 97 53 141t165 44h13q54 0 90.5 -11.5t58.5 -32.5t31 -50.5t9 -64.5v-25q0 -40 -13 -70.5t-47.5 -51.5t-95 -31.5t-155.5 -10.5q0 -61 34 -85t112 -24q40 0 80 6t61 8 q4 0 7.5 -1t6 -6.5t4.5 -17t2 -31.5q1 -17 -1.5 -23.5t-14.5 -10.5zM361 370v17q0 32 -22 49t-71 17q-23 0 -43 -4.5t-34.5 -15.5t-22.5 -30t-8 -48v-78q60 0 99 4t61.5 14.5t31.5 28.5t9 46zM128 630q-5 6 -6 13t7 12l119 82q5 4 10 4t10 -4l121 -82q6 -5 6.5 -12t-5.5 -13 q-14 -15 -25.5 -23.5t-15.5 -4.5l-91 44l-89 -44q-3 -2 -8.5 0.5t-11.5 7.5t-12 10.5t-9 9.5z"/>
<glyph unicode="ë" horiz-adv-x="494" d="M451 6q-17 -5 -38 -8t-44 -5.5t-46 -3.5t-43 -1q-60 0 -103.5 11t-71.5 38t-41 71.5t-13 111.5v134q0 97 53 141t165 44h13q54 0 90.5 -11.5t58.5 -32.5t31 -50.5t9 -64.5v-25q0 -40 -13 -70.5t-47.5 -51.5t-95 -31.5t-155.5 -10.5q0 -61 34 -85t112 -24q40 0 80 6t61 8 q4 0 7.5 -1t6 -6.5t4.5 -17t2 -31.5q1 -17 -1.5 -23.5t-14.5 -10.5zM361 370v17q0 32 -22 49t-71 17q-23 0 -43 -4.5t-34.5 -15.5t-22.5 -30t-8 -48v-78q60 0 99 4t61.5 14.5t31.5 28.5t9 46zM286 619v98q0 6 9.5 10t23 6t27.5 3t23 1q14 0 22.5 -7.5t8.5 -19.5v-84 q0 -12 -8.5 -20t-22.5 -8q-9 0 -23 1t-27.5 3t-23 6.5t-9.5 10.5zM113 619v98q0 6 9.5 10t22.5 6t27.5 3t23.5 1q14 0 22.5 -7.5t8.5 -19.5v-84q0 -12 -8.5 -20t-22.5 -8q-9 0 -23.5 1t-27.5 3t-22.5 6.5t-9.5 10.5z"/>
<glyph unicode="ì" horiz-adv-x="291" d="M261 101q6 0 10 -8t7 -19t5 -22.5t2 -17.5q1 -14 -4 -20.5t-16 -10.5q-17 -7 -36 -11t-49 -4q-26 0 -48.5 6.5t-39.5 22t-26.5 42t-9.5 66.5v395q0 6 10.5 10t24 6t27.5 2.5t21 0.5q12 0 21 -6t9 -18v-369q0 -26 8 -39.5t37 -13.5q11 0 22 2.5t25 5.5zM80 741l63 -89 q22 -32 20.5 -41.5t-12.5 -9.5q-26 0 -38.5 3.5t-28.5 17.5l-101 86q-15 12 -14.5 21.5t10.5 15.5t26.5 9t33.5 3q11 0 22.5 -3t18.5 -13z"/>
<glyph unicode="í" horiz-adv-x="291" d="M261 101q6 0 10 -8t7 -19t5 -22.5t2 -17.5q1 -14 -4 -20.5t-16 -10.5q-17 -7 -36 -11t-49 -4q-26 0 -48.5 6.5t-39.5 22t-26.5 42t-9.5 66.5v395q0 6 10.5 10t24 6t27.5 2.5t21 0.5q12 0 21 -6t9 -18v-369q0 -26 8 -39.5t37 -13.5q11 0 22 2.5t25 5.5zM56 620l89 123 q4 6 15 6t23.5 -3t23.5 -7t16 -7q23 -13 26 -21.5t0 -12.5l-103 -90q-8 -8 -24.5 -9.5t-35.5 0.5q-17 1 -27.5 5.5t-2.5 15.5z"/>
<glyph unicode="î" horiz-adv-x="291" d="M261 101q6 0 10 -8t7 -19t5 -22.5t2 -17.5q1 -14 -4 -20.5t-16 -10.5q-17 -7 -36 -11t-49 -4q-26 0 -48.5 6.5t-39.5 22t-26.5 42t-9.5 66.5v395q0 6 10.5 10t24 6t27.5 2.5t21 0.5q12 0 21 -6t9 -18v-369q0 -26 8 -39.5t37 -13.5q11 0 22 2.5t25 5.5zM-13 630 q-5 6 -6 13t7 12l119 82q5 4 10 4t10 -4l121 -82q6 -5 6.5 -12t-5.5 -13q-14 -15 -25.5 -23.5t-15.5 -4.5l-91 44l-89 -44q-3 -2 -8.5 0.5t-11.5 7.5t-12 10.5t-9 9.5z"/>
<glyph unicode="ï" horiz-adv-x="291" d="M261 101q6 0 10 -8t7 -19t5 -22.5t2 -17.5q1 -14 -4 -20.5t-16 -10.5q-17 -7 -36 -11t-49 -4q-26 0 -48.5 6.5t-39.5 22t-26.5 42t-9.5 66.5v395q0 6 10.5 10t24 6t27.5 2.5t21 0.5q12 0 21 -6t9 -18v-369q0 -26 8 -39.5t37 -13.5q11 0 22 2.5t25 5.5zM146 619v98 q0 6 9.5 10t23 6t27.5 3t23 1q14 0 22.5 -7.5t8.5 -19.5v-84q0 -12 -8.5 -20t-22.5 -8q-9 0 -23 1t-27.5 3t-23 6.5t-9.5 10.5zM-27 619v98q0 6 9.5 10t22.5 6t27.5 3t23.5 1q14 0 22.5 -7.5t8.5 -19.5v-84q0 -12 -8.5 -20t-22.5 -8q-9 0 -23.5 1t-27.5 3t-22.5 6.5 t-9.5 10.5z"/>
<glyph unicode="ð" horiz-adv-x="595" d="M194 611l-53 27q-8 4 -9.5 15t1 24t8.5 26.5t13 21.5q12 13 34 3l54 -24l26 50q5 9 14.5 10t18.5 -4q7 -4 19.5 -10.5t23 -14t17 -15t2.5 -14.5l-30 -56q51 -35 92.5 -79t71 -97t46 -114.5t16.5 -129.5v-9q0 -65 -15.5 -109.5t-47.5 -72t-80.5 -39.5t-114.5 -12h-9 q-66 0 -114.5 12t-80.5 39.5t-47.5 72t-15.5 109.5v11q0 115 50 173t162 58h9q35 0 71 -7t65 -26q-17 35 -44 65.5t-65 59.5l-21 -40q-5 -9 -14.5 -10t-18.5 3q-7 4 -18.5 10t-22 13.5t-17 15.5t-2.5 15zM301 362h-9q-45 0 -72.5 -9t-42.5 -25.5t-20 -40.5t-5 -55v-11 q0 -30 5 -54.5t20 -41t42.5 -25.5t72.5 -9h9q45 0 72.5 9t42.5 25.5t19.5 41t4.5 54.5v9q0 34 -6.5 59t-22 41.5t-42.5 24t-68 7.5z"/>
<glyph unicode="ñ" d="M365 8v357q0 38 -12 54t-53 16q-19 0 -41 -4t-41.5 -9t-32.5 -11t-13 -10v-388q0 -14 -9.5 -19.5t-21.5 -5.5q-8 0 -21.5 0.5t-27 3t-23.5 6.5t-10 10v444q0 14 22.5 29.5t59 28t83.5 21t96 8.5q51 0 82 -11t48 -33t22.5 -55.5t5.5 -78.5v-348q0 -14 -10.5 -19.5 t-21.5 -5.5q-8 0 -22 0.5t-27 3t-22.5 6.5t-9.5 10zM223 710q13 -1 23 -5t19 -9t17.5 -9t18.5 -4q9 -1 21.5 5t12.5 18q0 5 9.5 7.5t20.5 2.5q14 0 26 -4.5t11 -15.5q-2 -27 -11.5 -45.5t-23.5 -30t-29.5 -16t-29.5 -3.5q-13 1 -22.5 5t-18.5 9t-18 9t-19 4q-10 1 -22 -4.5 t-12 -18.5q0 -5 -9 -7.5t-21 -2.5q-14 0 -26 4.5t-11 15.5q1 27 11 45.5t23.5 29.5t29.5 16t30 4z"/>
<glyph unicode="ò" horiz-adv-x="527" d="M53 175v177q0 54 12 90t38 57.5t66.5 30.5t97.5 9h5q58 0 99 -9t67 -30.5t38 -57.5t12 -90v-177q0 -54 -12 -90t-38 -57.5t-67 -30.5t-99 -9h-5q-57 0 -97.5 9t-66.5 30.5t-38 57.5t-12 90zM266 88h8q58 0 79.5 19.5t21.5 66.5v178q0 48 -21.5 67.5t-79.5 19.5h-8 q-58 0 -79.5 -19.5t-21.5 -67.5v-178q0 -48 21.5 -67t79.5 -19zM226 742l63 -89q22 -32 20.5 -41.5t-12.5 -9.5q-26 0 -38.5 3.5t-28.5 17.5l-101 86q-15 12 -14.5 21.5t10.5 15.5t26.5 9t33.5 3q11 0 22.5 -3t18.5 -13z"/>
<glyph unicode="ó" horiz-adv-x="527" d="M53 175v177q0 54 12 90t38 57.5t66.5 30.5t97.5 9h5q58 0 99 -9t67 -30.5t38 -57.5t12 -90v-177q0 -54 -12 -90t-38 -57.5t-67 -30.5t-99 -9h-5q-57 0 -97.5 9t-66.5 30.5t-38 57.5t-12 90zM266 88h8q58 0 79.5 19.5t21.5 66.5v178q0 48 -21.5 67.5t-79.5 19.5h-8 q-58 0 -79.5 -19.5t-21.5 -67.5v-178q0 -48 21.5 -67t79.5 -19zM206 627l89 123q4 6 15 6t23.5 -3t23.5 -7t16 -7q23 -13 26 -21.5t0 -12.5l-103 -90q-8 -8 -24.5 -9.5t-35.5 0.5q-17 1 -27.5 5.5t-2.5 15.5z"/>
<glyph unicode="ô" horiz-adv-x="527" d="M53 175v177q0 54 12 90t38 57.5t66.5 30.5t97.5 9h5q58 0 99 -9t67 -30.5t38 -57.5t12 -90v-177q0 -54 -12 -90t-38 -57.5t-67 -30.5t-99 -9h-5q-57 0 -97.5 9t-66.5 30.5t-38 57.5t-12 90zM266 88h8q58 0 79.5 19.5t21.5 66.5v178q0 48 -21.5 67.5t-79.5 19.5h-8 q-58 0 -79.5 -19.5t-21.5 -67.5v-178q0 -48 21.5 -67t79.5 -19zM133 630q-5 6 -6 13t7 12l119 82q5 4 10 4t10 -4l121 -82q6 -5 6.5 -12t-5.5 -13q-14 -15 -25.5 -23.5t-15.5 -4.5l-91 44l-89 -44q-3 -2 -8.5 0.5t-11.5 7.5t-12 10.5t-9 9.5z"/>
<glyph unicode="õ" horiz-adv-x="527" d="M53 175v177q0 54 12 90t38 57.5t66.5 30.5t97.5 9h5q58 0 99 -9t67 -30.5t38 -57.5t12 -90v-177q0 -54 -12 -90t-38 -57.5t-67 -30.5t-99 -9h-5q-57 0 -97.5 9t-66.5 30.5t-38 57.5t-12 90zM266 88h8q58 0 79.5 19.5t21.5 66.5v178q0 48 -21.5 67.5t-79.5 19.5h-8 q-58 0 -79.5 -19.5t-21.5 -67.5v-178q0 -48 21.5 -67t79.5 -19zM220 710q13 -1 23 -5t19 -9t17.5 -9t18.5 -4q9 -1 21.5 5t12.5 18q0 5 9.5 7.5t20.5 2.5q14 0 26 -4.5t11 -15.5q-2 -27 -11.5 -45.5t-23.5 -30t-29.5 -16t-29.5 -3.5q-13 1 -22.5 5t-18.5 9t-18 9t-19 4 q-10 1 -22 -4.5t-12 -18.5q0 -5 -9 -7.5t-21 -2.5q-14 0 -26 4.5t-11 15.5q1 27 11 45.5t23.5 29.5t29.5 16t30 4z"/>
<glyph unicode="ö" horiz-adv-x="527" d="M53 175v177q0 54 12 90t38 57.5t66.5 30.5t97.5 9h5q58 0 99 -9t67 -30.5t38 -57.5t12 -90v-177q0 -54 -12 -90t-38 -57.5t-67 -30.5t-99 -9h-5q-57 0 -97.5 9t-66.5 30.5t-38 57.5t-12 90zM266 88h8q58 0 79.5 19.5t21.5 66.5v178q0 48 -21.5 67.5t-79.5 19.5h-8 q-58 0 -79.5 -19.5t-21.5 -67.5v-178q0 -48 21.5 -67t79.5 -19zM292 619v98q0 6 9.5 10t23 6t27.5 3t23 1q14 0 22.5 -7.5t8.5 -19.5v-84q0 -12 -8.5 -20t-22.5 -8q-9 0 -23 1t-27.5 3t-23 6.5t-9.5 10.5zM119 619v98q0 6 9.5 10t22.5 6t27.5 3t23.5 1q14 0 22.5 -7.5 t8.5 -19.5v-84q0 -12 -8.5 -20t-22.5 -8q-9 0 -23.5 1t-27.5 3t-22.5 6.5t-9.5 10.5z"/>
<glyph unicode="÷" horiz-adv-x="517" d="M200 11v118q0 6 9.5 10t23 6.5t27.5 3t23 0.5q13 0 22 -7.5t9 -18.5v-105q0 -12 -9 -19t-22 -7q-9 0 -23 0.5t-27.5 3t-23 6t-9.5 9.5zM200 451v118q0 6 9.5 9.5t23 6t27.5 3t23 0.5q13 0 22 -7t9 -19v-105q0 -11 -9 -18.5t-22 -7.5q-9 0 -23 0.5t-27.5 3t-23 6.5 t-9.5 10zM480 237h-442q-9 0 -14.5 8.5t-5.5 18.5q0 8 0.5 21t2.5 26t6.5 22t12.5 9h441q10 0 15 -8t5 -18q0 -8 -0.5 -21.5t-2.5 -26t-6.5 -22t-11.5 -9.5z"/>
<glyph unicode="ø" horiz-adv-x="527" d="M53 175v177q0 54 12 90t38 57.5t66.5 30.5t97.5 9h5q28 0 51.5 -1.5t43.5 -6.5l36 66q10 18 32 11q5 -1 12 -4t12.5 -7t8.5 -9.5t1 -10.5l-39 -72q30 -21 44 -58t14 -95v-177q0 -54 -12 -90t-38 -57.5t-67 -30.5t-99 -9h-5q-66 0 -109 12l-32 -60q-3 -8 -12 -11.5 t-20 -1.5q-5 2 -12 5t-12.5 7.5t-8.5 9.5t-1 11l38 71q-45 42 -45 144zM266 88h8q58 0 79.5 19.5t21.5 66.5v178q0 23 -5 41l-161 -298q20 -7 57 -7zM165 156l151 280q-18 3 -42 3h-8q-58 0 -79.5 -19.5t-21.5 -67.5v-196z"/>
<glyph unicode="ù" d="M365 98v421q0 6 10 10t23.5 6.5t27 3t21.5 0.5q11 0 21 -5.5t10 -19.5v-457q0 -19 -5.5 -25t-15.5 -10q-30 -13 -84.5 -23.5t-120.5 -10.5q-65 0 -103 14t-58 38.5t-26 58.5t-6 75v345q0 6 9.5 10t22.5 6.5t27 3t22 0.5q11 0 21.5 -5.5t10.5 -19.5v-341q0 -45 17 -68.5 t69 -23.5q16 0 35 2t35 5t26.5 5.5t10.5 4.5zM231 742l63 -89q22 -32 20.5 -41.5t-12.5 -9.5q-26 0 -38.5 3.5t-28.5 17.5l-101 86q-15 12 -14.5 21.5t10.5 15.5t26.5 9t33.5 3q11 0 22.5 -3t18.5 -13z"/>
<glyph unicode="ú" d="M365 98v421q0 6 10 10t23.5 6.5t27 3t21.5 0.5q11 0 21 -5.5t10 -19.5v-457q0 -19 -5.5 -25t-15.5 -10q-30 -13 -84.5 -23.5t-120.5 -10.5q-65 0 -103 14t-58 38.5t-26 58.5t-6 75v345q0 6 9.5 10t22.5 6.5t27 3t22 0.5q11 0 21.5 -5.5t10.5 -19.5v-341q0 -45 17 -68.5 t69 -23.5q16 0 35 2t35 5t26.5 5.5t10.5 4.5zM207 621l89 123q4 6 15 6t23.5 -3t23.5 -7t16 -7q23 -13 26 -21.5t0 -12.5l-103 -90q-8 -8 -24.5 -9.5t-35.5 0.5q-17 1 -27.5 5.5t-2.5 15.5z"/>
<glyph unicode="û" d="M365 98v421q0 6 10 10t23.5 6.5t27 3t21.5 0.5q11 0 21 -5.5t10 -19.5v-457q0 -19 -5.5 -25t-15.5 -10q-30 -13 -84.5 -23.5t-120.5 -10.5q-65 0 -103 14t-58 38.5t-26 58.5t-6 75v345q0 6 9.5 10t22.5 6.5t27 3t22 0.5q11 0 21.5 -5.5t10.5 -19.5v-341q0 -45 17 -68.5 t69 -23.5q16 0 35 2t35 5t26.5 5.5t10.5 4.5zM138 630q-5 6 -6 13t7 12l119 82q5 4 10 4t10 -4l121 -82q6 -5 6.5 -12t-5.5 -13q-14 -15 -25.5 -23.5t-15.5 -4.5l-91 44l-89 -44q-3 -2 -8.5 0.5t-11.5 7.5t-12 10.5t-9 9.5z"/>
<glyph unicode="ü" d="M365 98v421q0 6 10 10t23.5 6.5t27 3t21.5 0.5q11 0 21 -5.5t10 -19.5v-457q0 -19 -5.5 -25t-15.5 -10q-30 -13 -84.5 -23.5t-120.5 -10.5q-65 0 -103 14t-58 38.5t-26 58.5t-6 75v345q0 6 9.5 10t22.5 6.5t27 3t22 0.5q11 0 21.5 -5.5t10.5 -19.5v-341q0 -45 17 -68.5 t69 -23.5q16 0 35 2t35 5t26.5 5.5t10.5 4.5zM297 619v98q0 6 9.5 10t23 6t27.5 3t23 1q14 0 22.5 -7.5t8.5 -19.5v-84q0 -12 -8.5 -20t-22.5 -8q-9 0 -23 1t-27.5 3t-23 6.5t-9.5 10.5zM124 619v98q0 6 9.5 10t22.5 6t27.5 3t23.5 1q14 0 22.5 -7.5t8.5 -19.5v-84 q0 -12 -8.5 -20t-22.5 -8q-9 0 -23.5 1t-27.5 3t-22.5 6.5t-9.5 10.5z"/>
<glyph unicode="ý" horiz-adv-x="538" d="M368 519q0 6 10 10t23.5 6.5t27 3t21.5 0.5q22 0 26.5 -18t4.5 -38v-504q0 -51 -9.5 -91t-35 -67.5t-69 -42t-111.5 -14.5q-29 0 -57 1.5t-51.5 4t-40.5 4.5t-25 4q-13 5 -17 10t-4 21q0 39 8 53t18 14q4 0 18.5 -2t35.5 -4t45.5 -4t49.5 -2t48.5 4.5t42 17t30 34.5 t11.5 57v55q-35 -18 -75.5 -31t-86.5 -13q-45 0 -72 13t-41.5 36t-19.5 54.5t-5 69.5v358q0 6 9.5 10t22.5 6.5t27 3t22 0.5q11 0 21 -5.5t10 -19.5v-348q0 -46 14 -60t44 -14q21 0 43.5 4t42 9.5t32 12t12.5 11.5v390zM211 621l89 123q4 6 15 6t23.5 -3t23.5 -7t16 -7 q23 -13 26 -21.5t0 -12.5l-103 -90q-8 -8 -24.5 -9.5t-35.5 0.5q-17 1 -27.5 5.5t-2.5 15.5z"/>
<glyph unicode="þ" horiz-adv-x="522" d="M64 -238v985q0 6 9.5 10t23 6.5t27.5 3t23 0.5q14 0 22 -7t8 -18v-229q69 26 155 26q48 0 75.5 -14.5t41 -39.5t17 -57.5t3.5 -68.5v-173q0 -39 -2 -74.5t-15 -63t-41 -43.5t-80 -16q-26 0 -67.5 2t-86.5 11v-233q0 -11 -8 -18.5t-22 -7.5q-9 0 -23 0.5t-27.5 3t-23 6 t-9.5 9.5zM177 418v-299q-2 -12 3 -23q27 -4 57.5 -5.5t65.5 -1.5q14 0 26 3q19 5 22 35.5t3 81.5v102q0 11 0.5 20.5t0.5 20.5q0 33 -4.5 55.5t-20.5 28.5q-6 2 -11.5 3t-11.5 0q-9 0 -17 -0.5t-15 -1.5q-43 -3 -70.5 -8.5t-27.5 -10.5z"/>
<glyph unicode="ÿ" horiz-adv-x="538" d="M368 519q0 6 10 10t23.5 6.5t27 3t21.5 0.5q22 0 26.5 -18t4.5 -38v-504q0 -51 -9.5 -91t-35 -67.5t-69 -42t-111.5 -14.5q-29 0 -57 1.5t-51.5 4t-40.5 4.5t-25 4q-13 5 -17 10t-4 21q0 39 8 53t18 14q4 0 18.5 -2t35.5 -4t45.5 -4t49.5 -2t48.5 4.5t42 17t30 34.5 t11.5 57v55q-35 -18 -75.5 -31t-86.5 -13q-45 0 -72 13t-41.5 36t-19.5 54.5t-5 69.5v358q0 6 9.5 10t22.5 6.5t27 3t22 0.5q11 0 21 -5.5t10 -19.5v-348q0 -46 14 -60t44 -14q21 0 43.5 4t42 9.5t32 12t12.5 11.5v390zM301 619v98q0 6 9.5 10t23 6t27.5 3t23 1 q14 0 22.5 -7.5t8.5 -19.5v-84q0 -12 -8.5 -20t-22.5 -8q-9 0 -23 1t-27.5 3t-23 6.5t-9.5 10.5zM128 619v98q0 6 9.5 10t22.5 6t27.5 3t23.5 1q14 0 22.5 -7.5t8.5 -19.5v-84q0 -12 -8.5 -20t-22.5 -8q-9 0 -23.5 1t-27.5 3t-22.5 6.5t-9.5 10.5z"/>
<glyph unicode="Ā" horiz-adv-x="613" d="M497 12l-56 169h-246l-59 -172q-5 -15 -30.5 -18t-54.5 -3q-14 0 -26 4.5t-12 17.5q0 2 0.5 4t1.5 5l245 691q2 7 12.5 11t24 6t28 3t25.5 1q8 0 16 -5.5t12 -16.5l242 -690q1 -3 1.5 -5t0.5 -4q0 -13 -12.5 -17.5t-25.5 -4.5q-33 0 -57.5 3.5t-29.5 20.5zM311 541 l-85 -256h184l-85 256q-3 8 -4.5 17.5t-3.5 17.5q-2 -8 -2.5 -17.5t-3.5 -17.5zM403 768h-198q-8 0 -15.5 7t-7.5 15t0.5 19t2.5 21t5.5 17t10.5 7h201q8 0 16 -6.5t8 -15.5q0 -8 -1 -19t-3.5 -21t-7 -17t-11.5 -7z"/>
<glyph unicode="ā" horiz-adv-x="500" d="M445 359v-311q0 -9 -13 -19.5t-38.5 -19.5t-64 -15t-88.5 -6q-56 0 -95 10t-63 31t-35 53t-11 76q0 37 7 66t25.5 48.5t49.5 30t79 10.5q37 0 74.5 -6t63.5 -13v63q0 45 -25.5 66t-93.5 21q-34 0 -71 -4.5t-56 -7.5q-9 0 -14 7.5t-7.5 18t-3.5 21t-1 15.5q-1 16 2 21.5 t10 7.5t23.5 5t39 5.5t49 4t54.5 1.5q51 0 89 -7.5t63.5 -27.5t38 -55t12.5 -90zM336 88v123q-5 2 -17 5.5t-28 6.5t-33 5t-32 2q-42 0 -61 -15.5t-19 -64.5q0 -45 20 -62t70 -17q13 0 28.5 1.5t29.5 4t25.5 5.5t16.5 6zM351 610h-198q-8 0 -15.5 7t-7.5 15t0.5 19t2.5 21 t5.5 17t10.5 7h201q8 0 16 -6.5t8 -15.5q0 -8 -1 -19t-3.5 -21t-7 -17t-11.5 -7z"/>
<glyph unicode="Ă" horiz-adv-x="613" d="M497 12l-56 169h-246l-59 -172q-5 -15 -30.5 -18t-54.5 -3q-14 0 -26 4.5t-12 17.5q0 2 0.5 4t1.5 5l245 691q2 7 12.5 11t24 6t28 3t25.5 1q8 0 16 -5.5t12 -16.5l242 -690q1 -3 1.5 -5t0.5 -4q0 -13 -12.5 -17.5t-25.5 -4.5q-33 0 -57.5 3.5t-29.5 20.5zM311 541 l-85 -256h184l-85 256q-3 8 -4.5 17.5t-3.5 17.5q-2 -8 -2.5 -17.5t-3.5 -17.5zM306 762q-63 0 -99 27t-36 84q0 8 7.5 12t15.5 4q6 0 16.5 -0.5t21 -2t18.5 -4.5t8 -8q0 -20 14.5 -30.5t33.5 -10.5t33.5 10.5t14.5 30.5q0 5 8 8t18.5 4.5t21.5 2t17 0.5q8 0 15 -4t7 -12 q0 -57 -36 -84t-99 -27z"/>
<glyph unicode="ă" horiz-adv-x="500" d="M445 359v-311q0 -9 -13 -19.5t-38.5 -19.5t-64 -15t-88.5 -6q-56 0 -95 10t-63 31t-35 53t-11 76q0 37 7 66t25.5 48.5t49.5 30t79 10.5q37 0 74.5 -6t63.5 -13v63q0 45 -25.5 66t-93.5 21q-34 0 -71 -4.5t-56 -7.5q-9 0 -14 7.5t-7.5 18t-3.5 21t-1 15.5q-1 16 2 21.5 t10 7.5t23.5 5t39 5.5t49 4t54.5 1.5q51 0 89 -7.5t63.5 -27.5t38 -55t12.5 -90zM336 88v123q-5 2 -17 5.5t-28 6.5t-33 5t-32 2q-42 0 -61 -15.5t-19 -64.5q0 -45 20 -62t70 -17q13 0 28.5 1.5t29.5 4t25.5 5.5t16.5 6zM251 604q-63 0 -99 27t-36 84q0 8 7.5 12t15.5 4 q6 0 16.5 -0.5t21 -2t18.5 -4.5t8 -8q0 -20 14.5 -30.5t33.5 -10.5t33.5 10.5t14.5 30.5q0 5 8 8t18.5 4.5t21.5 2t17 0.5q8 0 15 -4t7 -12q0 -57 -36 -84t-99 -27z"/>
<glyph unicode="Ą" horiz-adv-x="613" d="M582 -85q7 4 13 -0.5t10 -11.5t6.5 -15t2.5 -12q-1 -9 -9.5 -16.5t-21.5 -13.5t-29 -9.5t-32 -3.5q-39 0 -62 19t-23 49q0 31 17 56.5t45 43.5h6q-7 5 -8 11l-56 169h-246l-59 -172q-5 -15 -30.5 -18t-54.5 -3q-14 0 -26 4.5t-12 17.5q0 2 0.5 4t1.5 5l245 691 q2 7 12.5 11t24 6t28 3t25.5 1q8 0 16 -5.5t12 -16.5l242 -690q1 -3 1.5 -5t0.5 -4q0 -13 -12.5 -17.5t-25.5 -4.5q-10 0 -18.5 0.5t-16.5 0.5q-16 -17 -22 -31.5t-6 -28.5q0 -9 5.5 -18t21.5 -9q8 0 16.5 4t17.5 9zM311 541l-85 -256h184l-85 256q-3 8 -4.5 17.5t-3.5 17.5 q-2 -8 -2.5 -17.5t-3.5 -17.5z"/>
<glyph unicode="ą" horiz-adv-x="500" d="M448 -43q7 4 13 -0.5t10 -11.5t6.5 -15t2.5 -12q-1 -9 -9.5 -16.5t-21.5 -13.5t-29 -9.5t-32 -3.5q-39 0 -62 19t-23 49q0 28 13 50q-17 -2 -35.5 -3.5t-39.5 -1.5q-56 0 -95 10t-63 31t-35 53t-11 76q0 37 7 66t25.5 48.5t49.5 30t79 10.5q37 0 74.5 -6t63.5 -13v63 q0 45 -25.5 66t-93.5 21q-34 0 -71 -4.5t-56 -7.5q-9 0 -14 7.5t-7.5 18t-3.5 21t-1 15.5q-1 16 2 21.5t10 7.5t23.5 5t39 5.5t49 4t54.5 1.5q51 0 89 -7.5t63.5 -27.5t38 -55t12.5 -90v-311q0 -8 -11 -18t-34 -18q-13 -22 -13 -41q0 -9 5.5 -18t21.5 -9q8 0 16.5 4t17.5 9z M336 88v123q-5 2 -17 5.5t-28 6.5t-33 5t-32 2q-42 0 -61 -15.5t-19 -64.5q0 -45 20 -62t70 -17q13 0 28.5 1.5t29.5 4t25.5 5.5t16.5 6z"/>
<glyph unicode="Ć" horiz-adv-x="570" d="M176 440v-161q0 -51 6.5 -87.5t25.5 -59t52.5 -33t86.5 -10.5h8q45 0 81 5.5t58 9.5q8 1 13.5 -7t8.5 -20t4.5 -26t1.5 -26q0 -11 -19.5 -18t-47.5 -11t-59 -6t-53 -2h-8q-71 0 -124 14t-88 46t-52.5 84t-17.5 129v197q0 77 17.5 129t53.5 84t90 46t127 14h8 q20 0 49.5 -2t57 -6.5t47 -11.5t19.5 -16q0 -16 -1 -30.5t-4 -25.5t-7 -17.5t-10 -5.5q-17 2 -56.5 8t-82.5 6h-8q-56 0 -90.5 -10.5t-53.5 -33t-26 -59t-7 -87.5zM273 779l89 123q4 6 15 6t23.5 -3t23.5 -7t16 -7q23 -13 26 -21.5t0 -12.5l-103 -90q-8 -8 -24.5 -9.5 t-35.5 0.5q-17 1 -27.5 5.5t-2.5 15.5z"/>
<glyph unicode="ć" horiz-adv-x="453" d="M392 94q7 0 11 -5t6 -13t3 -17.5t1 -18.5q1 -21 -4 -28.5t-19 -10.5q-15 -4 -51 -8.5t-79 -4.5q-55 0 -94.5 11t-64.5 35.5t-36.5 64.5t-11.5 97v135q0 57 12 96.5t38 64.5t67.5 36t100.5 11q38 0 74 -3.5t51 -8.5q10 -3 16 -8t5 -22q0 -9 -1.5 -20.5t-4.5 -21.5 t-8 -16.5t-12 -6.5q-4 0 -14.5 2t-25 4t-31.5 3.5t-34 1.5q-68 0 -94 -28.5t-26 -85.5v-130q0 -60 25.5 -87t91.5 -27q24 0 55 3t54 6zM192 621l89 123q4 6 15 6t23.5 -3t23.5 -7t16 -7q23 -13 26 -21.5t0 -12.5l-103 -90q-8 -8 -24.5 -9.5t-35.5 0.5q-17 1 -27.5 5.5 t-2.5 15.5z"/>
<glyph unicode="Ĉ" horiz-adv-x="570" d="M176 440v-161q0 -51 6.5 -87.5t25.5 -59t52.5 -33t86.5 -10.5h8q45 0 81 5.5t58 9.5q8 1 13.5 -7t8.5 -20t4.5 -26t1.5 -26q0 -11 -19.5 -18t-47.5 -11t-59 -6t-53 -2h-8q-71 0 -124 14t-88 46t-52.5 84t-17.5 129v197q0 77 17.5 129t53.5 84t90 46t127 14h8 q20 0 49.5 -2t57 -6.5t47 -11.5t19.5 -16q0 -16 -1 -30.5t-4 -25.5t-7 -17.5t-10 -5.5q-17 2 -56.5 8t-82.5 6h-8q-56 0 -90.5 -10.5t-53.5 -33t-26 -59t-7 -87.5zM194 789q-5 6 -6 13t7 12l119 82q5 4 10 4t10 -4l121 -82q6 -5 6.5 -12t-5.5 -13q-14 -15 -25.5 -23.5 t-15.5 -4.5l-91 44l-89 -44q-3 -2 -8.5 0.5t-11.5 7.5t-12 10.5t-9 9.5z"/>
<glyph unicode="ĉ" horiz-adv-x="453" d="M392 94q7 0 11 -5t6 -13t3 -17.5t1 -18.5q1 -21 -4 -28.5t-19 -10.5q-15 -4 -51 -8.5t-79 -4.5q-55 0 -94.5 11t-64.5 35.5t-36.5 64.5t-11.5 97v135q0 57 12 96.5t38 64.5t67.5 36t100.5 11q38 0 74 -3.5t51 -8.5q10 -3 16 -8t5 -22q0 -9 -1.5 -20.5t-4.5 -21.5 t-8 -16.5t-12 -6.5q-4 0 -14.5 2t-25 4t-31.5 3.5t-34 1.5q-68 0 -94 -28.5t-26 -85.5v-130q0 -60 25.5 -87t91.5 -27q24 0 55 3t54 6zM123 630q-5 6 -6 13t7 12l119 82q5 4 10 4t10 -4l121 -82q6 -5 6.5 -12t-5.5 -13q-14 -15 -25.5 -23.5t-15.5 -4.5l-91 44l-89 -44 q-3 -2 -8.5 0.5t-11.5 7.5t-12 10.5t-9 9.5z"/>
<glyph unicode="Ċ" horiz-adv-x="570" d="M176 440v-161q0 -51 6.5 -87.5t25.5 -59t52.5 -33t86.5 -10.5h8q45 0 81 5.5t58 9.5q8 1 13.5 -7t8.5 -20t4.5 -26t1.5 -26q0 -11 -19.5 -18t-47.5 -11t-59 -6t-53 -2h-8q-71 0 -124 14t-88 46t-52.5 84t-17.5 129v197q0 77 17.5 129t53.5 84t90 46t127 14h8 q20 0 49.5 -2t57 -6.5t47 -11.5t19.5 -16q0 -16 -1 -30.5t-4 -25.5t-7 -17.5t-10 -5.5q-17 2 -56.5 8t-82.5 6h-8q-56 0 -90.5 -10.5t-53.5 -33t-26 -59t-7 -87.5zM268 789v87q0 6 9.5 10t23 6.5t27.5 3t23 0.5q14 0 22.5 -7.5t8.5 -18.5v-75q0 -11 -8.5 -18.5t-22.5 -7.5 q-9 0 -23 1t-27.5 3.5t-23 6t-9.5 9.5z"/>
<glyph unicode="ċ" horiz-adv-x="453" d="M392 94q7 0 11 -5t6 -13t3 -17.5t1 -18.5q1 -21 -4 -28.5t-19 -10.5q-15 -4 -51 -8.5t-79 -4.5q-55 0 -94.5 11t-64.5 35.5t-36.5 64.5t-11.5 97v135q0 57 12 96.5t38 64.5t67.5 36t100.5 11q38 0 74 -3.5t51 -8.5q10 -3 16 -8t5 -22q0 -9 -1.5 -20.5t-4.5 -21.5 t-8 -16.5t-12 -6.5q-4 0 -14.5 2t-25 4t-31.5 3.5t-34 1.5q-68 0 -94 -28.5t-26 -85.5v-130q0 -60 25.5 -87t91.5 -27q24 0 55 3t54 6zM197 630v87q0 6 9.5 10t23 6.5t27.5 3t23 0.5q14 0 22.5 -7.5t8.5 -18.5v-75q0 -11 -8.5 -18.5t-22.5 -7.5q-9 0 -23 1t-27.5 3.5t-23 6 t-9.5 9.5z"/>
<glyph unicode="Č" horiz-adv-x="570" d="M176 440v-161q0 -51 6.5 -87.5t25.5 -59t52.5 -33t86.5 -10.5h8q45 0 81 5.5t58 9.5q8 1 13.5 -7t8.5 -20t4.5 -26t1.5 -26q0 -11 -19.5 -18t-47.5 -11t-59 -6t-53 -2h-8q-71 0 -124 14t-88 46t-52.5 84t-17.5 129v197q0 77 17.5 129t53.5 84t90 46t127 14h8 q20 0 49.5 -2t57 -6.5t47 -11.5t19.5 -16q0 -16 -1 -30.5t-4 -25.5t-7 -17.5t-10 -5.5q-17 2 -56.5 8t-82.5 6h-8q-56 0 -90.5 -10.5t-53.5 -33t-26 -59t-7 -87.5zM203 861q4 4 10 10.5t12.5 11.5t12 7.5t8.5 -0.5l79 -53l78 52q5 5 16.5 -4t25.5 -24q7 -8 6.5 -15.5 t-6.5 -12.5l-108 -74q-12 -10 -24 0l-109 74q-5 5 -6 13t5 15z"/>
<glyph unicode="č" horiz-adv-x="453" d="M392 94q7 0 11 -5t6 -13t3 -17.5t1 -18.5q1 -21 -4 -28.5t-19 -10.5q-15 -4 -51 -8.5t-79 -4.5q-55 0 -94.5 11t-64.5 35.5t-36.5 64.5t-11.5 97v135q0 57 12 96.5t38 64.5t67.5 36t100.5 11q38 0 74 -3.5t51 -8.5q10 -3 16 -8t5 -22q0 -9 -1.5 -20.5t-4.5 -21.5 t-8 -16.5t-12 -6.5q-4 0 -14.5 2t-25 4t-31.5 3.5t-34 1.5q-68 0 -94 -28.5t-26 -85.5v-130q0 -60 25.5 -87t91.5 -27q24 0 55 3t54 6zM132 702q4 4 10 10.5t12.5 11.5t12 7.5t8.5 -0.5l79 -53l78 52q5 5 16.5 -4t25.5 -24q7 -8 6.5 -15.5t-6.5 -12.5l-108 -74 q-12 -10 -24 0l-109 74q-5 5 -6 13t5 15z"/>
<glyph unicode="Ď" horiz-adv-x="654" d="M96 720h212q75 0 130 -14t91.5 -46t54.5 -84t18 -129v-174q0 -77 -18 -129t-54.5 -84t-91.5 -46t-130 -14h-198q-14 0 -29 6.5t-15 13.5v674q0 12 9 19t21 7zM308 613h-122v-506h122q51 0 84 10t52.5 32t27 57t7.5 84v139q0 49 -7.5 84t-27 57t-52.5 32.5t-84 10.5z M190 879q4 4 10 10.5t12.5 11.5t12 7.5t8.5 -0.5l79 -53l78 52q5 5 16.5 -4t25.5 -24q7 -8 6.5 -15.5t-6.5 -12.5l-108 -74q-12 -10 -24 0l-109 74q-5 5 -6 13t5 15z"/>
<glyph unicode="ď" horiz-adv-x="595" d="M474 728v-656q0 -17 -4.5 -25.5t-15.5 -16.5q-24 -14 -59.5 -22t-72 -12t-71 -5t-57.5 -1q-40 0 -66.5 13t-42 37t-21.5 59t-6 79v173q0 35 2.5 69t16 60.5t40.5 42.5t77 16q45 0 88.5 -11.5t78.5 -29.5v243q0 6 10 10t23.5 6.5t27.5 3t23 0.5q13 0 21 -8t8 -25zM361 405 q-7 4 -21.5 10t-33.5 11t-41.5 8.5t-46.5 3.5q-16 0 -25 -8.5t-14 -22t-6.5 -31t-1.5 -35.5v-160q0 -18 1.5 -35.5t6.5 -31t14 -22t25 -8.5q24 0 49 2t46 5.5t34.5 7t13.5 6.5v300zM680 729l-101 -170q-11 -18 -22 -23t-29 -5q-10 0 -9.5 8.5t0.5 15.5q0 2 2 4l44 188 q1 4 11 7.5t23.5 6t28.5 3.5t26 1q15 0 22.5 -7t7.5 -17q0 -7 -4 -12z"/>
<glyph unicode="Đ" horiz-adv-x="685" d="M125 720h212q75 0 130 -14t91.5 -46t54.5 -84t18 -129v-174q0 -77 -18 -129t-54.5 -84t-91.5 -46t-130 -14h-198q-14 0 -29 6.5t-15 13.5v307h-43q-8 0 -16 7t-8 15t0.5 19t2.5 21t6 17t11 7h47v281q0 12 9 19t21 7zM337 613h-122v-200h70q8 0 16 -6.5t8 -15.5 q0 -8 -1 -19t-3.5 -21t-7 -17t-11.5 -7h-71v-220h122q51 0 84 10t52.5 32t27 57t7.5 84v139q0 49 -7.5 84t-27 57t-52.5 32.5t-84 10.5z"/>
<glyph unicode="đ" d="M538 554h-63v-482q0 -17 -4.5 -25.5t-15.5 -16.5q-24 -14 -59.5 -22t-72.5 -12t-71.5 -5t-57.5 -1q-40 0 -66 13t-41.5 37t-21.5 59t-6 79v173q0 35 2.5 69t16 60.5t40.5 42.5t77 16q44 0 88 -11.5t79 -29.5v56h-69q-9 0 -14 8.5t-5 18.5q0 8 0.5 21t2.5 26t6 22t12 9h67 v82q0 6 9.5 10t23 6.5t28 3t23.5 0.5q13 0 21 -8t8 -25v-69h65q9 0 14 -8t5 -18q0 -8 -0.5 -21.5t-2.5 -26t-6.5 -22t-11.5 -9.5zM362 405q-8 4 -22 10t-33 11t-41.5 8.5t-46.5 3.5q-16 0 -25 -8.5t-14 -22t-6.5 -31t-1.5 -35.5v-160q0 -18 1.5 -35.5t6.5 -31t14 -22 t25 -8.5q24 0 49 2t46 5.5t34.5 7t13.5 6.5v300z"/>
<glyph unicode="Ē" horiz-adv-x="567" d="M66 20v674q0 13 9 19.5t22 6.5h401q11 0 18.5 -9t7.5 -20q0 -8 -1 -21.5t-3 -26t-6 -21.5t-10 -9h-318v-194h274q10 0 17.5 -8.5t7.5 -19.5q0 -8 -1 -21.5t-3 -26.5t-6 -22t-10 -9h-279v-205h312q11 0 18.5 -8.5t7.5 -20.5q0 -8 -1 -21t-3 -26t-6 -22t-10 -9h-393 q-14 0 -29.5 6.5t-15.5 13.5zM395 769h-198q-8 0 -15.5 7t-7.5 15t0.5 19t2.5 21t5.5 17t10.5 7h201q8 0 16 -6.5t8 -15.5q0 -8 -1 -19t-3.5 -21t-7 -17t-11.5 -7z"/>
<glyph unicode="ē" horiz-adv-x="494" d="M451 6q-17 -5 -38 -8t-44 -5.5t-46 -3.5t-43 -1q-60 0 -103.5 11t-71.5 38t-41 71.5t-13 111.5v134q0 97 53 141t165 44h13q54 0 90.5 -11.5t58.5 -32.5t31 -50.5t9 -64.5v-25q0 -40 -13 -70.5t-47.5 -51.5t-95 -31.5t-155.5 -10.5q0 -61 34 -85t112 -24q40 0 80 6t61 8 q4 0 7.5 -1t6 -6.5t4.5 -17t2 -31.5q1 -17 -1.5 -23.5t-14.5 -10.5zM361 370v17q0 32 -22 49t-71 17q-23 0 -43 -4.5t-34.5 -15.5t-22.5 -30t-8 -48v-78q60 0 99 4t61.5 14.5t31.5 28.5t9 46zM359 610h-198q-8 0 -15.5 7t-7.5 15t0.5 19t2.5 21t5.5 17t10.5 7h201 q8 0 16 -6.5t8 -15.5q0 -8 -1 -19t-3.5 -21t-7 -17t-11.5 -7z"/>
<glyph unicode="Ĕ" horiz-adv-x="567" d="M66 20v674q0 13 9 19.5t22 6.5h401q11 0 18.5 -9t7.5 -20q0 -8 -1 -21.5t-3 -26t-6 -21.5t-10 -9h-318v-194h274q10 0 17.5 -8.5t7.5 -19.5q0 -8 -1 -21.5t-3 -26.5t-6 -22t-10 -9h-279v-205h312q11 0 18.5 -8.5t7.5 -20.5q0 -8 -1 -21t-3 -26t-6 -22t-10 -9h-393 q-14 0 -29.5 6.5t-15.5 13.5zM295 763q-63 0 -99 27t-36 84q0 8 7.5 12t15.5 4q6 0 16.5 -0.5t21 -2t18.5 -4.5t8 -8q0 -20 14.5 -30.5t33.5 -10.5t33.5 10.5t14.5 30.5q0 5 8 8t18.5 4.5t21.5 2t17 0.5q8 0 15 -4t7 -12q0 -57 -36 -84t-99 -27z"/>
<glyph unicode="ĕ" horiz-adv-x="494" d="M451 6q-17 -5 -38 -8t-44 -5.5t-46 -3.5t-43 -1q-60 0 -103.5 11t-71.5 38t-41 71.5t-13 111.5v134q0 97 53 141t165 44h13q54 0 90.5 -11.5t58.5 -32.5t31 -50.5t9 -64.5v-25q0 -40 -13 -70.5t-47.5 -51.5t-95 -31.5t-155.5 -10.5q0 -61 34 -85t112 -24q40 0 80 6t61 8 q4 0 7.5 -1t6 -6.5t4.5 -17t2 -31.5q1 -17 -1.5 -23.5t-14.5 -10.5zM361 370v17q0 32 -22 49t-71 17q-23 0 -43 -4.5t-34.5 -15.5t-22.5 -30t-8 -48v-78q60 0 99 4t61.5 14.5t31.5 28.5t9 46zM258 604q-63 0 -99 27t-36 84q0 8 7.5 12t15.5 4q6 0 16.5 -0.5t21 -2t18.5 -4.5 t8 -8q0 -20 14.5 -30.5t33.5 -10.5t33.5 10.5t14.5 30.5q0 5 8 8t18.5 4.5t21.5 2t17 0.5q8 0 15 -4t7 -12q0 -57 -36 -84t-99 -27z"/>
<glyph unicode="Ė" horiz-adv-x="567" d="M66 20v674q0 13 9 19.5t22 6.5h401q11 0 18.5 -9t7.5 -20q0 -8 -1 -21.5t-3 -26t-6 -21.5t-10 -9h-318v-194h274q10 0 17.5 -8.5t7.5 -19.5q0 -8 -1 -21.5t-3 -26.5t-6 -22t-10 -9h-279v-205h312q11 0 18.5 -8.5t7.5 -20.5q0 -8 -1 -21t-3 -26t-6 -22t-10 -9h-393 q-14 0 -29.5 6.5t-15.5 13.5zM238 789v87q0 6 9.5 10t23 6.5t27.5 3t23 0.5q14 0 22.5 -7.5t8.5 -18.5v-75q0 -11 -8.5 -18.5t-22.5 -7.5q-9 0 -23 1t-27.5 3.5t-23 6t-9.5 9.5z"/>
<glyph unicode="ė" horiz-adv-x="494" d="M451 6q-17 -5 -38 -8t-44 -5.5t-46 -3.5t-43 -1q-60 0 -103.5 11t-71.5 38t-41 71.5t-13 111.5v134q0 97 53 141t165 44h13q54 0 90.5 -11.5t58.5 -32.5t31 -50.5t9 -64.5v-25q0 -40 -13 -70.5t-47.5 -51.5t-95 -31.5t-155.5 -10.5q0 -61 34 -85t112 -24q40 0 80 6t61 8 q4 0 7.5 -1t6 -6.5t4.5 -17t2 -31.5q1 -17 -1.5 -23.5t-14.5 -10.5zM361 370v17q0 32 -22 49t-71 17q-23 0 -43 -4.5t-34.5 -15.5t-22.5 -30t-8 -48v-78q60 0 99 4t61.5 14.5t31.5 28.5t9 46zM202 630v87q0 6 9.5 10t23 6.5t27.5 3t23 0.5q14 0 22.5 -7.5t8.5 -18.5v-75 q0 -11 -8.5 -18.5t-22.5 -7.5q-9 0 -23 1t-27.5 3.5t-23 6t-9.5 9.5z"/>
<glyph unicode="Ę" horiz-adv-x="567" d="M526 -85q7 4 13 -0.5t10 -11.5t6.5 -15t2.5 -12q-1 -9 -9.5 -16.5t-21.5 -13.5t-29 -9.5t-32 -3.5q-39 0 -62 19t-23 49q0 31 16.5 56t43.5 43h-330q-14 0 -29.5 6.5t-15.5 13.5v674q0 13 9 19.5t22 6.5h401q11 0 18.5 -9t7.5 -20q0 -8 -1 -21.5t-3 -26t-6 -21.5t-10 -9 h-318v-194h274q10 0 17.5 -8.5t7.5 -19.5q0 -8 -1 -21.5t-3 -26.5t-6 -22t-10 -9h-279v-205h312q11 0 18.5 -8.5t7.5 -20.5q0 -8 -1 -21t-3 -25.5t-5.5 -21.5t-9.5 -10q-22 -20 -31 -37.5t-9 -33.5q0 -9 5.5 -18t21.5 -9q8 0 16.5 4t17.5 9z"/>
<glyph unicode="ę" horiz-adv-x="494" d="M318 -86q7 4 13 -0.5t10 -11.5t6.5 -15t2.5 -12q-1 -9 -9.5 -16.5t-21.5 -13.5t-29 -9.5t-32 -3.5q-39 0 -62 19t-23 49q0 27 13 50.5t36 40.5q-45 5 -77.5 19.5t-53 41.5t-30.5 68.5t-10 99.5v134q0 97 53 141t165 44h13q54 0 90.5 -11.5t58.5 -32.5t31 -50.5t9 -64.5 v-25q0 -40 -13 -70.5t-47.5 -51.5t-95 -31.5t-155.5 -10.5q0 -61 34 -85t112 -24q40 0 80 6t61 8q4 0 7.5 -1t6 -6.5t4.5 -17t2 -31.5q1 -20 -2 -25t-14 -9q-16 -4 -36.5 -7.5t-42.5 -5.5t-44.5 -3.5t-42.5 -1.5q-16 -17 -22 -31.5t-6 -28.5q0 -9 5.5 -18t21.5 -9 q8 0 16.5 4t17.5 9zM361 370v17q0 32 -22 49t-71 17q-23 0 -43 -4.5t-34.5 -15.5t-22.5 -30t-8 -48v-78q60 0 99 4t61.5 14.5t31.5 28.5t9 46z"/>
<glyph unicode="Ě" horiz-adv-x="567" d="M66 20v674q0 13 9 19.5t22 6.5h401q11 0 18.5 -9t7.5 -20q0 -8 -1 -21.5t-3 -26t-6 -21.5t-10 -9h-318v-194h274q10 0 17.5 -8.5t7.5 -19.5q0 -8 -1 -21.5t-3 -26.5t-6 -22t-10 -9h-279v-205h312q11 0 18.5 -8.5t7.5 -20.5q0 -8 -1 -21t-3 -26t-6 -22t-10 -9h-393 q-14 0 -29.5 6.5t-15.5 13.5zM173 861q4 4 10 10.5t12.5 11.5t12 7.5t8.5 -0.5l79 -53l78 52q5 5 16.5 -4t25.5 -24q7 -8 6.5 -15.5t-6.5 -12.5l-108 -74q-12 -10 -24 0l-109 74q-5 5 -6 13t5 15z"/>
<glyph unicode="ě" horiz-adv-x="494" d="M451 6q-17 -5 -38 -8t-44 -5.5t-46 -3.5t-43 -1q-60 0 -103.5 11t-71.5 38t-41 71.5t-13 111.5v134q0 97 53 141t165 44h13q54 0 90.5 -11.5t58.5 -32.5t31 -50.5t9 -64.5v-25q0 -40 -13 -70.5t-47.5 -51.5t-95 -31.5t-155.5 -10.5q0 -61 34 -85t112 -24q40 0 80 6t61 8 q4 0 7.5 -1t6 -6.5t4.5 -17t2 -31.5q1 -17 -1.5 -23.5t-14.5 -10.5zM361 370v17q0 32 -22 49t-71 17q-23 0 -43 -4.5t-34.5 -15.5t-22.5 -30t-8 -48v-78q60 0 99 4t61.5 14.5t31.5 28.5t9 46zM136 702q4 4 10 10.5t12.5 11.5t12 7.5t8.5 -0.5l79 -53l78 52q5 5 16.5 -4 t25.5 -24q7 -8 6.5 -15.5t-6.5 -12.5l-108 -74q-12 -10 -24 0l-109 74q-5 5 -6 13t5 15z"/>
<glyph unicode="Ĝ" horiz-adv-x="618" d="M176 440v-161q0 -50 8 -85t27.5 -57t53.5 -32t87 -10h9q32 0 59 3t59 8v237q0 6 8.5 10t22 6.5t30 3.5t31.5 1t21 -9t6 -23v-275q0 -17 -4.5 -24t-16.5 -12q-15 -7 -40 -13t-54.5 -10.5t-61 -7t-60.5 -2.5h-9q-76 0 -132 14t-93 46t-55.5 84t-18.5 129v197q0 77 18.5 129 t56.5 84t95 46t134 14h19q37 0 77 -2t72 -6.5t53 -12.5t21 -19q0 -14 -2 -29t-6 -27.5t-10 -20t-13 -7.5q-22 4 -67 10.5t-107 6.5h-19q-60 0 -98.5 -10t-61 -32t-31 -57t-8.5 -85zM200 789q-5 6 -6 13t7 12l119 82q5 4 10 4t10 -4l121 -82q6 -5 6.5 -12t-5.5 -13 q-14 -15 -25.5 -23.5t-15.5 -4.5l-91 44l-89 -44q-3 -2 -8.5 0.5t-11.5 7.5t-12 10.5t-9 9.5z"/>
<glyph unicode="ĝ" d="M228 -143q42 0 68 6.5t40.5 20t19.5 35.5t5 52v60q-34 -18 -75 -30.5t-81 -12.5q-53 0 -83 16.5t-44.5 43.5t-17.5 61t-3 69v173q0 44 6.5 79t23.5 59t45.5 37t72.5 13q11 0 35 -2t53.5 -6t61.5 -11t58 -17.5t43 -24.5t17 -32v-475q0 -54 -11 -93.5t-37.5 -65t-69 -38 t-105.5 -12.5q-39 0 -84.5 2.5t-83.5 10.5q-14 3 -18 11.5t-4 21.5q0 9 2 20t5 20.5t8 16t11 6.5q24 -4 63.5 -9t78.5 -5zM361 120v289q0 6 -12.5 12.5t-31.5 11.5t-40.5 8.5t-39.5 3.5q-21 0 -34.5 -8.5t-20.5 -22t-9.5 -31t-2.5 -35.5v-166q0 -18 2.5 -36t9.5 -31.5 t20.5 -22t34.5 -8.5q42 0 76 12t48 24zM167 630q-5 6 -6 13t7 12l119 82q5 4 10 4t10 -4l121 -82q6 -5 6.5 -12t-5.5 -13q-14 -15 -25.5 -23.5t-15.5 -4.5l-91 44l-89 -44q-3 -2 -8.5 0.5t-11.5 7.5t-12 10.5t-9 9.5z"/>
<glyph unicode="Ğ" horiz-adv-x="618" d="M176 440v-161q0 -50 8 -85t27.5 -57t53.5 -32t87 -10h9q32 0 59 3t59 8v237q0 6 8.5 10t22 6.5t30 3.5t31.5 1t21 -9t6 -23v-275q0 -17 -4.5 -24t-16.5 -12q-15 -7 -40 -13t-54.5 -10.5t-61 -7t-60.5 -2.5h-9q-76 0 -132 14t-93 46t-55.5 84t-18.5 129v197q0 77 18.5 129 t56.5 84t95 46t134 14h19q37 0 77 -2t72 -6.5t53 -12.5t21 -19q0 -14 -2 -29t-6 -27.5t-10 -20t-13 -7.5q-22 4 -67 10.5t-107 6.5h-19q-60 0 -98.5 -10t-61 -32t-31 -57t-8.5 -85zM323 763q-63 0 -99 27t-36 84q0 8 7.5 12t15.5 4q6 0 16.5 -0.5t21 -2t18.5 -4.5t8 -8 q0 -20 14.5 -30.5t33.5 -10.5t33.5 10.5t14.5 30.5q0 5 8 8t18.5 4.5t21.5 2t17 0.5q8 0 15 -4t7 -12q0 -57 -36 -84t-99 -27z"/>
<glyph unicode="ğ" d="M228 -143q42 0 68 6.5t40.5 20t19.5 35.5t5 52v60q-34 -18 -75 -30.5t-81 -12.5q-53 0 -83 16.5t-44.5 43.5t-17.5 61t-3 69v173q0 44 6.5 79t23.5 59t45.5 37t72.5 13q11 0 35 -2t53.5 -6t61.5 -11t58 -17.5t43 -24.5t17 -32v-475q0 -54 -11 -93.5t-37.5 -65t-69 -38 t-105.5 -12.5q-39 0 -84.5 2.5t-83.5 10.5q-14 3 -18 11.5t-4 21.5q0 9 2 20t5 20.5t8 16t11 6.5q24 -4 63.5 -9t78.5 -5zM361 120v289q0 6 -12.5 12.5t-31.5 11.5t-40.5 8.5t-39.5 3.5q-21 0 -34.5 -8.5t-20.5 -22t-9.5 -31t-2.5 -35.5v-166q0 -18 2.5 -36t9.5 -31.5 t20.5 -22t34.5 -8.5q42 0 76 12t48 24zM282 604q-63 0 -99 27t-36 84q0 8 7.5 12t15.5 4q6 0 16.5 -0.5t21 -2t18.5 -4.5t8 -8q0 -20 14.5 -30.5t33.5 -10.5t33.5 10.5t14.5 30.5q0 5 8 8t18.5 4.5t21.5 2t17 0.5q8 0 15 -4t7 -12q0 -57 -36 -84t-99 -27z"/>
<glyph unicode="Ġ" horiz-adv-x="618" d="M176 440v-161q0 -50 8 -85t27.5 -57t53.5 -32t87 -10h9q32 0 59 3t59 8v237q0 6 8.5 10t22 6.5t30 3.5t31.5 1t21 -9t6 -23v-275q0 -17 -4.5 -24t-16.5 -12q-15 -7 -40 -13t-54.5 -10.5t-61 -7t-60.5 -2.5h-9q-76 0 -132 14t-93 46t-55.5 84t-18.5 129v197q0 77 18.5 129 t56.5 84t95 46t134 14h19q37 0 77 -2t72 -6.5t53 -12.5t21 -19q0 -14 -2 -29t-6 -27.5t-10 -20t-13 -7.5q-22 4 -67 10.5t-107 6.5h-19q-60 0 -98.5 -10t-61 -32t-31 -57t-8.5 -85zM275 785v87q0 6 9.5 10t23 6.5t27.5 3t23 0.5q14 0 22.5 -7.5t8.5 -18.5v-75 q0 -11 -8.5 -18.5t-22.5 -7.5q-9 0 -23 1t-27.5 3.5t-23 6t-9.5 9.5z"/>
<glyph unicode="ġ" d="M228 -143q42 0 68 6.5t40.5 20t19.5 35.5t5 52v60q-34 -18 -75 -30.5t-81 -12.5q-53 0 -83 16.5t-44.5 43.5t-17.5 61t-3 69v173q0 44 6.5 79t23.5 59t45.5 37t72.5 13q11 0 35 -2t53.5 -6t61.5 -11t58 -17.5t43 -24.5t17 -32v-475q0 -54 -11 -93.5t-37.5 -65t-69 -38 t-105.5 -12.5q-39 0 -84.5 2.5t-83.5 10.5q-14 3 -18 11.5t-4 21.5q0 9 2 20t5 20.5t8 16t11 6.5q24 -4 63.5 -9t78.5 -5zM361 120v289q0 6 -12.5 12.5t-31.5 11.5t-40.5 8.5t-39.5 3.5q-21 0 -34.5 -8.5t-20.5 -22t-9.5 -31t-2.5 -35.5v-166q0 -18 2.5 -36t9.5 -31.5 t20.5 -22t34.5 -8.5q42 0 76 12t48 24zM226 630v87q0 6 9.5 10t23 6.5t27.5 3t23 0.5q14 0 22.5 -7.5t8.5 -18.5v-75q0 -11 -8.5 -18.5t-22.5 -7.5q-9 0 -23 1t-27.5 3.5t-23 6t-9.5 9.5z"/>
<glyph unicode="Ģ" horiz-adv-x="618" d="M176 440v-161q0 -50 8 -85t27.5 -57t53.5 -32t87 -10h9q32 0 59 3t59 8v237q0 6 8.5 10t22 6.5t30 3.5t31.5 1t21 -9t6 -23v-275q0 -17 -4.5 -24t-16.5 -12q-15 -7 -40 -13t-54.5 -10.5t-61 -7t-60.5 -2.5h-9q-76 0 -132 14t-93 46t-55.5 84t-18.5 129v197q0 77 18.5 129 t56.5 84t95 46t134 14h19q37 0 77 -2t72 -6.5t53 -12.5t21 -19q0 -14 -2 -29t-6 -27.5t-10 -20t-13 -7.5q-22 4 -67 10.5t-107 6.5h-19q-60 0 -98.5 -10t-61 -32t-31 -57t-8.5 -85zM388 -57l-98 -164q-12 -20 -24 -23t-26 -3q-10 0 -9.5 9.5t2.5 18.5l43 179q1 5 11 8.5 t24 5.5t28.5 2.5t25.5 0.5q8 0 17 -5t9 -17q0 -6 -3 -12z"/>
<glyph unicode="ģ" d="M228 -143q42 0 68 6.5t40.5 20t19.5 35.5t5 52v60q-34 -18 -75 -30.5t-81 -12.5q-53 0 -83 16.5t-44.5 43.5t-17.5 61t-3 69v173q0 44 6.5 79t23.5 59t45.5 37t72.5 13q11 0 35 -2t53.5 -6t61.5 -11t58 -17.5t43 -24.5t17 -32v-475q0 -54 -11 -93.5t-37.5 -65t-69 -38 t-105.5 -12.5q-39 0 -84.5 2.5t-83.5 10.5q-14 3 -18 11.5t-4 21.5q0 9 2 20t5 20.5t8 16t11 6.5q24 -4 63.5 -9t78.5 -5zM361 120v289q0 6 -12.5 12.5t-31.5 11.5t-40.5 8.5t-39.5 3.5q-21 0 -34.5 -8.5t-20.5 -22t-9.5 -31t-2.5 -35.5v-166q0 -18 2.5 -36t9.5 -31.5 t20.5 -22t34.5 -8.5q42 0 76 12t48 24zM229 646l63 157q11 19 30 22.5t48 3.5q23 0 16 -27l-44 -171q-5 -21 -32.5 -26t-59.5 -5q-23 0 -26 13.5t5 32.5z"/>
<glyph unicode="Ĥ" horiz-adv-x="687" d="M621 701v-683q0 -30 -30 -30q-9 0 -24 1.5t-30 4t-25.5 7t-10.5 10.5v308h-315v-302q0 -29 -31 -29q-9 0 -24 1t-29.5 4t-25 7.5t-10.5 10.5v696q0 6 10.5 10.5t25 7.5t29.5 4.5t24 1.5q31 0 31 -30v-273h315v279q0 6 10.5 10.5t25.5 7.5t30 4.5t24 1.5q30 0 30 -30z M215 797q-5 6 -6 13t7 12l119 82q5 4 10 4t10 -4l121 -82q6 -5 6.5 -12t-5.5 -13q-14 -15 -25.5 -23.5t-15.5 -4.5l-91 44l-89 -44q-3 -2 -8.5 0.5t-11.5 7.5t-12 10.5t-9 9.5z"/>
<glyph unicode="ĥ" horiz-adv-x="538" d="M369 8v334q0 22 -2 39.5t-9 30t-20 19.5t-34 7q-20 0 -42 -4.5t-40.5 -10.5t-31.5 -12.5t-14 -10.5v-387q0 -14 -10 -19.5t-21 -5.5q-8 0 -22 0.5t-27.5 3t-23 6.5t-9.5 10v738q1 7 13 11t26.5 5.5t27 2t15.5 0.5q12 0 21.5 -6.5t9.5 -18.5v-245q27 17 69 30.5t88 13.5 q52 0 82 -15t45 -40.5t18.5 -60t3.5 -74.5v-336q0 -14 -10.5 -19.5t-21.5 -5.5q-8 0 -22 0.5t-27 3t-22.5 6.5t-9.5 10zM-11 817q-5 6 -6 13t7 12l119 82q5 4 10 4t10 -4l121 -82q6 -5 6.5 -12t-5.5 -13q-14 -15 -25.5 -23.5t-15.5 -4.5l-91 44l-89 -44q-3 -2 -8.5 0.5 t-11.5 7.5t-12 10.5t-9 9.5z"/>
<glyph unicode="Ħ" horiz-adv-x="705" d="M630 701v-61h55q10 0 15.5 -8t5.5 -18q0 -8 -0.5 -20.5t-2.5 -24t-6.5 -20t-12.5 -8.5h-54v-523q0 -30 -30 -30q-9 0 -24 1.5t-30 4t-25.5 7t-10.5 10.5v308h-315v-302q0 -29 -31 -29q-9 0 -24 1t-29.5 4t-25 7.5t-10.5 10.5v530h-55q-9 0 -14.5 8t-5.5 19q0 8 0.5 20 t2.5 23.5t6.5 20t12.5 8.5h53v67q0 6 10.5 10.5t25 7.5t29.5 4.5t24 1.5q31 0 31 -30v-61h315v67q0 6 10.5 10.5t25.5 7.5t30 4.5t24 1.5q30 0 30 -30zM195 428h315v113h-315v-113z"/>
<glyph unicode="ħ" horiz-adv-x="555" d="M225 602h-41v-107q27 17 69 30.5t88 13.5q52 0 82 -15t45 -40.5t18.5 -60t3.5 -74.5v-336q0 -14 -10.5 -19.5t-21.5 -5.5q-8 0 -22 0.5t-27 3t-22.5 6.5t-9.5 10v334q0 22 -2 39.5t-9 30t-20 19.5t-34 7q-20 0 -42 -4.5t-40.5 -10.5t-31.5 -12.5t-14 -10.5v-387 q0 -14 -10 -19.5t-21 -5.5q-8 0 -22 0.5t-27.5 3t-23 6.5t-9.5 10v594h-44q-8 0 -15.5 7t-7.5 15t0.5 19t2.5 21t5.5 17t10.5 7h48v58q1 7 13 11t26.5 5.5t27 2t15.5 0.5q12 0 21.5 -6.5t9.5 -18.5v-52h40q8 0 16 -6.5t8 -15.5q0 -8 -1 -19t-3.5 -21t-7 -17t-11.5 -7z"/>
<glyph unicode="Ĩ" horiz-adv-x="252" d="M186 15q0 -12 -9 -19.5t-22 -7.5q-9 0 -24 1t-29.5 3t-25 6.5t-10.5 10.5v701q0 6 10.5 10.5t25 6.5t29.5 3t24 1q13 0 22 -8t9 -19v-689zM82 869q13 -1 23 -5t19 -9t17.5 -9t18.5 -4q9 -1 21.5 5t12.5 18q0 5 9.5 7.5t20.5 2.5q14 0 26 -4.5t11 -15.5 q-2 -27 -11.5 -45.5t-23.5 -30t-29.5 -16t-29.5 -3.5q-13 1 -22.5 5t-18.5 9t-18 9t-19 4q-10 1 -22 -4.5t-12 -18.5q0 -5 -9 -7.5t-21 -2.5q-14 0 -26 4.5t-11 15.5q1 27 11 45.5t23.5 29.5t29.5 16t30 4z"/>
<glyph unicode="ĩ" horiz-adv-x="291" d="M261 101q6 0 10 -8t7 -19t5 -22.5t2 -17.5q1 -14 -4 -20.5t-16 -10.5q-17 -7 -36 -11t-49 -4q-26 0 -48.5 6.5t-39.5 22t-26.5 42t-9.5 66.5v395q0 6 10.5 10t24 6t27.5 2.5t21 0.5q12 0 21 -6t9 -18v-369q0 -26 8 -39.5t37 -13.5q11 0 22 2.5t25 5.5zM74 710 q13 -1 23 -5t19 -9t17.5 -9t18.5 -4q9 -1 21.5 5t12.5 18q0 5 9.5 7.5t20.5 2.5q14 0 26 -4.5t11 -15.5q-2 -27 -11.5 -45.5t-23.5 -30t-29.5 -16t-29.5 -3.5q-13 1 -22.5 5t-18.5 9t-18 9t-19 4q-10 1 -22 -4.5t-12 -18.5q0 -5 -9 -7.5t-21 -2.5q-14 0 -26 4.5t-11 15.5 q1 27 11 45.5t23.5 29.5t29.5 16t30 4z"/>
<glyph unicode="Ī" horiz-adv-x="252" d="M186 15q0 -12 -9 -19.5t-22 -7.5q-9 0 -24 1t-29.5 3t-25 6.5t-10.5 10.5v701q0 6 10.5 10.5t25 6.5t29.5 3t24 1q13 0 22 -8t9 -19v-689zM226 769h-198q-8 0 -15.5 7t-7.5 15t0.5 19t2.5 21t5.5 17t10.5 7h201q8 0 16 -6.5t8 -15.5q0 -8 -1 -19t-3.5 -21t-7 -17 t-11.5 -7z"/>
<glyph unicode="ī" horiz-adv-x="291" d="M261 101q6 0 10 -8t7 -19t5 -22.5t2 -17.5q1 -14 -4 -20.5t-16 -10.5q-17 -7 -36 -11t-49 -4q-26 0 -48.5 6.5t-39.5 22t-26.5 42t-9.5 66.5v395q0 6 10.5 10t24 6t27.5 2.5t21 0.5q12 0 21 -6t9 -18v-369q0 -26 8 -39.5t37 -13.5q11 0 22 2.5t25 5.5zM218 610h-198 q-8 0 -15.5 7t-7.5 15t0.5 19t2.5 21t5.5 17t10.5 7h201q8 0 16 -6.5t8 -15.5q0 -8 -1 -19t-3.5 -21t-7 -17t-11.5 -7z"/>
<glyph unicode="Ĭ" horiz-adv-x="252" d="M186 15q0 -12 -9 -19.5t-22 -7.5q-9 0 -24 1t-29.5 3t-25 6.5t-10.5 10.5v701q0 6 10.5 10.5t25 6.5t29.5 3t24 1q13 0 22 -8t9 -19v-689zM126 763q-63 0 -99 27t-36 84q0 8 7.5 12t15.5 4q6 0 16.5 -0.5t21 -2t18.5 -4.5t8 -8q0 -20 14.5 -30.5t33.5 -10.5t33.5 10.5 t14.5 30.5q0 5 8 8t18.5 4.5t21.5 2t17 0.5q8 0 15 -4t7 -12q0 -57 -36 -84t-99 -27z"/>
<glyph unicode="ĭ" horiz-adv-x="291" d="M261 101q6 0 10 -8t7 -19t5 -22.5t2 -17.5q1 -14 -4 -20.5t-16 -10.5q-17 -7 -36 -11t-49 -4q-26 0 -48.5 6.5t-39.5 22t-26.5 42t-9.5 66.5v395q0 6 10.5 10t24 6t27.5 2.5t21 0.5q12 0 21 -6t9 -18v-369q0 -26 8 -39.5t37 -13.5q11 0 22 2.5t25 5.5zM118 604 q-63 0 -99 27t-36 84q0 8 7.5 12t15.5 4q6 0 16.5 -0.5t21 -2t18.5 -4.5t8 -8q0 -20 14.5 -30.5t33.5 -10.5t33.5 10.5t14.5 30.5q0 5 8 8t18.5 4.5t21.5 2t17 0.5q8 0 15 -4t7 -12q0 -57 -36 -84t-99 -27z"/>
<glyph unicode="Į" horiz-adv-x="252" d="M179 -88q7 4 13 -0.5t10 -11.5t6.5 -15t2.5 -12q-1 -9 -9.5 -16.5t-21.5 -13.5t-29 -9.5t-32 -3.5q-39 0 -62 19t-23 49q0 29 15 53.5t41 42.5q-11 2 -17.5 6t-6.5 9v701q0 6 10.5 10.5t25 6.5t29.5 3t24 1q13 0 22 -8t9 -19v-689q0 -12 -9 -19.5t-22 -7.5h-7 q-17 -17 -23.5 -32.5t-6.5 -29.5q0 -9 5.5 -18t21.5 -9q8 0 16.5 4t17.5 9z"/>
<glyph unicode="į" horiz-adv-x="291" d="M242 -68q7 4 13 -0.5t10 -11.5t6.5 -15t2.5 -12q-1 -9 -9.5 -16.5t-21.5 -13.5t-29 -9.5t-32 -3.5q-39 0 -62 19t-23 49q0 23 9 42.5t26 36.5q-31 11 -50.5 41t-19.5 87v395q0 6 10 9.5t23.5 6t27.5 3t23 0.5q11 0 20 -6.5t9 -17.5v-369q0 -24 8 -38.5t34 -14.5 q11 0 23 2.5t25 4.5q5 0 9.5 -7.5t7.5 -18t5 -22t3 -18.5q1 -25 -20 -32q-26 -8 -41.5 -10.5t-33.5 -3.5q-14 -21 -14 -42q0 -9 5.5 -18t21.5 -9q8 0 16.5 4t17.5 9zM63 631v105q0 6 9.5 10t23 6.5t27.5 3t23 0.5q13 0 21.5 -7.5t8.5 -19.5v-92q0 -11 -8.5 -19t-21.5 -8 q-9 0 -23 1t-27.5 3t-23 6.5t-9.5 10.5z"/>
<glyph unicode="İ" horiz-adv-x="252" d="M186 15q0 -12 -9 -19.5t-22 -7.5q-9 0 -24 1t-29.5 3t-25 6.5t-10.5 10.5v701q0 6 10.5 10.5t25 6.5t29.5 3t24 1q13 0 22 -8t9 -19v-689zM70 789v87q0 6 9.5 10t23 6.5t27.5 3t23 0.5q14 0 22.5 -7.5t8.5 -18.5v-75q0 -11 -8.5 -18.5t-22.5 -7.5q-9 0 -23 1t-27.5 3.5 t-23 6t-9.5 9.5z"/>
<glyph unicode="ı" horiz-adv-x="291" d="M261 101q6 0 10 -8t7 -19t5 -22.5t2 -17.5q1 -14 -4 -20.5t-16 -10.5q-17 -7 -36 -11t-49 -4q-26 0 -48.5 6.5t-39.5 22t-26.5 42t-9.5 66.5v395q0 6 10.5 10t24 6t27.5 2.5t21 0.5q12 0 21 -6t9 -18v-369q0 -26 8 -39.5t37 -13.5q11 0 22 2.5t25 5.5z"/>
<glyph unicode="Ĳ" horiz-adv-x="506" d="M186 15q0 -12 -9 -19.5t-22 -7.5q-9 0 -24 1t-29.5 3t-25 6.5t-10.5 10.5v701q0 6 10.5 10.5t25 6.5t29.5 3t24 1q13 0 22 -8t9 -19v-689zM194 -128q20 -3 34.5 -5t28.5 -2q32 0 47.5 14t15.5 58v773q0 6 10.5 10.5t24.5 6.5t29.5 3t24.5 1q13 0 22 -8t9 -19v-763 q0 -94 -37.5 -136t-115.5 -42q-18 0 -42.5 1.5t-58.5 8.5q-14 3 -18.5 11.5t-2.5 21.5q9 69 29 66z"/>
<glyph unicode="ĳ" horiz-adv-x="459" d="M183 -132q33 -10 59 -10q33 0 41 34.5t8 94.5v39q-4 -13 -15 -17q-27 -11 -50.5 -16t-49.5 -5q-23 0 -44 6.5t-37 22.5t-25.5 42.5t-9.5 65.5v395q0 6 10 9.5t23.5 6t27.5 3t22 0.5q12 0 21 -6.5t9 -17.5v-369q0 -24 7 -38.5t29 -14.5q6 0 15 2.5t31 8.5q5 2 10.5 -5 t10.5 -17t8.5 -21.5t3.5 -18.5q0 -1 1.5 -1.5t1.5 -1.5v481q0 6 9.5 9.5t23 6t27 3t22.5 0.5q12 0 21 -6.5t9 -17.5v-553q0 -110 -35.5 -160.5t-110.5 -50.5q-18 0 -41 2.5t-56 14.5q-21 8 -15 32q1 3 4.5 14.5t9 24t12 22t12.5 7.5zM290 639v99q0 6 9.5 10.5t23 6.5t27.5 3 t23 1q13 0 22 -8t9 -20v-86q0 -11 -9 -19t-22 -8q-9 0 -23 1t-27.5 3t-23 6.5t-9.5 10.5zM60 639v99q0 6 9.5 10.5t23 6.5t27.5 3t23 1q13 0 22 -8t9 -20v-86q0 -11 -9 -19t-22 -8q-9 0 -23 1t-27.5 3t-23 6.5t-9.5 10.5z"/>
<glyph unicode="Ĵ" horiz-adv-x="322" d="M-58 -128q20 -3 34.5 -5t28.5 -2q32 0 47.5 14t15.5 58v773q0 6 10.5 10.5t24.5 6.5t29.5 3t24.5 1q13 0 22 -8t9 -19v-763q0 -94 -37.5 -136t-115.5 -42q-18 0 -42.5 1.5t-58.5 8.5q-14 3 -18.5 11.5t-2.5 21.5q9 69 29 66zM-1 800q-5 6 -6 13t7 12l119 82q5 4 10 4 t10 -4l121 -82q6 -5 6.5 -12t-5.5 -13q-14 -15 -25.5 -23.5t-15.5 -4.5l-91 44l-89 -44q-3 -2 -8.5 0.5t-11.5 7.5t-12 10.5t-9 9.5z"/>
<glyph unicode="ĵ" horiz-adv-x="233" d="M-47 -106q8 -1 22 -3.5t27 -2.5q34 0 47 17t13 52v563q0 6 10 9.5t23.5 6t27.5 3t22 0.5q12 0 21 -6.5t9 -17.5v-553q0 -84 -31.5 -128t-108.5 -44q-15 0 -35 1t-40 5q-16 3 -22 10t-6 18t1.5 23.5t4 23t6.5 17t9 6.5zM-11 623q-5 6 -6 13t7 12l119 82q5 4 10 4t10 -4 l121 -82q6 -5 6.5 -12t-5.5 -13q-14 -15 -25.5 -23.5t-15.5 -4.5l-91 44l-89 -44q-3 -2 -8.5 0.5t-11.5 7.5t-12 10.5t-9 9.5z"/>
<glyph unicode="Ķ" horiz-adv-x="649" d="M185 15q0 -12 -8.5 -19.5t-21.5 -7.5q-9 0 -24 1t-29.5 3t-25 6.5t-10.5 10.5v701q0 6 10.5 10.5t25 6.5t29.5 3t24 1q13 0 21.5 -8t8.5 -19v-315l278 321q13 15 41 18t54 3q9 0 21.5 -3t12.5 -16q0 -12 -17 -32l-264 -302l295 -339q18 -21 18 -32q0 -14 -12.5 -16.5 t-22.5 -2.5q-25 0 -53.5 3t-41.5 18l-309 357v-351zM399 -129l-98 -164q-12 -20 -24 -23t-26 -3q-10 0 -9.5 9.5t2.5 18.5l43 179q1 5 11 8.5t24 5.5t28.5 2.5t25.5 0.5q8 0 17 -5t9 -17q0 -6 -3 -12z"/>
<glyph unicode="ķ" horiz-adv-x="483" d="M176 728v-437l177 227q4 7 13 11t19 6t20 3t17 1q9 0 19.5 -1.5t18 -5.5t9.5 -11.5t-6 -19.5l-172 -220l199 -269q9 -12 -5.5 -18t-39.5 -6q-5 0 -15 0.5t-21 2.5t-21.5 6.5t-15.5 13.5l-196 260v-250q0 -17 -8 -25t-21 -8q-9 0 -23.5 0.5t-28 3t-23 6.5t-9.5 10v733 q0 6 9.5 10t23 6.5t28 3t23.5 0.5q13 0 21 -8t8 -25zM320 -129l-98 -164q-12 -20 -24 -23t-26 -3q-10 0 -9.5 9.5t2.5 18.5l43 179q1 5 11 8.5t24 5.5t28.5 2.5t25.5 0.5q8 0 17 -5t9 -17q0 -6 -3 -12z"/>
<glyph unicode="ĸ" horiz-adv-x="510" d="M161 8q0 -9 -8.5 -14.5t-18.5 -5.5q-8 0 -22 0.5t-28 2.5t-24.5 5.5t-10.5 9.5v514q0 6 10.5 9.5t24.5 5.5t28 3t22 1q10 0 18.5 -6t8.5 -15v-229l195 231q6 7 16 10.5t22.5 5.5t25 2.5t23.5 0.5q9 0 21 -2.5t12 -14.5t-14 -27l-190 -215l216 -248q14 -17 14 -27 q0 -12 -12 -14.5t-20 -2.5q-22 0 -49 2.5t-39 16.5l-221 263v-262z"/>
<glyph unicode="Ĺ" horiz-adv-x="535" d="M478 0h-358q-18 0 -36 4t-18 16v690q0 6 10.5 10.5t25 6.5t30 3t24.5 1q13 0 21.5 -8t8.5 -19v-597h287q10 0 17 -8.5t7 -20.5q0 -8 -0.5 -21.5t-3 -26t-6 -21.5t-9.5 -9zM66 782l89 123q4 6 15 6t23.5 -3t23.5 -7t16 -7q23 -13 26 -21.5t0 -12.5l-103 -90 q-8 -8 -24.5 -9.5t-35.5 0.5q-17 1 -27.5 5.5t-2.5 15.5z"/>
<glyph unicode="ĺ" horiz-adv-x="291" d="M265 100q5 0 9.5 -7.5t7.5 -18t5 -22t3 -18.5q1 -25 -20 -32q-26 -8 -44 -11t-37 -3q-26 0 -49.5 6.5t-40.5 22t-27 42t-10 66.5v617q0 6 10 9.5t23.5 6t27.5 3t23 0.5q11 0 20 -6.5t9 -17.5v-591q0 -24 8 -38.5t34 -14.5q11 0 23 2.5t25 4.5zM190 625l89 123q4 6 15 6 t23.5 -3t23.5 -7t16 -7q23 -13 26 -21.5t0 -12.5l-103 -90q-8 -8 -24.5 -9.5t-35.5 0.5q-17 1 -27.5 5.5t-2.5 15.5z"/>
<glyph unicode="Ļ" horiz-adv-x="535" d="M361 -71l-86 -128q-13 -19 -24 -22.5t-25 -3.5q-11 0 -10.5 9.5t2.5 18.5l31 143q1 5 11 8.5t24 5.5t28.5 2.5t25.5 0.5q8 0 17 -5t9 -17q0 -6 -3 -12zM478 0h-358q-18 0 -36 4t-18 16v690q0 6 10.5 10.5t25 6.5t30 3t24.5 1q13 0 21.5 -8t8.5 -19v-597h287q10 0 17 -8.5 t7 -20.5q0 -8 -0.5 -21.5t-3 -26t-6 -21.5t-9.5 -9z"/>
<glyph unicode="ļ" horiz-adv-x="300" d="M265 104q5 2 10 -4t10 -16t9 -21.5t6 -20.5q6 -24 -14 -33q-25 -10 -47 -15.5t-53 -5.5q-23 0 -44 6.5t-37 22.5t-25.5 42.5t-9.5 65.5v616q0 6 9.5 10t23 6.5t27.5 3t23 0.5q13 0 21.5 -8t8.5 -25v-582q0 -26 7 -39.5t29 -13.5q6 0 15 2.5t31 8.5zM234 -74l-89 -131 q-13 -19 -24 -23t-25 -4q-10 0 -9.5 9.5t2.5 19.5l33 146q1 5 11.5 8t24 5t28.5 2.5t25 0.5q8 0 17 -4.5t9 -16.5q0 -2 -0.5 -6t-2.5 -6z"/>
<glyph unicode="Ľ" horiz-adv-x="534" d="M478 0h-358q-18 0 -36 4t-18 16v690q0 6 10.5 10.5t25 6.5t30 3t24.5 1q13 0 21.5 -8t8.5 -19v-597h287q10 0 17 -8.5t7 -20.5q0 -8 -0.5 -21.5t-3 -26t-6 -21.5t-9.5 -9zM465 692l-63 -157q-11 -19 -30 -22.5t-48 -3.5q-23 0 -16 27l44 171q5 21 32.5 26t59.5 5 q23 0 26 -13.5t-5 -32.5z"/>
<glyph unicode="ľ" horiz-adv-x="401" d="M265 100q5 0 9.5 -7.5t7.5 -18t5 -22t3 -18.5q1 -25 -20 -32q-26 -8 -44 -11t-37 -3q-26 0 -49.5 6.5t-40.5 22t-27 42t-10 66.5v617q0 6 10 9.5t23.5 6t27.5 3t23 0.5q11 0 20 -6.5t9 -17.5v-591q0 -24 8 -38.5t34 -14.5q11 0 23 2.5t25 4.5zM388 721l-63 -157 q-11 -19 -30 -22.5t-48 -3.5q-23 0 -16 27l44 171q5 21 32.5 26t59.5 5q23 0 26 -13.5t-5 -32.5z"/>
<glyph unicode="Ŀ" horiz-adv-x="534" d="M478 0h-358q-18 0 -36 4t-18 16v690q0 6 10.5 10.5t25 6.5t30 3t24.5 1q13 0 21.5 -8t8.5 -19v-597h287q10 0 17 -8.5t7 -20.5q0 -8 -0.5 -21.5t-3 -26t-6 -21.5t-9.5 -9zM308 266v117q0 6 9.5 10t23 6.5t27.5 3t23 0.5q14 0 22 -7.5t8 -18.5v-105q0 -12 -8 -19t-22 -7 q-9 0 -23 0.5t-27.5 3t-23 6.5t-9.5 10z"/>
<glyph unicode="ŀ" horiz-adv-x="458" d="M259 104q5 2 10 -4t10 -16t9 -21.5t6 -20.5q3 -11 -0.5 -20t-13.5 -13q-27 -11 -50.5 -16t-49.5 -5q-24 0 -45 6.5t-36.5 22.5t-25 42.5t-9.5 65.5v616q0 6 9.5 10t23 6.5t27.5 3t23 0.5q13 0 21.5 -8t8.5 -25v-582q0 -26 7 -39.5t29 -13.5q6 0 15 2.5t31 8.5zM319 172 v117q0 6 9.5 10t23 6.5t27.5 3t23 0.5q14 0 22.5 -7.5t8.5 -18.5v-105q0 -12 -8.5 -19t-22.5 -7q-9 0 -23 0.5t-27.5 3t-23 6.5t-9.5 10z"/>
<glyph unicode="Ł" horiz-adv-x="583" d="M527 0h-358q-18 0 -36 4t-18 16v226l-58 -48q-7 -6 -16.5 -2.5t-15.5 11.5q-8 11 -16 22.5t-13 22t-6 18.5t4 13l121 101v326q0 6 10.5 10.5t25 6.5t30 3t24.5 1q13 0 21.5 -8t8.5 -19v-219l60 50q8 6 16.5 2.5t15.5 -11.5q5 -6 12.5 -16.5t13.5 -22t8.5 -22t-3.5 -15.5 l-123 -103v-240h287q10 0 17 -8.5t7 -20.5q0 -8 -0.5 -21.5t-3 -26t-6 -21.5t-9.5 -9z"/>
<glyph unicode="ł" horiz-adv-x="326" d="M303 100q5 0 9.5 -7.5t7.5 -18t5 -22t3 -18.5q1 -25 -20 -32q-26 -8 -44 -11t-37 -3q-26 0 -49.5 6.5t-40.5 22t-27 42t-10 66.5v163l-75 -54q-8 -5 -17.5 0.5t-13.5 11.5q-5 7 -11.5 19t-11 24t-5.5 22.5t5 14.5l129 93v323q0 6 10 9.5t23.5 6t27.5 3t23 0.5 q11 0 20 -6.5t9 -17.5v-237l74 54q9 5 17.5 1t13.5 -12q4 -6 10.5 -17.5t11.5 -24t6 -23.5t-5 -15l-128 -93v-224q0 -24 8 -38.5t34 -14.5q11 0 23 2.5t25 4.5z"/>
<glyph unicode="Ń" horiz-adv-x="725" d="M510 210v502q0 6 11 9.5t26 5.5t30.5 3t24.5 1q26 0 26 -30v-687q0 -12 -9.5 -19t-20.5 -7q-8 0 -21.5 0.5t-27 3t-24.5 6t-15 9.5l-325 500v-492q0 -12 -9 -19.5t-21 -7.5q-9 0 -24.5 1t-29.5 3t-24.5 6.5t-10.5 10.5v701q0 6 10.5 10.5t24.5 6.5t29 3t24 1 q11 0 18.5 -6.5t12.5 -14.5zM304 779l89 123q4 6 15 6t23.5 -3t23.5 -7t16 -7q23 -13 26 -21.5t0 -12.5l-103 -90q-8 -8 -24.5 -9.5t-35.5 0.5q-17 1 -27.5 5.5t-2.5 15.5z"/>
<glyph unicode="ń" d="M365 8v357q0 38 -12 54t-53 16q-19 0 -41 -4t-41.5 -9t-32.5 -11t-13 -10v-388q0 -14 -9.5 -19.5t-21.5 -5.5q-8 0 -21.5 0.5t-27 3t-23.5 6.5t-10 10v444q0 14 22.5 29.5t59 28t83.5 21t96 8.5q51 0 82 -11t48 -33t22.5 -55.5t5.5 -78.5v-348q0 -14 -10.5 -19.5 t-21.5 -5.5q-8 0 -22 0.5t-27 3t-22.5 6.5t-9.5 10zM205 621l89 123q4 6 15 6t23.5 -3t23.5 -7t16 -7q23 -13 26 -21.5t0 -12.5l-103 -90q-8 -8 -24.5 -9.5t-35.5 0.5q-17 1 -27.5 5.5t-2.5 15.5z"/>
<glyph unicode="Ņ" horiz-adv-x="725" d="M510 210v502q0 6 11 9.5t26 5.5t30.5 3t24.5 1q26 0 26 -30v-687q0 -12 -9.5 -19t-20.5 -7q-8 0 -21.5 0.5t-27 3t-24.5 6t-15 9.5l-325 500v-492q0 -12 -9 -19.5t-21 -7.5q-9 0 -24.5 1t-29.5 3t-24.5 6.5t-10.5 10.5v701q0 6 10.5 10.5t24.5 6.5t29 3t24 1 q11 0 18.5 -6.5t12.5 -14.5zM442 -129l-98 -164q-12 -20 -24 -23t-26 -3q-10 0 -9.5 9.5t2.5 18.5l43 179q1 5 11 8.5t24 5.5t28.5 2.5t25.5 0.5q8 0 17 -5t9 -17q0 -6 -3 -12z"/>
<glyph unicode="ņ" horiz-adv-x="536" d="M365 8v357q0 38 -12 54t-53 16q-19 0 -41 -4t-41.5 -9t-32.5 -11t-13 -10v-388q0 -14 -9.5 -19.5t-21.5 -5.5q-8 0 -21.5 0.5t-27 3t-23.5 6.5t-10 10v444q0 14 22.5 29.5t59 28t83.5 21t96 8.5q51 0 82 -11t48 -33t22.5 -55.5t5.5 -78.5v-348q0 -14 -10.5 -19.5 t-21.5 -5.5q-8 0 -22 0.5t-27 3t-22.5 6.5t-9.5 10zM334 -61l-85 -143q-10 -17 -20.5 -19.5t-23.5 -2.5q-8 0 -8 8t2 16l38 156q0 5 9 8t21 4.5t25 2t22 0.5q8 0 15.5 -4t7.5 -15q0 -5 -3 -11z"/>
<glyph unicode="Ň" horiz-adv-x="725" d="M510 210v502q0 6 11 9.5t26 5.5t30.5 3t24.5 1q26 0 26 -30v-687q0 -12 -9.5 -19t-20.5 -7q-8 0 -21.5 0.5t-27 3t-24.5 6t-15 9.5l-325 500v-492q0 -12 -9 -19.5t-21 -7.5q-9 0 -24.5 1t-29.5 3t-24.5 6.5t-10.5 10.5v701q0 6 10.5 10.5t24.5 6.5t29 3t24 1 q11 0 18.5 -6.5t12.5 -14.5zM244 860q4 4 10 10.5t12.5 11.5t12 7.5t8.5 -0.5l79 -53l78 52q5 5 16.5 -4t25.5 -24q7 -8 6.5 -15.5t-6.5 -12.5l-108 -74q-12 -10 -24 0l-109 74q-5 5 -6 13t5 15z"/>
<glyph unicode="ň" d="M365 8v357q0 38 -12 54t-53 16q-19 0 -41 -4t-41.5 -9t-32.5 -11t-13 -10v-388q0 -14 -9.5 -19.5t-21.5 -5.5q-8 0 -21.5 0.5t-27 3t-23.5 6.5t-10 10v444q0 14 22.5 29.5t59 28t83.5 21t96 8.5q51 0 82 -11t48 -33t22.5 -55.5t5.5 -78.5v-348q0 -14 -10.5 -19.5 t-21.5 -5.5q-8 0 -22 0.5t-27 3t-22.5 6.5t-9.5 10zM147 702q4 4 10 10.5t12.5 11.5t12 7.5t8.5 -0.5l79 -53l78 52q5 5 16.5 -4t25.5 -24q7 -8 6.5 -15.5t-6.5 -12.5l-108 -74q-12 -10 -24 0l-109 74q-5 5 -6 13t5 15z"/>
<glyph unicode="ŉ" horiz-adv-x="536" d="M365 8v357q0 38 -12 54t-53 16q-19 0 -41 -4t-41.5 -9t-32.5 -11t-13 -10v-388q0 -14 -9.5 -19.5t-21.5 -5.5q-8 0 -21.5 0.5t-27 3t-23.5 6.5t-10 10v444q0 14 22.5 29.5t59 28t83.5 21t96 8.5q51 0 82 -11t48 -33t22.5 -55.5t5.5 -78.5v-348q0 -14 -10.5 -19.5 t-21.5 -5.5q-8 0 -22 0.5t-27 3t-22.5 6.5t-9.5 10zM238 806l-98 -164q-12 -20 -24 -23t-26 -3q-10 0 -9.5 9.5t2.5 18.5l43 179q1 5 11 8.5t24 5.5t28.5 2.5t25.5 0.5q8 0 17 -5t9 -17q0 -6 -3 -12z"/>
<glyph unicode="Ŋ" horiz-adv-x="743" d="M678 -16q0 -108 -25 -163t-88 -66q-25 -4 -53 -3q-15 1 -37.5 3.5t-51.5 14.5q-13 5 -16 13.5t1 20.5q3 11 7.5 23.5t9.5 22t10 15.5t10 5l22 -5q4 -1 18.5 -3.5t28.5 -2.5q11 0 19.5 5t14 18.5t8 36t2.5 58.5v31l-378 505v-495q0 -12 -9 -21t-22 -9q-9 0 -23.5 1.5 t-29 4t-25 7t-10.5 10.5v660q0 11 1 23t6 22q0 6 10.5 8.5t24 4t27 1t20.5 -0.5q15 -5 26 -18.5t21 -27.5l362 -475v504q0 6 11 9.5t26 5.5t31 3t26 1q11 0 18 -8.5t7 -21.5v-717z"/>
<glyph unicode="ŋ" horiz-adv-x="528" d="M354 326q0 24 -1 44.5t-4.5 35.5t-11.5 24t-23 9q-29 0 -55 -2t-45 -5t-30 -7t-11 -7v-404q0 -12 -8.5 -19t-22.5 -7q-9 0 -23 0.5t-27.5 3t-23 6.5t-9.5 10v436q0 14 20.5 30.5t56.5 31t85 24t106 9.5q51 0 79 -15.5t42 -41.5t17 -60.5t3 -72.5v-335q0 -35 -6.5 -70.5 t-23.5 -64.5t-45.5 -47.5t-72.5 -18.5q-12 0 -34.5 3t-61.5 17q-21 8 -15 32q2 7 5.5 18.5t8.5 22.5t11 18t12 6q17 -5 37 -9.5t28 -4.5q26 0 34.5 30t8.5 79v301z"/>
<glyph unicode="Ō" horiz-adv-x="701" d="M354 -12h-8q-74 0 -129 14t-91.5 46t-54.5 84.5t-18 129.5v196q0 77 18 129t54.5 84t91.5 46t129 14h8q75 0 130 -14t92 -46t55 -84t18 -129v-196q0 -77 -18 -129.5t-55 -84.5t-92 -46t-130 -14zM176 452v-184q0 -50 7.5 -83t26.5 -53t52 -28.5t84 -8.5h8q51 0 84.5 8.5 t53 28.5t27 53t7.5 83v184q0 49 -7.5 82.5t-27 53t-53 28t-84.5 8.5h-8q-51 0 -84 -8.5t-52 -28t-26.5 -53t-7.5 -82.5zM450 768h-198q-8 0 -15.5 7t-7.5 15t0.5 19t2.5 21t5.5 17t10.5 7h201q8 0 16 -6.5t8 -15.5q0 -8 -1 -19t-3.5 -21t-7 -17t-11.5 -7z"/>
<glyph unicode="ō" horiz-adv-x="527" d="M53 175v177q0 54 12 90t38 57.5t66.5 30.5t97.5 9h5q58 0 99 -9t67 -30.5t38 -57.5t12 -90v-177q0 -54 -12 -90t-38 -57.5t-67 -30.5t-99 -9h-5q-57 0 -97.5 9t-66.5 30.5t-38 57.5t-12 90zM266 88h8q58 0 79.5 19.5t21.5 66.5v178q0 48 -21.5 67.5t-79.5 19.5h-8 q-58 0 -79.5 -19.5t-21.5 -67.5v-178q0 -48 21.5 -67t79.5 -19zM364 610h-198q-8 0 -15.5 7t-7.5 15t0.5 19t2.5 21t5.5 17t10.5 7h201q8 0 16 -6.5t8 -15.5q0 -8 -1 -19t-3.5 -21t-7 -17t-11.5 -7z"/>
<glyph unicode="Ŏ" horiz-adv-x="701" d="M354 -12h-8q-74 0 -129 14t-91.5 46t-54.5 84.5t-18 129.5v196q0 77 18 129t54.5 84t91.5 46t129 14h8q75 0 130 -14t92 -46t55 -84t18 -129v-196q0 -77 -18 -129.5t-55 -84.5t-92 -46t-130 -14zM176 452v-184q0 -50 7.5 -83t26.5 -53t52 -28.5t84 -8.5h8q51 0 84.5 8.5 t53 28.5t27 53t7.5 83v184q0 49 -7.5 82.5t-27 53t-53 28t-84.5 8.5h-8q-51 0 -84 -8.5t-52 -28t-26.5 -53t-7.5 -82.5zM350 762q-63 0 -99 27t-36 84q0 8 7.5 12t15.5 4q6 0 16.5 -0.5t21 -2t18.5 -4.5t8 -8q0 -20 14.5 -30.5t33.5 -10.5t33.5 10.5t14.5 30.5q0 5 8 8 t18.5 4.5t21.5 2t17 0.5q8 0 15 -4t7 -12q0 -57 -36 -84t-99 -27z"/>
<glyph unicode="ŏ" horiz-adv-x="527" d="M53 175v177q0 54 12 90t38 57.5t66.5 30.5t97.5 9h5q58 0 99 -9t67 -30.5t38 -57.5t12 -90v-177q0 -54 -12 -90t-38 -57.5t-67 -30.5t-99 -9h-5q-57 0 -97.5 9t-66.5 30.5t-38 57.5t-12 90zM266 88h8q58 0 79.5 19.5t21.5 66.5v178q0 48 -21.5 67.5t-79.5 19.5h-8 q-58 0 -79.5 -19.5t-21.5 -67.5v-178q0 -48 21.5 -67t79.5 -19zM264 604q-63 0 -99 27t-36 84q0 8 7.5 12t15.5 4q6 0 16.5 -0.5t21 -2t18.5 -4.5t8 -8q0 -20 14.5 -30.5t33.5 -10.5t33.5 10.5t14.5 30.5q0 5 8 8t18.5 4.5t21.5 2t17 0.5q8 0 15 -4t7 -12q0 -57 -36 -84 t-99 -27z"/>
<glyph unicode="Ő" horiz-adv-x="701" d="M354 -12h-8q-74 0 -129 14t-91.5 46t-54.5 84.5t-18 129.5v196q0 77 18 129t54.5 84t91.5 46t129 14h8q75 0 130 -14t92 -46t55 -84t18 -129v-196q0 -77 -18 -129.5t-55 -84.5t-92 -46t-130 -14zM176 452v-184q0 -50 7.5 -83t26.5 -53t52 -28.5t84 -8.5h8q51 0 84.5 8.5 t53 28.5t27 53t7.5 83v184q0 49 -7.5 82.5t-27 53t-53 28t-84.5 8.5h-8q-51 0 -84 -8.5t-52 -28t-26.5 -53t-7.5 -82.5zM374 803l72 99q10 13 18 11l93 -13q11 -2 14 -7.5t-7 -13.5l-116 -102q-10 -9 -18 -9q-3 0 -14 3t-22 7.5t-18 11t-2 13.5zM221 803l72 99q4 5 8.5 8.5 t9.5 2.5l93 -13q11 -2 14 -7.5t-7 -13.5l-116 -102q-9 -9 -18 -9q-3 0 -14 3t-22 7.5t-18 11t-2 13.5z"/>
<glyph unicode="ő" horiz-adv-x="527" d="M53 175v177q0 54 12 90t38 57.5t66.5 30.5t97.5 9h5q58 0 99 -9t67 -30.5t38 -57.5t12 -90v-177q0 -54 -12 -90t-38 -57.5t-67 -30.5t-99 -9h-5q-57 0 -97.5 9t-66.5 30.5t-38 57.5t-12 90zM266 88h8q58 0 79.5 19.5t21.5 66.5v178q0 48 -21.5 67.5t-79.5 19.5h-8 q-58 0 -79.5 -19.5t-21.5 -67.5v-178q0 -48 21.5 -67t79.5 -19zM287 645l72 99q10 13 18 11l93 -13q11 -2 14 -7.5t-7 -13.5l-116 -102q-10 -9 -18 -9q-3 0 -14 3t-22 7.5t-18 11t-2 13.5zM134 645l72 99q4 5 8.5 8.5t9.5 2.5l93 -13q11 -2 14 -7.5t-7 -13.5l-116 -102 q-9 -9 -18 -9q-3 0 -14 3t-22 7.5t-18 11t-2 13.5z"/>
<glyph unicode="Œ" horiz-adv-x="1035" d="M574 20v35q-35 -35 -90 -50.5t-130 -15.5h-8q-74 0 -129 14t-91.5 46t-54.5 84t-18 129v196q0 77 18 129t54.5 84t91.5 46t129 14h8q75 0 130 -15.5t90 -52.5v28q0 16 10.5 22.5t23.5 6.5h353q11 0 18 -8t7 -21q0 -8 -0.5 -21t-2 -25.5t-5.5 -22t-10 -9.5h-319v-194h273 q11 0 18 -8.5t7 -19.5q0 -8 -1 -21.5t-3 -26.5t-6 -22t-10 -9h-278v-205h312q11 0 18 -8.5t7 -20.5q0 -8 -1 -21t-3 -26t-6 -22t-10 -9h-347q-14 0 -29.5 6.5t-15.5 13.5zM176 440v-160q0 -50 7.5 -84.5t26.5 -57t52 -32.5t84 -10h8q51 0 84.5 10t53 32.5t27 57t7.5 84.5 v160q0 49 -7.5 84t-27 57.5t-53 32.5t-84.5 10h-8q-51 0 -84 -10t-52 -32.5t-26.5 -57.5t-7.5 -84z"/>
<glyph unicode="œ" horiz-adv-x="810" d="M730 11q-26 -8 -58.5 -14t-73.5 -8q-12 -1 -23.5 -0.5t-22.5 1.5q-80 6 -119 52q-23 -32 -64.5 -46t-105.5 -14q-60 0 -100 10.5t-64.5 35t-35 66t-10.5 103.5v147q0 56 11.5 93.5t37 60t65 32t95.5 9.5q58 0 97.5 -12.5t62.5 -40.5q23 27 59 40t93 13h14q57 0 90.5 -15 t51 -40.5t23 -58t5.5 -66.5v-46q0 -17 -10 -33t-40 -28t-85.5 -20t-147.5 -9q0 -64 18 -96.5t59 -37.5q11 -2 21.5 -1.5t21.5 1.5q31 2 60 7t61 12q6 1 11 -6.5t9 -18t6.5 -22.5t4.5 -19q3 -13 -2 -20.5t-15 -10.5zM259 82q36 0 57 6.5t31 21.5t12.5 40t2.5 63v98 q0 37 -2.5 61.5t-12.5 39.5t-30 21t-54 6q-35 0 -54.5 -6.5t-29 -22t-12 -41t-2.5 -62.5v-94q0 -37 2.5 -62t12 -40.5t28 -22t51.5 -6.5zM645 337v43q0 35 -14.5 53t-47.5 18q-24 0 -44 -4.5t-34.5 -16.5t-22 -33t-7.5 -54v-37q30 0 60 1.5t54.5 5t40 9.5t15.5 15z"/>
<glyph unicode="Ŕ" horiz-adv-x="620" d="M66 9v685q0 11 9 18.5t22 7.5h221q69 0 117.5 -10t79.5 -35t45 -66.5t14 -105.5v-22q0 -47 -7.5 -82t-23.5 -60t-42.5 -40t-63.5 -23l139 -240q11 -19 11 -29q0 -6 -5 -10t-11 -6t-12.5 -2.5t-9.5 -0.5q-9 0 -23 1t-28.5 3.5t-26 7.5t-16.5 14l-147 251h-123v-251 q0 -12 -9 -19t-21 -7q-9 0 -24 1t-29.5 3t-25 6.5t-10.5 10.5zM324 613h-139v-241h139q41 0 65.5 4.5t38 16.5t18 33t4.5 55v22q0 34 -4.5 55.5t-18 33.5t-38 16.5t-65.5 4.5zM256 780l89 123q4 6 15 6t23.5 -3t23.5 -7t16 -7q23 -13 26 -21.5t0 -12.5l-103 -90 q-8 -8 -24.5 -9.5t-35.5 0.5q-17 1 -27.5 5.5t-2.5 15.5z"/>
<glyph unicode="ŕ" horiz-adv-x="369" d="M336 433q-14 2 -28 3.5t-35 1.5q-18 0 -36 -2.5t-33 -6.5t-24 -8t-9 -7v-401q0 -14 -10 -19.5t-21 -5.5q-8 0 -21.5 0.5t-27 3t-23 6.5t-9.5 10v454q0 16 16.5 30.5t45 24.5t66.5 16t81 6q26 0 68 -6q14 -2 18.5 -7t4.5 -19q0 -40 -7 -57.5t-16 -16.5zM161 621l89 123 q4 6 15 6t23.5 -3t23.5 -7t16 -7q23 -13 26 -21.5t0 -12.5l-103 -90q-8 -8 -24.5 -9.5t-35.5 0.5q-17 1 -27.5 5.5t-2.5 15.5z"/>
<glyph unicode="Ŗ" horiz-adv-x="620" d="M66 9v685q0 11 9 18.5t22 7.5h221q69 0 117.5 -10t79.5 -35t45 -66.5t14 -105.5v-22q0 -47 -7.5 -82t-23.5 -60t-42.5 -40t-63.5 -23l139 -240q11 -19 11 -29q0 -6 -5 -10t-11 -6t-12.5 -2.5t-9.5 -0.5q-9 0 -23 1t-28.5 3.5t-26 7.5t-16.5 14l-147 251h-123v-251 q0 -12 -9 -19t-21 -7q-9 0 -24 1t-29.5 3t-25 6.5t-10.5 10.5zM324 613h-139v-241h139q41 0 65.5 4.5t38 16.5t18 33t4.5 55v22q0 34 -4.5 55.5t-18 33.5t-38 16.5t-65.5 4.5zM377 -56l-98 -164q-12 -20 -24 -23t-26 -3q-10 0 -9.5 9.5t2.5 18.5l43 179q1 5 11 8.5t24 5.5 t28.5 2.5t25.5 0.5q8 0 17 -5t9 -17q0 -6 -3 -12z"/>
<glyph unicode="ŗ" horiz-adv-x="369" d="M336 433q-14 2 -28 3.5t-35 1.5q-18 0 -36 -2.5t-33 -6.5t-24 -8t-9 -7v-401q0 -14 -10 -19.5t-21 -5.5q-8 0 -21.5 0.5t-27 3t-23 6.5t-9.5 10v454q0 16 16.5 30.5t45 24.5t66.5 16t81 6q26 0 68 -6q14 -2 18.5 -7t4.5 -19q0 -40 -7 -57.5t-16 -16.5zM263 -129l-98 -164 q-12 -20 -24 -23t-26 -3q-10 0 -9.5 9.5t2.5 18.5l43 179q1 5 11 8.5t24 5.5t28.5 2.5t25.5 0.5q8 0 17 -5t9 -17q0 -6 -3 -12z"/>
<glyph unicode="Ř" horiz-adv-x="620" d="M66 9v685q0 11 9 18.5t22 7.5h221q69 0 117.5 -10t79.5 -35t45 -66.5t14 -105.5v-22q0 -47 -7.5 -82t-23.5 -60t-42.5 -40t-63.5 -23l139 -240q11 -19 11 -29q0 -6 -5 -10t-11 -6t-12.5 -2.5t-9.5 -0.5q-9 0 -23 1t-28.5 3.5t-26 7.5t-16.5 14l-147 251h-123v-251 q0 -12 -9 -19t-21 -7q-9 0 -24 1t-29.5 3t-25 6.5t-10.5 10.5zM324 613h-139v-241h139q41 0 65.5 4.5t38 16.5t18 33t4.5 55v22q0 34 -4.5 55.5t-18 33.5t-38 16.5t-65.5 4.5zM196 861q4 4 10 10.5t12.5 11.5t12 7.5t8.5 -0.5l79 -53l78 52q5 5 16.5 -4t25.5 -24 q7 -8 6.5 -15.5t-6.5 -12.5l-108 -74q-12 -10 -24 0l-109 74q-5 5 -6 13t5 15z"/>
<glyph unicode="ř" horiz-adv-x="369" d="M336 433q-14 2 -28 3.5t-35 1.5q-18 0 -36 -2.5t-33 -6.5t-24 -8t-9 -7v-401q0 -14 -10 -19.5t-21 -5.5q-8 0 -21.5 0.5t-27 3t-23 6.5t-9.5 10v454q0 16 16.5 30.5t45 24.5t66.5 16t81 6q26 0 68 -6q14 -2 18.5 -7t4.5 -19q0 -40 -7 -57.5t-16 -16.5zM101 702 q4 4 10 10.5t12.5 11.5t12 7.5t8.5 -0.5l79 -53l78 52q5 5 16.5 -4t25.5 -24q7 -8 6.5 -15.5t-6.5 -12.5l-108 -74q-12 -10 -24 0l-109 74q-5 5 -6 13t5 15z"/>
<glyph unicode="Ś" horiz-adv-x="528" d="M74 111q8 -2 24.5 -6t38 -8t47 -7t51.5 -3q28 0 53.5 4.5t45.5 15t32 28t12 43.5q0 36 -23.5 61t-59 47t-77 44.5t-77 52t-59 70t-23.5 98.5q0 49 17.5 83t48.5 55.5t74 31.5t95 10q11 0 33.5 -1t47.5 -3.5t49.5 -6.5t39.5 -11q14 -6 17 -13t1 -23q-2 -26 -11 -43.5 t-25 -14.5q-25 5 -57 10t-72 5q-62 0 -101 -18t-39 -60q0 -33 23.5 -56.5t59 -45t77 -44t77 -53t59 -73t23.5 -103.5q0 -57 -21.5 -94t-57 -58t-82 -29t-96.5 -8q-23 0 -48 1.5t-49 4.5t-45.5 7t-36.5 9t-18 11.5t-1 22.5q3 29 11 49.5t22 17.5zM220 780l89 123q4 6 15 6 t23.5 -3t23.5 -7t16 -7q23 -13 26 -21.5t0 -12.5l-103 -90q-8 -8 -24.5 -9.5t-35.5 0.5q-17 1 -27.5 5.5t-2.5 15.5z"/>
<glyph unicode="ś" horiz-adv-x="465" d="M79 97q21 -3 51 -6t70 -3q55 0 85.5 11t30.5 41q0 25 -19 40t-48 27.5t-62.5 25.5t-62.5 33t-48 51t-19 79q0 46 17.5 74.5t45.5 43.5t63 20t70 5q59 0 91.5 -2.5t54.5 -7.5q12 -2 15.5 -9.5t3.5 -18.5q0 -33 -8 -51.5t-18 -17.5q-21 2 -46.5 4.5t-63.5 2.5 q-54 0 -83 -10t-29 -36q0 -21 19 -34t48 -25t62 -25t62 -34t48 -53.5t19 -81.5q0 -48 -16.5 -77.5t-45 -46t-65.5 -22.5t-77 -6q-35 0 -82 3t-82 12q-14 4 -16 11.5t0 19.5q4 24 7.5 37t8 19t9 7t10.5 0zM189 621l89 123q4 6 15 6t23.5 -3t23.5 -7t16 -7q23 -13 26 -21.5 t0 -12.5l-103 -90q-8 -8 -24.5 -9.5t-35.5 0.5q-17 1 -27.5 5.5t-2.5 15.5z"/>
<glyph unicode="Ŝ" horiz-adv-x="528" d="M74 111q8 -2 24.5 -6t38 -8t47 -7t51.5 -3q28 0 53.5 4.5t45.5 15t32 28t12 43.5q0 36 -23.5 61t-59 47t-77 44.5t-77 52t-59 70t-23.5 98.5q0 49 17.5 83t48.5 55.5t74 31.5t95 10q11 0 33.5 -1t47.5 -3.5t49.5 -6.5t39.5 -11q14 -6 17 -13t1 -23q-2 -26 -11 -43.5 t-25 -14.5q-25 5 -57 10t-72 5q-62 0 -101 -18t-39 -60q0 -33 23.5 -56.5t59 -45t77 -44t77 -53t59 -73t23.5 -103.5q0 -57 -21.5 -94t-57 -58t-82 -29t-96.5 -8q-23 0 -48 1.5t-49 4.5t-45.5 7t-36.5 9t-18 11.5t-1 22.5q3 29 11 49.5t22 17.5zM151 789q-5 6 -6 13t7 12 l119 82q5 4 10 4t10 -4l121 -82q6 -5 6.5 -12t-5.5 -13q-14 -15 -25.5 -23.5t-15.5 -4.5l-91 44l-89 -44q-3 -2 -8.5 0.5t-11.5 7.5t-12 10.5t-9 9.5z"/>
<glyph unicode="ŝ" horiz-adv-x="465" d="M79 97q21 -3 51 -6t70 -3q55 0 85.5 11t30.5 41q0 25 -19 40t-48 27.5t-62.5 25.5t-62.5 33t-48 51t-19 79q0 46 17.5 74.5t45.5 43.5t63 20t70 5q59 0 91.5 -2.5t54.5 -7.5q12 -2 15.5 -9.5t3.5 -18.5q0 -33 -8 -51.5t-18 -17.5q-21 2 -46.5 4.5t-63.5 2.5 q-54 0 -83 -10t-29 -36q0 -21 19 -34t48 -25t62 -25t62 -34t48 -53.5t19 -81.5q0 -48 -16.5 -77.5t-45 -46t-65.5 -22.5t-77 -6q-35 0 -82 3t-82 12q-14 4 -16 11.5t0 19.5q4 24 7.5 37t8 19t9 7t10.5 0zM120 630q-5 6 -6 13t7 12l119 82q5 4 10 4t10 -4l121 -82 q6 -5 6.5 -12t-5.5 -13q-14 -15 -25.5 -23.5t-15.5 -4.5l-91 44l-89 -44q-3 -2 -8.5 0.5t-11.5 7.5t-12 10.5t-9 9.5z"/>
<glyph unicode="Ş" horiz-adv-x="528" d="M194 -50l20 38q-42 2 -85 7.5t-69 14.5q-15 5 -18 11.5t-1 22.5q3 29 11 49.5t22 17.5q8 -2 24.5 -6t38 -8t47 -7t51.5 -3q28 0 53.5 4.5t45.5 15t32 28t12 43.5q0 36 -23.5 61t-59 47t-77 44.5t-77 52t-59 70t-23.5 98.5q0 49 17.5 83t48.5 55.5t74 31.5t95 10 q11 0 33.5 -1t47.5 -3.5t49.5 -6.5t39.5 -11q14 -6 17 -13t1 -23q-2 -26 -11 -43.5t-25 -14.5q-25 5 -57 10t-72 5q-62 0 -101 -18t-39 -60q0 -33 23.5 -56.5t59 -45t77 -44t77 -53t59 -73t23.5 -103.5q0 -53 -18.5 -88t-49.5 -57t-72 -31.5t-86 -11.5l-9 -16 q34 -5 54.5 -25.5t15.5 -55.5q-5 -36 -28 -52.5t-53 -22.5q-6 -1 -16.5 -2t-21.5 -1q-20 0 -37.5 3.5t-22.5 11.5q-1 4 0 11t4.5 14t10 11.5t16.5 2.5q7 -2 14.5 -4t15.5 -2q26 0 37 13.5t11 28.5t-12.5 20t-27 7t-24 5t-3.5 14z"/>
<glyph unicode="ş" horiz-adv-x="465" d="M166 -52l21 41q-32 1 -66.5 4t-60.5 10q-14 4 -16 11.5t0 19.5q4 24 7.5 37t8 19t9 7t10.5 0q21 -3 51 -6t70 -3q55 0 85.5 11t30.5 41q0 25 -19 40t-48 27.5t-62.5 25.5t-62.5 33t-48 51t-19 79q0 46 17.5 74.5t45.5 43.5t63 20t70 5q59 0 91.5 -2.5t54.5 -7.5 q12 -2 15.5 -9.5t3.5 -18.5q0 -33 -8 -51.5t-18 -17.5q-21 2 -46.5 4.5t-63.5 2.5q-54 0 -83 -10t-29 -36q0 -21 19 -34t48 -25t62 -25t62 -34t48 -53.5t19 -81.5q0 -45 -15 -73.5t-40 -46t-58.5 -24.5t-70.5 -8l-11 -17q34 -5 54.5 -25.5t15.5 -55.5q-5 -36 -28 -52.5 t-53 -22.5q-6 -1 -16.5 -2t-21.5 -1q-20 0 -37.5 3.5t-22.5 11.5q-1 4 0 11t4.5 14t10 11.5t16.5 2.5q7 -2 14.5 -4t15.5 -2q26 0 37 13.5t11 28.5t-12.5 20t-27 7t-24 5t-3.5 14z"/>
<glyph unicode="Š" horiz-adv-x="528" d="M74 111q8 -2 24.5 -6t38 -8t47 -7t51.5 -3q28 0 53.5 4.5t45.5 15t32 28t12 43.5q0 36 -23.5 61t-59 47t-77 44.5t-77 52t-59 70t-23.5 98.5q0 49 17.5 83t48.5 55.5t74 31.5t95 10q11 0 33.5 -1t47.5 -3.5t49.5 -6.5t39.5 -11q14 -6 17 -13t1 -23q-2 -26 -11 -43.5 t-25 -14.5q-25 5 -57 10t-72 5q-62 0 -101 -18t-39 -60q0 -33 23.5 -56.5t59 -45t77 -44t77 -53t59 -73t23.5 -103.5q0 -57 -21.5 -94t-57 -58t-82 -29t-96.5 -8q-23 0 -48 1.5t-49 4.5t-45.5 7t-36.5 9t-18 11.5t-1 22.5q3 29 11 49.5t22 17.5zM160 861q4 4 10 10.5 t12.5 11.5t12 7.5t8.5 -0.5l79 -53l78 52q5 5 16.5 -4t25.5 -24q7 -8 6.5 -15.5t-6.5 -12.5l-108 -74q-12 -10 -24 0l-109 74q-5 5 -6 13t5 15z"/>
<glyph unicode="š" horiz-adv-x="465" d="M79 97q21 -3 51 -6t70 -3q55 0 85.5 11t30.5 41q0 25 -19 40t-48 27.5t-62.5 25.5t-62.5 33t-48 51t-19 79q0 46 17.5 74.5t45.5 43.5t63 20t70 5q59 0 91.5 -2.5t54.5 -7.5q12 -2 15.5 -9.5t3.5 -18.5q0 -33 -8 -51.5t-18 -17.5q-21 2 -46.5 4.5t-63.5 2.5 q-54 0 -83 -10t-29 -36q0 -21 19 -34t48 -25t62 -25t62 -34t48 -53.5t19 -81.5q0 -48 -16.5 -77.5t-45 -46t-65.5 -22.5t-77 -6q-35 0 -82 3t-82 12q-14 4 -16 11.5t0 19.5q4 24 7.5 37t8 19t9 7t10.5 0zM129 702q4 4 10 10.5t12.5 11.5t12 7.5t8.5 -0.5l79 -53l78 52 q5 5 16.5 -4t25.5 -24q7 -8 6.5 -15.5t-6.5 -12.5l-108 -74q-12 -10 -24 0l-109 74q-5 5 -6 13t5 15z"/>
<glyph unicode="Ţ" horiz-adv-x="578" d="M350 612v-597q0 -12 -9.5 -19.5t-21.5 -7.5q-9 0 -24.5 1t-29.5 3t-24.5 6.5t-10.5 10.5v603h-184q-11 0 -18.5 8.5t-7.5 20.5q0 8 1 21t3 26t6 22t10 9h493q11 0 18.5 -8.5t7.5 -20.5q0 -8 -1 -21.5t-3 -26t-6 -21.5t-10 -9h-189zM341 -109l-98 -164q-12 -20 -24 -23 t-26 -3q-10 0 -9.5 9.5t2.5 18.5l43 179q1 5 11 8.5t24 5.5t28.5 2.5t25.5 0.5q8 0 17 -5t9 -17q0 -6 -3 -12z"/>
<glyph unicode="ţ" horiz-adv-x="391" d="M279 -105l-77 -126q-12 -20 -23.5 -23t-25.5 -3q-10 0 -10 9t3 19l21 141q1 5 11 8.5t24 5.5t29 2.5t25 0.5q8 0 17 -5t9 -17q0 -6 -3 -12zM344 423h-104v-270q0 -34 16.5 -49t43.5 -15q14 0 25.5 1.5t22.5 3.5q8 1 13 -6.5t7.5 -19t3.5 -25t1 -23.5q0 -14 -21 -21 q-19 -7 -45 -9t-44 -2q-29 0 -53.5 7t-42.5 24t-28.5 45.5t-10.5 72.5v286h-58q-9 0 -15 8t-6 19q0 8 0.5 21t3 26t7 22t12.5 9h56v120q0 6 9.5 9.5t23 5.5t27.5 2.5t23 0.5q12 0 20.5 -6.5t8.5 -17.5v-114h106q10 0 15.5 -8t5.5 -18q0 -8 -0.5 -21.5t-3 -26.5t-7 -22 t-12.5 -9z"/>
<glyph unicode="Ť" horiz-adv-x="539" d="M330 612v-597q0 -12 -9.5 -19.5t-21.5 -7.5q-9 0 -24.5 1t-29.5 3t-24.5 6.5t-10.5 10.5v603h-184q-11 0 -18.5 8.5t-7.5 20.5q0 8 1 21t3 26t6 22t10 9h493q11 0 18.5 -8.5t7.5 -20.5q0 -8 -1 -21.5t-3 -26t-6 -21.5t-10 -9h-189zM148 864q4 4 10 10.5t12.5 11.5t12 7.5 t8.5 -0.5l79 -53l78 52q5 5 16.5 -4t25.5 -24q7 -8 6.5 -15.5t-6.5 -12.5l-108 -74q-12 -10 -24 0l-109 74q-5 5 -6 13t5 15z"/>
<glyph unicode="ť" horiz-adv-x="359" d="M372 684l-60 -101q-10 -17 -27 -19t-28 -2q-8 0 -12 5t0 16l43 115q3 5 10.5 8.5t17 5t19 2t15.5 0.5q12 0 18.5 -6.5t6.5 -11.5q0 -6 -3 -12zM311 423h-104v-270q0 -34 16.5 -49t43.5 -15q14 0 25.5 1.5t22.5 3.5q8 1 13 -6.5t7.5 -19t3.5 -25t1 -23.5q0 -14 -21 -21 q-19 -7 -45 -9t-44 -2q-29 0 -53.5 7t-42.5 24t-28.5 45.5t-10.5 72.5v286h-58q-9 0 -15 8t-6 19q0 8 0.5 21t3 26t7 22t12.5 9h56v120q0 6 9.5 9.5t23 5.5t27.5 2.5t23 0.5q12 0 20.5 -6.5t8.5 -17.5v-114h106q10 0 15.5 -8t5.5 -18q0 -8 -0.5 -21.5t-3 -26.5t-7 -22 t-12.5 -9z"/>
<glyph unicode="Ŧ" horiz-adv-x="615" d="M455 366h-89v-351q0 -12 -9.5 -19.5t-21.5 -7.5q-9 0 -24.5 1t-29.5 3t-24.5 6.5t-10.5 10.5v357h-95q-12 0 -24 10.5t-12 23.5t0.5 30t3.5 32t9 25.5t17 10.5h101v114h-184q-11 0 -18.5 8.5t-7.5 20.5q0 8 1 21t3 26t6 22t10 9h493q11 0 18.5 -8.5t7.5 -20.5 q0 -8 -1 -21.5t-3 -26t-6 -21.5t-10 -9h-189v-114h88q11 0 23.5 -9.5t12.5 -23.5q0 -13 -1.5 -30t-5.5 -32.5t-11 -26t-17 -10.5z"/>
<glyph unicode="ŧ" horiz-adv-x="372" d="M267 271h-52v-118q0 -34 16.5 -49t43.5 -15q14 0 25.5 1.5t22.5 3.5q8 1 13 -6.5t7.5 -19t3.5 -25t1 -23.5q0 -14 -21 -21q-19 -7 -45 -9t-44 -2q-29 0 -53.5 7t-42.5 24t-28.5 45.5t-10.5 72.5v134h-34q-8 0 -15.5 7t-7.5 15t0.5 19t2.5 21t5.5 17t10.5 7h38v66h-58 q-9 0 -15 8t-6 19q0 8 0.5 21t3 26t7 22t12.5 9h56v120q0 6 9.5 9.5t23 5.5t27.5 2.5t23 0.5q12 0 20.5 -6.5t8.5 -17.5v-114h106q10 0 15.5 -8t5.5 -18q0 -8 -0.5 -21.5t-3 -26.5t-7 -22t-12.5 -9h-104v-66h51q8 0 16 -6.5t8 -15.5q0 -8 -1 -19t-3.5 -21t-7 -17t-11.5 -7z "/>
<glyph unicode="Ũ" horiz-adv-x="672" d="M486 255v452q0 6 10.5 10.5t25.5 7.5t30 4.5t24 1.5q13 0 21.5 -9.5t8.5 -20.5v-452q0 -74 -16.5 -123.5t-49.5 -80.5t-83.5 -44t-118.5 -13h-8q-66 0 -115.5 13t-82.5 44t-49.5 80.5t-16.5 123.5v458q0 6 10.5 10.5t25 7.5t30 4.5t24.5 1.5q12 0 21 -9.5t9 -20.5v-446 q0 -43 6.5 -73.5t23 -49.5t44.5 -28t70 -9h8q43 0 71.5 9t45.5 28t24 49.5t7 73.5zM291 868q13 -1 23 -5t19 -9t17.5 -9t18.5 -4q9 -1 21.5 5t12.5 18q0 5 9.5 7.5t20.5 2.5q14 0 26 -4.5t11 -15.5q-2 -27 -11.5 -45.5t-23.5 -30t-29.5 -16t-29.5 -3.5q-13 1 -22.5 5 t-18.5 9t-18 9t-19 4q-10 1 -22 -4.5t-12 -18.5q0 -5 -9 -7.5t-21 -2.5q-14 0 -26 4.5t-11 15.5q1 27 11 45.5t23.5 29.5t29.5 16t30 4z"/>
<glyph unicode="ũ" d="M365 98v421q0 6 10 10t23.5 6.5t27 3t21.5 0.5q11 0 21 -5.5t10 -19.5v-457q0 -19 -5.5 -25t-15.5 -10q-30 -13 -84.5 -23.5t-120.5 -10.5q-65 0 -103 14t-58 38.5t-26 58.5t-6 75v345q0 6 9.5 10t22.5 6.5t27 3t22 0.5q11 0 21.5 -5.5t10.5 -19.5v-341q0 -45 17 -68.5 t69 -23.5q16 0 35 2t35 5t26.5 5.5t10.5 4.5zM225 710q13 -1 23 -5t19 -9t17.5 -9t18.5 -4q9 -1 21.5 5t12.5 18q0 5 9.5 7.5t20.5 2.5q14 0 26 -4.5t11 -15.5q-2 -27 -11.5 -45.5t-23.5 -30t-29.5 -16t-29.5 -3.5q-13 1 -22.5 5t-18.5 9t-18 9t-19 4q-10 1 -22 -4.5 t-12 -18.5q0 -5 -9 -7.5t-21 -2.5q-14 0 -26 4.5t-11 15.5q1 27 11 45.5t23.5 29.5t29.5 16t30 4z"/>
<glyph unicode="Ū" horiz-adv-x="672" d="M486 255v452q0 6 10.5 10.5t25.5 7.5t30 4.5t24 1.5q13 0 21.5 -9.5t8.5 -20.5v-452q0 -74 -16.5 -123.5t-49.5 -80.5t-83.5 -44t-118.5 -13h-8q-66 0 -115.5 13t-82.5 44t-49.5 80.5t-16.5 123.5v458q0 6 10.5 10.5t25 7.5t30 4.5t24.5 1.5q12 0 21 -9.5t9 -20.5v-446 q0 -43 6.5 -73.5t23 -49.5t44.5 -28t70 -9h8q43 0 71.5 9t45.5 28t24 49.5t7 73.5zM436 768h-198q-8 0 -15.5 7t-7.5 15t0.5 19t2.5 21t5.5 17t10.5 7h201q8 0 16 -6.5t8 -15.5q0 -8 -1 -19t-3.5 -21t-7 -17t-11.5 -7z"/>
<glyph unicode="ū" d="M365 98v421q0 6 10 10t23.5 6.5t27 3t21.5 0.5q11 0 21 -5.5t10 -19.5v-457q0 -19 -5.5 -25t-15.5 -10q-30 -13 -84.5 -23.5t-120.5 -10.5q-65 0 -103 14t-58 38.5t-26 58.5t-6 75v345q0 6 9.5 10t22.5 6.5t27 3t22 0.5q11 0 21.5 -5.5t10.5 -19.5v-341q0 -45 17 -68.5 t69 -23.5q16 0 35 2t35 5t26.5 5.5t10.5 4.5zM369 610h-198q-8 0 -15.5 7t-7.5 15t0.5 19t2.5 21t5.5 17t10.5 7h201q8 0 16 -6.5t8 -15.5q0 -8 -1 -19t-3.5 -21t-7 -17t-11.5 -7z"/>
<glyph unicode="Ŭ" horiz-adv-x="672" d="M486 255v452q0 6 10.5 10.5t25.5 7.5t30 4.5t24 1.5q13 0 21.5 -9.5t8.5 -20.5v-452q0 -74 -16.5 -123.5t-49.5 -80.5t-83.5 -44t-118.5 -13h-8q-66 0 -115.5 13t-82.5 44t-49.5 80.5t-16.5 123.5v458q0 6 10.5 10.5t25 7.5t30 4.5t24.5 1.5q12 0 21 -9.5t9 -20.5v-446 q0 -43 6.5 -73.5t23 -49.5t44.5 -28t70 -9h8q43 0 71.5 9t45.5 28t24 49.5t7 73.5zM335 762q-63 0 -99 27t-36 84q0 8 7.5 12t15.5 4q6 0 16.5 -0.5t21 -2t18.5 -4.5t8 -8q0 -20 14.5 -30.5t33.5 -10.5t33.5 10.5t14.5 30.5q0 5 8 8t18.5 4.5t21.5 2t17 0.5q8 0 15 -4t7 -12 q0 -57 -36 -84t-99 -27z"/>
<glyph unicode="ŭ" d="M365 98v421q0 6 10 10t23.5 6.5t27 3t21.5 0.5q11 0 21 -5.5t10 -19.5v-457q0 -19 -5.5 -25t-15.5 -10q-30 -13 -84.5 -23.5t-120.5 -10.5q-65 0 -103 14t-58 38.5t-26 58.5t-6 75v345q0 6 9.5 10t22.5 6.5t27 3t22 0.5q11 0 21.5 -5.5t10.5 -19.5v-341q0 -45 17 -68.5 t69 -23.5q16 0 35 2t35 5t26.5 5.5t10.5 4.5zM269 604q-63 0 -99 27t-36 84q0 8 7.5 12t15.5 4q6 0 16.5 -0.5t21 -2t18.5 -4.5t8 -8q0 -20 14.5 -30.5t33.5 -10.5t33.5 10.5t14.5 30.5q0 5 8 8t18.5 4.5t21.5 2t17 0.5q8 0 15 -4t7 -12q0 -57 -36 -84t-99 -27z"/>
<glyph unicode="Ů" horiz-adv-x="672" d="M486 255v452q0 6 10.5 10.5t25.5 7.5t30 4.5t24 1.5q13 0 21.5 -9.5t8.5 -20.5v-452q0 -74 -16.5 -123.5t-49.5 -80.5t-83.5 -44t-118.5 -13h-8q-66 0 -115.5 13t-82.5 44t-49.5 80.5t-16.5 123.5v458q0 6 10.5 10.5t25 7.5t30 4.5t24.5 1.5q12 0 21 -9.5t9 -20.5v-446 q0 -43 6.5 -73.5t23 -49.5t44.5 -28t70 -9h8q43 0 71.5 9t45.5 28t24 49.5t7 73.5zM334 769q-29 0 -51.5 9t-37.5 24t-22.5 34.5t-7.5 41.5t8 42t23 35t37 24t51 9q57 0 88.5 -33t31.5 -78q0 -21 -8 -40.5t-23.5 -34.5t-38 -24t-50.5 -9zM334 835q23 0 35 13.5t12 30.5 t-12 31t-35 14t-35 -14t-12 -31t12 -30.5t35 -13.5z"/>
<glyph unicode="ů" d="M365 98v421q0 6 10 10t23.5 6.5t27 3t21.5 0.5q11 0 21 -5.5t10 -19.5v-457q0 -19 -5.5 -25t-15.5 -10q-30 -13 -84.5 -23.5t-120.5 -10.5q-65 0 -103 14t-58 38.5t-26 58.5t-6 75v345q0 6 9.5 10t22.5 6.5t27 3t22 0.5q11 0 21.5 -5.5t10.5 -19.5v-341q0 -45 17 -68.5 t69 -23.5q16 0 35 2t35 5t26.5 5.5t10.5 4.5zM268 611q-29 0 -51.5 9t-37.5 24t-22.5 34.5t-7.5 41.5t8 42t23 35t37 24t51 9q57 0 88.5 -33t31.5 -78q0 -21 -8 -40.5t-23.5 -34.5t-38 -24t-50.5 -9zM268 677q23 0 35 13.5t12 30.5t-12 31t-35 14t-35 -14t-12 -31t12 -30.5 t35 -13.5z"/>
<glyph unicode="Ű" horiz-adv-x="672" d="M486 255v452q0 6 10.5 10.5t25.5 7.5t30 4.5t24 1.5q13 0 21.5 -9.5t8.5 -20.5v-452q0 -74 -16.5 -123.5t-49.5 -80.5t-83.5 -44t-118.5 -13h-8q-66 0 -115.5 13t-82.5 44t-49.5 80.5t-16.5 123.5v458q0 6 10.5 10.5t25 7.5t30 4.5t24.5 1.5q12 0 21 -9.5t9 -20.5v-446 q0 -43 6.5 -73.5t23 -49.5t44.5 -28t70 -9h8q43 0 71.5 9t45.5 28t24 49.5t7 73.5zM359 803l72 99q10 13 18 11l93 -13q11 -2 14 -7.5t-7 -13.5l-116 -102q-10 -9 -18 -9q-3 0 -14 3t-22 7.5t-18 11t-2 13.5zM206 803l72 99q4 5 8.5 8.5t9.5 2.5l93 -13q11 -2 14 -7.5 t-7 -13.5l-116 -102q-9 -9 -18 -9q-3 0 -14 3t-22 7.5t-18 11t-2 13.5z"/>
<glyph unicode="ű" d="M365 98v421q0 6 10 10t23.5 6.5t27 3t21.5 0.5q11 0 21 -5.5t10 -19.5v-457q0 -19 -5.5 -25t-15.5 -10q-30 -13 -84.5 -23.5t-120.5 -10.5q-65 0 -103 14t-58 38.5t-26 58.5t-6 75v345q0 6 9.5 10t22.5 6.5t27 3t22 0.5q11 0 21.5 -5.5t10.5 -19.5v-341q0 -45 17 -68.5 t69 -23.5q16 0 35 2t35 5t26.5 5.5t10.5 4.5zM292 645l72 99q10 13 18 11l93 -13q11 -2 14 -7.5t-7 -13.5l-116 -102q-10 -9 -18 -9q-3 0 -14 3t-22 7.5t-18 11t-2 13.5zM139 645l72 99q4 5 8.5 8.5t9.5 2.5l93 -13q11 -2 14 -7.5t-7 -13.5l-116 -102q-9 -9 -18 -9 q-3 0 -14 3t-22 7.5t-18 11t-2 13.5z"/>
<glyph unicode="Ų" horiz-adv-x="672" d="M385 -79q7 4 13 -0.5t10 -11.5t6.5 -15t2.5 -12q-1 -9 -9.5 -16.5t-21.5 -13.5t-29 -9.5t-32 -3.5q-39 0 -62 19t-23 49q0 24 10.5 45t28.5 38q-54 4 -94 20.5t-66.5 47t-39.5 78t-13 113.5v458q0 6 10.5 10.5t25 7.5t30 4.5t24.5 1.5q12 0 21 -9.5t9 -20.5v-446 q0 -43 6.5 -73.5t23 -49.5t44.5 -28t70 -9h8q43 0 71.5 9t45.5 28t24 49.5t7 73.5v452q0 6 10.5 10.5t25.5 7.5t30 4.5t24 1.5q13 0 21.5 -9.5t8.5 -20.5v-452q0 -72 -16 -121.5t-48.5 -80.5t-81 -44.5t-114.5 -14.5q-12 -14 -17 -27.5t-5 -25.5q0 -9 5.5 -18t21.5 -9 q8 0 16.5 4t17.5 9z"/>
<glyph unicode="ų" d="M478 -38q7 4 13 -0.5t10 -11.5t6.5 -15t2.5 -12q-1 -9 -9.5 -16.5t-21.5 -13.5t-29 -9.5t-32 -3.5q-39 0 -62 19t-23 49q0 24 11 46q-44 -6 -92 -6q-65 0 -103 14t-58 38.5t-26 58.5t-6 75v345q0 6 9.5 10t22.5 6.5t27 3t22 0.5q11 0 21.5 -5.5t10.5 -19.5v-341 q0 -45 17 -68.5t69 -23.5q16 0 35 2t35 5t26.5 5.5t10.5 4.5v421q0 6 10 10t23.5 6.5t27 3t21.5 0.5q11 0 21 -5.5t10 -19.5v-457q0 -19 -5.5 -25t-15.5 -10l-5 -2.5t-25 -8.5q-10 -17 -10 -35q0 -9 5.5 -18t21.5 -9q8 0 16.5 4t17.5 9z"/>
<glyph unicode="Ŵ" horiz-adv-x="957" d="M714 182l141 523q5 17 32 21.5t55 4.5q17 0 25.5 -7.5t8.5 -19.5q0 -8 -3 -17l-208 -673q-8 -26 -31 -26q-8 0 -21 1t-26 3.5t-23 7t-12 12.5l-151 497q-3 9 -3.5 17.5t-1.5 19.5q-1 -9 -2 -19t-3 -18l-146 -495q-8 -26 -32 -26q-8 0 -21 1t-25.5 3.5t-23 7t-12.5 12.5 l-212 675q-3 9 -3 17q0 12 8.5 19.5t25.5 7.5q28 0 55 -4.5t32 -21.5l150 -523q2 -8 2.5 -20t1.5 -20q1 8 1.5 20t2.5 20l139 519q3 9 14 15t24.5 9.5t27 4.5t21.5 1q17 0 24.5 -8t11.5 -22l149 -519q2 -8 2.5 -20t1.5 -20q1 8 1.5 20t2.5 20zM349 788q-5 6 -6 13t7 12 l119 82q5 4 10 4t10 -4l121 -82q6 -5 6.5 -12t-5.5 -13q-14 -15 -25.5 -23.5t-15.5 -4.5l-91 44l-89 -44q-3 -2 -8.5 0.5t-11.5 7.5t-12 10.5t-9 9.5z"/>
<glyph unicode="ŵ" horiz-adv-x="699" d="M538 174l91 345q2 7 13.5 11.5t25 6t25.5 2t15 0.5q14 0 25 -4t11 -21q0 -8 -4 -19l-158 -484q-2 -10 -10 -16.5t-20 -6.5q-8 0 -20 0.5t-24 2.5t-21 6t-11 10l-93 317q-2 7 -2.5 10.5t-2.5 15.5q-1 -6 -2.5 -13t-3.5 -13l-93 -313q-3 -10 -11 -16.5t-19 -6.5 q-8 0 -20 0.5t-23.5 2.5t-20.5 5.5t-11 10.5l-159 485q-2 5 -2.5 10t-0.5 9q0 28 36 28q6 0 19 -1t25.5 -3t22.5 -6t12 -10l91 -345q5 -17 6.5 -34t3.5 -33q2 16 3 33t6 34l89 344q2 7 9.5 11t17 6.5t20 3t18.5 0.5q13 0 23 -2.5t12 -10.5l91 -351q5 -17 6.5 -33.5 t3.5 -33.5q2 17 4 33t7 33zM219 630q-5 6 -6 13t7 12l119 82q5 4 10 4t10 -4l121 -82q6 -5 6.5 -12t-5.5 -13q-14 -15 -25.5 -23.5t-15.5 -4.5l-91 44l-89 -44q-3 -2 -8.5 0.5t-11.5 7.5t-12 10.5t-9 9.5z"/>
<glyph unicode="Ŷ" horiz-adv-x="600" d="M360 264v-249q0 -12 -9 -19.5t-22 -7.5q-9 0 -23.5 1t-29 3t-25 6.5t-10.5 10.5v255l-218 425q-11 22 -3 32t31 10q14 0 28.5 -0.5t27 -2.5t21.5 -5t12 -9l160 -327l160 326q3 6 12 9.5t21.5 5.5t27 2.5t28.5 0.5q23 0 30.5 -9.5t-3.5 -32.5zM170 789q-5 6 -6 13t7 12 l119 82q5 4 10 4t10 -4l121 -82q6 -5 6.5 -12t-5.5 -13q-14 -15 -25.5 -23.5t-15.5 -4.5l-91 44l-89 -44q-3 -2 -8.5 0.5t-11.5 7.5t-12 10.5t-9 9.5z"/>
<glyph unicode="ŷ" horiz-adv-x="538" d="M368 519q0 6 10 10t23.5 6.5t27 3t21.5 0.5q22 0 26.5 -18t4.5 -38v-504q0 -51 -9.5 -91t-35 -67.5t-69 -42t-111.5 -14.5q-29 0 -57 1.5t-51.5 4t-40.5 4.5t-25 4q-13 5 -17 10t-4 21q0 39 8 53t18 14q4 0 18.5 -2t35.5 -4t45.5 -4t49.5 -2t48.5 4.5t42 17t30 34.5 t11.5 57v55q-35 -18 -75.5 -31t-86.5 -13q-45 0 -72 13t-41.5 36t-19.5 54.5t-5 69.5v358q0 6 9.5 10t22.5 6.5t27 3t22 0.5q11 0 21 -5.5t10 -19.5v-348q0 -46 14 -60t44 -14q21 0 43.5 4t42 9.5t32 12t12.5 11.5v390zM142 630q-5 6 -6 13t7 12l119 82q5 4 10 4t10 -4 l121 -82q6 -5 6.5 -12t-5.5 -13q-14 -15 -25.5 -23.5t-15.5 -4.5l-91 44l-89 -44q-3 -2 -8.5 0.5t-11.5 7.5t-12 10.5t-9 9.5z"/>
<glyph unicode="Ÿ" horiz-adv-x="600" d="M360 264v-249q0 -12 -9 -19.5t-22 -7.5q-9 0 -23.5 1t-29 3t-25 6.5t-10.5 10.5v255l-218 425q-11 22 -3 32t31 10q14 0 28.5 -0.5t27 -2.5t21.5 -5t12 -9l160 -327l160 326q3 6 12 9.5t21.5 5.5t27 2.5t28.5 0.5q23 0 30.5 -9.5t-3.5 -32.5zM328 779v98q0 6 9.5 10t23 6 t27.5 3t23 1q14 0 22.5 -7.5t8.5 -19.5v-84q0 -12 -8.5 -20t-22.5 -8q-9 0 -23 1t-27.5 3t-23 6.5t-9.5 10.5zM155 779v98q0 6 9.5 10t22.5 6t27.5 3t23.5 1q14 0 22.5 -7.5t8.5 -19.5v-84q0 -12 -8.5 -20t-22.5 -8q-9 0 -23.5 1t-27.5 3t-22.5 6.5t-9.5 10.5z"/>
<glyph unicode="Ź" horiz-adv-x="589" d="M544 0h-491q-9 0 -15 9t-6 20q0 6 0.5 17t2 23t4 23t6.5 17l350 504h-324q-6 0 -9.5 9t-6 21.5t-3 26t-0.5 21.5q0 12 6.5 20.5t16.5 8.5h452q10 0 16.5 -8.5t6.5 -21.5q0 -5 -1 -16t-2.5 -23t-4 -23t-6.5 -16l-348 -505h352q10 0 17 -8.5t7 -20.5q0 -8 -0.5 -21.5 t-3 -26t-6.5 -21.5t-10 -9zM258 780l89 123q4 6 15 6t23.5 -3t23.5 -7t16 -7q23 -13 26 -21.5t0 -12.5l-103 -90q-8 -8 -24.5 -9.5t-35.5 0.5q-17 1 -27.5 5.5t-2.5 15.5z"/>
<glyph unicode="ź" horiz-adv-x="459" d="M416 0h-365q-15 0 -19.5 10t-4.5 31q0 30 20 61l221 330h-177q-31 0 -37 17.5t-6 52.5q0 10 5 15t13 7.5t17 3t17 0.5h291q8 0 15.5 -6t7.5 -15q0 -6 -1 -16t-3 -20.5t-5 -21t-7 -16.5l-223 -337h238q8 0 14.5 -7.5t6.5 -18.5q0 -8 -0.5 -19.5t-2.5 -23t-5.5 -19.5 t-9.5 -8zM174 621l89 123q4 6 15 6t23.5 -3t23.5 -7t16 -7q23 -13 26 -21.5t0 -12.5l-103 -90q-8 -8 -24.5 -9.5t-35.5 0.5q-17 1 -27.5 5.5t-2.5 15.5z"/>
<glyph unicode="Ż" horiz-adv-x="589" d="M544 0h-491q-9 0 -15 9t-6 20q0 6 0.5 17t2 23t4 23t6.5 17l350 504h-324q-6 0 -9.5 9t-6 21.5t-3 26t-0.5 21.5q0 12 6.5 20.5t16.5 8.5h452q10 0 16.5 -8.5t6.5 -21.5q0 -5 -1 -16t-2.5 -23t-4 -23t-6.5 -16l-348 -505h352q10 0 17 -8.5t7 -20.5q0 -8 -0.5 -21.5 t-3 -26t-6.5 -21.5t-10 -9zM264 789v87q0 6 9.5 10t23 6.5t27.5 3t23 0.5q14 0 22.5 -7.5t8.5 -18.5v-75q0 -11 -8.5 -18.5t-22.5 -7.5q-9 0 -23 1t-27.5 3.5t-23 6t-9.5 9.5z"/>
<glyph unicode="ż" horiz-adv-x="459" d="M416 0h-365q-15 0 -19.5 10t-4.5 31q0 30 20 61l221 330h-177q-31 0 -37 17.5t-6 52.5q0 10 5 15t13 7.5t17 3t17 0.5h291q8 0 15.5 -6t7.5 -15q0 -6 -1 -16t-3 -20.5t-5 -21t-7 -16.5l-223 -337h238q8 0 14.5 -7.5t6.5 -18.5q0 -8 -0.5 -19.5t-2.5 -23t-5.5 -19.5 t-9.5 -8zM180 630v87q0 6 9.5 10t23 6.5t27.5 3t23 0.5q14 0 22.5 -7.5t8.5 -18.5v-75q0 -11 -8.5 -18.5t-22.5 -7.5q-9 0 -23 1t-27.5 3.5t-23 6t-9.5 9.5z"/>
<glyph unicode="Ž" horiz-adv-x="589" d="M544 0h-491q-9 0 -15 9t-6 20q0 6 0.5 17t2 23t4 23t6.5 17l350 504h-324q-6 0 -9.5 9t-6 21.5t-3 26t-0.5 21.5q0 12 6.5 20.5t16.5 8.5h452q10 0 16.5 -8.5t6.5 -21.5q0 -5 -1 -16t-2.5 -23t-4 -23t-6.5 -16l-348 -505h352q10 0 17 -8.5t7 -20.5q0 -8 -0.5 -21.5 t-3 -26t-6.5 -21.5t-10 -9zM198 861q4 4 10 10.5t12.5 11.5t12 7.5t8.5 -0.5l79 -53l78 52q5 5 16.5 -4t25.5 -24q7 -8 6.5 -15.5t-6.5 -12.5l-108 -74q-12 -10 -24 0l-109 74q-5 5 -6 13t5 15z"/>
<glyph unicode="ž" horiz-adv-x="459" d="M416 0h-365q-15 0 -19.5 10t-4.5 31q0 30 20 61l221 330h-177q-31 0 -37 17.5t-6 52.5q0 10 5 15t13 7.5t17 3t17 0.5h291q8 0 15.5 -6t7.5 -15q0 -6 -1 -16t-3 -20.5t-5 -21t-7 -16.5l-223 -337h238q8 0 14.5 -7.5t6.5 -18.5q0 -8 -0.5 -19.5t-2.5 -23t-5.5 -19.5 t-9.5 -8zM114 702q4 4 10 10.5t12.5 11.5t12 7.5t8.5 -0.5l79 -53l78 52q5 5 16.5 -4t25.5 -24q7 -8 6.5 -15.5t-6.5 -12.5l-108 -74q-12 -10 -24 0l-109 74q-5 5 -6 13t5 15z"/>
<glyph unicode="ſ" horiz-adv-x="359" d="M214 612v-599q0 -13 -10 -19t-20 -6q-9 0 -23 0.5t-27.5 2.5t-23 6t-9.5 11v419h-67q-8 0 -14 6.5t-6 14.5v21.5t2.5 26.5t6.5 22.5t12 9.5h66v104q0 34 11.5 60.5t31 43.5t46 26t57.5 9q35 0 61.5 -7t46.5 -18q21 -11 14 -34q-3 -9 -7 -20.5t-8.5 -21.5t-10 -16 t-10.5 -4q-25 9 -45 11.5t-32 2.5q-42 0 -42 -52z"/>
<glyph unicode="ƒ" horiz-adv-x="378" d="M213 607v-79h108q8 0 14.5 -6.5t6.5 -15.5t-0.5 -22t-3 -26t-7 -22t-11.5 -9h-107v-640q0 -13 -9.5 -19t-19.5 -6q-9 0 -23 0.5t-27.5 2.5t-23 6t-9.5 11v645h-67q-8 0 -14.5 6.5t-6.5 14.5t0.5 21.5t3 26.5t6.5 22.5t12 9.5h66v100q0 34 11 60t30.5 43t46 26t57.5 9 q35 0 62 -7t47 -18q8 -5 12.5 -14t1.5 -20q-2 -8 -6 -19.5t-9 -21.5t-10.5 -16.5t-11.5 -4.5q-24 9 -41.5 11.5t-34.5 2.5q-43 0 -43 -52z"/>
<glyph unicode="Ǽ" horiz-adv-x="974" d="M465 20v157h-217l-92 -157q-6 -10 -18.5 -15.5t-27.5 -8.5t-29 -3.5t-22 -0.5q-7 0 -15 1.5t-13.5 5.5t-7 10t4.5 15l24 38l383 615q17 28 31.5 35t29.5 7h405q11 0 17.5 -8t6.5 -21q0 -9 -0.5 -22t-3 -25.5t-6 -21.5t-9.5 -9h-320v-193h276q11 0 17.5 -8t6.5 -20 q0 -9 -0.5 -22t-3 -26t-6 -22t-9.5 -9h-281v-205h315q11 0 17.5 -8t6.5 -21q0 -9 -0.5 -22t-3 -25.5t-6 -21.5t-9.5 -9h-393q-7 0 -15.5 2t-15.5 5t-12 6.5t-5 6.5zM311 284h154v264zM477 776l89 123q4 6 15 6t23.5 -3t23.5 -7t16 -7q23 -13 26 -21.5t0 -12.5l-103 -90 q-8 -8 -24.5 -9.5t-35.5 0.5q-17 1 -27.5 5.5t-2.5 15.5z"/>
<glyph unicode="ǽ" horiz-adv-x="779" d="M739 6q-17 -5 -38 -8t-44 -5.5t-46 -3.5t-43 -1q-49 0 -86 7t-65 24q-24 -13 -67.5 -22t-106.5 -9q-56 0 -95 10t-63 31t-35 53t-11 76q0 37 7 66t25.5 48.5t49.5 30t79 10.5q37 0 74.5 -6t63.5 -13v63q0 45 -25.5 66t-93.5 21q-34 0 -71 -4.5t-56 -7.5q-9 0 -14 7.5 t-7.5 18t-3.5 21t-1 15.5q-1 16 2 21.5t10 7.5t23.5 5t39 5.5t49 4t54.5 1.5q53 0 91.5 -8t64.5 -31q54 39 157 39h13q54 0 90.5 -11.5t58.5 -32.5t31 -50.5t9 -64.5v-25q0 -40 -13 -70.5t-47.5 -51.5t-95 -31.5t-155.5 -10.5q0 -61 34 -85t112 -24q40 0 80 6t61 8 q4 0 7.5 -1t6 -6.5t4.5 -17t2 -31.5q1 -17 -1.5 -23.5t-14.5 -10.5zM649 370v17q0 32 -22 49t-71 17q-23 0 -43 -4.5t-34.5 -15.5t-22.5 -30t-8 -48v-78q60 0 99 4t61.5 14.5t31.5 28.5t9 46zM338 88v123q-5 2 -17 5.5t-28 6.5t-33 5t-32 2q-42 0 -61 -15.5t-19 -64.5 q0 -45 20 -62t70 -17q13 0 28.5 1.5t29.5 4t25.5 5.5t16.5 6zM332 634l89 123q4 6 15 6t23.5 -3t23.5 -7t16 -7q23 -13 26 -21.5t0 -12.5l-103 -90q-8 -8 -24.5 -9.5t-35.5 0.5q-17 1 -27.5 5.5t-2.5 15.5z"/>
<glyph unicode="Ǿ" horiz-adv-x="705" d="M504 767q5 -1 16.5 -4.5t22.5 -9t18.5 -11.5t4.5 -12l-16 -39q51 -30 76 -86t25 -147v-196q0 -77 -18 -129.5t-55 -84.5t-92 -46t-130 -14h-8q-46 0 -85 6l-12 -30q-4 -9 -15 -13t-22 -1q-3 1 -14.5 4t-23 8t-19.5 11.5t-5 14.5l14 34q-57 29 -84 86.5t-27 153.5v196 q0 77 18 129t54.5 84t91.5 46t129 14h8q53 0 99 -8l13 31q4 8 14.5 11.5t21.5 1.5zM178 452v-184q0 -50 7 -83t26 -53l202 488q-13 2 -27 3t-30 1h-8q-51 0 -84 -8.5t-52 -28t-26.5 -53t-7.5 -82.5zM528 452q0 43 -6 73.5t-20 50.5l-197 -480q10 -1 20.5 -1h22.5h8 q51 0 84.5 8.5t53 28.5t27 53t7.5 83v184zM289 804l89 123q4 6 15 6t23.5 -3t23.5 -7t16 -7q23 -13 26 -21.5t0 -12.5l-103 -90q-8 -8 -24.5 -9.5t-35.5 0.5q-17 1 -27.5 5.5t-2.5 15.5z"/>
<glyph unicode="ǿ" horiz-adv-x="518" d="M53 175v177q0 54 12 90t38 57.5t66.5 30.5t97.5 9h5q28 0 51.5 -1.5t43.5 -6.5l36 66q10 18 32 11q5 -1 12 -4t12.5 -7t8.5 -9.5t1 -10.5l-39 -72q30 -21 44 -58t14 -95v-177q0 -54 -12 -90t-38 -57.5t-67 -30.5t-99 -9h-5q-66 0 -109 12l-32 -60q-3 -8 -12 -11.5 t-20 -1.5q-5 2 -12 5t-12.5 7.5t-8.5 9.5t-1 11l38 71q-45 42 -45 144zM266 88h8q58 0 79.5 19.5t21.5 66.5v178q0 23 -5 41l-161 -298q20 -7 57 -7zM165 156l151 280q-18 3 -42 3h-8q-58 0 -79.5 -19.5t-21.5 -67.5v-196zM189 609l89 123q4 6 15 6t23.5 -3t23.5 -7t16 -7 q23 -13 26 -21.5t0 -12.5l-103 -90q-8 -8 -24.5 -9.5t-35.5 0.5q-17 1 -27.5 5.5t-2.5 15.5z"/>
<glyph unicode="Ș" horiz-adv-x="528" d="M74 111q8 -2 24.5 -6t38 -8t47 -7t51.5 -3q28 0 53.5 4.5t45.5 15t32 28t12 43.5q0 36 -23.5 61t-59 47t-77 44.5t-77 52t-59 70t-23.5 98.5q0 49 17.5 83t48.5 55.5t74 31.5t95 10q11 0 33.5 -1t47.5 -3.5t49.5 -6.5t39.5 -11q14 -6 17 -13t1 -23q-2 -26 -11 -43.5 t-25 -14.5q-25 5 -57 10t-72 5q-62 0 -101 -18t-39 -60q0 -33 23.5 -56.5t59 -45t77 -44t77 -53t59 -73t23.5 -103.5q0 -57 -21.5 -94t-57 -58t-82 -29t-96.5 -8q-23 0 -48 1.5t-49 4.5t-45.5 7t-36.5 9t-18 11.5t-1 22.5q3 29 11 49.5t22 17.5z"/>
<glyph unicode="ș" horiz-adv-x="465" d="M79 97q21 -3 51 -6t70 -3q55 0 85.5 11t30.5 41q0 25 -19 40t-48 27.5t-62.5 25.5t-62.5 33t-48 51t-19 79q0 46 17.5 74.5t45.5 43.5t63 20t70 5q59 0 91.5 -2.5t54.5 -7.5q12 -2 15.5 -9.5t3.5 -18.5q0 -33 -8 -51.5t-18 -17.5q-21 2 -46.5 4.5t-63.5 2.5 q-54 0 -83 -10t-29 -36q0 -21 19 -34t48 -25t62 -25t62 -34t48 -53.5t19 -81.5q0 -48 -16.5 -77.5t-45 -46t-65.5 -22.5t-77 -6q-35 0 -82 3t-82 12q-14 4 -16 11.5t0 19.5q4 24 7.5 37t8 19t9 7t10.5 0zM312 -129l-98 -164q-12 -20 -24 -23t-26 -3q-10 0 -9.5 9.5t2.5 18.5 l43 179q1 5 11 8.5t24 5.5t28.5 2.5t25.5 0.5q8 0 17 -5t9 -17q0 -6 -3 -12z"/>
<glyph unicode="ȷ" horiz-adv-x="233" d="M-47 -106q8 -1 22 -3.5t27 -2.5q34 0 47 17t13 52v563q0 6 10 9.5t23.5 6t27.5 3t22 0.5q12 0 21 -6.5t9 -17.5v-553q0 -84 -31.5 -128t-108.5 -44q-15 0 -35 1t-40 5q-16 3 -22 10t-6 18t1.5 23.5t4 23t6.5 17t9 6.5z"/>
<glyph unicode="ʼ" horiz-adv-x="196" d="M156 703v-222q0 -11 -8 -19.5t-21 -8.5q-9 0 -23 1t-27.5 4t-23 7t-9.5 10v234q0 6 9.5 10t23 7t27.5 4t23 1q13 0 21 -8.5t8 -19.5z"/>
<glyph unicode="ˆ" horiz-adv-x="308" d="M25 677q-5 6 -6 13t7 12l119 82q5 4 10 4t10 -4l121 -82q6 -5 6.5 -12t-5.5 -13q-14 -15 -25.5 -23.5t-15.5 -4.5l-91 44l-89 -44q-3 -2 -8.5 0.5t-11.5 7.5t-12 10.5t-9 9.5z"/>
<glyph unicode="ˇ" horiz-adv-x="325" d="M36 744q4 4 10 10.5t12.5 11.5t12 7.5t8.5 -0.5l79 -53l78 52q5 5 16.5 -4t25.5 -24q7 -8 6.5 -15.5t-6.5 -12.5l-108 -74q-12 -10 -24 0l-109 74q-5 5 -6 13t5 15z"/>
<glyph unicode="˘" horiz-adv-x="311" d="M165 653q-63 0 -99 27t-36 84q0 8 7.5 12t15.5 4q6 0 16.5 -0.5t21 -2t18.5 -4.5t8 -8q0 -20 14.5 -30.5t33.5 -10.5t33.5 10.5t14.5 30.5q0 5 8 8t18.5 4.5t21.5 2t17 0.5q8 0 15 -4t7 -12q0 -57 -36 -84t-99 -27z"/>
<glyph unicode="˙" horiz-adv-x="294" d="M89 652v87q0 6 9.5 10t23 6.5t27.5 3t23 0.5q14 0 22.5 -7.5t8.5 -18.5v-75q0 -11 -8.5 -18.5t-22.5 -7.5q-9 0 -23 1t-27.5 3.5t-23 6t-9.5 9.5z"/>
<glyph unicode="˚" horiz-adv-x="307" d="M153 656q-29 0 -51.5 9t-37.5 24t-22.5 34.5t-7.5 41.5t8 42t23 35t37 24t51 9q57 0 88.5 -33t31.5 -78q0 -21 -8 -40.5t-23.5 -34.5t-38 -24t-50.5 -9zM153 722q23 0 35 13.5t12 30.5t-12 31t-35 14t-35 -14t-12 -31t12 -30.5t35 -13.5z"/>
<glyph unicode="˛" horiz-adv-x="309" d="M230 -63q7 4 13 -0.5t10 -11.5t6.5 -15t2.5 -12q-1 -9 -9.5 -16.5t-21.5 -13.5t-29 -9.5t-32 -3.5q-39 0 -62 19t-23 49q0 31 17 56.5t45 43.5h63q-23 -20 -32 -38t-9 -34q0 -9 5.5 -18t21.5 -9q8 0 16.5 4t17.5 9z"/>
<glyph unicode="˜" horiz-adv-x="328" d="M119 737q13 -1 23 -5t19 -9t17.5 -9t18.5 -4q9 -1 21.5 5t12.5 18q0 5 9.5 7.5t20.5 2.5q14 0 26 -4.5t11 -15.5q-2 -27 -11.5 -45.5t-23.5 -30t-29.5 -16t-29.5 -3.5q-13 1 -22.5 5t-18.5 9t-18 9t-19 4q-10 1 -22 -4.5t-12 -18.5q0 -5 -9 -7.5t-21 -2.5q-14 0 -26 4.5 t-11 15.5q1 27 11 45.5t23.5 29.5t29.5 16t30 4z"/>
<glyph unicode="˝" horiz-adv-x="306" d="M175 662l72 99q10 13 18 11l93 -13q11 -2 14 -7.5t-7 -13.5l-116 -102q-10 -9 -18 -9q-3 0 -14 3t-22 7.5t-18 11t-2 13.5zM22 662l72 99q4 5 8.5 8.5t9.5 2.5l93 -13q11 -2 14 -7.5t-7 -13.5l-116 -102q-9 -9 -18 -9q-3 0 -14 3t-22 7.5t-18 11t-2 13.5z"/>
<glyph unicode="Ι" horiz-adv-x="190" d="M124 14q0 -11 -2.5 -18.5t-14.5 -7.5q-16 0 -28.5 4t-12.5 9v705q0 11 2.5 18.5t14.5 7.5q16 0 28.5 -4t12.5 -9v-705z"/>
<glyph unicode="Ψ" horiz-adv-x="986" d="M548 15q0 -12 -9 -19.5t-22 -7.5q-9 0 -24 1t-29.5 3t-25 6.5t-10.5 10.5v296q-61 3 -98.5 18.5t-60.5 38.5t-34.5 51t-19.5 57t-17 56.5t-26 48.5t-46 34t-78 13h-18q-8 0 -12.5 9t-6.5 21.5t-2.5 25.5t-0.5 21q0 11 5 19t15 8h20q63 0 104.5 -12.5t68 -33t42 -47.5 t25.5 -55.5t19 -56.5t23 -51t37 -39t61 -21v300q0 6 10.5 10.5t25 6.5t29.5 3t24 1q13 0 22 -8t9 -19v-294q38 5 60.5 21.5t36.5 39.5t22.5 51t19 56.5t25.5 55t41.5 47t68 33t104.5 12.5h20q10 0 15.5 -8t5.5 -19q0 -8 -0.5 -21t-2.5 -25.5t-6.5 -21.5t-12.5 -9h-19 q-49 0 -78.5 -13t-46.5 -34t-25.5 -48.5t-16.5 -56t-19.5 -56.5t-34 -51t-60 -38.5t-97.5 -19.5v-290z"/>
<glyph unicode="μ" d="M365 98v421q0 6 10 10t23.5 6.5t27 3t21.5 0.5q11 0 21 -5.5t10 -19.5v-457q0 -19 -5.5 -25t-15.5 -10q-30 -13 -84.5 -23.5t-120.5 -10.5q-46 0 -81 8v-205q0 -11 -9 -18t-21 -7q-8 0 -22 0.5t-27.5 3t-23 6.5t-9.5 10v733q0 6 9.5 10t22.5 6.5t27 3t22 0.5 q11 0 21.5 -5.5t10.5 -19.5v-341q0 -45 17 -68.5t69 -23.5q16 0 35 2t35 5t26.5 5.5t10.5 4.5z"/>
<glyph unicode="Ё" horiz-adv-x="573" d="M66 20v674q0 13 9 19.5t22 6.5h401q11 0 18.5 -9t7.5 -20q0 -8 -1 -21.5t-3 -26t-6 -21.5t-10 -9h-318v-194h274q10 0 17.5 -8.5t7.5 -19.5q0 -8 -1 -21.5t-3 -26.5t-6 -22t-10 -9h-279v-205h312q11 0 18.5 -8.5t7.5 -20.5q0 -8 -1 -21t-3 -26t-6 -22t-10 -9h-393 q-14 0 -29.5 6.5t-15.5 13.5zM329 775v98q0 6 9.5 10t23 6t27.5 3t23 1q14 0 22.5 -7.5t8.5 -19.5v-84q0 -12 -8.5 -20t-22.5 -8q-9 0 -23 1t-27.5 3t-23 6.5t-9.5 10.5zM156 775v98q0 6 9.5 10t22.5 6t27.5 3t23.5 1q14 0 22.5 -7.5t8.5 -19.5v-84q0 -12 -8.5 -20t-22.5 -8 q-9 0 -23.5 1t-27.5 3t-22.5 6.5t-9.5 10.5z"/>
<glyph unicode="Ђ" horiz-adv-x="655" d="M459 100q9 -2 18 -3t18 -1q33 0 40.5 34.5t7.5 93.5v76q0 21 -1.5 40.5t-6.5 35t-14.5 25t-26.5 9.5q-25 0 -50 -3.5t-45.5 -9t-34 -11t-14.5 -9.5v-363q0 -11 -8.5 -18.5t-20.5 -7.5t-27.5 1t-29.5 3.5t-23.5 6.5t-9.5 10v603h-200q-11 0 -18.5 8.5t-7.5 20.5q0 8 1 21 t3 26t6 22t10 9h492q9 0 19.5 -0.5t19.5 -3t14.5 -8.5t5.5 -17q0 -8 -1 -21.5t-3 -26t-6 -21.5t-10 -9h-206v-124q29 11 71 18.5t92 7.5q54 0 83 -20t42.5 -51t15.5 -68t2 -71v-105q0 -110 -35.5 -160.5t-110.5 -50.5q-18 0 -33.5 2t-40.5 10q-12 4 -15.5 12.5t-0.5 19.5 q2 8 6 20t9.5 23t11.5 18.5t12 6.5z"/>
<glyph unicode="Ѓ" horiz-adv-x="535" d="M478 719h-358q-18 0 -36 -4t-18 -16v-690q0 -6 10.5 -10.5t25 -6.5t30 -3t24.5 -1q13 0 21.5 8t8.5 19v597h287q10 0 17 8.5t7 20.5q0 8 -0.5 21.5t-3 26t-6 21.5t-9.5 9zM219 778l89 123q4 6 15 6t23.5 -3t23.5 -7t16 -7q23 -13 26 -21.5t0 -12.5l-103 -90 q-8 -8 -24.5 -9.5t-35.5 0.5q-17 1 -27.5 5.5t-2.5 15.5z"/>
<glyph unicode="Є" horiz-adv-x="562" d="M176 440v-21h258q10 0 17.5 -8.5t7.5 -19.5q0 -8 -1 -21.5t-3 -26.5t-6 -22t-10 -9h-263v-33q0 -50 7.5 -85t26.5 -57t52 -32t84 -10h8q38 0 71.5 6t68.5 15q6 1 13 -9t13 -24t10.5 -27.5t4.5 -18.5q0 -12 -20.5 -21.5t-49.5 -15.5t-60 -9t-51 -3h-8q-74 0 -129 14 t-91.5 46t-54.5 84t-18 129v197q0 77 18 129t54.5 84t91.5 46t129 14h8q20 0 51 -3t60 -9t49.5 -15.5t20.5 -22.5q0 -5 -4.5 -18t-10.5 -27t-13 -24.5t-13 -8.5q-35 9 -68.5 15t-71.5 6h-8q-51 0 -84 -10t-52 -32t-26.5 -57t-7.5 -85z"/>
<glyph unicode="Ѕ" horiz-adv-x="550" d="M81 126q42 -11 89 -20.5t89 -9.5q22 0 44.5 3.5t40.5 12.5t29 24.5t11 39.5q0 33 -23.5 60t-58.5 52.5t-75.5 51t-75.5 57t-58.5 70.5t-23.5 91t20.5 86t54.5 53t77.5 26.5t88.5 7.5q13 0 32.5 -1.5t41.5 -5t44.5 -9t40.5 -12.5q10 -5 16 -14t2 -21q-3 -11 -7.5 -24 t-11 -23.5t-15.5 -16t-21 -2.5q-27 8 -57.5 15t-62.5 7q-22 0 -44 -3.5t-39.5 -12t-28.5 -22t-11 -34.5q0 -30 23.5 -55t58.5 -49t75.5 -50t75.5 -58t58.5 -73.5t23.5 -96.5q0 -59 -19.5 -95t-53.5 -55.5t-78.5 -25.5t-93.5 -6q-46 0 -100.5 8t-103.5 27q-8 3 -13.5 11.5 t-0.5 22.5q2 7 6 19t9.5 23.5t12 19.5t12.5 7z"/>
<glyph unicode="І" horiz-adv-x="252" d="M186 15q0 -12 -9 -19.5t-22 -7.5q-9 0 -24 1t-29.5 3t-25 6.5t-10.5 10.5v701q0 6 10.5 10.5t25 6.5t29.5 3t24 1q13 0 22 -8t9 -19v-689z"/>
<glyph unicode="Ї" horiz-adv-x="304" d="M215 15q0 -12 -9 -19.5t-22 -7.5q-9 0 -24 1t-29.5 3t-25 6.5t-10.5 10.5v701q0 6 10.5 10.5t25 6.5t29.5 3t24 1q13 0 22 -8t9 -19v-689zM183 775v98q0 6 9.5 10t23 6t27.5 3t23 1q14 0 22.5 -7.5t8.5 -19.5v-84q0 -12 -8.5 -20t-22.5 -8q-9 0 -23 1t-27.5 3t-23 6.5 t-9.5 10.5zM10 775v98q0 6 9.5 10t22.5 6t27.5 3t23.5 1q14 0 22.5 -7.5t8.5 -19.5v-84q0 -12 -8.5 -20t-22.5 -8q-9 0 -23.5 1t-27.5 3t-22.5 6.5t-9.5 10.5z"/>
<glyph unicode="Ј" horiz-adv-x="252" d="M-60 -128q20 -3 34.5 -5t28.5 -2q32 0 47.5 14t15.5 58v773q0 6 10.5 10.5t24.5 6.5t29.5 3t24.5 1q13 0 22 -8t9 -19v-763q0 -94 -37.5 -136t-115.5 -42q-18 0 -42.5 1.5t-58.5 8.5q-14 3 -18.5 11.5t-2.5 21.5q9 69 29 66z"/>
<glyph unicode="Љ" horiz-adv-x="1210" d="M90 108q19 -6 34.5 -8.5t29.5 -2.5q11 0 20 5t16 18t12 36t10 58l59 478q2 10 6.5 18.5t14.5 8.5h415q17 0 24.5 -7.5t7.5 -18.5v-280h193q74 0 118.5 -13.5t68 -38t31 -60t7.5 -79.5v-22q0 -47 -9.5 -84.5t-34.5 -63t-70 -39t-115 -13.5h-265q-14 0 -29 6.5t-15 13.5 v591h-238l-51 -410q-14 -116 -59.5 -164.5t-118.5 -48.5q-18 0 -43 3t-57 17q-11 5 -13.5 13.5t2.5 19.5q3 8 9 20t13 23t14 18.5t13 5.5zM932 318h-193v-223h171q44 0 69.5 6t38 18t16 29.5t3.5 40.5v25q0 23 -1.5 42t-11.5 33t-31.5 21.5t-60.5 7.5z"/>
<glyph unicode="Њ" horiz-adv-x="1075" d="M621 701v-284h194q74 0 118.5 -13.5t68 -38.5t31 -60.5t7.5 -79.5v-25q0 -51 -10.5 -89t-37 -62.5t-71 -36.5t-112.5 -12h-257q-22 0 -36.5 3.5t-14.5 18.5v297h-315v-302q0 -11 -9 -20t-22 -9q-9 0 -24 1t-29.5 4t-25 7.5t-10.5 10.5v696q0 6 10.5 10.5t25 7.5t29.5 4.5 t24 1.5q13 0 22 -9t9 -21v-273h315v279q0 6 10.5 10.5t25.5 7.5t30 4.5t24 1.5q12 0 21 -9.5t9 -20.5zM815 322h-194v-227h171q45 0 70.5 6t38 18t16 29.5t3.5 40.5v30q0 22 -2 41t-11.5 33t-31 21.5t-60.5 7.5z"/>
<glyph unicode="Ћ" horiz-adv-x="732" d="M351 612v-204q32 12 78 20.5t100 8.5q50 0 82 -16.5t50.5 -43.5t25.5 -61t7 -69v-234q0 -11 -9.5 -18t-21.5 -7q-9 0 -24 0.5t-29.5 3t-25 6.5t-10.5 10v215q0 21 -3.5 41t-11.5 35t-20.5 24.5t-29.5 9.5q-24 0 -51 -3.5t-50 -8.5t-38.5 -11t-18.5 -10v-285 q0 -12 -9.5 -19.5t-21.5 -7.5q-9 0 -24 1t-29.5 3t-25 6.5t-10.5 10.5v603h-200q-11 0 -18.5 8.5t-7.5 20.5q0 8 1 21t3 26t6 22t10 9h535q11 0 18.5 -8.5t7.5 -20.5q0 -8 -1 -21.5t-3 -26t-6 -21.5t-10 -9h-215z"/>
<glyph unicode="Ќ" horiz-adv-x="649" d="M185 15q0 -12 -8.5 -19.5t-21.5 -7.5q-9 0 -24 1t-29.5 3t-25 6.5t-10.5 10.5v701q0 6 10.5 10.5t25 6.5t29.5 3t24 1q13 0 21.5 -8t8.5 -19v-315l278 321q13 15 41 18t54 3q9 0 21.5 -3t12.5 -16q0 -12 -17 -32l-264 -302l295 -339q18 -21 18 -32q0 -14 -12.5 -16.5 t-22.5 -2.5q-25 0 -53.5 3t-41.5 18l-309 357v-351zM254 772l89 123q4 6 15 6t23.5 -3t23.5 -7t16 -7q23 -13 26 -21.5t0 -12.5l-103 -90q-8 -8 -24.5 -9.5t-35.5 0.5q-17 1 -27.5 5.5t-2.5 15.5z"/>
<glyph unicode="Ў" horiz-adv-x="625" d="M65 108q20 -6 36 -8.5t30 -2.5q15 0 28 4t26.5 16t28 34.5t32.5 59.5l-220 486q-5 10 -2 16.5t9 10.5t14 5.5t13 1.5q10 0 25 -0.5t29.5 -3t25.5 -7.5t13 -14l163 -366l159 370q2 7 13 11t25.5 6t29 3t23.5 1q5 0 12.5 -1.5t13.5 -5.5t8.5 -10.5t-1.5 -16.5l-232 -510 q-46 -100 -97 -149.5t-126 -49.5q-18 0 -44 3t-60 17q-21 8 -15 33q2 7 6 19t9.5 23t12 19t12.5 6zM312 762q-63 0 -99 27t-36 84q0 8 7.5 12t15.5 4q6 0 16.5 -0.5t21 -2t18.5 -4.5t8 -8q0 -20 14.5 -30.5t33.5 -10.5t33.5 10.5t14.5 30.5q0 5 8 8t18.5 4.5t21.5 2t17 0.5 q8 0 15 -4t7 -12q0 -57 -36 -84t-99 -27z"/>
<glyph unicode="Џ" horiz-adv-x="699" d="M415 -115q0 -12 -9.5 -19.5t-21.5 -7.5q-9 0 -24 0.5t-29.5 3t-25 6.5t-10.5 10v122h-175q-18 0 -36 4t-18 16v690q0 6 10.5 10.5t25 6.5t30 3t24.5 1q13 0 21.5 -8t8.5 -19v-597h335v603q0 6 10.5 10.5t25.5 6.5t30 3t24 1q13 0 22 -8t9 -19v-626q0 -8 -1 -21.5t-3 -26 t-6 -21.5t-10 -9h-207v-115z"/>
<glyph unicode="А" horiz-adv-x="629" d="M505 12l-56 169h-246l-59 -172q-5 -15 -30.5 -18t-54.5 -3q-14 0 -26 4.5t-12 17.5q0 2 0.5 4t1.5 5l245 691q2 7 12.5 11t24 6t28 3t25.5 1q8 0 16 -5.5t12 -16.5l242 -690q1 -3 1.5 -5t0.5 -4q0 -13 -12.5 -17.5t-25.5 -4.5q-33 0 -57.5 3.5t-29.5 20.5zM319 541 l-85 -256h184l-85 256q-3 8 -4.5 17.5t-3.5 17.5q-2 -8 -2.5 -17.5t-3.5 -17.5z"/>
<glyph unicode="Б" horiz-adv-x="657" d="M511 612h-325v-199h193q74 0 118.5 -14.5t68 -40.5t31 -61t7.5 -75v-22q0 -48 -10 -85t-36.5 -62.5t-71 -39t-113.5 -13.5h-263q-14 0 -29 6.5t-15 13.5v674q0 11 7.5 18.5t23.5 7.5h416q10 0 15 -8.5t5 -18.5q0 -8 -0.5 -22t-2.5 -27t-6.5 -22.5t-12.5 -9.5zM379 318 h-193v-211h170q44 0 69.5 6t38.5 18t16.5 29.5t3.5 40.5v21q0 21 -2.5 38.5t-12.5 30t-31.5 20t-58.5 7.5z"/>
<glyph unicode="В" horiz-adv-x="657" d="M97 720h276q62 0 104 -14t67.5 -40.5t36 -63.5t10.5 -83v-10q0 -35 -7 -59t-19 -40.5t-27.5 -25.5t-32.5 -13q18 -4 36 -15t32 -29.5t22.5 -44.5t8.5 -60v-22q0 -54 -13 -92t-40.5 -62t-71.5 -35t-106 -11h-263q-14 0 -29 6.5t-15 13.5v674q0 11 7.5 18.5t23.5 7.5z M379 318h-193v-211h189q31 0 52 4.5t33.5 15t18 29t5.5 45.5v21q0 51 -22.5 73.5t-82.5 22.5zM373 612h-187v-199h186q59 0 79 22.5t20 73.5v10q0 22 -4 39t-15 29t-30 18.5t-49 6.5z"/>
<glyph unicode="Г" horiz-adv-x="532" d="M120 731h382q6 0 9.5 -9t6 -22t3 -26t0.5 -22q0 -11 -7 -19.5t-17 -8.5h-311v-597q0 -11 -8.5 -19t-21.5 -8q-9 0 -24.5 1t-30 3t-25 6.5t-10.5 10.5v690q0 11 18 15.5t36 4.5z"/>
<glyph unicode="Д" horiz-adv-x="774" d="M269 731h346q18 0 36 -4.5t18 -15.5v-603h68q14 0 20.5 -3t6.5 -20v-247q0 -12 -11 -17.5t-28 -3.5q-6 0 -20 0.5t-27.5 2t-24 4.5t-10.5 9v167h-489v-166q0 -5 -11 -8.5t-26 -5.5t-30 -3t-23 -1q-10 0 -20 7.5t-10 18.5v247q0 11 5 15t20 4h43q30 0 52.5 23t39 60.5 t27.5 86t17.5 99t9 99.5t2.5 89v83q0 9 0.5 23.5t2 27.5t5.5 22.5t11 9.5zM548 624h-178v-78q0 -74 -7 -144.5t-21.5 -129t-35.5 -102t-49 -62.5h291v516z"/>
<glyph unicode="Е" horiz-adv-x="573" d="M66 20v674q0 11 8.5 18.5t22.5 7.5h401q11 0 18.5 -8t7.5 -21q0 -9 -1 -22t-3 -25.5t-6 -21.5t-10 -9h-318v-194h274q10 0 17.5 -8.5t7.5 -19.5q0 -8 -1 -21.5t-3 -26.5t-6 -22t-10 -9h-279v-205h312q11 0 18.5 -8.5t7.5 -20.5q0 -8 -1 -21t-3 -26t-6 -22t-10 -9h-393 q-14 0 -29.5 6.5t-15.5 13.5z"/>
<glyph unicode="Ж" horiz-adv-x="1045" d="M81 622h-18q-8 0 -12.5 9t-6.5 21.5t-2.5 25.5t-0.5 21q0 11 5 19t15 8h20q62 0 103 -12.5t67 -33t41.5 -47t26 -54.5t19.5 -56t24 -51t38 -39t61 -21v298q0 6 10.5 10.5t25 6.5t29.5 3t24 1q13 0 22 -8t9 -19v-292q38 5 61 21.5t37 39.5t23 51t19.5 56t26 54.5 t41.5 46.5t67 32.5t103 12.5h20q10 0 15.5 -8t5.5 -19q0 -8 -0.5 -21t-2.5 -25.5t-6.5 -21.5t-12.5 -9h-19q-51 0 -80 -14t-45.5 -37t-25 -51.5t-17.5 -58.5t-23 -57.5t-41 -47.5l273 -317q18 -21 18 -32q0 -14 -12.5 -16.5t-22.5 -2.5q-25 0 -53.5 3t-41.5 18l-255 302 q-24 -5 -52 -6v-290q0 -12 -9 -19.5t-22 -7.5q-9 0 -24 1t-29.5 3t-25 6.5t-10.5 10.5v296q-31 2 -53 6l-255 -302q-13 -15 -41 -18t-54 -3q-9 0 -21.5 2.5t-12.5 16.5q0 5 3.5 13t13.5 19l273 315q-28 20 -42 48t-23 57.5t-17.5 58.5t-25 52.5t-45.5 37.5t-80 14z"/>
<glyph unicode="З" horiz-adv-x="534" d="M57 102q27 -2 67.5 -7.5t88.5 -5.5q26 0 54.5 3.5t52.5 15t39.5 33t15.5 56.5v21q0 34 -12 55t-32.5 32.5t-47.5 15.5t-58 4h-34q-8 0 -13.5 8.5t-10 20t-6.5 23.5t-2 20q0 14 8 21.5t20 7.5h24q31 0 59 4.5t48.5 15t32.5 28t12 44.5v16q0 51 -33 74t-114 23 q-29 0 -62 -3t-81 -10q-3 0 -6.5 9t-6.5 21t-5 24t-2 18q0 13 21 21t51 12.5t63 6t57 1.5q56 0 100 -8t74 -29t46 -58.5t16 -95.5v-28q0 -33 -9.5 -55.5t-25 -37.5t-34.5 -23.5t-37 -14.5q21 -3 42 -12t38.5 -26.5t28.5 -45t11 -67.5v-46q0 -57 -20 -95t-54.5 -60.5 t-81 -31.5t-99.5 -9q-18 0 -52.5 1.5t-68.5 5t-59.5 10t-25.5 15.5q0 3 1 16t3 28t6.5 26.5t12.5 11.5z"/>
<glyph unicode="И" horiz-adv-x="743" d="M511 7v502l-325 -500q-5 -8 -12.5 -14.5t-18.5 -6.5q-9 0 -24 1t-29 3t-24.5 6.5t-10.5 10.5v701q0 6 10.5 10.5t24.5 6.5t29.5 3t24.5 1q12 0 21 -7.5t9 -19.5v-492l325 500q4 6 15 9.5t24.5 6t27 3t21.5 0.5q11 0 20.5 -7t9.5 -19v-687q0 -30 -26 -30q-9 0 -24.5 1 t-30.5 3t-26 5.5t-11 9.5z"/>
<glyph unicode="Й" horiz-adv-x="743" d="M511 509v-502q0 -6 11 -9.5t26 -5.5t30.5 -3t24.5 -1q26 0 26 30v687q0 12 -9.5 19t-20.5 7q-8 0 -21.5 -0.5t-27 -3t-24.5 -6t-15 -9.5l-325 -500v492q0 12 -9 19.5t-21 7.5q-9 0 -24.5 -1t-29.5 -3t-24.5 -6.5t-10.5 -10.5v-701q0 -6 10.5 -10.5t24.5 -6.5t29 -3t24 -1 q11 0 18.5 6.5t12.5 14.5zM371 763q-63 0 -99 27t-36 84q0 8 7.5 12t15.5 4q6 0 16.5 -0.5t21 -2t18.5 -4.5t8 -8q0 -20 14.5 -30.5t33.5 -10.5t33.5 10.5t14.5 30.5q0 5 8 8t18.5 4.5t21.5 2t17 0.5q8 0 15 -4t7 -12q0 -57 -36 -84t-99 -27z"/>
<glyph unicode="К" horiz-adv-x="636" d="M66 9v701q0 6 10.5 10.5t25 6.5t29.5 3t24 1q19 0 25 -9.5t6 -17.5v-292q38 5 61 21.5t37 39.5t23 50.5t19.5 55.5t26 54t41.5 46.5t67 32.5t103 12h20q12 0 17 -11q2 -5 3 -12.5t1 -17.5q0 -20 -5 -40.5t-17 -22.5h-19q-51 0 -80 -14t-45.5 -36.5t-25 -51.5t-17.5 -58 t-23 -56.5t-41 -47.5l273 -317q18 -21 18 -32q0 -14 -12.5 -16.5t-22.5 -2.5q-12 0 -25.5 0.5t-27 2.5t-25 6t-17.5 12l-255 302q-24 -5 -52 -6v-290q0 -12 -9 -19.5t-22 -7.5q-9 0 -24 1t-29.5 3t-25 6.5t-10.5 10.5z"/>
<glyph unicode="Л" horiz-adv-x="804" d="M739 15q0 -12 -9.5 -19.5t-21.5 -7.5q-9 0 -24 1t-29.5 3t-25 6.5t-10.5 10.5v602h-239l-50 -410q-14 -112 -57.5 -162.5t-120.5 -50.5q-18 0 -43 3t-57 17q-11 5 -13.5 13.5t2.5 19.5q3 8 9 20t13 23t14 18.5t13 5.5q19 -6 34.5 -8.5t29.5 -2.5q11 0 20 5t16 18t12 36 t10 58l59 478q2 10 6.5 18.5t14.5 8.5h415q17 0 24.5 -7.5t7.5 -18.5v-678z"/>
<glyph unicode="М" horiz-adv-x="941" d="M186 15q0 -12 -9 -19.5t-22 -7.5q-9 0 -24 1t-29.5 3t-25 6.5t-10.5 10.5v701q0 6 10.5 10.5t25 6.5t29.5 3t24 1q13 0 21.5 -8t13.5 -19l284 -551l280 557q3 6 14.5 10t25.5 6.5t28 3.5t22 1q13 0 22 -8t9 -19v-689q0 -12 -9 -19.5t-22 -7.5q-9 0 -24 1t-29.5 3t-25 6.5 t-10.5 10.5v460l-230 -458q-5 -10 -12.5 -16.5t-19.5 -6.5q-9 0 -21.5 1t-24 3t-20.5 6.5t-12 12.5l-229 460v-456z"/>
<glyph unicode="Н" horiz-adv-x="687" d="M621 701v-683q0 -12 -9 -21t-21 -9q-9 0 -24 1.5t-30 4t-25.5 7t-10.5 10.5v308h-315v-302q0 -11 -9 -20t-22 -9q-9 0 -24 1t-29.5 4t-25 7.5t-10.5 10.5v696q0 6 10.5 10.5t25 7.5t29.5 4.5t24 1.5q13 0 22 -9t9 -21v-273h315v279q0 6 10.5 10.5t25.5 7.5t30 4.5t24 1.5 q12 0 21 -9.5t9 -20.5z"/>
<glyph unicode="О" horiz-adv-x="701" d="M354 -11h-8q-74 0 -129 14t-91.5 46t-54.5 84t-18 129v196q0 77 18 129t54.5 84t91.5 46t129 14h8q75 0 130 -14t92 -46t55 -84t18 -129v-196q0 -77 -18 -129t-55 -84t-92 -46t-130 -14zM176 440v-160q0 -50 7.5 -84.5t26.5 -57t52 -32.5t84 -10h8q51 0 84.5 10t53 32.5 t27 57t7.5 84.5v160q0 49 -7.5 84t-27 57.5t-53 32.5t-84.5 10h-8q-51 0 -84 -10t-52 -32.5t-26.5 -57.5t-7.5 -84z"/>
<glyph unicode="П" horiz-adv-x="699" d="M120 731h502q6 0 10 -9t6 -22t3 -26t1 -22v-637q0 -11 -9 -19t-22 -8q-9 0 -24 1t-30 3t-25.5 6.5t-10.5 10.5v615h-335v-609q0 -11 -8.5 -19t-21.5 -8q-9 0 -24.5 1t-30 3t-25 6.5t-10.5 10.5v702q0 11 18 15.5t36 4.5z"/>
<glyph unicode="Р" horiz-adv-x="609" d="M66 9v685q0 15 17 20.5t34 5.5h201q69 0 117.5 -10t79.5 -35t45 -66.5t14 -105.5v-22q0 -65 -14 -107t-44.5 -66t-79 -33.5t-118.5 -9.5h-133v-251q0 -12 -9 -19t-21 -7q-9 0 -24 1t-29.5 3t-25 6.5t-10.5 10.5zM318 613h-133v-241h133q41 0 66.5 4.5t40 16.5t20 33.5 t5.5 54.5v22q0 33 -5.5 54.5t-20 33.5t-40 17t-66.5 5z"/>
<glyph unicode="С" horiz-adv-x="562" d="M176 440v-161q0 -50 7.5 -85t26.5 -57t52 -32t84 -10h8q38 0 71.5 6t68.5 15q6 1 13 -9t13 -24t10.5 -27.5t4.5 -18.5q0 -12 -20.5 -21.5t-49.5 -15.5t-60 -9t-51 -3h-8q-74 0 -129 14t-91.5 46t-54.5 84t-18 129v197q0 77 18 129t54.5 84t91.5 46t129 14h8q20 0 51 -3 t60 -9t49.5 -15.5t20.5 -22.5q0 -5 -4.5 -18t-10.5 -27t-13 -24.5t-13 -8.5q-35 9 -68.5 15t-71.5 6h-8q-51 0 -84 -10t-52 -32t-26.5 -57t-7.5 -85z"/>
<glyph unicode="Т" horiz-adv-x="588" d="M354 612v-597q0 -12 -9 -19.5t-21 -7.5q-9 0 -24.5 1t-30 3t-25 6.5t-10.5 10.5v603h-199q-11 0 -18.5 8.5t-7.5 20.5q0 8 1 21t3 26t6 22t10 9h525q11 0 18.5 -8.5t7.5 -20.5q0 -8 -1 -21.5t-3 -26t-6 -21.5t-10 -9h-206z"/>
<glyph unicode="У" horiz-adv-x="625" d="M65 108q20 -6 36 -8.5t30 -2.5q15 0 28 4t26.5 16t28 34.5t32.5 59.5l-220 486q-5 10 -2 16.5t9 10.5t14 5.5t13 1.5q10 0 25 -0.5t29.5 -3t25.5 -7.5t13 -14l163 -366l159 370q2 7 13 11t25.5 6t29 3t23.5 1q5 0 12.5 -1.5t13.5 -5.5t8.5 -10.5t-1.5 -16.5l-232 -510 q-46 -100 -97 -149.5t-126 -49.5q-18 0 -44 3t-60 17q-21 8 -15 33q2 7 6 19t9.5 23t12 19t12.5 6z"/>
<glyph unicode="Ф" horiz-adv-x="755" d="M438 15q0 -12 -9 -19.5t-22 -7.5q-9 0 -24 1t-29.5 3t-25 6.5t-10.5 10.5v57q-67 3 -117 18.5t-83 47.5t-49 83t-16 124v46q0 73 16 124t49 83t83 47.5t117 17.5v53q0 6 10.5 10.5t25 6.5t29.5 3t24 1q13 0 22 -8t9 -19v-47q67 -3 116.5 -18.5t82.5 -47.5t49.5 -82.5 t16.5 -123.5v-46q0 -73 -16.5 -124t-49.5 -83t-82.5 -47.5t-116.5 -18.5v-51zM176 367v-10q0 -46 6.5 -79t22.5 -55t43.5 -33.5t69.5 -14.5v375q-42 -3 -69.5 -14.5t-43.5 -34t-22.5 -55.5t-6.5 -79zM580 367q0 45 -6.5 78.5t-22.5 55.5t-43.5 34t-69.5 15v-375 q42 3 69.5 14.5t43.5 33.5t22.5 55.5t6.5 78.5v10z"/>
<glyph unicode="Х" horiz-adv-x="621" d="M580 685l-194 -324l196 -327q14 -23 6 -34.5t-31 -11.5q-8 0 -21.5 0.5t-28 2.5t-26.5 5.5t-16 10.5l-154 259l-154 -259q-4 -7 -16 -10.5t-26.5 -5.5t-28.5 -2.5t-21 -0.5q-23 0 -31 11t6 35l196 327l-195 324q-14 23 -5.5 34.5t30.5 11.5q7 0 21 -0.5t28.5 -2.5 t26.5 -5.5t16 -10.5l153 -254l153 254q4 6 16 10t26 6t28 2.5t21 0.5q23 0 31 -11.5t-6 -34.5z"/>
<glyph unicode="Ц" horiz-adv-x="645" d="M641 78v-235q0 -12 -9 -20t-22 -8q-9 0 -24 1t-29.5 3.5t-25 7t-10.5 10.5v163h-401q-18 0 -36 4t-18 16v690q0 6 10.5 10.5t25 6.5t30 3t24.5 1q13 0 21.5 -8t8.5 -19v-597h283v603q0 6 10.5 10.5t25 6.5t29.5 3t24 1q13 0 22 -8t9 -19v-597h28q10 0 17 -8.5t7 -20.5z "/>
<glyph unicode="Ч" horiz-adv-x="657" d="M471 316q-49 -16 -100 -25.5t-105 -9.5q-21 0 -41.5 2t-41.5 5q-43 6 -71.5 22.5t-45.5 41t-24 55.5t-7 66v238q0 6 10.5 10t25 6.5t29.5 3t24 0.5q12 0 21.5 -7t9.5 -18v-190q0 -39 12 -63.5t32 -38.5t46 -19t55 -5q8 0 17 0.5t17 0.5q21 1 44.5 4.5t43.5 9t33.5 10.5 t15.5 9v286q0 6 10.5 10.5t25 6.5t29.5 3t24 1q13 0 22 -8t9 -19v-691q0 -11 -9.5 -18t-21.5 -7q-9 0 -24 0.5t-29.5 3t-25 6.5t-10.5 10v308z"/>
<glyph unicode="Ш" horiz-adv-x="903" d="M823 -12h-703q-9 0 -18.5 1t-17.5 3t-13 6t-5 10v702q0 6 10.5 10.5t25 6.5t30 3t24.5 1q11 0 20.5 -5.5t9.5 -14.5v-616h208v615q0 6 10.5 10.5t25 6.5t30 3t24.5 1q11 0 20.5 -5.5t9.5 -14.5v-616h208v615q0 6 10.5 10.5t25 6.5t30 3t24.5 1q11 0 20.5 -5.5t9.5 -14.5 v-641q0 -9 -0.5 -23t-2 -27t-5.5 -22.5t-11 -9.5z"/>
<glyph unicode="Щ" horiz-adv-x="910" d="M868 -185q-9 0 -24 1t-29.5 3.5t-25 7t-10.5 10.5v151h-659q-9 0 -18.5 1t-17.5 3t-13 6t-5 10v656v23.5t1 24.5q0 6 11 10t26 6t29.5 2.5t22.5 0.5q11 0 20.5 -5.5t9.5 -14.5v-616h208v615q0 6 10.5 10.5t25 6.5t30 3t24.5 1q11 0 20.5 -5.5t9.5 -14.5v-616h208v615 q0 6 10.5 10.5t25 6.5t30 3t24.5 1q11 0 20.5 -5.5t9.5 -14.5v-553l32 -63q11 0 18 -8.5t7 -20.5v-183q0 -11 -0.5 -22.5t-3.5 -22t-9 -17t-18 -6.5z"/>
<glyph unicode="Ъ" horiz-adv-x="809" d="M218 20l-1 594h-193q-10 0 -15.5 8.5t-5.5 18.5q0 8 0.5 21t2 25.5t5 22t9.5 10.5h286q17 0 24.5 -7.5t7.5 -18.5v-281h193q77 0 121.5 -16t67.5 -43t29.5 -64t6.5 -79v-7q0 -49 -10 -87t-36 -64t-70.5 -39.5t-114.5 -13.5h-263q-14 0 -29 6.5t-15 13.5zM531 318h-193 v-223h170q44 0 69.5 6t38.5 18t16.5 29.5t3.5 40.5v25q0 23 -2 42t-12 33t-31 21.5t-60 7.5z"/>
<glyph unicode="Ы" horiz-adv-x="923" d="M186 704v-291h193q74 0 118.5 -14.5t68 -40.5t31 -61t7.5 -75v-22q0 -48 -10 -85t-36.5 -62.5t-71 -39t-113.5 -13.5h-263q-14 0 -29 6.5t-15 13.5v690q0 6 10.5 10.5t24.5 6.5t29.5 3t24.5 1q12 0 21.5 -8t9.5 -19zM858 15q0 -12 -9.5 -19.5t-21.5 -7.5q-9 0 -24.5 1 t-29.5 3t-24.5 6.5t-10.5 10.5v701q0 6 10.5 10.5t24.5 6.5t29.5 3t24.5 1q12 0 21.5 -8t9.5 -19v-689zM379 318h-193v-223h170q44 0 69.5 6t38.5 18t16.5 29.5t3.5 40.5v33q0 21 -2.5 38.5t-12.5 30t-31.5 20t-58.5 7.5z"/>
<glyph unicode="Ь" horiz-adv-x="612" d="M186 704v-291h193q74 0 118.5 -14.5t68 -40.5t31 -61t7.5 -75v-22q0 -48 -10 -85t-36.5 -62.5t-71 -39t-113.5 -13.5h-263q-14 0 -29 6.5t-15 13.5v690q0 6 10.5 10.5t24.5 6.5t29.5 3t24.5 1q12 0 21.5 -8t9.5 -19zM379 318h-193v-211h170q44 0 69.5 6t38.5 18 t16.5 29.5t3.5 40.5v21q0 21 -2.5 38.5t-12.5 30t-31.5 20t-58.5 7.5z"/>
<glyph unicode="Э" horiz-adv-x="562" d="M386 414q-1 58 -7 98t-24 65t-51.5 36t-88.5 11h-8q-38 0 -71.5 -6t-67.5 -15q-6 -2 -13.5 8.5t-13.5 24.5t-10.5 27t-4.5 18q0 13 21 22.5t50 15.5t59.5 9t50.5 3h8q78 0 133.5 -14.5t91 -48.5t52.5 -90t17 -138v-179q0 -77 -18 -129t-54.5 -84t-92 -46t-129.5 -14h-8 q-20 0 -50.5 3t-59.5 9t-50 15.5t-21 21.5q0 5 4.5 18.5t10.5 27.5t13.5 24t13.5 9q34 -9 67.5 -15t71.5 -6h8q57 0 91 11.5t51.5 37t23 65.5t5.5 98h-224q-10 0 -20 0.5t-20 0.5q-7 0 -10.5 9.5t-5.5 21.5t-2.5 24.5t-0.5 19.5q0 13 6 22t14 9h263z"/>
<glyph unicode="Ю" horiz-adv-x="942" d="M594 -12h-8q-74 0 -129 14t-91.5 46t-54.5 84.5t-18 129.5v57h-107v-302q0 -11 -9 -20t-22 -9q-9 0 -24 1t-29.5 4t-25 7.5t-10.5 10.5v696q0 6 10.5 10.5t25 7.5t29.5 4.5t24 1.5q13 0 22 -9t9 -21v-273h107v30q0 77 18 129t54.5 84t91.5 46t129 14h8q75 0 130 -14 t92 -46t55 -84t18 -129v-196q0 -77 -18 -129.5t-55 -84.5t-92 -46t-130 -14zM416 452v-184q0 -50 7.5 -83t26.5 -53t52 -28.5t84 -8.5h8q51 0 84.5 8.5t53 28.5t27 53t7.5 83v184q0 49 -7.5 82.5t-27 53t-53 28t-84.5 8.5h-8q-51 0 -84 -8.5t-52 -28t-26.5 -53t-7.5 -82.5z "/>
<glyph unicode="Я" horiz-adv-x="632" d="M580 694v-685q0 -6 -10.5 -10.5t-25 -6.5t-29.5 -3t-24 -1q-12 0 -21 7t-9 19v251h-123l-147 -251q-5 -9 -16.5 -14t-26 -7.5t-28.5 -3.5t-23 -1q-3 0 -9.5 0.5t-12.5 2.5t-11 6t-5 10q0 10 11 29l139 240q-38 8 -64 23t-42 40t-23.5 60t-7.5 82v22q0 64 14 105.5 t45 66.5t79.5 35t117.5 10h221q13 0 22 -7.5t9 -18.5zM461 613h-139q-41 0 -65.5 -4.5t-38 -16.5t-18 -33.5t-4.5 -55.5v-22q0 -34 4.5 -55t18 -33t38 -16.5t65.5 -4.5h139v241z"/>
<glyph unicode="а" horiz-adv-x="500" d="M445 359v-311q0 -9 -13 -19.5t-38.5 -19.5t-64 -15t-88.5 -6q-56 0 -95 10t-63 31t-35 53t-11 76q0 37 7 66t25.5 48.5t49.5 30t79 10.5q37 0 74.5 -6t63.5 -13v63q0 45 -25.5 66t-93.5 21q-34 0 -71 -4.5t-56 -7.5q-9 0 -14 7.5t-7.5 18t-3.5 21t-1 15.5q-1 16 2 21.5 t10 7.5t23.5 5t39 5.5t49 4t54.5 1.5q51 0 89 -7.5t63.5 -27.5t38 -55t12.5 -90zM336 88v123q-5 2 -17 5.5t-28 6.5t-33 5t-32 2q-42 0 -61 -15.5t-19 -64.5q0 -45 20 -62t70 -17q13 0 28.5 1.5t29.5 4t25.5 5.5t16.5 6z"/>
<glyph unicode="б" horiz-adv-x="527" d="M53 177v167q0 43 7.5 101t24.5 114t43.5 102t65.5 67q23 12 57.5 22t70.5 17.5t69.5 11.5t54.5 6q15 1 19 -9t5 -24q0 -11 -2.5 -23t-6 -22t-8 -16.5t-8.5 -6.5q-16 -1 -44 -5.5t-57.5 -10.5t-54 -13t-33.5 -11q-11 -5 -21.5 -18t-20.5 -30t-18 -37.5t-12 -41.5 q11 13 34 17.5t43 4.5h5q56 0 95.5 -9.5t64.5 -32t36.5 -60t11.5 -93.5v-167q0 -56 -11.5 -93.5t-36.5 -60t-64.5 -32t-95.5 -9.5h-5q-56 0 -95.5 9.5t-64.5 32t-36.5 60t-11.5 93.5zM259 82h9q30 0 48.5 6t28.5 18.5t13.5 32.5t3.5 49v144q0 28 -3.5 48.5t-13.5 33.5 t-28.5 19t-48.5 6h-9q-30 0 -48.5 -6t-28.5 -19t-13.5 -33.5t-3.5 -48.5v-144q0 -29 3.5 -49t13.5 -32.5t28.5 -18.5t48.5 -6z"/>
<glyph unicode="в" horiz-adv-x="509" d="M71 531h215q96 0 134 -36.5t38 -111.5v-9q0 -49 -19.5 -72.5t-40.5 -28.5q11 -3 23.5 -11.5t22.5 -22t16.5 -32.5t6.5 -44v-17q0 -39 -9.5 -67t-30.5 -46t-55.5 -26.5t-85.5 -8.5h-201q-12 0 -24 6t-12 12v496q0 7 6 13t16 6zM286 224h-124v-137h120q40 0 56.5 11.5 t16.5 42.5v28q0 29 -15.5 42t-53.5 13zM280 435h-118v-122h118q38 0 51.5 13t13.5 44v11q0 26 -13.5 40t-51.5 14z"/>
<glyph unicode="г" horiz-adv-x="403" d="M98 539h279q6 0 9.5 -9t5 -21.5t2 -25t0.5 -19.5q0 -10 -5.5 -18t-13.5 -8h-213v-420q0 -8 -8.5 -14t-19.5 -6q-7 0 -21 0.5t-28.5 2.5t-25 6t-10.5 10v505q0 6 5 9t12.5 5t16 2.5t15.5 0.5z"/>
<glyph unicode="д" horiz-adv-x="626" d="M220 539h267q7 0 16 -0.5t16.5 -2.5t12.5 -5t5 -9v-422h60q11 0 15.5 -3t4.5 -18v-202q0 -8 -9 -15t-23 -5q-6 0 -19.5 0.5t-27 2t-24 4.5t-10.5 8v126h-366v-125q0 -5 -11 -8t-25 -4.5t-28 -2t-21 -0.5q-8 0 -18 5.5t-10 14.5v206q0 11 3.5 13.5t17.5 2.5h36q34 0 57 33 t37.5 81t21 102.5t6.5 98.5v48v22t1.5 25t5 20.5t9.5 8.5zM424 438h-108v-41q0 -125 -27.5 -199.5t-64.5 -97.5h200v338z"/>
<glyph unicode="е" horiz-adv-x="500" d="M453 6q-17 -5 -38 -8t-44 -5.5t-46 -3.5t-43 -1q-60 0 -103.5 11t-71.5 38t-41 71.5t-13 111.5v134q0 97 53 141t165 44h13q54 0 90.5 -11.5t58.5 -32.5t31 -50.5t9 -64.5v-25q0 -40 -13 -70.5t-47.5 -51.5t-95 -31.5t-155.5 -10.5q0 -61 34 -85t112 -24q40 0 80 6t61 8 q4 0 7.5 -1t6 -6.5t4.5 -17t2 -31.5q1 -17 -1.5 -23.5t-14.5 -10.5zM363 370v17q0 32 -22 49t-71 17q-23 0 -43 -4.5t-34.5 -15.5t-22.5 -30t-8 -48v-78q60 0 99 4t61.5 14.5t31.5 28.5t9 46z"/>
<glyph unicode="ж" horiz-adv-x="791" d="M59 437h-16q-7 0 -10.5 8.5t-5 20.5t-2 24t-0.5 19q0 9 4.5 17t12.5 8h17q62 0 99 -14t58 -36t31.5 -48t20.5 -50t25.5 -42.5t46.5 -25.5v202q0 6 10.5 10t24.5 6t28 2.5t22 0.5q10 0 19 -6t9 -15v-200q30 7 45.5 25.5t26 42.5t20.5 50.5t31 48t58 35.5t99 14h17 q8 0 12.5 -8t4.5 -17q0 -7 -0.5 -19t-2 -24t-5 -20.5t-10.5 -8.5h-16q-35 0 -56 -8.5t-34 -23t-20 -32.5t-13 -37.5t-15 -38.5t-25 -34l196 -229q8 -9 11 -16t3 -12q0 -12 -12 -14.5t-21 -2.5q-11 0 -24 0.5t-25 2.5t-22 5.5t-16 10.5l-176 214q-8 -2 -15.5 -2.5t-15.5 -1.5 v-209q0 -8 -9 -14t-19 -6q-8 0 -22 0.5t-28 2.5t-24.5 5.5t-10.5 9.5v211q-9 1 -17 1.5t-16 2.5l-175 -214q-6 -7 -16 -10.5t-22 -5.5t-25 -2.5t-24 -0.5q-9 0 -20.5 2.5t-11.5 14.5q0 5 3 12t11 16l195 228q-17 15 -25.5 34t-15 38.5t-13 38t-19 33t-34 23t-56.5 8.5z"/>
<glyph unicode="з" horiz-adv-x="406" d="M54 94q20 -5 41.5 -6.5t43.5 -1.5q20 0 41 2.5t37.5 8.5t27 16.5t10.5 27.5v27q0 31 -26.5 42.5t-62.5 11.5h-28q-6 0 -10 8.5t-6.5 20.5t-4 24t-1.5 19q0 10 5 17.5t13 7.5h22q38 0 64 11.5t26 41.5v15q0 30 -22 42.5t-76 12.5q-22 0 -38.5 -1.5t-45.5 -6.5 q-6 -1 -11.5 8t-9.5 21.5t-6.5 24.5t-2.5 18q0 10 11.5 16.5t29 10.5t37 5t34.5 1q48 0 87 -5.5t66.5 -22t42.5 -46t15 -78.5v-15q0 -23 -7.5 -40t-18.5 -29t-23.5 -18.5t-21.5 -9.5q10 -3 24 -10t27 -19.5t21.5 -31.5t8.5 -46v-28q0 -49 -19 -79t-50 -46t-70.5 -21 t-79.5 -5q-13 0 -34.5 1.5t-41.5 5.5t-35 10.5t-15 16.5q0 4 2.5 15.5t7 24t10 22t12.5 9.5z"/>
<glyph unicode="и" horiz-adv-x="572" d="M524 519v-507q0 -10 -6.5 -16.5t-17.5 -6.5q-7 0 -21.5 0.5t-29.5 2t-26 4.5t-11 9v348l-253 -343q-5 -7 -12 -14t-17 -7q-7 0 -21 0.5t-27.5 2t-23.5 4.5t-10 9v513q0 6 10.5 10t24.5 6.5t28 3.5t21 1q11 0 19 -7t8 -16v-344l253 349q4 6 15 9.5t24 5.5t25.5 2.5 t19.5 0.5q10 0 19 -5t9 -15z"/>
<glyph unicode="й" horiz-adv-x="570" d="M285 567q-24 0 -47 7t-41 22t-29 38t-11 54q0 8 7.5 11.5t15.5 3.5h17t22 -1.5t19.5 -4.5t8.5 -8q0 -18 11.5 -27.5t26.5 -9.5t26.5 9.5t11.5 27.5q0 5 8.5 8t19.5 4.5t22 1.5h17q8 0 15.5 -3.5t7.5 -11.5q0 -31 -11 -54t-29 -38t-41 -22t-47 -7zM524 519q0 10 -9 15 t-19 5q-7 0 -19.5 -0.5t-25.5 -2.5t-24 -5.5t-15 -9.5l-253 -349v344q0 9 -8 16t-19 7q-7 0 -21 -1t-28 -3.5t-24.5 -6.5t-10.5 -10v-513q0 -6 10 -9t23.5 -4.5t27.5 -2t21 -0.5q10 0 17 7t12 14l253 343v-348q0 -6 11 -9t26 -4.5t29.5 -2t21.5 -0.5q11 0 17.5 6.5t6.5 16.5 v507z"/>
<glyph unicode="к" horiz-adv-x="508" d="M49 7v513q0 6 10.5 10t24.5 6t28 2.5t22 0.5q16 0 22 -7.5t6 -13.5v-200q30 7 45.5 25.5t25.5 42.5t20.5 50t31.5 47.5t57.5 35.5t98.5 14h18q8 0 13 -9q2 -5 3 -13t1 -18q0 -19 -4 -37t-14 -20h-17q-35 0 -56 -8.5t-33.5 -22.5t-19.5 -32.5t-13.5 -37.5t-15 -38 t-24.5 -34l196 -229q13 -19 13 -28q0 -12 -12 -14.5t-20 -2.5q-11 0 -23.5 0.5t-25 2.5t-23 5.5t-15.5 10.5l-176 214q-8 -2 -15.5 -2.5t-15.5 -1.5v-209q0 -8 -9 -14t-19 -6q-8 0 -22 0.5t-28 2.5t-24.5 5.5t-10.5 9.5z"/>
<glyph unicode="л" horiz-adv-x="602" d="M554 10q0 -9 -9 -15t-20 -6q-7 0 -21 0.5t-28 3t-24.5 6t-10.5 9.5v421h-139l-36 -281q-11 -83 -47 -121t-97 -38q-14 0 -34.5 2.5t-47.5 14.5q-16 7 -6 30q3 7 8 18.5t11.5 22t13.5 18t12 5.5q14 -5 24 -6.5t18 -1.5q14 0 21.5 16.5t12.5 53.5l45 342q2 10 5.5 18 t11.5 8h314q23 0 23 -19v-501z"/>
<glyph unicode="м" horiz-adv-x="716" d="M161 11q0 -9 -10 -15.5t-20 -6.5q-7 0 -21 0.5t-27.5 3t-24 6.5t-10.5 11v509q0 7 10.5 11t24.5 6t28 2.5t21 0.5q11 0 18 -6.5t12 -14.5l200 -379l190 380q3 6 14 10t24.5 6t26.5 3t20 1q11 0 20.5 -6t9.5 -15v-507q0 -9 -9.5 -15.5t-20.5 -6.5q-7 0 -21 0.5t-27.5 3 t-24 6.5t-10.5 11v318l-144 -317q-5 -9 -12 -15.5t-18 -6.5q-17 0 -40.5 3.5t-33.5 18.5l-145 320v-320z"/>
<glyph unicode="н" horiz-adv-x="530" d="M480 515v-504q0 -9 -9 -16t-19 -7q-7 0 -21 1t-28.5 3.5t-25 6.5t-10.5 10v214h-206v-212q0 -9 -8 -16t-19 -7q-7 0 -21 1t-28.5 3t-25 6.5t-10.5 10.5v508q0 6 10.5 10.5t25 7t28.5 3.5t21 1q11 0 19 -7t8 -17v-190h206v192q0 6 10.5 10.5t25 7t28.5 3.5t21 1 q10 0 19 -7.5t9 -16.5z"/>
<glyph unicode="о" horiz-adv-x="526" d="M53 175v177q0 54 12 90t38 57.5t66.5 30.5t97.5 9h5q58 0 99 -9t67 -30.5t38 -57.5t12 -90v-177q0 -54 -12 -90t-38 -57.5t-67 -30.5t-99 -9h-5q-57 0 -97.5 9t-66.5 30.5t-38 57.5t-12 90zM266 88h8q58 0 79.5 19.5t21.5 66.5v178q0 48 -21.5 67.5t-79.5 19.5h-8 q-58 0 -79.5 -19.5t-21.5 -67.5v-178q0 -48 21.5 -67t79.5 -19z"/>
<glyph unicode="п" horiz-adv-x="519" d="M97 539h356q6 0 9.5 -9t5 -21.5t2 -25t0.5 -19.5v-455q0 -8 -8.5 -14t-19.5 -6q-7 0 -21 0.5t-28.5 2.5t-25 6t-10.5 10v430h-196v-429q0 -8 -8.5 -14t-19.5 -6q-7 0 -21 0.5t-28.5 2.5t-25 6t-10.5 10v514q0 6 5 9t12.5 5t16 2.5t15.5 0.5z"/>
<glyph unicode="р" horiz-adv-x="529" d="M174 -225q0 -14 -9.5 -20t-21.5 -6q-8 0 -22 0.5t-27.5 3t-23 6.5t-9.5 10v671q0 19 17 34t43 26t57.5 18.5t61 12t53 6.5t34.5 2q46 0 75 -14t45.5 -38.5t23 -58.5t6.5 -73v-181q0 -38 -3.5 -72t-18.5 -59.5t-46 -40t-85 -14.5q-35 0 -76.5 11t-73.5 26v-250zM174 126 q6 -6 19 -12.5t30 -11.5t36 -8.5t38 -3.5q40 0 54 23t14 69v160q0 50 -15.5 73.5t-51.5 23.5q-17 0 -36 -3t-36.5 -7.5t-31.5 -11.5t-20 -14v-277z"/>
<glyph unicode="с" horiz-adv-x="445" d="M381 105q4 1 8.5 -5.5t9 -16.5t8.5 -22t7 -24q3 -10 -1.5 -18.5t-16.5 -12.5q-35 -11 -73 -14.5t-69 -3.5q-106 0 -153.5 53.5t-47.5 154.5v135q0 101 47.5 154.5t153.5 53.5q36 0 68 -3.5t74 -13.5q23 -6 18 -31q-1 -5 -4.5 -17t-8 -24t-10 -20.5t-10.5 -7.5 q-33 6 -53 9.5t-33 5t-22 2t-19 0.5q-47 0 -67.5 -30.5t-20.5 -91.5v-106q0 -62 20.5 -92.5t67.5 -30.5q11 0 20 0.5t22 2t32.5 5t52.5 9.5z"/>
<glyph unicode="т" horiz-adv-x="446" d="M280 427v-419q0 -9 -9 -14.5t-20 -5.5q-7 0 -21 1t-28 3t-24.5 5.5t-10.5 8.5v421h-142q-8 0 -14 8.5t-6 18.5q0 7 1 19.5t3 24.5t5.5 21t8.5 9h398q8 0 14 -8.5t6 -17.5q0 -7 -1 -19.5t-3 -25t-5.5 -21.5t-8.5 -9h-143z"/>
<glyph unicode="у" horiz-adv-x="539" d="M368 519q0 6 10 10t23.5 6.5t27 3t21.5 0.5q22 0 26.5 -18t4.5 -38v-504q0 -51 -9.5 -91t-35 -67.5t-69 -42t-111.5 -14.5q-29 0 -57 1.5t-51.5 4t-40.5 4.5t-25 4q-13 5 -17 10t-4 21q0 39 8 53t18 14q4 0 18.5 -2t35.5 -4t45.5 -4t49.5 -2t48.5 4.5t42 17t30 34.5 t11.5 57v55q-35 -18 -75.5 -31t-86.5 -13q-45 0 -72 13t-41.5 36t-19.5 54.5t-5 69.5v358q0 6 9.5 10t22.5 6.5t27 3t22 0.5q11 0 21 -5.5t10 -19.5v-348q0 -46 14 -60t44 -14q21 0 43.5 4t42 9.5t32 12t12.5 11.5v390z"/>
<glyph unicode="ф" horiz-adv-x="758" d="M435 -225q0 -11 -9 -18.5t-21 -7.5q-9 0 -23 0.5t-27.5 3t-23 6.5t-9.5 10v262q-32 -16 -55 -26.5t-54 -12.5q-32 -3 -65 2q-35 5 -54 23t-28.5 43.5t-11.5 56t-2 61.5v145q0 4 -0.5 8t-0.5 9q0 39 4 73.5t16 60.5t32.5 42.5t52.5 19.5q3 0 16.5 2t30.5 0q20 -2 53.5 -9 t65.5 -21v233q0 6 9.5 10t23 6.5t27.5 3t23 0.5q13 0 21.5 -8t8.5 -25v-220q32 14 67 21.5t52 8.5q12 1 24.5 0t22.5 -2q35 -4 56 -23.5t32 -49t14 -66.5t3 -74v-145q0 -31 -2 -61.5t-11.5 -56t-29 -43.5t-53.5 -23q-14 -2 -31.5 -3t-34.5 1q-31 2 -54 12.5t-55 26.5v-256z M435 126q8 -6 17 -12.5t22 -11.5t30 -8.5t41 -3.5q18 0 27.5 10.5t14 28t5.5 39t1 42.5v108q0 21 -1 42t-5.5 38.5t-14 28t-27.5 10.5q-77 0 -110 -35v-276zM322 402q-16 17 -42.5 26t-67.5 9q-18 0 -28 -10.5t-14.5 -28t-5 -38.5t-0.5 -42v-108q0 -21 1 -42.5t5.5 -39 t14 -28t27.5 -10.5q24 0 41 3.5t29.5 8.5t22 11.5t17.5 12.5v276z"/>
<glyph unicode="х" horiz-adv-x="501" d="M323 269l142 -239q5 -8 6 -13t1 -10q0 -13 -12 -16t-20 -3t-21 0.5t-26 2.5t-24 5.5t-14 8.5l-103 175l-103 -175q-3 -5 -13.5 -8.5t-24 -5.5t-26.5 -2.5t-20 -0.5q-3 0 -9 0.5t-11 2.5t-9 6t-4 11t9 22l141 239l-125 228q-8 13 -8 23q0 13 12 16t20 3q7 0 19.5 -0.5 t25.5 -2.5t23.5 -5.5t14.5 -9.5l88 -161l90 161q3 6 13.5 9.5t23 5.5t25 2.5t20.5 0.5q4 0 9.5 -0.5t10.5 -2.5t8.5 -5.5t3.5 -10.5t-8 -23z"/>
<glyph unicode="ц" horiz-adv-x="527" d="M514 73v-192q0 -9 -8 -14.5t-19 -5.5q-8 0 -22 0.5t-28 2t-24.5 5.5t-10.5 10v119h-304q-7 0 -15.5 0.5t-16 2.5t-12.5 5.5t-5 8.5v505q0 6 10.5 10t25 6t28.5 2.5t21 0.5q11 0 19.5 -6t8.5 -15v-419h194v421q0 6 10.5 10t25 6t28.5 2.5t21 0.5q11 0 19.5 -6t8.5 -15 v-419h27q8 0 13 -8.5t5 -17.5z"/>
<glyph unicode="ч" horiz-adv-x="506" d="M344 221q-35 -10 -68 -15.5t-68 -5.5q-20 0 -40 2.5t-41 6.5q-30 6 -49.5 19t-31 31t-16 41t-4.5 48v173q0 6 10.5 9.5t24.5 5.5t28 2.5t21 0.5q10 0 19.5 -6t9.5 -14v-127q0 -28 8.5 -45.5t22 -27t31 -13t36.5 -3.5q11 0 21 0.5t20 1.5q23 2 43.5 6.5t22.5 9.5v200 q0 6 10.5 9.5t25 5.5t28.5 2.5t21 0.5q11 0 19.5 -5.5t8.5 -15.5v-509q0 -8 -9 -14t-20 -6q-7 0 -21 0.5t-28 2.5t-24.5 6t-10.5 10v213z"/>
<glyph unicode="ш" horiz-adv-x="692" d="M629 -11h-531q-7 0 -15.5 0.5t-16 2.5t-12.5 5.5t-5 8.5v514q0 6 10.5 10t25 6t28.5 2.5t21 0.5q10 0 19 -5t9 -13v-431h129v430q0 6 10.5 10t25 6t28.5 2.5t21 0.5q10 0 19 -5t9 -13v-431h129v430q0 6 10.5 10t24.5 6t28 2.5t22 0.5q10 0 18.5 -5t8.5 -13v-456 q0 -7 -0.5 -20t-2 -25.5t-4.5 -21.5t-9 -9z"/>
<glyph unicode="щ" horiz-adv-x="710" d="M669 -139q-8 0 -22 0.5t-27.5 2.5t-24 6t-10.5 10v109h-487q-7 0 -15.5 0.5t-16 2.5t-12.5 5.5t-5 8.5v514q0 6 10.5 9.5t25 6t28.5 3t21 0.5q10 0 19 -5.5t9 -13.5v-430h129v430q0 6 10.5 9.5t25 6t28.5 3t21 0.5q10 0 19 -5.5t9 -13.5v-430h129v430q0 6 10.5 9.5 t24.5 6t28 3t22 0.5q10 0 18.5 -5.5t8.5 -13.5v-430h21q14 0 22.5 -4t8.5 -22v-143q0 -9 -0.5 -19.5t-3 -19.5t-8.5 -15t-16 -6z"/>
<glyph unicode="ъ" horiz-adv-x="619" d="M162 16l-1 416h-142q-8 0 -13 8t-5 17v18.5t1.5 25t5 21.5t9.5 9h234q12 0 17.5 -5.5t5.5 -13.5v-171h130q61 0 96.5 -12.5t53 -33.5t22 -49.5t4.5 -59.5v-33q0 -38 -8.5 -67t-29 -48.5t-55.5 -29.5t-89 -10h-201q-12 0 -23.5 6t-11.5 12zM398 249h-124v-162h124 q45 0 57 14.5t12 39.5v51q0 12 -2.5 22.5t-9.5 18t-21 12t-36 4.5z"/>
<glyph unicode="ы" horiz-adv-x="728" d="M679 11q0 -9 -9 -15t-19 -6q-8 0 -22 0.5t-28 3t-24.5 6t-10.5 9.5v510q0 6 10.5 10t24.5 6.5t28 3t22 0.5q10 0 19 -6.5t9 -15.5v-506zM162 518v-183h130q58 0 92.5 -11.5t53 -31t24 -45.5t5.5 -56v-39q0 -38 -8.5 -66.5t-29 -48t-55.5 -29.5t-88 -10h-201q-12 0 -24 6 t-12 12v504q0 6 10.5 9.5t24.5 6t28 3t22 0.5q10 0 19 -6t9 -15zM287 246h-125v-159h124q43 0 56 15t13 39v50q0 24 -12.5 39.5t-55.5 15.5z"/>
<glyph unicode="ь" horiz-adv-x="491" d="M162 518v-183h130q58 0 92.5 -11.5t53 -31t24 -45.5t5.5 -56v-39q0 -38 -8.5 -66.5t-29 -48t-55.5 -29.5t-88 -10h-201q-12 0 -24 6t-12 12v504q0 6 10.5 9.5t24.5 6t28 3t22 0.5q10 0 19 -6t9 -15zM287 246h-125v-159h124q43 0 56 15t13 39v50q0 24 -12.5 39.5 t-55.5 15.5z"/>
<glyph unicode="э" horiz-adv-x="453" d="M65 105q23 -5 39 -8t29 -5t24 -3t25 -1q57 0 81 30t24 93v7h-159q-9 0 -14.5 8.5t-5.5 18.5q0 8 0.5 21t2.5 26t6 22t12 9h158q-2 59 -25 87.5t-76 28.5q-16 0 -29 -1.5t-26 -3.5t-27.5 -5.5t-32.5 -6.5q-5 -1 -10 7t-9.5 19.5t-8 23.5t-4.5 19q-5 25 18 31q27 8 57 12.5 t80 4.5q55 0 94 -11t64 -36t36.5 -64.5t11.5 -96.5v-135q0 -56 -11.5 -95.5t-36 -64.5t-62.5 -36.5t-91 -11.5q-32 0 -69.5 3.5t-72.5 14.5q-11 3 -16 10t-2 21q2 8 4.5 20t6 23t7 18.5t8.5 6.5z"/>
<glyph unicode="ю" horiz-adv-x="739" d="M473 -10h-6q-57 0 -99.5 10.5t-70.5 34.5t-42 63t-14 97v28h-79v-211q0 -9 -8.5 -16t-19.5 -7q-7 0 -21 1t-28.5 3.5t-25 6.5t-10.5 10v507q0 6 10.5 10.5t25 7t28.5 3.5t21 1q11 0 19.5 -7t8.5 -17v-190h79v9q0 58 14 97t42 63t70.5 34.5t99.5 10.5h6q57 0 99.5 -10.5 t70.5 -34.5t42 -63t14 -97v-139q0 -58 -14 -97t-42 -63t-70.5 -34.5t-99.5 -10.5zM356 315v-102q0 -32 4 -55t15.5 -38t33.5 -22t58 -7h6q36 0 57.5 7t33.5 22t16 38t4 55v102q0 32 -4 55t-16 38t-33.5 22t-57.5 7h-6q-36 0 -58 -7t-33.5 -22t-15.5 -38t-4 -55z"/>
<glyph unicode="я" horiz-adv-x="497" d="M460 508v-501q0 -6 -10.5 -10t-25 -6t-28.5 -2.5t-21 -0.5q-10 0 -18.5 5t-8.5 14v173h-69l-105 -173q-3 -6 -14 -9.5t-24.5 -5.5t-27 -3t-20.5 -1q-2 0 -8 0.5t-12 2t-11 5t-5 9.5q0 9 9 24l97 162q-50 13 -72.5 48t-22.5 105v21q0 50 12 82t36.5 50t62 24.5t89.5 6.5 h170q10 0 18.5 -5.5t8.5 -14.5zM348 427h-85q-27 0 -43.5 -2t-25.5 -9t-12 -19t-3 -32v-21q0 -20 3 -32.5t12 -19t25.5 -8.5t43.5 -2h85v145z"/>
<glyph unicode="ё" horiz-adv-x="500" d="M453 6q-17 -5 -38 -8t-44 -5.5t-46 -3.5t-43 -1q-60 0 -103.5 11t-71.5 38t-41 71.5t-13 111.5v134q0 97 53 141t165 44h13q54 0 90.5 -11.5t58.5 -32.5t31 -50.5t9 -64.5v-25q0 -40 -13 -70.5t-47.5 -51.5t-95 -31.5t-155.5 -10.5q0 -61 34 -85t112 -24q40 0 80 6t61 8 q4 0 7.5 -1t6 -6.5t4.5 -17t2 -31.5q1 -17 -1.5 -23.5t-14.5 -10.5zM363 370v17q0 32 -22 49t-71 17q-23 0 -43 -4.5t-34.5 -15.5t-22.5 -30t-8 -48v-78q60 0 99 4t61.5 14.5t31.5 28.5t9 46zM287 602v98q0 6 9.5 10t23 6t27.5 3t23 1q14 0 22.5 -7.5t8.5 -19.5v-84 q0 -12 -8.5 -20t-22.5 -8q-9 0 -23 1t-27.5 3t-23 6.5t-9.5 10.5zM114 602v98q0 6 9.5 10t22.5 6t27.5 3t23.5 1q14 0 22.5 -7.5t8.5 -19.5v-84q0 -12 -8.5 -20t-22.5 -8q-9 0 -23.5 1t-27.5 3t-22.5 6.5t-9.5 10.5z"/>
<glyph unicode="ђ" horiz-adv-x="555" d="M263 588h-76v-94q27 17 70 31t94 14q50 0 78.5 -16.5t43 -43.5t18 -61t3.5 -69v-387q0 -110 -36.5 -160.5t-111.5 -50.5q-18 0 -41 2.5t-55 14.5q-22 7 -16 32q1 3 4.5 14.5t9 24t12.5 22t13 7.5q15 -5 29 -7.5t29 -2.5q34 0 42 35t8 94v341q0 21 -1.5 41t-6.5 35 t-14.5 24.5t-26.5 9.5q-26 0 -51 -4.5t-45 -10.5t-33.5 -12.5t-14.5 -10.5v-387q0 -11 -9.5 -18t-20.5 -7q-9 0 -23 0.5t-27.5 3t-23 6.5t-9.5 10v580h-56q-9 0 -14.5 8.5t-5.5 18.5q0 8 0.5 21t2.5 26t6 22t12 9h55v53q1 6 10.5 9.5t23 6t27 3t22.5 0.5q12 0 20.5 -7 t8.5 -18v-47h78q9 0 14 -8t5 -18q0 -8 -0.5 -21.5t-2.5 -26t-6 -22t-12 -9.5z"/>
<glyph unicode="ѓ" horiz-adv-x="398" d="M377 539h-279q-7 0 -15.5 -0.5t-16 -2.5t-12.5 -5.5t-5 -8.5v-504q0 -6 10.5 -10t25 -6.5t28.5 -3t21 -0.5q11 0 19.5 6.5t8.5 15.5v418h213q8 0 14 8.5t6 17.5q0 7 -0.5 19.5t-2.5 25t-5.5 21.5t-9.5 9zM144 611l89 123q4 6 15 6t23.5 -3t23.5 -7t16 -7q23 -13 26 -21.5 t0 -12.5l-103 -90q-8 -8 -24.5 -9.5t-35.5 0.5q-17 1 -27.5 5.5t-2.5 15.5z"/>
<glyph unicode="є" horiz-adv-x="439" d="M337 218h-182v-6q0 -32 4 -55t15.5 -38t33.5 -22t58 -7h5q30 0 57 5t53 12q5 1 11.5 -8.5t12.5 -23t10 -26t4 -16.5q0 -12 -18 -20t-42 -13.5t-49 -8t-39 -2.5h-5q-57 0 -100 10.5t-71 34.5t-42 63.5t-14 97.5v139q0 58 14 97t42 63t71 34.5t100 10.5h5q14 0 39 -2.5 t49 -8t42 -13.5t18 -20q0 -4 -4 -16.5t-10 -26t-12.5 -23.5t-11.5 -8q-26 8 -53 12t-57 4h-5q-36 0 -57.5 -6.5t-33.5 -21t-16 -37t-4 -53.5h180q8 0 14 -8t6 -18q0 -7 -0.5 -19.5t-2.5 -25t-5.5 -21.5t-9.5 -9z"/>
<glyph unicode="ѕ" horiz-adv-x="465" d="M79 97q21 -3 51 -6t70 -3q55 0 85.5 11t30.5 41q0 25 -19 40t-48 27.5t-62.5 25.5t-62.5 33t-48 51t-19 79q0 46 17.5 74.5t45.5 43.5t63 20t70 5q59 0 91.5 -2.5t54.5 -7.5q12 -2 15.5 -9.5t3.5 -18.5q0 -33 -8 -51.5t-18 -17.5q-21 2 -46.5 4.5t-63.5 2.5 q-54 0 -83 -10t-29 -36q0 -21 19 -34t48 -25t62 -25t62 -34t48 -53.5t19 -81.5q0 -48 -16.5 -77.5t-45 -46t-65.5 -22.5t-77 -6q-35 0 -82 3t-82 12q-14 4 -16 11.5t0 19.5q4 24 7.5 37t8 19t9 7t10.5 0z"/>
<glyph unicode="і" horiz-adv-x="298" d="M62 631v105q0 6 9.5 10t23 6.5t27.5 3t23 0.5q13 0 21.5 -7.5t8.5 -19.5v-92q0 -11 -8.5 -19t-21.5 -8q-9 0 -23 1t-27.5 3t-23 6.5t-9.5 10.5zM264 100q5 0 9.5 -7.5t7.5 -18t5 -22t3 -18.5q1 -25 -20 -32q-26 -8 -44 -11t-40 -3q-25 0 -47.5 6.5t-39.5 22.5t-27 42.5 t-10 65.5v395q0 6 10 9.5t23.5 6t27.5 3t23 0.5q11 0 20 -6.5t9 -17.5v-369q0 -24 8 -38.5t34 -14.5q11 0 23 2.5t25 4.5z"/>
<glyph unicode="ї" horiz-adv-x="304" d="M262 104q6 2 11.5 -4.5t10.5 -17t8.5 -22t5.5 -18.5q3 -11 -0.5 -19.5t-14.5 -13.5q-26 -11 -49.5 -16t-49.5 -5q-24 0 -45 6.5t-36.5 22.5t-25 42.5t-9.5 65.5v395q0 6 9.5 9.5t23 6t27.5 3t23 0.5q12 0 20.5 -6.5t8.5 -17.5v-369q0 -24 7.5 -38.5t28.5 -14.5q5 0 14 2 t32 9zM156 630v98q0 6 9.5 10t23 6t27.5 3t23 1q14 0 22.5 -7.5t8.5 -19.5v-84q0 -12 -8.5 -20t-22.5 -8q-9 0 -23 1t-27.5 3t-23 6.5t-9.5 10.5zM-17 630v98q0 6 9.5 10t22.5 6t27.5 3t23.5 1q14 0 22.5 -7.5t8.5 -19.5v-84q0 -12 -8.5 -20t-22.5 -8q-9 0 -23.5 1t-27.5 3 t-22.5 6.5t-9.5 10.5z"/>
<glyph unicode="ј" horiz-adv-x="237" d="M-41 -106l21 -3t26 -2q31 0 43.5 15t12.5 41v575q0 6 10 9.5t23.5 6t27.5 3t22 0.5q14 0 22 -6.5t8 -17.5v-571q0 -44 -10.5 -73.5t-28 -47.5t-41 -25.5t-50.5 -7.5q-24 0 -42 1.5t-38 6.5q-15 5 -21 10.5t-6 22.5q0 9 1 20.5t3.5 21t6.5 15.5t10 6zM61 631v105 q0 6 9.5 10t23 6.5t28 3t23.5 0.5q13 0 22 -7.5t9 -19.5v-92q0 -11 -8.5 -19t-22.5 -8q-9 0 -23.5 1t-28 3t-23 6.5t-9.5 10.5z"/>
<glyph unicode="љ" horiz-adv-x="903" d="M77 100q12 -4 21 -6.5t17 -2.5q20 0 26.5 18t11.5 53l47 342q2 10 5.5 18t11.5 8h320q11 0 17 -6t6 -13v-169h131q58 0 92.5 -11t53 -30t24 -45.5t5.5 -57.5v-46q0 -39 -8.5 -68t-30.5 -48t-58.5 -28.5t-92.5 -9.5h-193q-12 0 -24 6t-12 12v413h-145l-36 -281 q-6 -48 -18 -79t-30 -49t-42 -24.5t-54 -6.5q-14 0 -35.5 2.5t-47.5 14.5q-17 7 -7 30q3 7 8 18.5t11.5 22t13.5 18t12 5.5zM691 247h-131v-160h130q23 0 35.5 4.5t18.5 12.5t7.5 19t1.5 24v44q0 12 -1 22t-7 17.5t-18.5 12t-35.5 4.5z"/>
<glyph unicode="њ" horiz-adv-x="822" d="M480 515v-179h130q58 0 92.5 -12.5t53 -34t24 -50t5.5 -59.5v-28q0 -39 -8.5 -68t-29 -48t-55.5 -28.5t-88 -9.5h-200q-15 0 -26 2.5t-11 16.5v229h-205v-234q0 -9 -8.5 -16t-19.5 -7q-7 0 -21 1t-28.5 3.5t-25 6.5t-10.5 10v507q0 6 10.5 10.5t25 7t28.5 3.5t21 1 q11 0 19.5 -7t8.5 -17v-179h205v181q0 6 10.5 10.5t25 7t28.5 3.5t21 1q11 0 19.5 -7.5t8.5 -16.5zM610 247h-130v-160h129q22 0 35 4.5t19.5 12.5t8 19t1.5 23v27q0 15 -1 28.5t-7 23.5t-19 16t-36 6z"/>
<glyph unicode="ћ" horiz-adv-x="553" d="M276 585h-90v-90q27 17 69 30.5t88 13.5q52 0 82 -15t45 -40.5t18.5 -60t3.5 -74.5v-336q0 -14 -10.5 -19.5t-21.5 -5.5q-8 0 -22 0.5t-27 3t-22.5 6.5t-9.5 10v334q0 22 -2 39.5t-9 30t-20 19.5t-34 7q-20 0 -42 -4.5t-40.5 -10.5t-31.5 -12.5t-14 -10.5v-387 q0 -14 -10 -19.5t-21 -5.5q-8 0 -22 0.5t-27.5 3t-23 6.5t-9.5 10v577h-41q-9 0 -14.5 8.5t-5.5 18.5q0 8 0.5 21t2.5 26t6 22t12 9h40v56q1 7 13 11t26.5 5.5t27 2t15.5 0.5q12 0 21.5 -6.5t9.5 -18.5v-50h92q9 0 14 -8t5 -18q0 -8 -0.5 -21.5t-2.5 -26t-6 -22t-12 -9.5z "/>
</font>
</defs>
</svg>
