<svg id="Layer_1" data-name="Layer 1" xmlns="http://www.w3.org/2000/svg" viewBox="0 0 57 57"><defs><style>.cls-1{fill:none;stroke:#ffd923;stroke-miterlimit:10;stroke-width:1.73px;}.cls-2{fill:#ffd923;}</style></defs><title>1Artboard 1 copy 7</title><polygon class="cls-1" points="43.98 9.63 27.91 18.57 12.32 10.1 28.39 1.42 43.98 9.63"/><polyline class="cls-1" points="44.53 9.55 44.53 46.8 28.01 55.72 11.74 47.37 11.61 10.18"/><line class="cls-1" x1="27.67" y1="18.33" x2="27.65" y2="55.72"/><polygon class="cls-2" points="22.3 24.03 16.51 21.02 16.43 19.12 22.13 21.97 22.3 24.03"/><polygon class="cls-2" points="22.3 30.44 16.51 27.43 16.43 25.53 22.13 28.38 22.3 30.44"/><polygon class="cls-2" points="22.3 36.85 16.51 33.84 16.43 31.94 22.13 34.79 22.3 36.85"/><polygon class="cls-2" points="22.3 43.27 16.51 40.25 16.43 38.35 22.13 41.2 22.3 43.27"/><polygon class="cls-2" points="32.9 24.24 32.98 22.21 38.96 19.12 38.91 21.1 32.9 24.24"/><polygon class="cls-2" points="32.9 30.1 32.98 28.07 38.96 24.98 38.91 26.96 32.9 30.1"/><polygon class="cls-2" points="32.9 35.95 32.98 33.92 38.96 30.84 38.91 32.81 32.9 35.95"/><polyline class="cls-1" points="32.79 53.01 32.92 44.05 38.94 40.78 38.89 49.21"/></svg>