<svg id="Layer_1" data-name="Layer 1" xmlns="http://www.w3.org/2000/svg" viewBox="0 0 57 57"><defs><style>.cls-1{fill:#ffd923;}.cls-2{fill:none;stroke:#ffd923;stroke-miterlimit:10;stroke-width:1.4px;}</style></defs><title>1Artboard 1 copy 4</title><path class="cls-1" d="M19.55,53.29A24.27,24.27,0,0,1,8,50c-4.22-2.49-6.55-5.8-6.55-9.32,0-4.25,2.4-6,4.33-7.47,1.6-1.18,3-2.2,3-4.37s-1.37-3.19-3-4.37C3.89,23,1.48,21.23,1.48,17c0-3.52,2.33-6.83,6.55-9.31A24.1,24.1,0,0,1,19.54,4.36,24.58,24.58,0,0,1,34.32,9.23a24.94,24.94,0,0,1,8.31,10.94.22.22,0,0,0,.14.14h.06a.19.19,0,0,0,.14,0l.56-.48c9.28-7.9,10.81-7.9,11.32-7.9a1.09,1.09,0,0,1,.82.33c.79.79.09,2.18-1.47,4.47-1.24,1.81-3.06,4.17-5.44,7-1.37,1.65-2.88,3.42-4.49,5.25a.24.24,0,0,0-.05.14,24.22,24.22,0,0,1-7.22,17,24.6,24.6,0,0,1-17.44,7.16ZM19.54,6A22.81,22.81,0,0,0,8.84,9C6.69,10.31,3.08,13,3.08,17c0,3.44,1.79,4.78,3.69,6.18,1.7,1.26,3.61,2.68,3.62,5.66s-1.92,4.4-3.61,5.66c-1.9,1.4-3.7,2.73-3.7,6.17,0,6.41,9.84,11.05,16.47,11.05A23,23,0,0,0,35.87,45a22.45,22.45,0,0,0,6.59-13.41.23.23,0,0,0-.12-.23h-.09a.2.2,0,0,0-.16.07c-2.68,3-5.3,5.77-7.58,8.08a.21.21,0,0,0-.06.1,10.25,10.25,0,0,1-4,6.43,10.17,10.17,0,0,1-5.89,1.66,18.23,18.23,0,0,1-6.33-1.22.79.79,0,0,1,.24-1.53c2.05-.17,2.41-1.48,2.91-4,.57-2.81,1.36-6.66,7.1-7.41a.22.22,0,0,0,.13-.06c3.51-3.53,8.26-7.95,12.7-11.82a.2.2,0,0,0,.06-.23A23.06,23.06,0,0,0,19.54,6Zm9,29.22c-4.47.63-5,3.42-5.58,6.12a8,8,0,0,1-1.66,4.09.23.23,0,0,0,0,.21.19.19,0,0,0,.16.15,15.49,15.49,0,0,0,3.15.35c4.38,0,7.16-2.21,8.26-6.58a.21.21,0,0,0,0-.2l-4.05-4.08a.23.23,0,0,0-.15-.07Zm25-21.06-.11,0a77.54,77.54,0,0,0-9.06,7c-.5.42-1,.86-1.51,1.3-4.39,3.81-9,8.08-12.66,11.71a.23.23,0,0,0,0,.31L33,37.22l.62.63a.22.22,0,0,0,.15.06h0a.23.23,0,0,0,.16-.06c4-4.14,8.88-9.47,12.91-14.27a77.46,77.46,0,0,0,7-9.15.21.21,0,0,0,0-.26A.23.23,0,0,0,53.56,14.11Z"/><circle class="cls-2" cx="14.71" cy="15.83" r="2.26"/><circle class="cls-2" cx="24.39" cy="18" r="2.26"/><circle class="cls-2" cx="18.07" cy="24.3" r="3.18"/></svg>