<svg xmlns="http://www.w3.org/2000/svg" width="149" height="134" viewBox="0 0 149 134">
    <g fill="none" fill-rule="evenodd">
        <path stroke="#F5D537" stroke-width="1.579" d="M30 103l15-16M29.568 41.728H71.09c16.83 0 30.463 13.66 30.463 30.515 0 16.85-13.654 30.502-30.463 30.502H29.419l.047-61.174L44.69 25.75l41.582.1c16.83 0 30.464 13.659 30.464 30.514 0 16.851-13.654 30.502-30.464 30.502H44.601V25.852"/>
        <path fill="#FEFEFE" d="M142.224 51.113v22.37l-8.798-22.37h-9.143v36.34h6.575V63.66l9.69 23.794h8.338V51.113zM112.005 36.483h7.378V.134h-7.378zM100.718 69.862L91.26 85.661V69.862h-7.58v36.35h7.58V88.543l8.59 17.667h8.797l-10.511-19.63 10.51-16.719zM61.485 17.864l-10.261 36.35h7.631l1.917-8.084h10.56l1.969 8.085h7.982L71.187 17.864h-9.702zm4.69 6.92l3.634 15.019h-7.462l3.828-15.02zM28.812 97.65V134h19.66v-6.411H36.485v-9.682h11.018v-6.332H36.484v-7.763H48.47v-6.161zM7.627 78.311h3.464c5.663 0 6.373-3.339 6.373-12.023 0-8.685-.71-12.018-6.373-12.018H7.627v24.041zm4.845-30.099c9.705 0 12.726 5.147 12.726 18.176 0 13.027-3.02 18.17-12.734 18.17H0V48.212h12.472z"/>
    </g>
</svg>
