<svg id="Layer_1" data-name="Layer 1" xmlns="http://www.w3.org/2000/svg" viewBox="0 0 57 52"><defs><style>.cls-1{fill:#ffd923;}</style></defs><title>1Artboard 1 copy</title><path class="cls-1" d="M56.5,19.26a1.11,1.11,0,0,1-1.15.59c-2.91,0-5.83,0-8.74,0H46c-.22.84-.16,1,.46,1.42a2.55,2.55,0,0,1,1.21,2.18c0,1.2,0,2.4,0,3.59a2.6,2.6,0,0,1-5.2,0c0-.29,0-.58,0-1H40.28c-.72,0-1.44,0-2.15,0a.66.66,0,0,0-.49.24,2.76,2.76,0,0,1-2.78,1.54c-.14,0-.29,0-.53,0,0,.85,0,1.69,0,2.53,0,.09.21.23.35.26a3.55,3.55,0,0,1,2.85,2.89c.57,2.4,1.2,4.79,1.78,7.19.1.41.27.56.67.52a2.47,2.47,0,0,1,.72,0,.77.77,0,0,1,.69.81.73.73,0,0,1-.7.79c-1.25,0-2.5,0-3.76,0a.72.72,0,0,1-.71-.77.78.78,0,0,1,.72-.84c.23,0,.47,0,.77-.05-.24-1-.47-2-.71-2.93-.37-1.5-.76-3-1.13-4.5a1.89,1.89,0,0,0-1.2-1.41c-.3-.11-.5-.09-.67.24A2.49,2.49,0,0,1,31.68,34c-2.34,0-4.69,0-7,0a2.46,2.46,0,0,1-2.33-1.41c-.17-.34-.37-.35-.67-.24a1.64,1.64,0,0,0-1.09,1.1c-.67,2.54-1.3,5.1-2,7.73l.7,0a.86.86,0,0,1,.83.8.82.82,0,0,1-.85.84q-1.74,0-3.48,0a.8.8,0,0,1-.86-.82.84.84,0,0,1,.87-.82c1.11-.1,1.11-.1,1.38-1.17.55-2.22,1.11-4.43,1.65-6.66a3.45,3.45,0,0,1,2.77-2.75c.32-.07.43-.19.42-.51,0-.75,0-1.5,0-2.3l-1,0a2.62,2.62,0,0,1-2.28-1.43.66.66,0,0,0-.43-.32c-1.41,0-2.81,0-4.21,0,0,0-.1,0-.2.09,0,.29,0,.6,0,.91a2.59,2.59,0,0,1-2.56,2.53,2.56,2.56,0,0,1-2.63-2.45c-.05-1.27,0-2.55,0-3.82a2.15,2.15,0,0,1,1.12-2c.71-.35.68-.83.59-1.5H1.09c-.22,0-.5,0-.65-.07A1.54,1.54,0,0,1-.13,19a.69.69,0,0,1,.62-.78,2.39,2.39,0,0,1,.6,0h9.38v-.78c0-.61.33-1,.83-1s.82.34.84.95v.77c.25,0,.46,0,.68,0H21.5a3.08,3.08,0,0,1,.61,0,.81.81,0,0,1,.05,1.58,2.42,2.42,0,0,1-.66.05H12.23c-.21.88-.16,1,.5,1.43a2.48,2.48,0,0,1,1.17,2.08c0,.31,0,.62,0,1h.91c1.12,0,2.25,0,3.37,0a.75.75,0,0,0,.55-.31,2.63,2.63,0,0,1,2.44-1.45c4.67,0,9.34,0,14,0a2.59,2.59,0,0,1,2.43,1.46c.06.13.22.29.34.29,1.47,0,2.94,0,4.49,0v-1a2.24,2.24,0,0,1,1.15-2c.67-.35.68-.81.57-1.48H34.77a2.09,2.09,0,0,1-.66-.07.81.81,0,0,1,.07-1.55,3,3,0,0,1,.6,0h9.35c.19-.69-.25-1.76.91-1.73s.74,1,.86,1.73h9.41a1.27,1.27,0,0,1,1.19.52ZM32.65,27.88c-.4,0-.73,0-1.06-.07a.82.82,0,0,1,0-1.61,2.46,2.46,0,0,1,.55,0c1,0,2.1,0,3.15,0a.92.92,0,0,0,.06-1.84,2.75,2.75,0,0,0-.5,0H21.46a3.27,3.27,0,0,0-.44,0,.92.92,0,0,0-.88.95.91.91,0,0,0,.92.9c.48,0,1,0,1.44,0h5.42c.67,0,1,.29,1.06.8s-.34.87-1,.88H24.35l-.67,0c0,1.24,0,2.42,0,3.6a.88.88,0,0,0,.94.89q3.54,0,7.08,0a.89.89,0,0,0,.94-.9C32.67,30.29,32.65,29.12,32.65,27.88ZM12.24,25.24c0-.59,0-1.18,0-1.77a.93.93,0,0,0-1.86,0c0,1.2,0,2.4,0,3.59a.87.87,0,0,0,1,.91.88.88,0,0,0,.9-1C12.26,26.38,12.24,25.81,12.24,25.24Zm31.85,0c0,.59,0,1.18,0,1.77a.93.93,0,0,0,1.85.08c0-1.21,0-2.43,0-3.64a.93.93,0,0,0-1.85.08C44.08,24.06,44.09,24.63,44.09,25.2Z"/></svg>