<svg xmlns="http://www.w3.org/2000/svg" width="58" height="53" viewBox="0 0 58 53">
    <g fill="none" fill-rule="evenodd" stroke="#FFD923" stroke-width="2.746">
        <path stroke-linecap="square" d="M43.684 32.665l3.487 3.468a3.566 3.566 0 0 1 0 5.058 3.608 3.608 0 0 1-5.085 0l-3.484-3.466M33.552 42.749l1.636 1.628a3.54 3.54 0 0 1 0 5.023 3.568 3.568 0 0 1-2.527 1.04M6.119 24.313v-5.465l-3.661-3.643L15.27 2.455l2.746 2.732h4.576M10.345 35.603l.95-.945a3.595 3.595 0 0 1 5.07 0l.007.007a3.568 3.568 0 0 1 0 5.058l-.95.945a3.595 3.595 0 0 1-5.07 0l-.007-.007a3.568 3.568 0 0 1 0-5.058zM21.51 44.66l.488-.485a3.57 3.57 0 0 1 5.035 0l.006.006a3.543 3.543 0 0 1 0 5.023l-.487.485a3.57 3.57 0 0 1-5.036 0l-.006-.006a3.543 3.543 0 0 1 0-5.023z"/>
        <path stroke-linecap="square" d="M11.272 34.68l-.53.527a3.482 3.482 0 0 1-5.034-.123 3.448 3.448 0 0 1 .084-4.732l.53-.54a3.49 3.49 0 0 1 4.89-.083 3.453 3.453 0 0 1 .06 4.95zM16.126 39.971l.273-.271a3.57 3.57 0 0 1 5.035 0l.006.006a3.543 3.543 0 0 1 0 5.023l-.273.272a3.57 3.57 0 0 1-5.035 0l-.006-.007a3.543 3.543 0 0 1 0-5.023zM41.39 40.501a3.543 3.543 0 0 1 0 5.024 3.582 3.582 0 0 1-5.048 0l-1.182-1.177"/>
        <path d="M46.185 35.15a3.487 3.487 0 0 0 5.034-.124 3.448 3.448 0 0 0-.084-4.731L39.503 18.402"/>
        <path stroke-linecap="square" d="M51.881 24.313v-5.465l3.661-3.643L42.73 2.455l-2.746 2.732h-5.998c-2.93 0-5.739 1.158-7.81 3.22l-8.426 8.716a3.085 3.085 0 0 0-.161 4.157 3.123 3.123 0 0 0 4.141.565l8.97-5.754a8.171 8.171 0 0 0 6.2 2.747 8.17 8.17 0 0 0 6.14-2.874"/>
    </g>
</svg>
