<svg xmlns="http://www.w3.org/2000/svg" width="22" height="29" viewBox="0 0 22 29">
    <g fill="#FFD923" fill-rule="nonzero">
        <path d="M0 10.195a5.1 5.1 0 0 0 2.102 4.128 4.28 4.28 0 0 0-.41 1.82c0 1.431.698 2.726 1.819 3.528.146.523.416 1.004.792 1.405.485.517.774 1.219.774 1.878V29h11.846v-7.247c0-.78.364-1.556.95-2.028 2.57-2.068 4.127-5.267 4.127-8.68C22 4.955 17.065 0 11 0h-.846v.457A3.353 3.353 0 0 0 8.462 0C7.223 0 6.104.68 5.514 1.727a3.39 3.39 0 0 0-3.822 3.37c0 .393.066.776.193 1.135A5.125 5.125 0 0 0 0 10.195zM15.23 27.5H6.77v-3.598h8.46V27.5zM11.847 1.737c4.738.431 8.462 4.44 8.462 9.308 0 2.845-1.306 5.595-3.492 7.354-.993.798-1.585 2.052-1.585 3.354v.45h-3.385V1.737zM2.84 7.647a3.35 3.35 0 0 0 2.238.85v-1.7a1.693 1.693 0 0 1-1.692-1.7c0-.938.757-1.699 1.692-1.699.506 0 .754.196 1.503.47l.249-.917c.2-.737.87-1.252 1.633-1.252.933 0 1.692.762 1.692 1.7v18.804H6.699a4.556 4.556 0 0 0-.733-1.757 4.193 4.193 0 0 0 2.949-1.243l-1.197-1.201a2.517 2.517 0 0 1-1.795.746c-1.376 0-2.538-1.193-2.538-2.605 0-.375.079-.735.23-1.066.464.14.954.216 1.462.216.685 0 1.35-.135 1.976-.4l-.659-1.566a3.35 3.35 0 0 1-1.317.267 3.395 3.395 0 0 1-3.385-3.399c0-.982.428-1.91 1.147-2.549z"/>
        <path d="M16.923 11.895h1.692a8.497 8.497 0 0 0-3.76-7.065l-.941 1.412a6.8 6.8 0 0 1 3.01 5.653z"/>
    </g>
</svg>
