<svg id="Layer_1" data-name="Layer 1" xmlns="http://www.w3.org/2000/svg" viewBox="0 0 57 57"><defs><style>.cls-1,.cls-2{fill:none;stroke:#ffd923;}.cls-1{stroke-linecap:round;stroke-linejoin:round;stroke-width:1.78px;}.cls-2{stroke-miterlimit:10;stroke-width:1.95px;}.cls-3{fill:#ffd923;}</style></defs><title>1Artboard 1 copy 2</title><path class="cls-1" d="M8.72,21.41l-.31-8.68c-3.94,1.5-6.32,3.45-6.32,5.57V40.16c0,4.75,12,11,26.7,11s26.71-6,26.71-10.76V18.3c0-2-2-3.76-5.42-5.2v8.74"/><path class="cls-2" d="M2.21,18.61s8.65,7.16,27.11,7.16c3.71,0,17-.45,26.18-6.89"/><path class="cls-3" d="M16.44,9.52a3.25,3.25,0,0,1,.85-2.59A4.11,4.11,0,0,1,20,6.28c2.31,0,3.39.94,3.39,3.3,0,1.17-.34,2.55-1.69,2.74v0c1.62.3,1.88,1.58,1.88,3,0,2.56-1.36,3.6-3.86,3.6s-3.41-.87-3.41-3.51h2.5c0,.82,0,1.7,1.05,1.7s1.22-1,1.22-1.91c0-1.79-.58-1.9-2.32-1.9v-2c1.63.07,2.13-.1,2.13-1.82,0-.68-.11-1.47-1-1.47s-1,.72-1,1.43Z"/><path class="cls-3" d="M28.74,9.11a1.45,1.45,0,0,0-.16-.79A.76.76,0,0,0,27.87,8c-1.1,0-1.14.55-1.14,3.69a2.52,2.52,0,0,1,2-.85c2.3,0,2.75,2,2.75,3.93,0,2.57-.94,4.22-3.73,4.22-3.22,0-3.46-2.76-3.46-5.3,0-4.93.27-7.39,3.8-7.39,1.88,0,3.28.8,3.26,2.83ZM29,14.77c0-1.56-.2-2.25-1.14-2.25s-1,.9-1,2.46c0,.73,0,2.18,1,2.18C28.67,17.16,29,16.69,29,14.77Z"/><path class="cls-3" d="M39.34,12.59c0,3.88-.25,6.38-3.59,6.38s-3.58-2.5-3.58-6.38c0-4.73.53-6.31,3.58-6.31S39.34,7.86,39.34,12.59Zm-4.67,0c0,3.74.09,4.53,1.08,4.53s1.08-.79,1.08-4.53,0-4.54-1.08-4.54S34.67,8.81,34.67,12.63Z"/><path class="cls-3" d="M43.23,11.6a2.66,2.66,0,1,1,2.66-2.66A2.66,2.66,0,0,1,43.23,11.6Zm0-1.4a1.24,1.24,0,0,0,1.24-1.26,1.26,1.26,0,1,0-1.24,1.26Z"/></svg>