<svg id="Layer_1" data-name="Layer 1" xmlns="http://www.w3.org/2000/svg" viewBox="0 0 57 57"><defs><style>.cls-1{fill:none;stroke:#ffd923;stroke-miterlimit:10;stroke-width:2px;}</style></defs><title>1Artboard 1 copy 8</title><path class="cls-1" d="M3.23,22.59c5.2,0,5.2,3.89,10.4,3.89s5.2-3.89,10.4-3.89,5.2,3.89,10.41,3.89,5.2-3.89,10.4-3.89,5.21,3.89,10.41,3.89"/><path class="cls-1" d="M3.23,29.26c5.2,0,5.2,3.89,10.4,3.89s5.2-3.89,10.4-3.89,5.2,3.89,10.41,3.89,5.2-3.89,10.4-3.89,5.21,3.89,10.41,3.89"/><path class="cls-1" d="M3.23,35.93c5.2,0,5.2,3.89,10.4,3.89s5.2-3.89,10.4-3.89,5.2,3.89,10.41,3.89,5.2-3.89,10.4-3.89,5.21,3.89,10.41,3.89"/><path class="cls-1" d="M3.23,42.59c5.2,0,5.2,3.89,10.4,3.89s5.2-3.89,10.4-3.89,5.2,3.89,10.41,3.89,5.2-3.89,10.4-3.89,5.21,3.89,10.41,3.89"/></svg>