<svg id="Layer_1" data-name="Layer 1" xmlns="http://www.w3.org/2000/svg" viewBox="0 0 57 57"><defs><style>.cls-1{fill:#ffd923;}</style></defs><title>1Artboard 1 copy 5</title><path class="cls-1" d="M28.09,1.33a27.09,27.09,0,0,0-17,5.92A27.41,27.41,0,0,0,1.47,35.08a1.16,1.16,0,0,0,0,.18,27.39,27.39,0,0,0,53.8-3.37A27.39,27.39,0,0,0,28.09,1.33ZM29.43,26a30,30,0,0,1-12.1.4C19,14,30.14,4.92,32.07,3.43A25.45,25.45,0,0,1,44.44,9C37,13.34,31.45,19.57,29.43,26ZM3.34,22.3a31.87,31.87,0,0,0,19.08,6.32,31.73,31.73,0,0,0,6.85-.75,30,30,0,0,1,7,11.72,54.24,54.24,0,0,1-10.86,1c-6,0-14.74-1.16-22.28-6.17A25.86,25.86,0,0,1,3.34,22.3ZM12.22,8.65A25.35,25.35,0,0,1,28.09,3.13c.49,0,1,0,1.46,0a50,50,0,0,0-5.4,5.4C20.8,12.47,16.61,18.65,15.57,26A29.93,29.93,0,0,1,3.89,20.46,25.46,25.46,0,0,1,12.22,8.65ZM8,44.61A25.34,25.34,0,0,1,3.88,37c7.49,4.36,15.76,5.37,21.59,5.4h.38a54.72,54.72,0,0,0,10.94-1.07,29.44,29.44,0,0,1,.7,11.23A25.64,25.64,0,0,1,8,44.61Zm36,4.18a26,26,0,0,1-4.6,2.92A31.91,31.91,0,0,0,31,27.06a24.67,24.67,0,0,1,6.33-10.33c1.73,1.6,11.4,11.21,12,26.28A25.52,25.52,0,0,1,44,48.79Zm9.54-17.11a25.72,25.72,0,0,1-2.59,8.63,40.75,40.75,0,0,0-6.48-17.74,39.67,39.67,0,0,0-5.86-7.09,38.19,38.19,0,0,1,7.25-5.2,24.68,24.68,0,0,1,2.32,2.56A25.39,25.39,0,0,1,53.53,31.68Z"/><path class="cls-1" d="M36.8,20.32a.89.89,0,1,0-1.33,1.19A41.45,41.45,0,0,1,41.8,31a.9.9,0,0,0,.81.5.92.92,0,0,0,.39-.09.9.9,0,0,0,.42-1.19A43.23,43.23,0,0,0,36.8,20.32Z"/><path class="cls-1" d="M12.91,24l.21,0a.9.9,0,0,0,.87-.69,41.68,41.68,0,0,1,4.14-10.61.9.9,0,0,0-1.56-.88,43.39,43.39,0,0,0-4.33,11.08A.91.91,0,0,0,12.91,24Z"/></svg>