<svg id="Layer_1" data-name="Layer 1" xmlns="http://www.w3.org/2000/svg" viewBox="0 0 57 57"><defs><style>.cls-1{fill:#ffd923;}</style></defs><title>1Artboard 1</title><path class="cls-1" d="M52.8,35.66v.08a2.6,2.6,0,0,1-.8,1.95,5.16,5.16,0,0,1-.63.21l-.61.1c1.43-9.63.63-21.1.5-22.84h1.1c.29,0,.47.33.51.65.88,7.28,1,10.57-.06,19.84M48.56,38.6,45.32,40l-1.74.76C31.73,45.21,23,45,10.28,39.78c-.17-.08-1.83-.82-2.6-1.15a6.33,6.33,0,0,0-1.07-.39c-1.55-9.86-.65-22-.55-23.19a6.49,6.49,0,0,0,1-.49c.2-.12.62-.33,1.18-.59l.05,0,.34-.17.08,0,.13-.05.28-.13c1-.42,2.1-.81,3.16-1.16,0,0,0,.1,0,.15l.12.53c.4,1.84.81,3.75,1.08,5.64a4.45,4.45,0,0,0,2.59,3.14,34.5,34.5,0,0,0,12,2.18,34.46,34.46,0,0,0,12-2.18h0a4.47,4.47,0,0,0,2.57-3.15c.28-1.88.69-3.79,1.09-5.64l.11-.51,0-.19c1.06.35,2.11.74,3.12,1.15l.32.14.13.05,0,0,.36.18.06,0c.71.34,1,.51,1.18.59a6,6,0,0,0,1.06.5h-.06c0,.13,1.08,12.84-.53,23.19a7.48,7.48,0,0,0-1.06.38M28,47.53c-5.07,0-5.74-.29-6.15-2.38a36.87,36.87,0,0,0,6.47.58,36.35,36.35,0,0,0,5.85-.48c-.43,2.28-1.38,2.28-6.17,2.28M4.89,37.92a5.12,5.12,0,0,1-.64-.2,2.66,2.66,0,0,1-.79-2v-.07c-1-9.27-1-12.56-.06-19.84,0-.32.21-.66.5-.66H5c-.16,2.1-.9,13.38.52,22.84l-.59-.11M34.09,8.21a6,6,0,0,1-11.93,0,30.7,30.7,0,0,1,11.93,0m8,4-.11.51c-.41,1.88-.82,3.83-1.11,5.76a2.67,2.67,0,0,1-1.44,1.73,32.34,32.34,0,0,1-22.69,0,2.67,2.67,0,0,1-1.44-1.73c-.29-1.93-.71-3.87-1.11-5.75l-.12-.53a1,1,0,0,1,0-.42l.12-.24a1.91,1.91,0,0,1,.86-.85l.31-.17h0a27.15,27.15,0,0,1,5.65-2,7.11,7.11,0,0,0,14.06,0,27.55,27.55,0,0,1,6,2.17,1.94,1.94,0,0,1,.85.85l.1.18a1.07,1.07,0,0,1,.05.52M54.66,15.6a2.42,2.42,0,0,0-2.31-2.25H51.07a2,2,0,0,1-1-.39c-.25-.14-.67-.35-1.28-.64a4.66,4.66,0,0,0-.5-.25L48.13,12l-.37-.16c-1.42-.57-2.87-1.09-4.32-1.54a3.73,3.73,0,0,0-1.51-1.38,31.53,31.53,0,0,0-27.6,0,3.69,3.69,0,0,0-1.54,1.41c-1.45.45-2.9,1-4.34,1.55L8.12,12,8,12.11a4,4,0,0,0-.47.23c-.6.29-1,.5-1.29.65a2.12,2.12,0,0,1-1,.39H3.89a2.41,2.41,0,0,0-2.3,2.25c-.91,7.45-1,10.81.06,20.26V36a4.2,4.2,0,0,0,1.68,3.33,5.81,5.81,0,0,0,1.23.43l.85.15A4.76,4.76,0,0,1,7,40.3c.8.34,2.59,1.14,2.59,1.14h0a64.22,64.22,0,0,0,10.33,3.33c.73,4.13,2.26,4.57,8,4.57h0c5.18,0,7.39,0,8.05-4.45a54,54,0,0,0,8.21-2.44l1.8-.78,3.24-1.41a4.63,4.63,0,0,1,1.55-.44l.85-.15a5.6,5.6,0,0,0,1.23-.43,4.17,4.17,0,0,0,1.68-3.33v-.06c1.06-9.45,1-12.81.06-20.26"/><path class="cls-1" d="M16.24,33.55a2.82,2.82,0,0,1-2.68-3.71,2.73,2.73,0,0,1,1.78-1.78,2.82,2.82,0,1,1,.9,5.49m0-7.44a4.63,4.63,0,1,0,4.62,4.63,4.64,4.64,0,0,0-4.62-4.63"/><path class="cls-1" d="M39.7,33.55A2.82,2.82,0,0,1,37,29.84a2.73,2.73,0,0,1,1.78-1.78,2.82,2.82,0,1,1,.89,5.49m0-7.44a4.63,4.63,0,1,0,4.63,4.63,4.63,4.63,0,0,0-4.63-4.63"/><path class="cls-1" d="M25.64,35.84a2.33,2.33,0,0,0,4.66,0v-.9H25.64Z"/><path class="cls-1" d="M28.93,18.13H27.32a1.07,1.07,0,0,0,0,2.14h1.61a1.07,1.07,0,0,0,0-2.14"/></svg>