<svg xmlns="http://www.w3.org/2000/svg" width="29" height="26" viewBox="0 0 29 26">
    <path fill="#FFD923" fill-rule="nonzero" d="M28.65 7.171a2.919 2.919 0 0 0-1.745-1.41 2.963 2.963 0 0 0-2.244.22 2.898 2.898 0 0 0-1.43 1.72 2.85 2.85 0 0 0-.048 1.5l-3.182 1.681a6.124 6.124 0 0 0-4.21-2.49V5.715c1.255-.334 2.181-1.465 2.181-2.807C17.972 1.304 16.65 0 15.025 0s-2.947 1.304-2.947 2.907c0 1.342.926 2.473 2.18 2.807v2.678a6.11 6.11 0 0 0-4.883 3.691l-3.482-.925c0-.504-.13-1.002-.39-1.45a2.923 2.923 0 0 0-1.788-1.357c-1.57-.417-3.19.503-3.612 2.05a2.854 2.854 0 0 0 .291 2.207 2.923 2.923 0 0 0 1.787 1.357 2.962 2.962 0 0 0 3.313-1.347l3.483.926a5.942 5.942 0 0 0 1.225 4.514l-2.553 2.519a2.98 2.98 0 0 0-3.552.461 2.883 2.883 0 0 0 0 4.112c.575.567 1.33.85 2.084.85s1.509-.283 2.084-.85a2.88 2.88 0 0 0 .468-3.504l2.553-2.519a6.128 6.128 0 0 0 3.74 1.267 6.128 6.128 0 0 0 3.739-1.267l2.553 2.52a2.88 2.88 0 0 0 .468 3.503c.574.567 1.329.85 2.084.85.754 0 1.509-.283 2.083-.85a2.883 2.883 0 0 0 0-4.112 2.98 2.98 0 0 0-3.55-.461l-2.554-2.52a5.942 5.942 0 0 0 .879-5.843l3.18-1.68c.348.368.789.643 1.29.792a2.964 2.964 0 0 0 2.244-.22 2.897 2.897 0 0 0 1.43-1.72 2.854 2.854 0 0 0-.223-2.215zm-1.931 2.602a1.42 1.42 0 0 1-1.077.105 1.4 1.4 0 0 1-.836-.676 1.39 1.39 0 0 1 .579-1.888 1.421 1.421 0 0 1 1.913.571 1.389 1.389 0 0 1-.579 1.888zm-7.12 4.596c0 2.488-2.052 4.512-4.574 4.512s-4.574-2.024-4.574-4.512c0-2.489 2.052-4.513 4.574-4.513S19.6 11.88 19.6 14.369zM13.611 2.907c0-.769.635-1.394 1.414-1.394.78 0 1.414.625 1.414 1.394 0 .77-.634 1.395-1.414 1.395-.78 0-1.414-.626-1.414-1.395zm-11.03 9.598a1.402 1.402 0 0 1-.858-.651 1.369 1.369 0 0 1-.14-1.059 1.417 1.417 0 0 1 1.733-.984c.364.097.669.329.857.651.189.323.238.7.14 1.059a1.417 1.417 0 0 1-1.733.984zm4.6 11.575a1.43 1.43 0 0 1-2 0 1.383 1.383 0 0 1 0-1.972 1.42 1.42 0 0 1 1-.408c.362 0 .724.136 1 .408a1.383 1.383 0 0 1 0 1.972zm17.688-1.972a1.383 1.383 0 0 1 0 1.972 1.43 1.43 0 0 1-2 0 1.383 1.383 0 0 1 0-1.972 1.42 1.42 0 0 1 1-.408c.362 0 .725.136 1 .408z"/>
</svg>
