<svg xmlns="http://www.w3.org/2000/svg" width="236" height="206" viewBox="0 0 236 206">
    <path fill="#FFD923" fill-rule="nonzero" d="M44.344 163.898L6.013 202.24H3.758v-3.007l38.331-38.343V45.86H3.758v156.38h108.23c30.592 0 57.08-17.58 69.917-43.192-8.688 3.138-18.059 4.849-27.829 4.849H44.344zM42.089 5.263L5.261 42.103H42.09V5.262zm0-5.263h111.987C199.322 0 236 36.69 236 81.949c0 33.537-20.14 62.37-48.982 75.054-12.68 28.85-41.504 48.997-75.03 48.997H0V42.102L42.09 0zm142.067 154.14c3.863-9.262 5.997-19.426 5.997-30.089 0-43.183-34.996-78.19-78.166-78.19h-66.14V160.14h108.23c10.659 0 20.82-2.135 30.079-6zm4.907-2.252c25.604-12.841 43.179-39.337 43.179-69.94 0-43.182-34.996-78.189-78.166-78.189H45.847v38.343h66.14c45.245 0 81.924 36.69 81.924 81.95 0 9.772-1.71 19.145-4.848 27.836z"/>
</svg>
