<svg xmlns="http://www.w3.org/2000/svg" width="133" height="116" viewBox="0 0 133 116">
    <path fill="#FFD923" fill-rule="nonzero" d="M24.99 92.292L3.39 113.883H2.118v-1.693L23.72 90.599V25.825H2.118v88.058H63.11c17.241 0 32.169-9.9 39.403-24.322a46.105 46.105 0 0 1-15.683 2.731h-61.84zM23.72 2.964L2.965 23.708H23.72V2.964zm0-2.964H86.83C112.33 0 133 20.66 133 46.146c0 18.885-11.35 35.12-27.604 42.264C98.249 104.656 82.006 116 63.111 116H0V23.708L23.72 0zm80.063 86.797a43.876 43.876 0 0 0 3.38-16.943c0-24.317-19.723-44.03-44.052-44.03H25.838v64.351H86.83a43.936 43.936 0 0 0 16.952-3.378zm2.765-1.268c14.43-7.23 24.334-22.15 24.334-39.383 0-24.317-19.722-44.03-44.05-44.03H25.837v21.592H63.11c25.499 0 46.17 20.66 46.17 46.146 0 5.503-.965 10.781-2.733 15.675z"/>
</svg>
